%TF.GenerationSoftware,KiCad,Pcbnew,(5.1.10)-1*%
%TF.CreationDate,2021-11-20T18:22:11+01:00*%
%TF.ProjectId,MRAMP00_PowerSupply,4d52414d-5030-4305-9f50-6f7765725375,rev?*%
%TF.SameCoordinates,Original*%
%TF.FileFunction,Legend,Top*%
%TF.FilePolarity,Positive*%
%FSLAX46Y46*%
G04 Gerber Fmt 4.6, Leading zero omitted, Abs format (unit mm)*
G04 Created by KiCad (PCBNEW (5.1.10)-1) date 2021-11-20 18:22:11*
%MOMM*%
%LPD*%
G01*
G04 APERTURE LIST*
%ADD10C,0.200000*%
%ADD11C,0.120000*%
%ADD12C,0.254000*%
%ADD13C,0.150000*%
G04 APERTURE END LIST*
D10*
%TO.C,BR1*%
X-622424000Y21242000D02*
X-623924000Y21242000D01*
X-622424000Y942000D02*
X-622424000Y21242000D01*
X-626124000Y942000D02*
X-622424000Y942000D01*
D11*
%TO.C,J12*%
X-631168000Y33878000D02*
X-631168000Y33278000D01*
X-631768000Y33578000D02*
X-631168000Y33878000D01*
X-631168000Y33278000D02*
X-631768000Y33578000D01*
X-639078000Y15628000D02*
X-639078000Y16578000D01*
X-633778000Y15628000D02*
X-639078000Y15628000D01*
X-633778000Y36528000D02*
X-633778000Y15628000D01*
X-639078000Y36528000D02*
X-633778000Y36528000D01*
X-639078000Y35578000D02*
X-639078000Y36528000D01*
X-639078000Y24078000D02*
X-639078000Y20578000D01*
X-639078000Y31578000D02*
X-639078000Y28078000D01*
X-633778000Y17578000D02*
X-633778000Y19578000D01*
X-631968000Y17578000D02*
X-633778000Y17578000D01*
X-631968000Y19578000D02*
X-631968000Y17578000D01*
X-633778000Y19578000D02*
X-631968000Y19578000D01*
X-633778000Y25078000D02*
X-633778000Y27078000D01*
X-631968000Y25078000D02*
X-633778000Y25078000D01*
X-631968000Y27078000D02*
X-631968000Y25078000D01*
X-633778000Y27078000D02*
X-631968000Y27078000D01*
X-633778000Y32578000D02*
X-633778000Y34578000D01*
X-631968000Y32578000D02*
X-633778000Y32578000D01*
X-631968000Y34578000D02*
X-631968000Y32578000D01*
X-633778000Y34578000D02*
X-631968000Y34578000D01*
X-632778000Y25078000D02*
X-632778000Y19578000D01*
X-632778000Y32578000D02*
X-632778000Y27078000D01*
X-632778000Y14718000D02*
X-632778000Y17468000D01*
X-632778000Y37438000D02*
X-632778000Y34688000D01*
X-631968000Y14718000D02*
X-631968000Y37438000D01*
X-640788000Y14718000D02*
X-631968000Y14718000D01*
X-640788000Y37438000D02*
X-640788000Y14718000D01*
X-631968000Y37438000D02*
X-640788000Y37438000D01*
X-639093821Y16591159D02*
G75*
G02*
X-639078000Y20578000I1665821J1986841D01*
G01*
X-639093821Y24091159D02*
G75*
G02*
X-639078000Y28078000I1665821J1986841D01*
G01*
X-639093821Y31591159D02*
G75*
G02*
X-639078000Y35578000I1665821J1986841D01*
G01*
%TO.C,R26*%
X-548808000Y12895064D02*
X-548808000Y8540936D01*
X-552228000Y12895064D02*
X-552228000Y8540936D01*
%TO.C,R20*%
X-598846000Y16959064D02*
X-598846000Y12604936D01*
X-602266000Y16959064D02*
X-602266000Y12604936D01*
%TO.C,R17*%
X-552228000Y17938936D02*
X-552228000Y22293064D01*
X-548808000Y17938936D02*
X-548808000Y22293064D01*
%TO.C,R15*%
X-594900000Y12604936D02*
X-594900000Y16959064D01*
X-591480000Y12604936D02*
X-591480000Y16959064D01*
%TO.C,R14*%
X-531870000Y21648936D02*
X-531870000Y23103064D01*
X-530050000Y21648936D02*
X-530050000Y23103064D01*
%TO.C,R13*%
X-569856936Y13872000D02*
X-571311064Y13872000D01*
X-569856936Y15692000D02*
X-571311064Y15692000D01*
%TO.C,R12*%
X-535600000Y26357064D02*
X-535600000Y22002936D01*
X-539020000Y26357064D02*
X-539020000Y22002936D01*
%TO.C,L2*%
X-589916000Y-10058000D02*
X-589916000Y-7058000D01*
X-589916000Y-10058000D02*
X-590916000Y-10058000D01*
X-590296000Y8562000D02*
X-590296000Y-9678000D01*
X-603036000Y8562000D02*
X-590296000Y8562000D01*
X-603036000Y-9678000D02*
X-603036000Y8562000D01*
X-590296000Y-9678000D02*
X-603036000Y-9678000D01*
%TO.C,L1*%
X-604902000Y610000D02*
X-604902000Y3610000D01*
X-604902000Y610000D02*
X-605902000Y610000D01*
X-605282000Y19230000D02*
X-605282000Y990000D01*
X-618022000Y19230000D02*
X-605282000Y19230000D01*
X-618022000Y990000D02*
X-618022000Y19230000D01*
X-605282000Y990000D02*
X-618022000Y990000D01*
%TO.C,U6*%
X-496884000Y7028000D02*
X-507124000Y7028000D01*
X-496884000Y-8862000D02*
X-507124000Y-8862000D01*
X-496884000Y-8862000D02*
X-496884000Y7028000D01*
X-507124000Y-8862000D02*
X-507124000Y7028000D01*
X-499464000Y7028000D02*
X-499464000Y9568000D01*
X-502004000Y7028000D02*
X-502004000Y9568000D01*
X-504544000Y7028000D02*
X-504544000Y9568000D01*
%TO.C,U5*%
X-510600000Y7028000D02*
X-520840000Y7028000D01*
X-510600000Y-8862000D02*
X-520840000Y-8862000D01*
X-510600000Y-8862000D02*
X-510600000Y7028000D01*
X-520840000Y-8862000D02*
X-520840000Y7028000D01*
X-513180000Y7028000D02*
X-513180000Y9568000D01*
X-515720000Y7028000D02*
X-515720000Y9568000D01*
X-518260000Y7028000D02*
X-518260000Y9568000D01*
%TO.C,J13*%
X-481768000Y1524000D02*
X-472948000Y1524000D01*
X-472948000Y1524000D02*
X-472948000Y24244000D01*
X-472948000Y24244000D02*
X-481768000Y24244000D01*
X-481768000Y24244000D02*
X-481768000Y1524000D01*
X-480958000Y1524000D02*
X-480958000Y4274000D01*
X-480958000Y24244000D02*
X-480958000Y21494000D01*
X-480958000Y6384000D02*
X-480958000Y11884000D01*
X-480958000Y13884000D02*
X-480958000Y19384000D01*
X-479958000Y4384000D02*
X-481768000Y4384000D01*
X-481768000Y4384000D02*
X-481768000Y6384000D01*
X-481768000Y6384000D02*
X-479958000Y6384000D01*
X-479958000Y6384000D02*
X-479958000Y4384000D01*
X-479958000Y11884000D02*
X-481768000Y11884000D01*
X-481768000Y11884000D02*
X-481768000Y13884000D01*
X-481768000Y13884000D02*
X-479958000Y13884000D01*
X-479958000Y13884000D02*
X-479958000Y11884000D01*
X-479958000Y19384000D02*
X-481768000Y19384000D01*
X-481768000Y19384000D02*
X-481768000Y21384000D01*
X-481768000Y21384000D02*
X-479958000Y21384000D01*
X-479958000Y21384000D02*
X-479958000Y19384000D01*
X-474658000Y7384000D02*
X-474658000Y10884000D01*
X-474658000Y14884000D02*
X-474658000Y18384000D01*
X-474658000Y3384000D02*
X-474658000Y2434000D01*
X-474658000Y2434000D02*
X-479958000Y2434000D01*
X-479958000Y2434000D02*
X-479958000Y23334000D01*
X-479958000Y23334000D02*
X-474658000Y23334000D01*
X-474658000Y23334000D02*
X-474658000Y22384000D01*
X-482568000Y5684000D02*
X-481968000Y5384000D01*
X-481968000Y5384000D02*
X-482568000Y5084000D01*
X-482568000Y5084000D02*
X-482568000Y5684000D01*
X-474642179Y22370841D02*
G75*
G02*
X-474658000Y18384000I-1665821J-1986841D01*
G01*
X-474642179Y14870841D02*
G75*
G02*
X-474658000Y10884000I-1665821J-1986841D01*
G01*
X-474642179Y7370841D02*
G75*
G02*
X-474658000Y3384000I-1665821J-1986841D01*
G01*
%TO.C,J11*%
X-500517000Y29474000D02*
X-500517000Y35234000D01*
X-499097000Y29474000D02*
X-500517000Y29474000D01*
X-499097000Y29974000D02*
X-499097000Y29474000D01*
X-489067000Y29974000D02*
X-499097000Y29974000D01*
X-489067000Y29474000D02*
X-489067000Y29974000D01*
X-487647000Y29474000D02*
X-489067000Y29474000D01*
X-487647000Y35234000D02*
X-487647000Y29474000D01*
X-500517000Y37064000D02*
X-500517000Y36754000D01*
X-487647000Y37064000D02*
X-500517000Y37064000D01*
X-487647000Y36754000D02*
X-487647000Y37064000D01*
%TO.C,J10*%
X-556069000Y-1688000D02*
X-556069000Y-7448000D01*
X-557489000Y-1688000D02*
X-556069000Y-1688000D01*
X-557489000Y-2188000D02*
X-557489000Y-1688000D01*
X-567519000Y-2188000D02*
X-557489000Y-2188000D01*
X-567519000Y-1688000D02*
X-567519000Y-2188000D01*
X-568939000Y-1688000D02*
X-567519000Y-1688000D01*
X-568939000Y-7448000D02*
X-568939000Y-1688000D01*
X-556069000Y-9278000D02*
X-556069000Y-8968000D01*
X-568939000Y-9278000D02*
X-556069000Y-9278000D01*
X-568939000Y-8968000D02*
X-568939000Y-9278000D01*
%TO.C,J9*%
X-523049000Y-1180000D02*
X-523049000Y-6940000D01*
X-524469000Y-1180000D02*
X-523049000Y-1180000D01*
X-524469000Y-1680000D02*
X-524469000Y-1180000D01*
X-534499000Y-1680000D02*
X-524469000Y-1680000D01*
X-534499000Y-1180000D02*
X-534499000Y-1680000D01*
X-535919000Y-1180000D02*
X-534499000Y-1180000D01*
X-535919000Y-6940000D02*
X-535919000Y-1180000D01*
X-523049000Y-8770000D02*
X-523049000Y-8460000D01*
X-535919000Y-8770000D02*
X-523049000Y-8770000D01*
X-535919000Y-8460000D02*
X-535919000Y-8770000D01*
%TO.C,J8*%
X-609663000Y-2196000D02*
X-609663000Y-7956000D01*
X-611083000Y-2196000D02*
X-609663000Y-2196000D01*
X-611083000Y-2696000D02*
X-611083000Y-2196000D01*
X-621113000Y-2696000D02*
X-611083000Y-2696000D01*
X-621113000Y-2196000D02*
X-621113000Y-2696000D01*
X-622533000Y-2196000D02*
X-621113000Y-2196000D01*
X-622533000Y-7956000D02*
X-622533000Y-2196000D01*
X-609663000Y-9786000D02*
X-609663000Y-9476000D01*
X-622533000Y-9786000D02*
X-609663000Y-9786000D01*
X-622533000Y-9476000D02*
X-622533000Y-9786000D01*
%TO.C,J7*%
X-516011000Y29474000D02*
X-516011000Y35234000D01*
X-514591000Y29474000D02*
X-516011000Y29474000D01*
X-514591000Y29974000D02*
X-514591000Y29474000D01*
X-504561000Y29974000D02*
X-514591000Y29974000D01*
X-504561000Y29474000D02*
X-504561000Y29974000D01*
X-503141000Y29474000D02*
X-504561000Y29474000D01*
X-503141000Y35234000D02*
X-503141000Y29474000D01*
X-516011000Y37064000D02*
X-516011000Y36754000D01*
X-503141000Y37064000D02*
X-516011000Y37064000D01*
X-503141000Y36754000D02*
X-503141000Y37064000D01*
%TO.C,J6*%
X-548777000Y29728000D02*
X-548777000Y35488000D01*
X-547357000Y29728000D02*
X-548777000Y29728000D01*
X-547357000Y30228000D02*
X-547357000Y29728000D01*
X-537327000Y30228000D02*
X-547357000Y30228000D01*
X-537327000Y29728000D02*
X-537327000Y30228000D01*
X-535907000Y29728000D02*
X-537327000Y29728000D01*
X-535907000Y35488000D02*
X-535907000Y29728000D01*
X-548777000Y37318000D02*
X-548777000Y37008000D01*
X-535907000Y37318000D02*
X-548777000Y37318000D01*
X-535907000Y37008000D02*
X-535907000Y37318000D01*
%TO.C,J5*%
X-586382000Y-628000D02*
X-586382000Y-9448000D01*
X-586382000Y-9448000D02*
X-571162000Y-9448000D01*
X-571162000Y-9448000D02*
X-571162000Y-628000D01*
X-571162000Y-628000D02*
X-586382000Y-628000D01*
X-586382000Y-1438000D02*
X-583632000Y-1438000D01*
X-571162000Y-1438000D02*
X-573912000Y-1438000D01*
X-581522000Y-1438000D02*
X-576022000Y-1438000D01*
X-583522000Y-2438000D02*
X-583522000Y-628000D01*
X-583522000Y-628000D02*
X-581522000Y-628000D01*
X-581522000Y-628000D02*
X-581522000Y-2438000D01*
X-581522000Y-2438000D02*
X-583522000Y-2438000D01*
X-576022000Y-2438000D02*
X-576022000Y-628000D01*
X-576022000Y-628000D02*
X-574022000Y-628000D01*
X-574022000Y-628000D02*
X-574022000Y-2438000D01*
X-574022000Y-2438000D02*
X-576022000Y-2438000D01*
X-580522000Y-7738000D02*
X-577022000Y-7738000D01*
X-584522000Y-7738000D02*
X-585472000Y-7738000D01*
X-585472000Y-7738000D02*
X-585472000Y-2438000D01*
X-585472000Y-2438000D02*
X-572072000Y-2438000D01*
X-572072000Y-2438000D02*
X-572072000Y-7738000D01*
X-572072000Y-7738000D02*
X-573022000Y-7738000D01*
X-582222000Y172000D02*
X-582522000Y-428000D01*
X-582522000Y-428000D02*
X-582822000Y172000D01*
X-582822000Y172000D02*
X-582222000Y172000D01*
X-573035159Y-7753821D02*
G75*
G02*
X-577022000Y-7738000I-1986841J1665821D01*
G01*
X-580535159Y-7753821D02*
G75*
G02*
X-584522000Y-7738000I-1986841J1665821D01*
G01*
%TO.C,J4*%
X-553616000Y-120000D02*
X-553616000Y-8940000D01*
X-553616000Y-8940000D02*
X-538396000Y-8940000D01*
X-538396000Y-8940000D02*
X-538396000Y-120000D01*
X-538396000Y-120000D02*
X-553616000Y-120000D01*
X-553616000Y-930000D02*
X-550866000Y-930000D01*
X-538396000Y-930000D02*
X-541146000Y-930000D01*
X-548756000Y-930000D02*
X-543256000Y-930000D01*
X-550756000Y-1930000D02*
X-550756000Y-120000D01*
X-550756000Y-120000D02*
X-548756000Y-120000D01*
X-548756000Y-120000D02*
X-548756000Y-1930000D01*
X-548756000Y-1930000D02*
X-550756000Y-1930000D01*
X-543256000Y-1930000D02*
X-543256000Y-120000D01*
X-543256000Y-120000D02*
X-541256000Y-120000D01*
X-541256000Y-120000D02*
X-541256000Y-1930000D01*
X-541256000Y-1930000D02*
X-543256000Y-1930000D01*
X-547756000Y-7230000D02*
X-544256000Y-7230000D01*
X-551756000Y-7230000D02*
X-552706000Y-7230000D01*
X-552706000Y-7230000D02*
X-552706000Y-1930000D01*
X-552706000Y-1930000D02*
X-539306000Y-1930000D01*
X-539306000Y-1930000D02*
X-539306000Y-7230000D01*
X-539306000Y-7230000D02*
X-540256000Y-7230000D01*
X-549456000Y680000D02*
X-549756000Y80000D01*
X-549756000Y80000D02*
X-550056000Y680000D01*
X-550056000Y680000D02*
X-549456000Y680000D01*
X-540269159Y-7245821D02*
G75*
G02*
X-544256000Y-7230000I-1986841J1665821D01*
G01*
X-547769159Y-7245821D02*
G75*
G02*
X-551756000Y-7230000I-1986841J1665821D01*
G01*
%TO.C,J3*%
X-632222000Y13308000D02*
X-641042000Y13308000D01*
X-641042000Y13308000D02*
X-641042000Y-1912000D01*
X-641042000Y-1912000D02*
X-632222000Y-1912000D01*
X-632222000Y-1912000D02*
X-632222000Y13308000D01*
X-633032000Y13308000D02*
X-633032000Y10558000D01*
X-633032000Y-1912000D02*
X-633032000Y838000D01*
X-633032000Y8448000D02*
X-633032000Y2948000D01*
X-634032000Y10448000D02*
X-632222000Y10448000D01*
X-632222000Y10448000D02*
X-632222000Y8448000D01*
X-632222000Y8448000D02*
X-634032000Y8448000D01*
X-634032000Y8448000D02*
X-634032000Y10448000D01*
X-634032000Y2948000D02*
X-632222000Y2948000D01*
X-632222000Y2948000D02*
X-632222000Y948000D01*
X-632222000Y948000D02*
X-634032000Y948000D01*
X-634032000Y948000D02*
X-634032000Y2948000D01*
X-639332000Y7448000D02*
X-639332000Y3948000D01*
X-639332000Y11448000D02*
X-639332000Y12398000D01*
X-639332000Y12398000D02*
X-634032000Y12398000D01*
X-634032000Y12398000D02*
X-634032000Y-1002000D01*
X-634032000Y-1002000D02*
X-639332000Y-1002000D01*
X-639332000Y-1002000D02*
X-639332000Y-52000D01*
X-631422000Y9148000D02*
X-632022000Y9448000D01*
X-632022000Y9448000D02*
X-631422000Y9748000D01*
X-631422000Y9748000D02*
X-631422000Y9148000D01*
X-639347821Y-38841D02*
G75*
G02*
X-639332000Y3948000I1665821J1986841D01*
G01*
X-639347821Y7461159D02*
G75*
G02*
X-639332000Y11448000I1665821J1986841D01*
G01*
%TO.C,J2*%
X-518464000Y28414000D02*
X-518464000Y37234000D01*
X-518464000Y37234000D02*
X-533684000Y37234000D01*
X-533684000Y37234000D02*
X-533684000Y28414000D01*
X-533684000Y28414000D02*
X-518464000Y28414000D01*
X-518464000Y29224000D02*
X-521214000Y29224000D01*
X-533684000Y29224000D02*
X-530934000Y29224000D01*
X-523324000Y29224000D02*
X-528824000Y29224000D01*
X-521324000Y30224000D02*
X-521324000Y28414000D01*
X-521324000Y28414000D02*
X-523324000Y28414000D01*
X-523324000Y28414000D02*
X-523324000Y30224000D01*
X-523324000Y30224000D02*
X-521324000Y30224000D01*
X-528824000Y30224000D02*
X-528824000Y28414000D01*
X-528824000Y28414000D02*
X-530824000Y28414000D01*
X-530824000Y28414000D02*
X-530824000Y30224000D01*
X-530824000Y30224000D02*
X-528824000Y30224000D01*
X-524324000Y35524000D02*
X-527824000Y35524000D01*
X-520324000Y35524000D02*
X-519374000Y35524000D01*
X-519374000Y35524000D02*
X-519374000Y30224000D01*
X-519374000Y30224000D02*
X-532774000Y30224000D01*
X-532774000Y30224000D02*
X-532774000Y35524000D01*
X-532774000Y35524000D02*
X-531824000Y35524000D01*
X-522624000Y27614000D02*
X-522324000Y28214000D01*
X-522324000Y28214000D02*
X-522024000Y27614000D01*
X-522024000Y27614000D02*
X-522624000Y27614000D01*
X-531810841Y35539821D02*
G75*
G02*
X-527824000Y35524000I1986841J-1665821D01*
G01*
X-524310841Y35539821D02*
G75*
G02*
X-520324000Y35524000I1986841J-1665821D01*
G01*
%TO.C,J1*%
X-550976000Y28414000D02*
X-550976000Y37234000D01*
X-550976000Y37234000D02*
X-566196000Y37234000D01*
X-566196000Y37234000D02*
X-566196000Y28414000D01*
X-566196000Y28414000D02*
X-550976000Y28414000D01*
X-550976000Y29224000D02*
X-553726000Y29224000D01*
X-566196000Y29224000D02*
X-563446000Y29224000D01*
X-555836000Y29224000D02*
X-561336000Y29224000D01*
X-553836000Y30224000D02*
X-553836000Y28414000D01*
X-553836000Y28414000D02*
X-555836000Y28414000D01*
X-555836000Y28414000D02*
X-555836000Y30224000D01*
X-555836000Y30224000D02*
X-553836000Y30224000D01*
X-561336000Y30224000D02*
X-561336000Y28414000D01*
X-561336000Y28414000D02*
X-563336000Y28414000D01*
X-563336000Y28414000D02*
X-563336000Y30224000D01*
X-563336000Y30224000D02*
X-561336000Y30224000D01*
X-556836000Y35524000D02*
X-560336000Y35524000D01*
X-552836000Y35524000D02*
X-551886000Y35524000D01*
X-551886000Y35524000D02*
X-551886000Y30224000D01*
X-551886000Y30224000D02*
X-565286000Y30224000D01*
X-565286000Y30224000D02*
X-565286000Y35524000D01*
X-565286000Y35524000D02*
X-564336000Y35524000D01*
X-555136000Y27614000D02*
X-554836000Y28214000D01*
X-554836000Y28214000D02*
X-554536000Y27614000D01*
X-554536000Y27614000D02*
X-555136000Y27614000D01*
X-564322841Y35539821D02*
G75*
G02*
X-560336000Y35524000I1986841J-1665821D01*
G01*
X-556822841Y35539821D02*
G75*
G02*
X-552836000Y35524000I1986841J-1665821D01*
G01*
%TO.C,C16*%
X-511052000Y17576000D02*
G75*
G03*
X-511052000Y17576000I-2620000J0D01*
G01*
X-513672000Y18616000D02*
X-513672000Y20156000D01*
X-513672000Y14996000D02*
X-513672000Y16536000D01*
X-513712000Y18616000D02*
X-513712000Y20156000D01*
X-513712000Y14996000D02*
X-513712000Y16536000D01*
X-513752000Y14997000D02*
X-513752000Y16536000D01*
X-513752000Y18616000D02*
X-513752000Y20155000D01*
X-513792000Y14998000D02*
X-513792000Y16536000D01*
X-513792000Y18616000D02*
X-513792000Y20154000D01*
X-513832000Y15000000D02*
X-513832000Y16536000D01*
X-513832000Y18616000D02*
X-513832000Y20152000D01*
X-513872000Y15003000D02*
X-513872000Y16536000D01*
X-513872000Y18616000D02*
X-513872000Y20149000D01*
X-513912000Y15007000D02*
X-513912000Y16536000D01*
X-513912000Y18616000D02*
X-513912000Y20145000D01*
X-513952000Y15011000D02*
X-513952000Y16536000D01*
X-513952000Y18616000D02*
X-513952000Y20141000D01*
X-513992000Y15015000D02*
X-513992000Y16536000D01*
X-513992000Y18616000D02*
X-513992000Y20137000D01*
X-514032000Y15020000D02*
X-514032000Y16536000D01*
X-514032000Y18616000D02*
X-514032000Y20132000D01*
X-514072000Y15026000D02*
X-514072000Y16536000D01*
X-514072000Y18616000D02*
X-514072000Y20126000D01*
X-514112000Y15033000D02*
X-514112000Y16536000D01*
X-514112000Y18616000D02*
X-514112000Y20119000D01*
X-514152000Y15040000D02*
X-514152000Y16536000D01*
X-514152000Y18616000D02*
X-514152000Y20112000D01*
X-514192000Y15048000D02*
X-514192000Y16536000D01*
X-514192000Y18616000D02*
X-514192000Y20104000D01*
X-514232000Y15056000D02*
X-514232000Y16536000D01*
X-514232000Y18616000D02*
X-514232000Y20096000D01*
X-514272000Y15065000D02*
X-514272000Y16536000D01*
X-514272000Y18616000D02*
X-514272000Y20087000D01*
X-514312000Y15075000D02*
X-514312000Y16536000D01*
X-514312000Y18616000D02*
X-514312000Y20077000D01*
X-514352000Y15085000D02*
X-514352000Y16536000D01*
X-514352000Y18616000D02*
X-514352000Y20067000D01*
X-514393000Y15096000D02*
X-514393000Y16536000D01*
X-514393000Y18616000D02*
X-514393000Y20056000D01*
X-514433000Y15108000D02*
X-514433000Y16536000D01*
X-514433000Y18616000D02*
X-514433000Y20044000D01*
X-514473000Y15121000D02*
X-514473000Y16536000D01*
X-514473000Y18616000D02*
X-514473000Y20031000D01*
X-514513000Y15134000D02*
X-514513000Y16536000D01*
X-514513000Y18616000D02*
X-514513000Y20018000D01*
X-514553000Y15148000D02*
X-514553000Y16536000D01*
X-514553000Y18616000D02*
X-514553000Y20004000D01*
X-514593000Y15162000D02*
X-514593000Y16536000D01*
X-514593000Y18616000D02*
X-514593000Y19990000D01*
X-514633000Y15178000D02*
X-514633000Y16536000D01*
X-514633000Y18616000D02*
X-514633000Y19974000D01*
X-514673000Y15194000D02*
X-514673000Y16536000D01*
X-514673000Y18616000D02*
X-514673000Y19958000D01*
X-514713000Y15211000D02*
X-514713000Y16536000D01*
X-514713000Y18616000D02*
X-514713000Y19941000D01*
X-514753000Y15228000D02*
X-514753000Y16536000D01*
X-514753000Y18616000D02*
X-514753000Y19924000D01*
X-514793000Y15247000D02*
X-514793000Y16536000D01*
X-514793000Y18616000D02*
X-514793000Y19905000D01*
X-514833000Y15266000D02*
X-514833000Y16536000D01*
X-514833000Y18616000D02*
X-514833000Y19886000D01*
X-514873000Y15286000D02*
X-514873000Y16536000D01*
X-514873000Y18616000D02*
X-514873000Y19866000D01*
X-514913000Y15308000D02*
X-514913000Y16536000D01*
X-514913000Y18616000D02*
X-514913000Y19844000D01*
X-514953000Y15329000D02*
X-514953000Y16536000D01*
X-514953000Y18616000D02*
X-514953000Y19823000D01*
X-514993000Y15352000D02*
X-514993000Y16536000D01*
X-514993000Y18616000D02*
X-514993000Y19800000D01*
X-515033000Y15376000D02*
X-515033000Y16536000D01*
X-515033000Y18616000D02*
X-515033000Y19776000D01*
X-515073000Y15401000D02*
X-515073000Y16536000D01*
X-515073000Y18616000D02*
X-515073000Y19751000D01*
X-515113000Y15427000D02*
X-515113000Y16536000D01*
X-515113000Y18616000D02*
X-515113000Y19725000D01*
X-515153000Y15454000D02*
X-515153000Y16536000D01*
X-515153000Y18616000D02*
X-515153000Y19698000D01*
X-515193000Y15481000D02*
X-515193000Y16536000D01*
X-515193000Y18616000D02*
X-515193000Y19671000D01*
X-515233000Y15511000D02*
X-515233000Y16536000D01*
X-515233000Y18616000D02*
X-515233000Y19641000D01*
X-515273000Y15541000D02*
X-515273000Y16536000D01*
X-515273000Y18616000D02*
X-515273000Y19611000D01*
X-515313000Y15572000D02*
X-515313000Y16536000D01*
X-515313000Y18616000D02*
X-515313000Y19580000D01*
X-515353000Y15605000D02*
X-515353000Y16536000D01*
X-515353000Y18616000D02*
X-515353000Y19547000D01*
X-515393000Y15639000D02*
X-515393000Y16536000D01*
X-515393000Y18616000D02*
X-515393000Y19513000D01*
X-515433000Y15675000D02*
X-515433000Y16536000D01*
X-515433000Y18616000D02*
X-515433000Y19477000D01*
X-515473000Y15712000D02*
X-515473000Y16536000D01*
X-515473000Y18616000D02*
X-515473000Y19440000D01*
X-515513000Y15750000D02*
X-515513000Y16536000D01*
X-515513000Y18616000D02*
X-515513000Y19402000D01*
X-515553000Y15791000D02*
X-515553000Y16536000D01*
X-515553000Y18616000D02*
X-515553000Y19361000D01*
X-515593000Y15833000D02*
X-515593000Y16536000D01*
X-515593000Y18616000D02*
X-515593000Y19319000D01*
X-515633000Y15877000D02*
X-515633000Y16536000D01*
X-515633000Y18616000D02*
X-515633000Y19275000D01*
X-515673000Y15923000D02*
X-515673000Y16536000D01*
X-515673000Y18616000D02*
X-515673000Y19229000D01*
X-515713000Y15971000D02*
X-515713000Y19181000D01*
X-515753000Y16022000D02*
X-515753000Y19130000D01*
X-515793000Y16076000D02*
X-515793000Y19076000D01*
X-515833000Y16133000D02*
X-515833000Y19019000D01*
X-515873000Y16193000D02*
X-515873000Y18959000D01*
X-515913000Y16257000D02*
X-515913000Y18895000D01*
X-515953000Y16325000D02*
X-515953000Y18827000D01*
X-515993000Y16398000D02*
X-515993000Y18754000D01*
X-516033000Y16478000D02*
X-516033000Y18674000D01*
X-516073000Y16565000D02*
X-516073000Y18587000D01*
X-516113000Y16661000D02*
X-516113000Y18491000D01*
X-516153000Y16771000D02*
X-516153000Y18381000D01*
X-516193000Y16899000D02*
X-516193000Y18253000D01*
X-516233000Y17058000D02*
X-516233000Y18094000D01*
X-516273000Y17292000D02*
X-516273000Y17860000D01*
X-510867225Y16101000D02*
X-511367225Y16101000D01*
X-511117225Y15851000D02*
X-511117225Y16351000D01*
%TO.C,C15*%
X-510798000Y24180000D02*
G75*
G03*
X-510798000Y24180000I-2620000J0D01*
G01*
X-513418000Y25220000D02*
X-513418000Y26760000D01*
X-513418000Y21600000D02*
X-513418000Y23140000D01*
X-513458000Y25220000D02*
X-513458000Y26760000D01*
X-513458000Y21600000D02*
X-513458000Y23140000D01*
X-513498000Y21601000D02*
X-513498000Y23140000D01*
X-513498000Y25220000D02*
X-513498000Y26759000D01*
X-513538000Y21602000D02*
X-513538000Y23140000D01*
X-513538000Y25220000D02*
X-513538000Y26758000D01*
X-513578000Y21604000D02*
X-513578000Y23140000D01*
X-513578000Y25220000D02*
X-513578000Y26756000D01*
X-513618000Y21607000D02*
X-513618000Y23140000D01*
X-513618000Y25220000D02*
X-513618000Y26753000D01*
X-513658000Y21611000D02*
X-513658000Y23140000D01*
X-513658000Y25220000D02*
X-513658000Y26749000D01*
X-513698000Y21615000D02*
X-513698000Y23140000D01*
X-513698000Y25220000D02*
X-513698000Y26745000D01*
X-513738000Y21619000D02*
X-513738000Y23140000D01*
X-513738000Y25220000D02*
X-513738000Y26741000D01*
X-513778000Y21624000D02*
X-513778000Y23140000D01*
X-513778000Y25220000D02*
X-513778000Y26736000D01*
X-513818000Y21630000D02*
X-513818000Y23140000D01*
X-513818000Y25220000D02*
X-513818000Y26730000D01*
X-513858000Y21637000D02*
X-513858000Y23140000D01*
X-513858000Y25220000D02*
X-513858000Y26723000D01*
X-513898000Y21644000D02*
X-513898000Y23140000D01*
X-513898000Y25220000D02*
X-513898000Y26716000D01*
X-513938000Y21652000D02*
X-513938000Y23140000D01*
X-513938000Y25220000D02*
X-513938000Y26708000D01*
X-513978000Y21660000D02*
X-513978000Y23140000D01*
X-513978000Y25220000D02*
X-513978000Y26700000D01*
X-514018000Y21669000D02*
X-514018000Y23140000D01*
X-514018000Y25220000D02*
X-514018000Y26691000D01*
X-514058000Y21679000D02*
X-514058000Y23140000D01*
X-514058000Y25220000D02*
X-514058000Y26681000D01*
X-514098000Y21689000D02*
X-514098000Y23140000D01*
X-514098000Y25220000D02*
X-514098000Y26671000D01*
X-514139000Y21700000D02*
X-514139000Y23140000D01*
X-514139000Y25220000D02*
X-514139000Y26660000D01*
X-514179000Y21712000D02*
X-514179000Y23140000D01*
X-514179000Y25220000D02*
X-514179000Y26648000D01*
X-514219000Y21725000D02*
X-514219000Y23140000D01*
X-514219000Y25220000D02*
X-514219000Y26635000D01*
X-514259000Y21738000D02*
X-514259000Y23140000D01*
X-514259000Y25220000D02*
X-514259000Y26622000D01*
X-514299000Y21752000D02*
X-514299000Y23140000D01*
X-514299000Y25220000D02*
X-514299000Y26608000D01*
X-514339000Y21766000D02*
X-514339000Y23140000D01*
X-514339000Y25220000D02*
X-514339000Y26594000D01*
X-514379000Y21782000D02*
X-514379000Y23140000D01*
X-514379000Y25220000D02*
X-514379000Y26578000D01*
X-514419000Y21798000D02*
X-514419000Y23140000D01*
X-514419000Y25220000D02*
X-514419000Y26562000D01*
X-514459000Y21815000D02*
X-514459000Y23140000D01*
X-514459000Y25220000D02*
X-514459000Y26545000D01*
X-514499000Y21832000D02*
X-514499000Y23140000D01*
X-514499000Y25220000D02*
X-514499000Y26528000D01*
X-514539000Y21851000D02*
X-514539000Y23140000D01*
X-514539000Y25220000D02*
X-514539000Y26509000D01*
X-514579000Y21870000D02*
X-514579000Y23140000D01*
X-514579000Y25220000D02*
X-514579000Y26490000D01*
X-514619000Y21890000D02*
X-514619000Y23140000D01*
X-514619000Y25220000D02*
X-514619000Y26470000D01*
X-514659000Y21912000D02*
X-514659000Y23140000D01*
X-514659000Y25220000D02*
X-514659000Y26448000D01*
X-514699000Y21933000D02*
X-514699000Y23140000D01*
X-514699000Y25220000D02*
X-514699000Y26427000D01*
X-514739000Y21956000D02*
X-514739000Y23140000D01*
X-514739000Y25220000D02*
X-514739000Y26404000D01*
X-514779000Y21980000D02*
X-514779000Y23140000D01*
X-514779000Y25220000D02*
X-514779000Y26380000D01*
X-514819000Y22005000D02*
X-514819000Y23140000D01*
X-514819000Y25220000D02*
X-514819000Y26355000D01*
X-514859000Y22031000D02*
X-514859000Y23140000D01*
X-514859000Y25220000D02*
X-514859000Y26329000D01*
X-514899000Y22058000D02*
X-514899000Y23140000D01*
X-514899000Y25220000D02*
X-514899000Y26302000D01*
X-514939000Y22085000D02*
X-514939000Y23140000D01*
X-514939000Y25220000D02*
X-514939000Y26275000D01*
X-514979000Y22115000D02*
X-514979000Y23140000D01*
X-514979000Y25220000D02*
X-514979000Y26245000D01*
X-515019000Y22145000D02*
X-515019000Y23140000D01*
X-515019000Y25220000D02*
X-515019000Y26215000D01*
X-515059000Y22176000D02*
X-515059000Y23140000D01*
X-515059000Y25220000D02*
X-515059000Y26184000D01*
X-515099000Y22209000D02*
X-515099000Y23140000D01*
X-515099000Y25220000D02*
X-515099000Y26151000D01*
X-515139000Y22243000D02*
X-515139000Y23140000D01*
X-515139000Y25220000D02*
X-515139000Y26117000D01*
X-515179000Y22279000D02*
X-515179000Y23140000D01*
X-515179000Y25220000D02*
X-515179000Y26081000D01*
X-515219000Y22316000D02*
X-515219000Y23140000D01*
X-515219000Y25220000D02*
X-515219000Y26044000D01*
X-515259000Y22354000D02*
X-515259000Y23140000D01*
X-515259000Y25220000D02*
X-515259000Y26006000D01*
X-515299000Y22395000D02*
X-515299000Y23140000D01*
X-515299000Y25220000D02*
X-515299000Y25965000D01*
X-515339000Y22437000D02*
X-515339000Y23140000D01*
X-515339000Y25220000D02*
X-515339000Y25923000D01*
X-515379000Y22481000D02*
X-515379000Y23140000D01*
X-515379000Y25220000D02*
X-515379000Y25879000D01*
X-515419000Y22527000D02*
X-515419000Y23140000D01*
X-515419000Y25220000D02*
X-515419000Y25833000D01*
X-515459000Y22575000D02*
X-515459000Y25785000D01*
X-515499000Y22626000D02*
X-515499000Y25734000D01*
X-515539000Y22680000D02*
X-515539000Y25680000D01*
X-515579000Y22737000D02*
X-515579000Y25623000D01*
X-515619000Y22797000D02*
X-515619000Y25563000D01*
X-515659000Y22861000D02*
X-515659000Y25499000D01*
X-515699000Y22929000D02*
X-515699000Y25431000D01*
X-515739000Y23002000D02*
X-515739000Y25358000D01*
X-515779000Y23082000D02*
X-515779000Y25278000D01*
X-515819000Y23169000D02*
X-515819000Y25191000D01*
X-515859000Y23265000D02*
X-515859000Y25095000D01*
X-515899000Y23375000D02*
X-515899000Y24985000D01*
X-515939000Y23503000D02*
X-515939000Y24857000D01*
X-515979000Y23662000D02*
X-515979000Y24698000D01*
X-516019000Y23896000D02*
X-516019000Y24464000D01*
X-510613225Y22705000D02*
X-511113225Y22705000D01*
X-510863225Y22455000D02*
X-510863225Y22955000D01*
%TO.C,C14*%
X-484144000Y7670000D02*
G75*
G03*
X-484144000Y7670000I-5120000J0D01*
G01*
X-489264000Y2590000D02*
X-489264000Y12750000D01*
X-489304000Y2590000D02*
X-489304000Y12750000D01*
X-489344000Y2590000D02*
X-489344000Y12750000D01*
X-489384000Y2591000D02*
X-489384000Y12749000D01*
X-489424000Y2592000D02*
X-489424000Y12748000D01*
X-489464000Y2593000D02*
X-489464000Y12747000D01*
X-489504000Y2595000D02*
X-489504000Y12745000D01*
X-489544000Y2597000D02*
X-489544000Y12743000D01*
X-489584000Y2600000D02*
X-489584000Y12740000D01*
X-489624000Y2602000D02*
X-489624000Y12738000D01*
X-489664000Y2605000D02*
X-489664000Y12735000D01*
X-489704000Y2608000D02*
X-489704000Y12732000D01*
X-489744000Y2612000D02*
X-489744000Y12728000D01*
X-489784000Y2616000D02*
X-489784000Y12724000D01*
X-489824000Y2620000D02*
X-489824000Y12720000D01*
X-489864000Y2625000D02*
X-489864000Y12715000D01*
X-489904000Y2630000D02*
X-489904000Y12710000D01*
X-489944000Y2635000D02*
X-489944000Y12705000D01*
X-489985000Y2640000D02*
X-489985000Y12700000D01*
X-490025000Y2646000D02*
X-490025000Y12694000D01*
X-490065000Y2652000D02*
X-490065000Y12688000D01*
X-490105000Y2659000D02*
X-490105000Y12681000D01*
X-490145000Y2666000D02*
X-490145000Y12674000D01*
X-490185000Y2673000D02*
X-490185000Y12667000D01*
X-490225000Y2680000D02*
X-490225000Y12660000D01*
X-490265000Y2688000D02*
X-490265000Y12652000D01*
X-490305000Y2696000D02*
X-490305000Y12644000D01*
X-490345000Y2705000D02*
X-490345000Y12635000D01*
X-490385000Y2714000D02*
X-490385000Y12626000D01*
X-490425000Y2723000D02*
X-490425000Y12617000D01*
X-490465000Y2732000D02*
X-490465000Y12608000D01*
X-490505000Y2742000D02*
X-490505000Y12598000D01*
X-490545000Y2752000D02*
X-490545000Y6429000D01*
X-490545000Y8911000D02*
X-490545000Y12588000D01*
X-490585000Y2763000D02*
X-490585000Y6429000D01*
X-490585000Y8911000D02*
X-490585000Y12577000D01*
X-490625000Y2773000D02*
X-490625000Y6429000D01*
X-490625000Y8911000D02*
X-490625000Y12567000D01*
X-490665000Y2785000D02*
X-490665000Y6429000D01*
X-490665000Y8911000D02*
X-490665000Y12555000D01*
X-490705000Y2796000D02*
X-490705000Y6429000D01*
X-490705000Y8911000D02*
X-490705000Y12544000D01*
X-490745000Y2808000D02*
X-490745000Y6429000D01*
X-490745000Y8911000D02*
X-490745000Y12532000D01*
X-490785000Y2820000D02*
X-490785000Y6429000D01*
X-490785000Y8911000D02*
X-490785000Y12520000D01*
X-490825000Y2833000D02*
X-490825000Y6429000D01*
X-490825000Y8911000D02*
X-490825000Y12507000D01*
X-490865000Y2846000D02*
X-490865000Y6429000D01*
X-490865000Y8911000D02*
X-490865000Y12494000D01*
X-490905000Y2859000D02*
X-490905000Y6429000D01*
X-490905000Y8911000D02*
X-490905000Y12481000D01*
X-490945000Y2873000D02*
X-490945000Y6429000D01*
X-490945000Y8911000D02*
X-490945000Y12467000D01*
X-490985000Y2887000D02*
X-490985000Y6429000D01*
X-490985000Y8911000D02*
X-490985000Y12453000D01*
X-491025000Y2902000D02*
X-491025000Y6429000D01*
X-491025000Y8911000D02*
X-491025000Y12438000D01*
X-491065000Y2916000D02*
X-491065000Y6429000D01*
X-491065000Y8911000D02*
X-491065000Y12424000D01*
X-491105000Y2932000D02*
X-491105000Y6429000D01*
X-491105000Y8911000D02*
X-491105000Y12408000D01*
X-491145000Y2947000D02*
X-491145000Y6429000D01*
X-491145000Y8911000D02*
X-491145000Y12393000D01*
X-491185000Y2963000D02*
X-491185000Y6429000D01*
X-491185000Y8911000D02*
X-491185000Y12377000D01*
X-491225000Y2980000D02*
X-491225000Y6429000D01*
X-491225000Y8911000D02*
X-491225000Y12360000D01*
X-491265000Y2996000D02*
X-491265000Y6429000D01*
X-491265000Y8911000D02*
X-491265000Y12344000D01*
X-491305000Y3013000D02*
X-491305000Y6429000D01*
X-491305000Y8911000D02*
X-491305000Y12327000D01*
X-491345000Y3031000D02*
X-491345000Y6429000D01*
X-491345000Y8911000D02*
X-491345000Y12309000D01*
X-491385000Y3049000D02*
X-491385000Y6429000D01*
X-491385000Y8911000D02*
X-491385000Y12291000D01*
X-491425000Y3067000D02*
X-491425000Y6429000D01*
X-491425000Y8911000D02*
X-491425000Y12273000D01*
X-491465000Y3086000D02*
X-491465000Y6429000D01*
X-491465000Y8911000D02*
X-491465000Y12254000D01*
X-491505000Y3106000D02*
X-491505000Y6429000D01*
X-491505000Y8911000D02*
X-491505000Y12234000D01*
X-491545000Y3125000D02*
X-491545000Y6429000D01*
X-491545000Y8911000D02*
X-491545000Y12215000D01*
X-491585000Y3145000D02*
X-491585000Y6429000D01*
X-491585000Y8911000D02*
X-491585000Y12195000D01*
X-491625000Y3166000D02*
X-491625000Y6429000D01*
X-491625000Y8911000D02*
X-491625000Y12174000D01*
X-491665000Y3187000D02*
X-491665000Y6429000D01*
X-491665000Y8911000D02*
X-491665000Y12153000D01*
X-491705000Y3208000D02*
X-491705000Y6429000D01*
X-491705000Y8911000D02*
X-491705000Y12132000D01*
X-491745000Y3230000D02*
X-491745000Y6429000D01*
X-491745000Y8911000D02*
X-491745000Y12110000D01*
X-491785000Y3253000D02*
X-491785000Y6429000D01*
X-491785000Y8911000D02*
X-491785000Y12087000D01*
X-491825000Y3275000D02*
X-491825000Y6429000D01*
X-491825000Y8911000D02*
X-491825000Y12065000D01*
X-491865000Y3299000D02*
X-491865000Y6429000D01*
X-491865000Y8911000D02*
X-491865000Y12041000D01*
X-491905000Y3323000D02*
X-491905000Y6429000D01*
X-491905000Y8911000D02*
X-491905000Y12017000D01*
X-491945000Y3347000D02*
X-491945000Y6429000D01*
X-491945000Y8911000D02*
X-491945000Y11993000D01*
X-491985000Y3372000D02*
X-491985000Y6429000D01*
X-491985000Y8911000D02*
X-491985000Y11968000D01*
X-492025000Y3397000D02*
X-492025000Y6429000D01*
X-492025000Y8911000D02*
X-492025000Y11943000D01*
X-492065000Y3423000D02*
X-492065000Y6429000D01*
X-492065000Y8911000D02*
X-492065000Y11917000D01*
X-492105000Y3449000D02*
X-492105000Y6429000D01*
X-492105000Y8911000D02*
X-492105000Y11891000D01*
X-492145000Y3476000D02*
X-492145000Y6429000D01*
X-492145000Y8911000D02*
X-492145000Y11864000D01*
X-492185000Y3504000D02*
X-492185000Y6429000D01*
X-492185000Y8911000D02*
X-492185000Y11836000D01*
X-492225000Y3532000D02*
X-492225000Y6429000D01*
X-492225000Y8911000D02*
X-492225000Y11808000D01*
X-492265000Y3560000D02*
X-492265000Y6429000D01*
X-492265000Y8911000D02*
X-492265000Y11780000D01*
X-492305000Y3590000D02*
X-492305000Y6429000D01*
X-492305000Y8911000D02*
X-492305000Y11750000D01*
X-492345000Y3620000D02*
X-492345000Y6429000D01*
X-492345000Y8911000D02*
X-492345000Y11720000D01*
X-492385000Y3650000D02*
X-492385000Y6429000D01*
X-492385000Y8911000D02*
X-492385000Y11690000D01*
X-492425000Y3681000D02*
X-492425000Y6429000D01*
X-492425000Y8911000D02*
X-492425000Y11659000D01*
X-492465000Y3713000D02*
X-492465000Y6429000D01*
X-492465000Y8911000D02*
X-492465000Y11627000D01*
X-492505000Y3745000D02*
X-492505000Y6429000D01*
X-492505000Y8911000D02*
X-492505000Y11595000D01*
X-492545000Y3778000D02*
X-492545000Y6429000D01*
X-492545000Y8911000D02*
X-492545000Y11562000D01*
X-492585000Y3812000D02*
X-492585000Y6429000D01*
X-492585000Y8911000D02*
X-492585000Y11528000D01*
X-492625000Y3846000D02*
X-492625000Y6429000D01*
X-492625000Y8911000D02*
X-492625000Y11494000D01*
X-492665000Y3881000D02*
X-492665000Y6429000D01*
X-492665000Y8911000D02*
X-492665000Y11459000D01*
X-492705000Y3917000D02*
X-492705000Y6429000D01*
X-492705000Y8911000D02*
X-492705000Y11423000D01*
X-492745000Y3954000D02*
X-492745000Y6429000D01*
X-492745000Y8911000D02*
X-492745000Y11386000D01*
X-492785000Y3991000D02*
X-492785000Y6429000D01*
X-492785000Y8911000D02*
X-492785000Y11349000D01*
X-492825000Y4030000D02*
X-492825000Y6429000D01*
X-492825000Y8911000D02*
X-492825000Y11310000D01*
X-492865000Y4069000D02*
X-492865000Y6429000D01*
X-492865000Y8911000D02*
X-492865000Y11271000D01*
X-492905000Y4109000D02*
X-492905000Y6429000D01*
X-492905000Y8911000D02*
X-492905000Y11231000D01*
X-492945000Y4150000D02*
X-492945000Y6429000D01*
X-492945000Y8911000D02*
X-492945000Y11190000D01*
X-492985000Y4192000D02*
X-492985000Y6429000D01*
X-492985000Y8911000D02*
X-492985000Y11148000D01*
X-493025000Y4234000D02*
X-493025000Y11106000D01*
X-493065000Y4278000D02*
X-493065000Y11062000D01*
X-493105000Y4323000D02*
X-493105000Y11017000D01*
X-493145000Y4369000D02*
X-493145000Y10971000D01*
X-493185000Y4416000D02*
X-493185000Y10924000D01*
X-493225000Y4464000D02*
X-493225000Y10876000D01*
X-493265000Y4514000D02*
X-493265000Y10826000D01*
X-493305000Y4564000D02*
X-493305000Y10776000D01*
X-493345000Y4616000D02*
X-493345000Y10724000D01*
X-493385000Y4670000D02*
X-493385000Y10670000D01*
X-493425000Y4725000D02*
X-493425000Y10615000D01*
X-493465000Y4781000D02*
X-493465000Y10559000D01*
X-493505000Y4840000D02*
X-493505000Y10500000D01*
X-493545000Y4900000D02*
X-493545000Y10440000D01*
X-493585000Y4961000D02*
X-493585000Y10379000D01*
X-493625000Y5025000D02*
X-493625000Y10315000D01*
X-493665000Y5091000D02*
X-493665000Y10249000D01*
X-493705000Y5160000D02*
X-493705000Y10180000D01*
X-493745000Y5231000D02*
X-493745000Y10109000D01*
X-493785000Y5305000D02*
X-493785000Y10035000D01*
X-493825000Y5381000D02*
X-493825000Y9959000D01*
X-493865000Y5461000D02*
X-493865000Y9879000D01*
X-493905000Y5545000D02*
X-493905000Y9795000D01*
X-493945000Y5633000D02*
X-493945000Y9707000D01*
X-493985000Y5726000D02*
X-493985000Y9614000D01*
X-494025000Y5824000D02*
X-494025000Y9516000D01*
X-494065000Y5928000D02*
X-494065000Y9412000D01*
X-494105000Y6040000D02*
X-494105000Y9300000D01*
X-494145000Y6160000D02*
X-494145000Y9180000D01*
X-494185000Y6292000D02*
X-494185000Y9048000D01*
X-494225000Y6440000D02*
X-494225000Y8900000D01*
X-494265000Y6608000D02*
X-494265000Y8732000D01*
X-494305000Y6808000D02*
X-494305000Y8532000D01*
X-494345000Y7071000D02*
X-494345000Y8269000D01*
X-483784354Y4795000D02*
X-484784354Y4795000D01*
X-484284354Y4295000D02*
X-484284354Y5295000D01*
%TO.C,C13*%
X-496162000Y19862000D02*
G75*
G03*
X-496162000Y19862000I-5120000J0D01*
G01*
X-501282000Y24942000D02*
X-501282000Y14782000D01*
X-501242000Y24942000D02*
X-501242000Y14782000D01*
X-501202000Y24942000D02*
X-501202000Y14782000D01*
X-501162000Y24941000D02*
X-501162000Y14783000D01*
X-501122000Y24940000D02*
X-501122000Y14784000D01*
X-501082000Y24939000D02*
X-501082000Y14785000D01*
X-501042000Y24937000D02*
X-501042000Y14787000D01*
X-501002000Y24935000D02*
X-501002000Y14789000D01*
X-500962000Y24932000D02*
X-500962000Y14792000D01*
X-500922000Y24930000D02*
X-500922000Y14794000D01*
X-500882000Y24927000D02*
X-500882000Y14797000D01*
X-500842000Y24924000D02*
X-500842000Y14800000D01*
X-500802000Y24920000D02*
X-500802000Y14804000D01*
X-500762000Y24916000D02*
X-500762000Y14808000D01*
X-500722000Y24912000D02*
X-500722000Y14812000D01*
X-500682000Y24907000D02*
X-500682000Y14817000D01*
X-500642000Y24902000D02*
X-500642000Y14822000D01*
X-500602000Y24897000D02*
X-500602000Y14827000D01*
X-500561000Y24892000D02*
X-500561000Y14832000D01*
X-500521000Y24886000D02*
X-500521000Y14838000D01*
X-500481000Y24880000D02*
X-500481000Y14844000D01*
X-500441000Y24873000D02*
X-500441000Y14851000D01*
X-500401000Y24866000D02*
X-500401000Y14858000D01*
X-500361000Y24859000D02*
X-500361000Y14865000D01*
X-500321000Y24852000D02*
X-500321000Y14872000D01*
X-500281000Y24844000D02*
X-500281000Y14880000D01*
X-500241000Y24836000D02*
X-500241000Y14888000D01*
X-500201000Y24827000D02*
X-500201000Y14897000D01*
X-500161000Y24818000D02*
X-500161000Y14906000D01*
X-500121000Y24809000D02*
X-500121000Y14915000D01*
X-500081000Y24800000D02*
X-500081000Y14924000D01*
X-500041000Y24790000D02*
X-500041000Y14934000D01*
X-500001000Y24780000D02*
X-500001000Y21103000D01*
X-500001000Y18621000D02*
X-500001000Y14944000D01*
X-499961000Y24769000D02*
X-499961000Y21103000D01*
X-499961000Y18621000D02*
X-499961000Y14955000D01*
X-499921000Y24759000D02*
X-499921000Y21103000D01*
X-499921000Y18621000D02*
X-499921000Y14965000D01*
X-499881000Y24747000D02*
X-499881000Y21103000D01*
X-499881000Y18621000D02*
X-499881000Y14977000D01*
X-499841000Y24736000D02*
X-499841000Y21103000D01*
X-499841000Y18621000D02*
X-499841000Y14988000D01*
X-499801000Y24724000D02*
X-499801000Y21103000D01*
X-499801000Y18621000D02*
X-499801000Y15000000D01*
X-499761000Y24712000D02*
X-499761000Y21103000D01*
X-499761000Y18621000D02*
X-499761000Y15012000D01*
X-499721000Y24699000D02*
X-499721000Y21103000D01*
X-499721000Y18621000D02*
X-499721000Y15025000D01*
X-499681000Y24686000D02*
X-499681000Y21103000D01*
X-499681000Y18621000D02*
X-499681000Y15038000D01*
X-499641000Y24673000D02*
X-499641000Y21103000D01*
X-499641000Y18621000D02*
X-499641000Y15051000D01*
X-499601000Y24659000D02*
X-499601000Y21103000D01*
X-499601000Y18621000D02*
X-499601000Y15065000D01*
X-499561000Y24645000D02*
X-499561000Y21103000D01*
X-499561000Y18621000D02*
X-499561000Y15079000D01*
X-499521000Y24630000D02*
X-499521000Y21103000D01*
X-499521000Y18621000D02*
X-499521000Y15094000D01*
X-499481000Y24616000D02*
X-499481000Y21103000D01*
X-499481000Y18621000D02*
X-499481000Y15108000D01*
X-499441000Y24600000D02*
X-499441000Y21103000D01*
X-499441000Y18621000D02*
X-499441000Y15124000D01*
X-499401000Y24585000D02*
X-499401000Y21103000D01*
X-499401000Y18621000D02*
X-499401000Y15139000D01*
X-499361000Y24569000D02*
X-499361000Y21103000D01*
X-499361000Y18621000D02*
X-499361000Y15155000D01*
X-499321000Y24552000D02*
X-499321000Y21103000D01*
X-499321000Y18621000D02*
X-499321000Y15172000D01*
X-499281000Y24536000D02*
X-499281000Y21103000D01*
X-499281000Y18621000D02*
X-499281000Y15188000D01*
X-499241000Y24519000D02*
X-499241000Y21103000D01*
X-499241000Y18621000D02*
X-499241000Y15205000D01*
X-499201000Y24501000D02*
X-499201000Y21103000D01*
X-499201000Y18621000D02*
X-499201000Y15223000D01*
X-499161000Y24483000D02*
X-499161000Y21103000D01*
X-499161000Y18621000D02*
X-499161000Y15241000D01*
X-499121000Y24465000D02*
X-499121000Y21103000D01*
X-499121000Y18621000D02*
X-499121000Y15259000D01*
X-499081000Y24446000D02*
X-499081000Y21103000D01*
X-499081000Y18621000D02*
X-499081000Y15278000D01*
X-499041000Y24426000D02*
X-499041000Y21103000D01*
X-499041000Y18621000D02*
X-499041000Y15298000D01*
X-499001000Y24407000D02*
X-499001000Y21103000D01*
X-499001000Y18621000D02*
X-499001000Y15317000D01*
X-498961000Y24387000D02*
X-498961000Y21103000D01*
X-498961000Y18621000D02*
X-498961000Y15337000D01*
X-498921000Y24366000D02*
X-498921000Y21103000D01*
X-498921000Y18621000D02*
X-498921000Y15358000D01*
X-498881000Y24345000D02*
X-498881000Y21103000D01*
X-498881000Y18621000D02*
X-498881000Y15379000D01*
X-498841000Y24324000D02*
X-498841000Y21103000D01*
X-498841000Y18621000D02*
X-498841000Y15400000D01*
X-498801000Y24302000D02*
X-498801000Y21103000D01*
X-498801000Y18621000D02*
X-498801000Y15422000D01*
X-498761000Y24279000D02*
X-498761000Y21103000D01*
X-498761000Y18621000D02*
X-498761000Y15445000D01*
X-498721000Y24257000D02*
X-498721000Y21103000D01*
X-498721000Y18621000D02*
X-498721000Y15467000D01*
X-498681000Y24233000D02*
X-498681000Y21103000D01*
X-498681000Y18621000D02*
X-498681000Y15491000D01*
X-498641000Y24209000D02*
X-498641000Y21103000D01*
X-498641000Y18621000D02*
X-498641000Y15515000D01*
X-498601000Y24185000D02*
X-498601000Y21103000D01*
X-498601000Y18621000D02*
X-498601000Y15539000D01*
X-498561000Y24160000D02*
X-498561000Y21103000D01*
X-498561000Y18621000D02*
X-498561000Y15564000D01*
X-498521000Y24135000D02*
X-498521000Y21103000D01*
X-498521000Y18621000D02*
X-498521000Y15589000D01*
X-498481000Y24109000D02*
X-498481000Y21103000D01*
X-498481000Y18621000D02*
X-498481000Y15615000D01*
X-498441000Y24083000D02*
X-498441000Y21103000D01*
X-498441000Y18621000D02*
X-498441000Y15641000D01*
X-498401000Y24056000D02*
X-498401000Y21103000D01*
X-498401000Y18621000D02*
X-498401000Y15668000D01*
X-498361000Y24028000D02*
X-498361000Y21103000D01*
X-498361000Y18621000D02*
X-498361000Y15696000D01*
X-498321000Y24000000D02*
X-498321000Y21103000D01*
X-498321000Y18621000D02*
X-498321000Y15724000D01*
X-498281000Y23972000D02*
X-498281000Y21103000D01*
X-498281000Y18621000D02*
X-498281000Y15752000D01*
X-498241000Y23942000D02*
X-498241000Y21103000D01*
X-498241000Y18621000D02*
X-498241000Y15782000D01*
X-498201000Y23912000D02*
X-498201000Y21103000D01*
X-498201000Y18621000D02*
X-498201000Y15812000D01*
X-498161000Y23882000D02*
X-498161000Y21103000D01*
X-498161000Y18621000D02*
X-498161000Y15842000D01*
X-498121000Y23851000D02*
X-498121000Y21103000D01*
X-498121000Y18621000D02*
X-498121000Y15873000D01*
X-498081000Y23819000D02*
X-498081000Y21103000D01*
X-498081000Y18621000D02*
X-498081000Y15905000D01*
X-498041000Y23787000D02*
X-498041000Y21103000D01*
X-498041000Y18621000D02*
X-498041000Y15937000D01*
X-498001000Y23754000D02*
X-498001000Y21103000D01*
X-498001000Y18621000D02*
X-498001000Y15970000D01*
X-497961000Y23720000D02*
X-497961000Y21103000D01*
X-497961000Y18621000D02*
X-497961000Y16004000D01*
X-497921000Y23686000D02*
X-497921000Y21103000D01*
X-497921000Y18621000D02*
X-497921000Y16038000D01*
X-497881000Y23651000D02*
X-497881000Y21103000D01*
X-497881000Y18621000D02*
X-497881000Y16073000D01*
X-497841000Y23615000D02*
X-497841000Y21103000D01*
X-497841000Y18621000D02*
X-497841000Y16109000D01*
X-497801000Y23578000D02*
X-497801000Y21103000D01*
X-497801000Y18621000D02*
X-497801000Y16146000D01*
X-497761000Y23541000D02*
X-497761000Y21103000D01*
X-497761000Y18621000D02*
X-497761000Y16183000D01*
X-497721000Y23502000D02*
X-497721000Y21103000D01*
X-497721000Y18621000D02*
X-497721000Y16222000D01*
X-497681000Y23463000D02*
X-497681000Y21103000D01*
X-497681000Y18621000D02*
X-497681000Y16261000D01*
X-497641000Y23423000D02*
X-497641000Y21103000D01*
X-497641000Y18621000D02*
X-497641000Y16301000D01*
X-497601000Y23382000D02*
X-497601000Y21103000D01*
X-497601000Y18621000D02*
X-497601000Y16342000D01*
X-497561000Y23340000D02*
X-497561000Y21103000D01*
X-497561000Y18621000D02*
X-497561000Y16384000D01*
X-497521000Y23298000D02*
X-497521000Y16426000D01*
X-497481000Y23254000D02*
X-497481000Y16470000D01*
X-497441000Y23209000D02*
X-497441000Y16515000D01*
X-497401000Y23163000D02*
X-497401000Y16561000D01*
X-497361000Y23116000D02*
X-497361000Y16608000D01*
X-497321000Y23068000D02*
X-497321000Y16656000D01*
X-497281000Y23018000D02*
X-497281000Y16706000D01*
X-497241000Y22968000D02*
X-497241000Y16756000D01*
X-497201000Y22916000D02*
X-497201000Y16808000D01*
X-497161000Y22862000D02*
X-497161000Y16862000D01*
X-497121000Y22807000D02*
X-497121000Y16917000D01*
X-497081000Y22751000D02*
X-497081000Y16973000D01*
X-497041000Y22692000D02*
X-497041000Y17032000D01*
X-497001000Y22632000D02*
X-497001000Y17092000D01*
X-496961000Y22571000D02*
X-496961000Y17153000D01*
X-496921000Y22507000D02*
X-496921000Y17217000D01*
X-496881000Y22441000D02*
X-496881000Y17283000D01*
X-496841000Y22372000D02*
X-496841000Y17352000D01*
X-496801000Y22301000D02*
X-496801000Y17423000D01*
X-496761000Y22227000D02*
X-496761000Y17497000D01*
X-496721000Y22151000D02*
X-496721000Y17573000D01*
X-496681000Y22071000D02*
X-496681000Y17653000D01*
X-496641000Y21987000D02*
X-496641000Y17737000D01*
X-496601000Y21899000D02*
X-496601000Y17825000D01*
X-496561000Y21806000D02*
X-496561000Y17918000D01*
X-496521000Y21708000D02*
X-496521000Y18016000D01*
X-496481000Y21604000D02*
X-496481000Y18120000D01*
X-496441000Y21492000D02*
X-496441000Y18232000D01*
X-496401000Y21372000D02*
X-496401000Y18352000D01*
X-496361000Y21240000D02*
X-496361000Y18484000D01*
X-496321000Y21092000D02*
X-496321000Y18632000D01*
X-496281000Y20924000D02*
X-496281000Y18800000D01*
X-496241000Y20724000D02*
X-496241000Y19000000D01*
X-496201000Y20461000D02*
X-496201000Y19263000D01*
X-506761646Y22737000D02*
X-505761646Y22737000D01*
X-506261646Y23237000D02*
X-506261646Y22237000D01*
%TO.C,C12*%
X-484144000Y-4268000D02*
G75*
G03*
X-484144000Y-4268000I-5120000J0D01*
G01*
X-489264000Y-9348000D02*
X-489264000Y812000D01*
X-489304000Y-9348000D02*
X-489304000Y812000D01*
X-489344000Y-9348000D02*
X-489344000Y812000D01*
X-489384000Y-9347000D02*
X-489384000Y811000D01*
X-489424000Y-9346000D02*
X-489424000Y810000D01*
X-489464000Y-9345000D02*
X-489464000Y809000D01*
X-489504000Y-9343000D02*
X-489504000Y807000D01*
X-489544000Y-9341000D02*
X-489544000Y805000D01*
X-489584000Y-9338000D02*
X-489584000Y802000D01*
X-489624000Y-9336000D02*
X-489624000Y800000D01*
X-489664000Y-9333000D02*
X-489664000Y797000D01*
X-489704000Y-9330000D02*
X-489704000Y794000D01*
X-489744000Y-9326000D02*
X-489744000Y790000D01*
X-489784000Y-9322000D02*
X-489784000Y786000D01*
X-489824000Y-9318000D02*
X-489824000Y782000D01*
X-489864000Y-9313000D02*
X-489864000Y777000D01*
X-489904000Y-9308000D02*
X-489904000Y772000D01*
X-489944000Y-9303000D02*
X-489944000Y767000D01*
X-489985000Y-9298000D02*
X-489985000Y762000D01*
X-490025000Y-9292000D02*
X-490025000Y756000D01*
X-490065000Y-9286000D02*
X-490065000Y750000D01*
X-490105000Y-9279000D02*
X-490105000Y743000D01*
X-490145000Y-9272000D02*
X-490145000Y736000D01*
X-490185000Y-9265000D02*
X-490185000Y729000D01*
X-490225000Y-9258000D02*
X-490225000Y722000D01*
X-490265000Y-9250000D02*
X-490265000Y714000D01*
X-490305000Y-9242000D02*
X-490305000Y706000D01*
X-490345000Y-9233000D02*
X-490345000Y697000D01*
X-490385000Y-9224000D02*
X-490385000Y688000D01*
X-490425000Y-9215000D02*
X-490425000Y679000D01*
X-490465000Y-9206000D02*
X-490465000Y670000D01*
X-490505000Y-9196000D02*
X-490505000Y660000D01*
X-490545000Y-9186000D02*
X-490545000Y-5509000D01*
X-490545000Y-3027000D02*
X-490545000Y650000D01*
X-490585000Y-9175000D02*
X-490585000Y-5509000D01*
X-490585000Y-3027000D02*
X-490585000Y639000D01*
X-490625000Y-9165000D02*
X-490625000Y-5509000D01*
X-490625000Y-3027000D02*
X-490625000Y629000D01*
X-490665000Y-9153000D02*
X-490665000Y-5509000D01*
X-490665000Y-3027000D02*
X-490665000Y617000D01*
X-490705000Y-9142000D02*
X-490705000Y-5509000D01*
X-490705000Y-3027000D02*
X-490705000Y606000D01*
X-490745000Y-9130000D02*
X-490745000Y-5509000D01*
X-490745000Y-3027000D02*
X-490745000Y594000D01*
X-490785000Y-9118000D02*
X-490785000Y-5509000D01*
X-490785000Y-3027000D02*
X-490785000Y582000D01*
X-490825000Y-9105000D02*
X-490825000Y-5509000D01*
X-490825000Y-3027000D02*
X-490825000Y569000D01*
X-490865000Y-9092000D02*
X-490865000Y-5509000D01*
X-490865000Y-3027000D02*
X-490865000Y556000D01*
X-490905000Y-9079000D02*
X-490905000Y-5509000D01*
X-490905000Y-3027000D02*
X-490905000Y543000D01*
X-490945000Y-9065000D02*
X-490945000Y-5509000D01*
X-490945000Y-3027000D02*
X-490945000Y529000D01*
X-490985000Y-9051000D02*
X-490985000Y-5509000D01*
X-490985000Y-3027000D02*
X-490985000Y515000D01*
X-491025000Y-9036000D02*
X-491025000Y-5509000D01*
X-491025000Y-3027000D02*
X-491025000Y500000D01*
X-491065000Y-9022000D02*
X-491065000Y-5509000D01*
X-491065000Y-3027000D02*
X-491065000Y486000D01*
X-491105000Y-9006000D02*
X-491105000Y-5509000D01*
X-491105000Y-3027000D02*
X-491105000Y470000D01*
X-491145000Y-8991000D02*
X-491145000Y-5509000D01*
X-491145000Y-3027000D02*
X-491145000Y455000D01*
X-491185000Y-8975000D02*
X-491185000Y-5509000D01*
X-491185000Y-3027000D02*
X-491185000Y439000D01*
X-491225000Y-8958000D02*
X-491225000Y-5509000D01*
X-491225000Y-3027000D02*
X-491225000Y422000D01*
X-491265000Y-8942000D02*
X-491265000Y-5509000D01*
X-491265000Y-3027000D02*
X-491265000Y406000D01*
X-491305000Y-8925000D02*
X-491305000Y-5509000D01*
X-491305000Y-3027000D02*
X-491305000Y389000D01*
X-491345000Y-8907000D02*
X-491345000Y-5509000D01*
X-491345000Y-3027000D02*
X-491345000Y371000D01*
X-491385000Y-8889000D02*
X-491385000Y-5509000D01*
X-491385000Y-3027000D02*
X-491385000Y353000D01*
X-491425000Y-8871000D02*
X-491425000Y-5509000D01*
X-491425000Y-3027000D02*
X-491425000Y335000D01*
X-491465000Y-8852000D02*
X-491465000Y-5509000D01*
X-491465000Y-3027000D02*
X-491465000Y316000D01*
X-491505000Y-8832000D02*
X-491505000Y-5509000D01*
X-491505000Y-3027000D02*
X-491505000Y296000D01*
X-491545000Y-8813000D02*
X-491545000Y-5509000D01*
X-491545000Y-3027000D02*
X-491545000Y277000D01*
X-491585000Y-8793000D02*
X-491585000Y-5509000D01*
X-491585000Y-3027000D02*
X-491585000Y257000D01*
X-491625000Y-8772000D02*
X-491625000Y-5509000D01*
X-491625000Y-3027000D02*
X-491625000Y236000D01*
X-491665000Y-8751000D02*
X-491665000Y-5509000D01*
X-491665000Y-3027000D02*
X-491665000Y215000D01*
X-491705000Y-8730000D02*
X-491705000Y-5509000D01*
X-491705000Y-3027000D02*
X-491705000Y194000D01*
X-491745000Y-8708000D02*
X-491745000Y-5509000D01*
X-491745000Y-3027000D02*
X-491745000Y172000D01*
X-491785000Y-8685000D02*
X-491785000Y-5509000D01*
X-491785000Y-3027000D02*
X-491785000Y149000D01*
X-491825000Y-8663000D02*
X-491825000Y-5509000D01*
X-491825000Y-3027000D02*
X-491825000Y127000D01*
X-491865000Y-8639000D02*
X-491865000Y-5509000D01*
X-491865000Y-3027000D02*
X-491865000Y103000D01*
X-491905000Y-8615000D02*
X-491905000Y-5509000D01*
X-491905000Y-3027000D02*
X-491905000Y79000D01*
X-491945000Y-8591000D02*
X-491945000Y-5509000D01*
X-491945000Y-3027000D02*
X-491945000Y55000D01*
X-491985000Y-8566000D02*
X-491985000Y-5509000D01*
X-491985000Y-3027000D02*
X-491985000Y30000D01*
X-492025000Y-8541000D02*
X-492025000Y-5509000D01*
X-492025000Y-3027000D02*
X-492025000Y5000D01*
X-492065000Y-8515000D02*
X-492065000Y-5509000D01*
X-492065000Y-3027000D02*
X-492065000Y-21000D01*
X-492105000Y-8489000D02*
X-492105000Y-5509000D01*
X-492105000Y-3027000D02*
X-492105000Y-47000D01*
X-492145000Y-8462000D02*
X-492145000Y-5509000D01*
X-492145000Y-3027000D02*
X-492145000Y-74000D01*
X-492185000Y-8434000D02*
X-492185000Y-5509000D01*
X-492185000Y-3027000D02*
X-492185000Y-102000D01*
X-492225000Y-8406000D02*
X-492225000Y-5509000D01*
X-492225000Y-3027000D02*
X-492225000Y-130000D01*
X-492265000Y-8378000D02*
X-492265000Y-5509000D01*
X-492265000Y-3027000D02*
X-492265000Y-158000D01*
X-492305000Y-8348000D02*
X-492305000Y-5509000D01*
X-492305000Y-3027000D02*
X-492305000Y-188000D01*
X-492345000Y-8318000D02*
X-492345000Y-5509000D01*
X-492345000Y-3027000D02*
X-492345000Y-218000D01*
X-492385000Y-8288000D02*
X-492385000Y-5509000D01*
X-492385000Y-3027000D02*
X-492385000Y-248000D01*
X-492425000Y-8257000D02*
X-492425000Y-5509000D01*
X-492425000Y-3027000D02*
X-492425000Y-279000D01*
X-492465000Y-8225000D02*
X-492465000Y-5509000D01*
X-492465000Y-3027000D02*
X-492465000Y-311000D01*
X-492505000Y-8193000D02*
X-492505000Y-5509000D01*
X-492505000Y-3027000D02*
X-492505000Y-343000D01*
X-492545000Y-8160000D02*
X-492545000Y-5509000D01*
X-492545000Y-3027000D02*
X-492545000Y-376000D01*
X-492585000Y-8126000D02*
X-492585000Y-5509000D01*
X-492585000Y-3027000D02*
X-492585000Y-410000D01*
X-492625000Y-8092000D02*
X-492625000Y-5509000D01*
X-492625000Y-3027000D02*
X-492625000Y-444000D01*
X-492665000Y-8057000D02*
X-492665000Y-5509000D01*
X-492665000Y-3027000D02*
X-492665000Y-479000D01*
X-492705000Y-8021000D02*
X-492705000Y-5509000D01*
X-492705000Y-3027000D02*
X-492705000Y-515000D01*
X-492745000Y-7984000D02*
X-492745000Y-5509000D01*
X-492745000Y-3027000D02*
X-492745000Y-552000D01*
X-492785000Y-7947000D02*
X-492785000Y-5509000D01*
X-492785000Y-3027000D02*
X-492785000Y-589000D01*
X-492825000Y-7908000D02*
X-492825000Y-5509000D01*
X-492825000Y-3027000D02*
X-492825000Y-628000D01*
X-492865000Y-7869000D02*
X-492865000Y-5509000D01*
X-492865000Y-3027000D02*
X-492865000Y-667000D01*
X-492905000Y-7829000D02*
X-492905000Y-5509000D01*
X-492905000Y-3027000D02*
X-492905000Y-707000D01*
X-492945000Y-7788000D02*
X-492945000Y-5509000D01*
X-492945000Y-3027000D02*
X-492945000Y-748000D01*
X-492985000Y-7746000D02*
X-492985000Y-5509000D01*
X-492985000Y-3027000D02*
X-492985000Y-790000D01*
X-493025000Y-7704000D02*
X-493025000Y-832000D01*
X-493065000Y-7660000D02*
X-493065000Y-876000D01*
X-493105000Y-7615000D02*
X-493105000Y-921000D01*
X-493145000Y-7569000D02*
X-493145000Y-967000D01*
X-493185000Y-7522000D02*
X-493185000Y-1014000D01*
X-493225000Y-7474000D02*
X-493225000Y-1062000D01*
X-493265000Y-7424000D02*
X-493265000Y-1112000D01*
X-493305000Y-7374000D02*
X-493305000Y-1162000D01*
X-493345000Y-7322000D02*
X-493345000Y-1214000D01*
X-493385000Y-7268000D02*
X-493385000Y-1268000D01*
X-493425000Y-7213000D02*
X-493425000Y-1323000D01*
X-493465000Y-7157000D02*
X-493465000Y-1379000D01*
X-493505000Y-7098000D02*
X-493505000Y-1438000D01*
X-493545000Y-7038000D02*
X-493545000Y-1498000D01*
X-493585000Y-6977000D02*
X-493585000Y-1559000D01*
X-493625000Y-6913000D02*
X-493625000Y-1623000D01*
X-493665000Y-6847000D02*
X-493665000Y-1689000D01*
X-493705000Y-6778000D02*
X-493705000Y-1758000D01*
X-493745000Y-6707000D02*
X-493745000Y-1829000D01*
X-493785000Y-6633000D02*
X-493785000Y-1903000D01*
X-493825000Y-6557000D02*
X-493825000Y-1979000D01*
X-493865000Y-6477000D02*
X-493865000Y-2059000D01*
X-493905000Y-6393000D02*
X-493905000Y-2143000D01*
X-493945000Y-6305000D02*
X-493945000Y-2231000D01*
X-493985000Y-6212000D02*
X-493985000Y-2324000D01*
X-494025000Y-6114000D02*
X-494025000Y-2422000D01*
X-494065000Y-6010000D02*
X-494065000Y-2526000D01*
X-494105000Y-5898000D02*
X-494105000Y-2638000D01*
X-494145000Y-5778000D02*
X-494145000Y-2758000D01*
X-494185000Y-5646000D02*
X-494185000Y-2890000D01*
X-494225000Y-5498000D02*
X-494225000Y-3038000D01*
X-494265000Y-5330000D02*
X-494265000Y-3206000D01*
X-494305000Y-5130000D02*
X-494305000Y-3406000D01*
X-494345000Y-4867000D02*
X-494345000Y-3669000D01*
X-483784354Y-7143000D02*
X-484784354Y-7143000D01*
X-484284354Y-7643000D02*
X-484284354Y-6643000D01*
%TO.C,C11*%
X-484144000Y19862000D02*
G75*
G03*
X-484144000Y19862000I-5120000J0D01*
G01*
X-489264000Y14782000D02*
X-489264000Y24942000D01*
X-489304000Y14782000D02*
X-489304000Y24942000D01*
X-489344000Y14782000D02*
X-489344000Y24942000D01*
X-489384000Y14783000D02*
X-489384000Y24941000D01*
X-489424000Y14784000D02*
X-489424000Y24940000D01*
X-489464000Y14785000D02*
X-489464000Y24939000D01*
X-489504000Y14787000D02*
X-489504000Y24937000D01*
X-489544000Y14789000D02*
X-489544000Y24935000D01*
X-489584000Y14792000D02*
X-489584000Y24932000D01*
X-489624000Y14794000D02*
X-489624000Y24930000D01*
X-489664000Y14797000D02*
X-489664000Y24927000D01*
X-489704000Y14800000D02*
X-489704000Y24924000D01*
X-489744000Y14804000D02*
X-489744000Y24920000D01*
X-489784000Y14808000D02*
X-489784000Y24916000D01*
X-489824000Y14812000D02*
X-489824000Y24912000D01*
X-489864000Y14817000D02*
X-489864000Y24907000D01*
X-489904000Y14822000D02*
X-489904000Y24902000D01*
X-489944000Y14827000D02*
X-489944000Y24897000D01*
X-489985000Y14832000D02*
X-489985000Y24892000D01*
X-490025000Y14838000D02*
X-490025000Y24886000D01*
X-490065000Y14844000D02*
X-490065000Y24880000D01*
X-490105000Y14851000D02*
X-490105000Y24873000D01*
X-490145000Y14858000D02*
X-490145000Y24866000D01*
X-490185000Y14865000D02*
X-490185000Y24859000D01*
X-490225000Y14872000D02*
X-490225000Y24852000D01*
X-490265000Y14880000D02*
X-490265000Y24844000D01*
X-490305000Y14888000D02*
X-490305000Y24836000D01*
X-490345000Y14897000D02*
X-490345000Y24827000D01*
X-490385000Y14906000D02*
X-490385000Y24818000D01*
X-490425000Y14915000D02*
X-490425000Y24809000D01*
X-490465000Y14924000D02*
X-490465000Y24800000D01*
X-490505000Y14934000D02*
X-490505000Y24790000D01*
X-490545000Y14944000D02*
X-490545000Y18621000D01*
X-490545000Y21103000D02*
X-490545000Y24780000D01*
X-490585000Y14955000D02*
X-490585000Y18621000D01*
X-490585000Y21103000D02*
X-490585000Y24769000D01*
X-490625000Y14965000D02*
X-490625000Y18621000D01*
X-490625000Y21103000D02*
X-490625000Y24759000D01*
X-490665000Y14977000D02*
X-490665000Y18621000D01*
X-490665000Y21103000D02*
X-490665000Y24747000D01*
X-490705000Y14988000D02*
X-490705000Y18621000D01*
X-490705000Y21103000D02*
X-490705000Y24736000D01*
X-490745000Y15000000D02*
X-490745000Y18621000D01*
X-490745000Y21103000D02*
X-490745000Y24724000D01*
X-490785000Y15012000D02*
X-490785000Y18621000D01*
X-490785000Y21103000D02*
X-490785000Y24712000D01*
X-490825000Y15025000D02*
X-490825000Y18621000D01*
X-490825000Y21103000D02*
X-490825000Y24699000D01*
X-490865000Y15038000D02*
X-490865000Y18621000D01*
X-490865000Y21103000D02*
X-490865000Y24686000D01*
X-490905000Y15051000D02*
X-490905000Y18621000D01*
X-490905000Y21103000D02*
X-490905000Y24673000D01*
X-490945000Y15065000D02*
X-490945000Y18621000D01*
X-490945000Y21103000D02*
X-490945000Y24659000D01*
X-490985000Y15079000D02*
X-490985000Y18621000D01*
X-490985000Y21103000D02*
X-490985000Y24645000D01*
X-491025000Y15094000D02*
X-491025000Y18621000D01*
X-491025000Y21103000D02*
X-491025000Y24630000D01*
X-491065000Y15108000D02*
X-491065000Y18621000D01*
X-491065000Y21103000D02*
X-491065000Y24616000D01*
X-491105000Y15124000D02*
X-491105000Y18621000D01*
X-491105000Y21103000D02*
X-491105000Y24600000D01*
X-491145000Y15139000D02*
X-491145000Y18621000D01*
X-491145000Y21103000D02*
X-491145000Y24585000D01*
X-491185000Y15155000D02*
X-491185000Y18621000D01*
X-491185000Y21103000D02*
X-491185000Y24569000D01*
X-491225000Y15172000D02*
X-491225000Y18621000D01*
X-491225000Y21103000D02*
X-491225000Y24552000D01*
X-491265000Y15188000D02*
X-491265000Y18621000D01*
X-491265000Y21103000D02*
X-491265000Y24536000D01*
X-491305000Y15205000D02*
X-491305000Y18621000D01*
X-491305000Y21103000D02*
X-491305000Y24519000D01*
X-491345000Y15223000D02*
X-491345000Y18621000D01*
X-491345000Y21103000D02*
X-491345000Y24501000D01*
X-491385000Y15241000D02*
X-491385000Y18621000D01*
X-491385000Y21103000D02*
X-491385000Y24483000D01*
X-491425000Y15259000D02*
X-491425000Y18621000D01*
X-491425000Y21103000D02*
X-491425000Y24465000D01*
X-491465000Y15278000D02*
X-491465000Y18621000D01*
X-491465000Y21103000D02*
X-491465000Y24446000D01*
X-491505000Y15298000D02*
X-491505000Y18621000D01*
X-491505000Y21103000D02*
X-491505000Y24426000D01*
X-491545000Y15317000D02*
X-491545000Y18621000D01*
X-491545000Y21103000D02*
X-491545000Y24407000D01*
X-491585000Y15337000D02*
X-491585000Y18621000D01*
X-491585000Y21103000D02*
X-491585000Y24387000D01*
X-491625000Y15358000D02*
X-491625000Y18621000D01*
X-491625000Y21103000D02*
X-491625000Y24366000D01*
X-491665000Y15379000D02*
X-491665000Y18621000D01*
X-491665000Y21103000D02*
X-491665000Y24345000D01*
X-491705000Y15400000D02*
X-491705000Y18621000D01*
X-491705000Y21103000D02*
X-491705000Y24324000D01*
X-491745000Y15422000D02*
X-491745000Y18621000D01*
X-491745000Y21103000D02*
X-491745000Y24302000D01*
X-491785000Y15445000D02*
X-491785000Y18621000D01*
X-491785000Y21103000D02*
X-491785000Y24279000D01*
X-491825000Y15467000D02*
X-491825000Y18621000D01*
X-491825000Y21103000D02*
X-491825000Y24257000D01*
X-491865000Y15491000D02*
X-491865000Y18621000D01*
X-491865000Y21103000D02*
X-491865000Y24233000D01*
X-491905000Y15515000D02*
X-491905000Y18621000D01*
X-491905000Y21103000D02*
X-491905000Y24209000D01*
X-491945000Y15539000D02*
X-491945000Y18621000D01*
X-491945000Y21103000D02*
X-491945000Y24185000D01*
X-491985000Y15564000D02*
X-491985000Y18621000D01*
X-491985000Y21103000D02*
X-491985000Y24160000D01*
X-492025000Y15589000D02*
X-492025000Y18621000D01*
X-492025000Y21103000D02*
X-492025000Y24135000D01*
X-492065000Y15615000D02*
X-492065000Y18621000D01*
X-492065000Y21103000D02*
X-492065000Y24109000D01*
X-492105000Y15641000D02*
X-492105000Y18621000D01*
X-492105000Y21103000D02*
X-492105000Y24083000D01*
X-492145000Y15668000D02*
X-492145000Y18621000D01*
X-492145000Y21103000D02*
X-492145000Y24056000D01*
X-492185000Y15696000D02*
X-492185000Y18621000D01*
X-492185000Y21103000D02*
X-492185000Y24028000D01*
X-492225000Y15724000D02*
X-492225000Y18621000D01*
X-492225000Y21103000D02*
X-492225000Y24000000D01*
X-492265000Y15752000D02*
X-492265000Y18621000D01*
X-492265000Y21103000D02*
X-492265000Y23972000D01*
X-492305000Y15782000D02*
X-492305000Y18621000D01*
X-492305000Y21103000D02*
X-492305000Y23942000D01*
X-492345000Y15812000D02*
X-492345000Y18621000D01*
X-492345000Y21103000D02*
X-492345000Y23912000D01*
X-492385000Y15842000D02*
X-492385000Y18621000D01*
X-492385000Y21103000D02*
X-492385000Y23882000D01*
X-492425000Y15873000D02*
X-492425000Y18621000D01*
X-492425000Y21103000D02*
X-492425000Y23851000D01*
X-492465000Y15905000D02*
X-492465000Y18621000D01*
X-492465000Y21103000D02*
X-492465000Y23819000D01*
X-492505000Y15937000D02*
X-492505000Y18621000D01*
X-492505000Y21103000D02*
X-492505000Y23787000D01*
X-492545000Y15970000D02*
X-492545000Y18621000D01*
X-492545000Y21103000D02*
X-492545000Y23754000D01*
X-492585000Y16004000D02*
X-492585000Y18621000D01*
X-492585000Y21103000D02*
X-492585000Y23720000D01*
X-492625000Y16038000D02*
X-492625000Y18621000D01*
X-492625000Y21103000D02*
X-492625000Y23686000D01*
X-492665000Y16073000D02*
X-492665000Y18621000D01*
X-492665000Y21103000D02*
X-492665000Y23651000D01*
X-492705000Y16109000D02*
X-492705000Y18621000D01*
X-492705000Y21103000D02*
X-492705000Y23615000D01*
X-492745000Y16146000D02*
X-492745000Y18621000D01*
X-492745000Y21103000D02*
X-492745000Y23578000D01*
X-492785000Y16183000D02*
X-492785000Y18621000D01*
X-492785000Y21103000D02*
X-492785000Y23541000D01*
X-492825000Y16222000D02*
X-492825000Y18621000D01*
X-492825000Y21103000D02*
X-492825000Y23502000D01*
X-492865000Y16261000D02*
X-492865000Y18621000D01*
X-492865000Y21103000D02*
X-492865000Y23463000D01*
X-492905000Y16301000D02*
X-492905000Y18621000D01*
X-492905000Y21103000D02*
X-492905000Y23423000D01*
X-492945000Y16342000D02*
X-492945000Y18621000D01*
X-492945000Y21103000D02*
X-492945000Y23382000D01*
X-492985000Y16384000D02*
X-492985000Y18621000D01*
X-492985000Y21103000D02*
X-492985000Y23340000D01*
X-493025000Y16426000D02*
X-493025000Y23298000D01*
X-493065000Y16470000D02*
X-493065000Y23254000D01*
X-493105000Y16515000D02*
X-493105000Y23209000D01*
X-493145000Y16561000D02*
X-493145000Y23163000D01*
X-493185000Y16608000D02*
X-493185000Y23116000D01*
X-493225000Y16656000D02*
X-493225000Y23068000D01*
X-493265000Y16706000D02*
X-493265000Y23018000D01*
X-493305000Y16756000D02*
X-493305000Y22968000D01*
X-493345000Y16808000D02*
X-493345000Y22916000D01*
X-493385000Y16862000D02*
X-493385000Y22862000D01*
X-493425000Y16917000D02*
X-493425000Y22807000D01*
X-493465000Y16973000D02*
X-493465000Y22751000D01*
X-493505000Y17032000D02*
X-493505000Y22692000D01*
X-493545000Y17092000D02*
X-493545000Y22632000D01*
X-493585000Y17153000D02*
X-493585000Y22571000D01*
X-493625000Y17217000D02*
X-493625000Y22507000D01*
X-493665000Y17283000D02*
X-493665000Y22441000D01*
X-493705000Y17352000D02*
X-493705000Y22372000D01*
X-493745000Y17423000D02*
X-493745000Y22301000D01*
X-493785000Y17497000D02*
X-493785000Y22227000D01*
X-493825000Y17573000D02*
X-493825000Y22151000D01*
X-493865000Y17653000D02*
X-493865000Y22071000D01*
X-493905000Y17737000D02*
X-493905000Y21987000D01*
X-493945000Y17825000D02*
X-493945000Y21899000D01*
X-493985000Y17918000D02*
X-493985000Y21806000D01*
X-494025000Y18016000D02*
X-494025000Y21708000D01*
X-494065000Y18120000D02*
X-494065000Y21604000D01*
X-494105000Y18232000D02*
X-494105000Y21492000D01*
X-494145000Y18352000D02*
X-494145000Y21372000D01*
X-494185000Y18484000D02*
X-494185000Y21240000D01*
X-494225000Y18632000D02*
X-494225000Y21092000D01*
X-494265000Y18800000D02*
X-494265000Y20924000D01*
X-494305000Y19000000D02*
X-494305000Y20724000D01*
X-494345000Y19263000D02*
X-494345000Y20461000D01*
X-483784354Y16987000D02*
X-484784354Y16987000D01*
X-484284354Y16487000D02*
X-484284354Y17487000D01*
%TO.C,C10*%
X-553002000Y5864000D02*
G75*
G03*
X-553002000Y5864000I-4120000J0D01*
G01*
X-561202000Y5864000D02*
X-553042000Y5864000D01*
X-561202000Y5904000D02*
X-553042000Y5904000D01*
X-561202000Y5944000D02*
X-553042000Y5944000D01*
X-561201000Y5984000D02*
X-553043000Y5984000D01*
X-561199000Y6024000D02*
X-553045000Y6024000D01*
X-561198000Y6064000D02*
X-553046000Y6064000D01*
X-561196000Y6104000D02*
X-553048000Y6104000D01*
X-561193000Y6144000D02*
X-553051000Y6144000D01*
X-561190000Y6184000D02*
X-553054000Y6184000D01*
X-561187000Y6224000D02*
X-553057000Y6224000D01*
X-561183000Y6264000D02*
X-553061000Y6264000D01*
X-561179000Y6304000D02*
X-553065000Y6304000D01*
X-561174000Y6344000D02*
X-553070000Y6344000D01*
X-561170000Y6384000D02*
X-553074000Y6384000D01*
X-561164000Y6424000D02*
X-553080000Y6424000D01*
X-561159000Y6464000D02*
X-553085000Y6464000D01*
X-561152000Y6504000D02*
X-553092000Y6504000D01*
X-561146000Y6544000D02*
X-553098000Y6544000D01*
X-561139000Y6585000D02*
X-558162000Y6585000D01*
X-556082000Y6585000D02*
X-553105000Y6585000D01*
X-561132000Y6625000D02*
X-558162000Y6625000D01*
X-556082000Y6625000D02*
X-553112000Y6625000D01*
X-561124000Y6665000D02*
X-558162000Y6665000D01*
X-556082000Y6665000D02*
X-553120000Y6665000D01*
X-561116000Y6705000D02*
X-558162000Y6705000D01*
X-556082000Y6705000D02*
X-553128000Y6705000D01*
X-561107000Y6745000D02*
X-558162000Y6745000D01*
X-556082000Y6745000D02*
X-553137000Y6745000D01*
X-561098000Y6785000D02*
X-558162000Y6785000D01*
X-556082000Y6785000D02*
X-553146000Y6785000D01*
X-561089000Y6825000D02*
X-558162000Y6825000D01*
X-556082000Y6825000D02*
X-553155000Y6825000D01*
X-561079000Y6865000D02*
X-558162000Y6865000D01*
X-556082000Y6865000D02*
X-553165000Y6865000D01*
X-561069000Y6905000D02*
X-558162000Y6905000D01*
X-556082000Y6905000D02*
X-553175000Y6905000D01*
X-561058000Y6945000D02*
X-558162000Y6945000D01*
X-556082000Y6945000D02*
X-553186000Y6945000D01*
X-561047000Y6985000D02*
X-558162000Y6985000D01*
X-556082000Y6985000D02*
X-553197000Y6985000D01*
X-561036000Y7025000D02*
X-558162000Y7025000D01*
X-556082000Y7025000D02*
X-553208000Y7025000D01*
X-561024000Y7065000D02*
X-558162000Y7065000D01*
X-556082000Y7065000D02*
X-553220000Y7065000D01*
X-561011000Y7105000D02*
X-558162000Y7105000D01*
X-556082000Y7105000D02*
X-553233000Y7105000D01*
X-560999000Y7145000D02*
X-558162000Y7145000D01*
X-556082000Y7145000D02*
X-553245000Y7145000D01*
X-560985000Y7185000D02*
X-558162000Y7185000D01*
X-556082000Y7185000D02*
X-553259000Y7185000D01*
X-560972000Y7225000D02*
X-558162000Y7225000D01*
X-556082000Y7225000D02*
X-553272000Y7225000D01*
X-560957000Y7265000D02*
X-558162000Y7265000D01*
X-556082000Y7265000D02*
X-553287000Y7265000D01*
X-560943000Y7305000D02*
X-558162000Y7305000D01*
X-556082000Y7305000D02*
X-553301000Y7305000D01*
X-560927000Y7345000D02*
X-558162000Y7345000D01*
X-556082000Y7345000D02*
X-553317000Y7345000D01*
X-560912000Y7385000D02*
X-558162000Y7385000D01*
X-556082000Y7385000D02*
X-553332000Y7385000D01*
X-560896000Y7425000D02*
X-558162000Y7425000D01*
X-556082000Y7425000D02*
X-553348000Y7425000D01*
X-560879000Y7465000D02*
X-558162000Y7465000D01*
X-556082000Y7465000D02*
X-553365000Y7465000D01*
X-560862000Y7505000D02*
X-558162000Y7505000D01*
X-556082000Y7505000D02*
X-553382000Y7505000D01*
X-560844000Y7545000D02*
X-558162000Y7545000D01*
X-556082000Y7545000D02*
X-553400000Y7545000D01*
X-560826000Y7585000D02*
X-558162000Y7585000D01*
X-556082000Y7585000D02*
X-553418000Y7585000D01*
X-560808000Y7625000D02*
X-558162000Y7625000D01*
X-556082000Y7625000D02*
X-553436000Y7625000D01*
X-560788000Y7665000D02*
X-558162000Y7665000D01*
X-556082000Y7665000D02*
X-553456000Y7665000D01*
X-560769000Y7705000D02*
X-558162000Y7705000D01*
X-556082000Y7705000D02*
X-553475000Y7705000D01*
X-560749000Y7745000D02*
X-558162000Y7745000D01*
X-556082000Y7745000D02*
X-553495000Y7745000D01*
X-560728000Y7785000D02*
X-558162000Y7785000D01*
X-556082000Y7785000D02*
X-553516000Y7785000D01*
X-560706000Y7825000D02*
X-558162000Y7825000D01*
X-556082000Y7825000D02*
X-553538000Y7825000D01*
X-560684000Y7865000D02*
X-558162000Y7865000D01*
X-556082000Y7865000D02*
X-553560000Y7865000D01*
X-560662000Y7905000D02*
X-558162000Y7905000D01*
X-556082000Y7905000D02*
X-553582000Y7905000D01*
X-560639000Y7945000D02*
X-558162000Y7945000D01*
X-556082000Y7945000D02*
X-553605000Y7945000D01*
X-560615000Y7985000D02*
X-558162000Y7985000D01*
X-556082000Y7985000D02*
X-553629000Y7985000D01*
X-560591000Y8025000D02*
X-558162000Y8025000D01*
X-556082000Y8025000D02*
X-553653000Y8025000D01*
X-560566000Y8065000D02*
X-558162000Y8065000D01*
X-556082000Y8065000D02*
X-553678000Y8065000D01*
X-560540000Y8105000D02*
X-558162000Y8105000D01*
X-556082000Y8105000D02*
X-553704000Y8105000D01*
X-560514000Y8145000D02*
X-558162000Y8145000D01*
X-556082000Y8145000D02*
X-553730000Y8145000D01*
X-560487000Y8185000D02*
X-558162000Y8185000D01*
X-556082000Y8185000D02*
X-553757000Y8185000D01*
X-560460000Y8225000D02*
X-558162000Y8225000D01*
X-556082000Y8225000D02*
X-553784000Y8225000D01*
X-560431000Y8265000D02*
X-558162000Y8265000D01*
X-556082000Y8265000D02*
X-553813000Y8265000D01*
X-560402000Y8305000D02*
X-558162000Y8305000D01*
X-556082000Y8305000D02*
X-553842000Y8305000D01*
X-560372000Y8345000D02*
X-558162000Y8345000D01*
X-556082000Y8345000D02*
X-553872000Y8345000D01*
X-560342000Y8385000D02*
X-558162000Y8385000D01*
X-556082000Y8385000D02*
X-553902000Y8385000D01*
X-560311000Y8425000D02*
X-558162000Y8425000D01*
X-556082000Y8425000D02*
X-553933000Y8425000D01*
X-560278000Y8465000D02*
X-558162000Y8465000D01*
X-556082000Y8465000D02*
X-553966000Y8465000D01*
X-560246000Y8505000D02*
X-558162000Y8505000D01*
X-556082000Y8505000D02*
X-553998000Y8505000D01*
X-560212000Y8545000D02*
X-558162000Y8545000D01*
X-556082000Y8545000D02*
X-554032000Y8545000D01*
X-560177000Y8585000D02*
X-558162000Y8585000D01*
X-556082000Y8585000D02*
X-554067000Y8585000D01*
X-560141000Y8625000D02*
X-558162000Y8625000D01*
X-556082000Y8625000D02*
X-554103000Y8625000D01*
X-560105000Y8665000D02*
X-554139000Y8665000D01*
X-560067000Y8705000D02*
X-554177000Y8705000D01*
X-560029000Y8745000D02*
X-554215000Y8745000D01*
X-559989000Y8785000D02*
X-554255000Y8785000D01*
X-559948000Y8825000D02*
X-554296000Y8825000D01*
X-559906000Y8865000D02*
X-554338000Y8865000D01*
X-559863000Y8905000D02*
X-554381000Y8905000D01*
X-559819000Y8945000D02*
X-554425000Y8945000D01*
X-559773000Y8985000D02*
X-554471000Y8985000D01*
X-559726000Y9025000D02*
X-554518000Y9025000D01*
X-559678000Y9065000D02*
X-554566000Y9065000D01*
X-559627000Y9105000D02*
X-554617000Y9105000D01*
X-559576000Y9145000D02*
X-554668000Y9145000D01*
X-559522000Y9185000D02*
X-554722000Y9185000D01*
X-559467000Y9225000D02*
X-554777000Y9225000D01*
X-559409000Y9265000D02*
X-554835000Y9265000D01*
X-559350000Y9305000D02*
X-554894000Y9305000D01*
X-559288000Y9345000D02*
X-554956000Y9345000D01*
X-559224000Y9385000D02*
X-555020000Y9385000D01*
X-559156000Y9425000D02*
X-555088000Y9425000D01*
X-559086000Y9465000D02*
X-555158000Y9465000D01*
X-559012000Y9505000D02*
X-555232000Y9505000D01*
X-558935000Y9545000D02*
X-555309000Y9545000D01*
X-558853000Y9585000D02*
X-555391000Y9585000D01*
X-558767000Y9625000D02*
X-555477000Y9625000D01*
X-558674000Y9665000D02*
X-555570000Y9665000D01*
X-558575000Y9705000D02*
X-555669000Y9705000D01*
X-558468000Y9745000D02*
X-555776000Y9745000D01*
X-558351000Y9785000D02*
X-555893000Y9785000D01*
X-558220000Y9825000D02*
X-556024000Y9825000D01*
X-558070000Y9865000D02*
X-556174000Y9865000D01*
X-557890000Y9905000D02*
X-556354000Y9905000D01*
X-557655000Y9945000D02*
X-556589000Y9945000D01*
X-559437000Y1454302D02*
X-559437000Y2254302D01*
X-559837000Y1854302D02*
X-559037000Y1854302D01*
%TO.C,C9*%
X-524836000Y3606000D02*
G75*
G03*
X-524836000Y3606000I-4120000J0D01*
G01*
X-528956000Y7686000D02*
X-528956000Y-474000D01*
X-528916000Y7686000D02*
X-528916000Y-474000D01*
X-528876000Y7686000D02*
X-528876000Y-474000D01*
X-528836000Y7685000D02*
X-528836000Y-473000D01*
X-528796000Y7683000D02*
X-528796000Y-471000D01*
X-528756000Y7682000D02*
X-528756000Y-470000D01*
X-528716000Y7680000D02*
X-528716000Y-468000D01*
X-528676000Y7677000D02*
X-528676000Y-465000D01*
X-528636000Y7674000D02*
X-528636000Y-462000D01*
X-528596000Y7671000D02*
X-528596000Y-459000D01*
X-528556000Y7667000D02*
X-528556000Y-455000D01*
X-528516000Y7663000D02*
X-528516000Y-451000D01*
X-528476000Y7658000D02*
X-528476000Y-446000D01*
X-528436000Y7654000D02*
X-528436000Y-442000D01*
X-528396000Y7648000D02*
X-528396000Y-436000D01*
X-528356000Y7643000D02*
X-528356000Y-431000D01*
X-528316000Y7636000D02*
X-528316000Y-424000D01*
X-528276000Y7630000D02*
X-528276000Y-418000D01*
X-528235000Y7623000D02*
X-528235000Y4646000D01*
X-528235000Y2566000D02*
X-528235000Y-411000D01*
X-528195000Y7616000D02*
X-528195000Y4646000D01*
X-528195000Y2566000D02*
X-528195000Y-404000D01*
X-528155000Y7608000D02*
X-528155000Y4646000D01*
X-528155000Y2566000D02*
X-528155000Y-396000D01*
X-528115000Y7600000D02*
X-528115000Y4646000D01*
X-528115000Y2566000D02*
X-528115000Y-388000D01*
X-528075000Y7591000D02*
X-528075000Y4646000D01*
X-528075000Y2566000D02*
X-528075000Y-379000D01*
X-528035000Y7582000D02*
X-528035000Y4646000D01*
X-528035000Y2566000D02*
X-528035000Y-370000D01*
X-527995000Y7573000D02*
X-527995000Y4646000D01*
X-527995000Y2566000D02*
X-527995000Y-361000D01*
X-527955000Y7563000D02*
X-527955000Y4646000D01*
X-527955000Y2566000D02*
X-527955000Y-351000D01*
X-527915000Y7553000D02*
X-527915000Y4646000D01*
X-527915000Y2566000D02*
X-527915000Y-341000D01*
X-527875000Y7542000D02*
X-527875000Y4646000D01*
X-527875000Y2566000D02*
X-527875000Y-330000D01*
X-527835000Y7531000D02*
X-527835000Y4646000D01*
X-527835000Y2566000D02*
X-527835000Y-319000D01*
X-527795000Y7520000D02*
X-527795000Y4646000D01*
X-527795000Y2566000D02*
X-527795000Y-308000D01*
X-527755000Y7508000D02*
X-527755000Y4646000D01*
X-527755000Y2566000D02*
X-527755000Y-296000D01*
X-527715000Y7495000D02*
X-527715000Y4646000D01*
X-527715000Y2566000D02*
X-527715000Y-283000D01*
X-527675000Y7483000D02*
X-527675000Y4646000D01*
X-527675000Y2566000D02*
X-527675000Y-271000D01*
X-527635000Y7469000D02*
X-527635000Y4646000D01*
X-527635000Y2566000D02*
X-527635000Y-257000D01*
X-527595000Y7456000D02*
X-527595000Y4646000D01*
X-527595000Y2566000D02*
X-527595000Y-244000D01*
X-527555000Y7441000D02*
X-527555000Y4646000D01*
X-527555000Y2566000D02*
X-527555000Y-229000D01*
X-527515000Y7427000D02*
X-527515000Y4646000D01*
X-527515000Y2566000D02*
X-527515000Y-215000D01*
X-527475000Y7411000D02*
X-527475000Y4646000D01*
X-527475000Y2566000D02*
X-527475000Y-199000D01*
X-527435000Y7396000D02*
X-527435000Y4646000D01*
X-527435000Y2566000D02*
X-527435000Y-184000D01*
X-527395000Y7380000D02*
X-527395000Y4646000D01*
X-527395000Y2566000D02*
X-527395000Y-168000D01*
X-527355000Y7363000D02*
X-527355000Y4646000D01*
X-527355000Y2566000D02*
X-527355000Y-151000D01*
X-527315000Y7346000D02*
X-527315000Y4646000D01*
X-527315000Y2566000D02*
X-527315000Y-134000D01*
X-527275000Y7328000D02*
X-527275000Y4646000D01*
X-527275000Y2566000D02*
X-527275000Y-116000D01*
X-527235000Y7310000D02*
X-527235000Y4646000D01*
X-527235000Y2566000D02*
X-527235000Y-98000D01*
X-527195000Y7292000D02*
X-527195000Y4646000D01*
X-527195000Y2566000D02*
X-527195000Y-80000D01*
X-527155000Y7272000D02*
X-527155000Y4646000D01*
X-527155000Y2566000D02*
X-527155000Y-60000D01*
X-527115000Y7253000D02*
X-527115000Y4646000D01*
X-527115000Y2566000D02*
X-527115000Y-41000D01*
X-527075000Y7233000D02*
X-527075000Y4646000D01*
X-527075000Y2566000D02*
X-527075000Y-21000D01*
X-527035000Y7212000D02*
X-527035000Y4646000D01*
X-527035000Y2566000D02*
X-527035000Y0D01*
X-526995000Y7190000D02*
X-526995000Y4646000D01*
X-526995000Y2566000D02*
X-526995000Y22000D01*
X-526955000Y7168000D02*
X-526955000Y4646000D01*
X-526955000Y2566000D02*
X-526955000Y44000D01*
X-526915000Y7146000D02*
X-526915000Y4646000D01*
X-526915000Y2566000D02*
X-526915000Y66000D01*
X-526875000Y7123000D02*
X-526875000Y4646000D01*
X-526875000Y2566000D02*
X-526875000Y89000D01*
X-526835000Y7099000D02*
X-526835000Y4646000D01*
X-526835000Y2566000D02*
X-526835000Y113000D01*
X-526795000Y7075000D02*
X-526795000Y4646000D01*
X-526795000Y2566000D02*
X-526795000Y137000D01*
X-526755000Y7050000D02*
X-526755000Y4646000D01*
X-526755000Y2566000D02*
X-526755000Y162000D01*
X-526715000Y7024000D02*
X-526715000Y4646000D01*
X-526715000Y2566000D02*
X-526715000Y188000D01*
X-526675000Y6998000D02*
X-526675000Y4646000D01*
X-526675000Y2566000D02*
X-526675000Y214000D01*
X-526635000Y6971000D02*
X-526635000Y4646000D01*
X-526635000Y2566000D02*
X-526635000Y241000D01*
X-526595000Y6944000D02*
X-526595000Y4646000D01*
X-526595000Y2566000D02*
X-526595000Y268000D01*
X-526555000Y6915000D02*
X-526555000Y4646000D01*
X-526555000Y2566000D02*
X-526555000Y297000D01*
X-526515000Y6886000D02*
X-526515000Y4646000D01*
X-526515000Y2566000D02*
X-526515000Y326000D01*
X-526475000Y6856000D02*
X-526475000Y4646000D01*
X-526475000Y2566000D02*
X-526475000Y356000D01*
X-526435000Y6826000D02*
X-526435000Y4646000D01*
X-526435000Y2566000D02*
X-526435000Y386000D01*
X-526395000Y6795000D02*
X-526395000Y4646000D01*
X-526395000Y2566000D02*
X-526395000Y417000D01*
X-526355000Y6762000D02*
X-526355000Y4646000D01*
X-526355000Y2566000D02*
X-526355000Y450000D01*
X-526315000Y6730000D02*
X-526315000Y4646000D01*
X-526315000Y2566000D02*
X-526315000Y482000D01*
X-526275000Y6696000D02*
X-526275000Y4646000D01*
X-526275000Y2566000D02*
X-526275000Y516000D01*
X-526235000Y6661000D02*
X-526235000Y4646000D01*
X-526235000Y2566000D02*
X-526235000Y551000D01*
X-526195000Y6625000D02*
X-526195000Y4646000D01*
X-526195000Y2566000D02*
X-526195000Y587000D01*
X-526155000Y6589000D02*
X-526155000Y623000D01*
X-526115000Y6551000D02*
X-526115000Y661000D01*
X-526075000Y6513000D02*
X-526075000Y699000D01*
X-526035000Y6473000D02*
X-526035000Y739000D01*
X-525995000Y6432000D02*
X-525995000Y780000D01*
X-525955000Y6390000D02*
X-525955000Y822000D01*
X-525915000Y6347000D02*
X-525915000Y865000D01*
X-525875000Y6303000D02*
X-525875000Y909000D01*
X-525835000Y6257000D02*
X-525835000Y955000D01*
X-525795000Y6210000D02*
X-525795000Y1002000D01*
X-525755000Y6162000D02*
X-525755000Y1050000D01*
X-525715000Y6111000D02*
X-525715000Y1101000D01*
X-525675000Y6060000D02*
X-525675000Y1152000D01*
X-525635000Y6006000D02*
X-525635000Y1206000D01*
X-525595000Y5951000D02*
X-525595000Y1261000D01*
X-525555000Y5893000D02*
X-525555000Y1319000D01*
X-525515000Y5834000D02*
X-525515000Y1378000D01*
X-525475000Y5772000D02*
X-525475000Y1440000D01*
X-525435000Y5708000D02*
X-525435000Y1504000D01*
X-525395000Y5640000D02*
X-525395000Y1572000D01*
X-525355000Y5570000D02*
X-525355000Y1642000D01*
X-525315000Y5496000D02*
X-525315000Y1716000D01*
X-525275000Y5419000D02*
X-525275000Y1793000D01*
X-525235000Y5337000D02*
X-525235000Y1875000D01*
X-525195000Y5251000D02*
X-525195000Y1961000D01*
X-525155000Y5158000D02*
X-525155000Y2054000D01*
X-525115000Y5059000D02*
X-525115000Y2153000D01*
X-525075000Y4952000D02*
X-525075000Y2260000D01*
X-525035000Y4835000D02*
X-525035000Y2377000D01*
X-524995000Y4704000D02*
X-524995000Y2508000D01*
X-524955000Y4554000D02*
X-524955000Y2658000D01*
X-524915000Y4374000D02*
X-524915000Y2838000D01*
X-524875000Y4139000D02*
X-524875000Y3073000D01*
X-533365698Y5921000D02*
X-532565698Y5921000D01*
X-532965698Y6321000D02*
X-532965698Y5521000D01*
%TO.C,C8*%
X-570056000Y31332000D02*
G75*
G03*
X-570056000Y31332000I-6370000J0D01*
G01*
X-570096000Y31332000D02*
X-582756000Y31332000D01*
X-570096000Y31292000D02*
X-582756000Y31292000D01*
X-570096000Y31252000D02*
X-582756000Y31252000D01*
X-570097000Y31212000D02*
X-582755000Y31212000D01*
X-570098000Y31172000D02*
X-582754000Y31172000D01*
X-570099000Y31132000D02*
X-582753000Y31132000D01*
X-570100000Y31092000D02*
X-582752000Y31092000D01*
X-570102000Y31052000D02*
X-582750000Y31052000D01*
X-570104000Y31012000D02*
X-582748000Y31012000D01*
X-570106000Y30972000D02*
X-582746000Y30972000D01*
X-570108000Y30932000D02*
X-582744000Y30932000D01*
X-570111000Y30892000D02*
X-582741000Y30892000D01*
X-570114000Y30852000D02*
X-582738000Y30852000D01*
X-570117000Y30812000D02*
X-582735000Y30812000D01*
X-570120000Y30772000D02*
X-582732000Y30772000D01*
X-570124000Y30732000D02*
X-582728000Y30732000D01*
X-570128000Y30692000D02*
X-582724000Y30692000D01*
X-570132000Y30652000D02*
X-582720000Y30652000D01*
X-570136000Y30611000D02*
X-582716000Y30611000D01*
X-570141000Y30571000D02*
X-582711000Y30571000D01*
X-570146000Y30531000D02*
X-582706000Y30531000D01*
X-570151000Y30491000D02*
X-582701000Y30491000D01*
X-570157000Y30451000D02*
X-582695000Y30451000D01*
X-570162000Y30411000D02*
X-582690000Y30411000D01*
X-570168000Y30371000D02*
X-582684000Y30371000D01*
X-570174000Y30331000D02*
X-582678000Y30331000D01*
X-570181000Y30291000D02*
X-582671000Y30291000D01*
X-570188000Y30251000D02*
X-574986000Y30251000D01*
X-577866000Y30251000D02*
X-582664000Y30251000D01*
X-570195000Y30211000D02*
X-574986000Y30211000D01*
X-577866000Y30211000D02*
X-582657000Y30211000D01*
X-570202000Y30171000D02*
X-574986000Y30171000D01*
X-577866000Y30171000D02*
X-582650000Y30171000D01*
X-570210000Y30131000D02*
X-574986000Y30131000D01*
X-577866000Y30131000D02*
X-582642000Y30131000D01*
X-570217000Y30091000D02*
X-574986000Y30091000D01*
X-577866000Y30091000D02*
X-582635000Y30091000D01*
X-570225000Y30051000D02*
X-574986000Y30051000D01*
X-577866000Y30051000D02*
X-582627000Y30051000D01*
X-570234000Y30011000D02*
X-574986000Y30011000D01*
X-577866000Y30011000D02*
X-582618000Y30011000D01*
X-570242000Y29971000D02*
X-574986000Y29971000D01*
X-577866000Y29971000D02*
X-582610000Y29971000D01*
X-570251000Y29931000D02*
X-574986000Y29931000D01*
X-577866000Y29931000D02*
X-582601000Y29931000D01*
X-570260000Y29891000D02*
X-574986000Y29891000D01*
X-577866000Y29891000D02*
X-582592000Y29891000D01*
X-570270000Y29851000D02*
X-574986000Y29851000D01*
X-577866000Y29851000D02*
X-582582000Y29851000D01*
X-570280000Y29811000D02*
X-574986000Y29811000D01*
X-577866000Y29811000D02*
X-582572000Y29811000D01*
X-570289000Y29771000D02*
X-574986000Y29771000D01*
X-577866000Y29771000D02*
X-582563000Y29771000D01*
X-570300000Y29731000D02*
X-574986000Y29731000D01*
X-577866000Y29731000D02*
X-582552000Y29731000D01*
X-570310000Y29691000D02*
X-574986000Y29691000D01*
X-577866000Y29691000D02*
X-582542000Y29691000D01*
X-570321000Y29651000D02*
X-574986000Y29651000D01*
X-577866000Y29651000D02*
X-582531000Y29651000D01*
X-570332000Y29611000D02*
X-574986000Y29611000D01*
X-577866000Y29611000D02*
X-582520000Y29611000D01*
X-570343000Y29571000D02*
X-574986000Y29571000D01*
X-577866000Y29571000D02*
X-582509000Y29571000D01*
X-570355000Y29531000D02*
X-574986000Y29531000D01*
X-577866000Y29531000D02*
X-582497000Y29531000D01*
X-570367000Y29491000D02*
X-574986000Y29491000D01*
X-577866000Y29491000D02*
X-582485000Y29491000D01*
X-570379000Y29451000D02*
X-574986000Y29451000D01*
X-577866000Y29451000D02*
X-582473000Y29451000D01*
X-570392000Y29411000D02*
X-574986000Y29411000D01*
X-577866000Y29411000D02*
X-582460000Y29411000D01*
X-570405000Y29371000D02*
X-574986000Y29371000D01*
X-577866000Y29371000D02*
X-582447000Y29371000D01*
X-570418000Y29331000D02*
X-574986000Y29331000D01*
X-577866000Y29331000D02*
X-582434000Y29331000D01*
X-570431000Y29291000D02*
X-574986000Y29291000D01*
X-577866000Y29291000D02*
X-582421000Y29291000D01*
X-570445000Y29251000D02*
X-574986000Y29251000D01*
X-577866000Y29251000D02*
X-582407000Y29251000D01*
X-570459000Y29211000D02*
X-574986000Y29211000D01*
X-577866000Y29211000D02*
X-582393000Y29211000D01*
X-570473000Y29171000D02*
X-574986000Y29171000D01*
X-577866000Y29171000D02*
X-582379000Y29171000D01*
X-570487000Y29131000D02*
X-574986000Y29131000D01*
X-577866000Y29131000D02*
X-582365000Y29131000D01*
X-570502000Y29091000D02*
X-574986000Y29091000D01*
X-577866000Y29091000D02*
X-582350000Y29091000D01*
X-570518000Y29051000D02*
X-574986000Y29051000D01*
X-577866000Y29051000D02*
X-582334000Y29051000D01*
X-570533000Y29011000D02*
X-574986000Y29011000D01*
X-577866000Y29011000D02*
X-582319000Y29011000D01*
X-570549000Y28971000D02*
X-574986000Y28971000D01*
X-577866000Y28971000D02*
X-582303000Y28971000D01*
X-570565000Y28931000D02*
X-574986000Y28931000D01*
X-577866000Y28931000D02*
X-582287000Y28931000D01*
X-570581000Y28891000D02*
X-574986000Y28891000D01*
X-577866000Y28891000D02*
X-582271000Y28891000D01*
X-570598000Y28851000D02*
X-574986000Y28851000D01*
X-577866000Y28851000D02*
X-582254000Y28851000D01*
X-570615000Y28811000D02*
X-574986000Y28811000D01*
X-577866000Y28811000D02*
X-582237000Y28811000D01*
X-570633000Y28771000D02*
X-574986000Y28771000D01*
X-577866000Y28771000D02*
X-582219000Y28771000D01*
X-570650000Y28731000D02*
X-574986000Y28731000D01*
X-577866000Y28731000D02*
X-582202000Y28731000D01*
X-570668000Y28691000D02*
X-574986000Y28691000D01*
X-577866000Y28691000D02*
X-582184000Y28691000D01*
X-570687000Y28651000D02*
X-574986000Y28651000D01*
X-577866000Y28651000D02*
X-582165000Y28651000D01*
X-570705000Y28611000D02*
X-574986000Y28611000D01*
X-577866000Y28611000D02*
X-582147000Y28611000D01*
X-570724000Y28571000D02*
X-574986000Y28571000D01*
X-577866000Y28571000D02*
X-582128000Y28571000D01*
X-570744000Y28531000D02*
X-574986000Y28531000D01*
X-577866000Y28531000D02*
X-582108000Y28531000D01*
X-570764000Y28491000D02*
X-574986000Y28491000D01*
X-577866000Y28491000D02*
X-582088000Y28491000D01*
X-570784000Y28451000D02*
X-574986000Y28451000D01*
X-577866000Y28451000D02*
X-582068000Y28451000D01*
X-570804000Y28411000D02*
X-574986000Y28411000D01*
X-577866000Y28411000D02*
X-582048000Y28411000D01*
X-570825000Y28371000D02*
X-574986000Y28371000D01*
X-577866000Y28371000D02*
X-582027000Y28371000D01*
X-570846000Y28331000D02*
X-574986000Y28331000D01*
X-577866000Y28331000D02*
X-582006000Y28331000D01*
X-570868000Y28291000D02*
X-574986000Y28291000D01*
X-577866000Y28291000D02*
X-581984000Y28291000D01*
X-570890000Y28251000D02*
X-574986000Y28251000D01*
X-577866000Y28251000D02*
X-581962000Y28251000D01*
X-570912000Y28211000D02*
X-574986000Y28211000D01*
X-577866000Y28211000D02*
X-581940000Y28211000D01*
X-570935000Y28171000D02*
X-574986000Y28171000D01*
X-577866000Y28171000D02*
X-581917000Y28171000D01*
X-570958000Y28131000D02*
X-574986000Y28131000D01*
X-577866000Y28131000D02*
X-581894000Y28131000D01*
X-570981000Y28091000D02*
X-574986000Y28091000D01*
X-577866000Y28091000D02*
X-581871000Y28091000D01*
X-571005000Y28051000D02*
X-574986000Y28051000D01*
X-577866000Y28051000D02*
X-581847000Y28051000D01*
X-571029000Y28011000D02*
X-574986000Y28011000D01*
X-577866000Y28011000D02*
X-581823000Y28011000D01*
X-571054000Y27971000D02*
X-574986000Y27971000D01*
X-577866000Y27971000D02*
X-581798000Y27971000D01*
X-571079000Y27931000D02*
X-574986000Y27931000D01*
X-577866000Y27931000D02*
X-581773000Y27931000D01*
X-571104000Y27891000D02*
X-574986000Y27891000D01*
X-577866000Y27891000D02*
X-581748000Y27891000D01*
X-571130000Y27851000D02*
X-574986000Y27851000D01*
X-577866000Y27851000D02*
X-581722000Y27851000D01*
X-571156000Y27811000D02*
X-574986000Y27811000D01*
X-577866000Y27811000D02*
X-581696000Y27811000D01*
X-571183000Y27771000D02*
X-574986000Y27771000D01*
X-577866000Y27771000D02*
X-581669000Y27771000D01*
X-571210000Y27731000D02*
X-574986000Y27731000D01*
X-577866000Y27731000D02*
X-581642000Y27731000D01*
X-571238000Y27691000D02*
X-574986000Y27691000D01*
X-577866000Y27691000D02*
X-581614000Y27691000D01*
X-571266000Y27651000D02*
X-574986000Y27651000D01*
X-577866000Y27651000D02*
X-581586000Y27651000D01*
X-571295000Y27611000D02*
X-574986000Y27611000D01*
X-577866000Y27611000D02*
X-581557000Y27611000D01*
X-571324000Y27571000D02*
X-574986000Y27571000D01*
X-577866000Y27571000D02*
X-581528000Y27571000D01*
X-571353000Y27531000D02*
X-574986000Y27531000D01*
X-577866000Y27531000D02*
X-581499000Y27531000D01*
X-571383000Y27491000D02*
X-574986000Y27491000D01*
X-577866000Y27491000D02*
X-581469000Y27491000D01*
X-571414000Y27451000D02*
X-574986000Y27451000D01*
X-577866000Y27451000D02*
X-581438000Y27451000D01*
X-571444000Y27411000D02*
X-574986000Y27411000D01*
X-577866000Y27411000D02*
X-581408000Y27411000D01*
X-571476000Y27371000D02*
X-581376000Y27371000D01*
X-571508000Y27331000D02*
X-581344000Y27331000D01*
X-571541000Y27291000D02*
X-581311000Y27291000D01*
X-571574000Y27251000D02*
X-581278000Y27251000D01*
X-571607000Y27211000D02*
X-581245000Y27211000D01*
X-571641000Y27171000D02*
X-581211000Y27171000D01*
X-571676000Y27131000D02*
X-581176000Y27131000D01*
X-571712000Y27091000D02*
X-581140000Y27091000D01*
X-571748000Y27051000D02*
X-581104000Y27051000D01*
X-571784000Y27011000D02*
X-581068000Y27011000D01*
X-571821000Y26971000D02*
X-581031000Y26971000D01*
X-571859000Y26931000D02*
X-580993000Y26931000D01*
X-571898000Y26891000D02*
X-580954000Y26891000D01*
X-571937000Y26851000D02*
X-580915000Y26851000D01*
X-571977000Y26811000D02*
X-580875000Y26811000D01*
X-572018000Y26771000D02*
X-580834000Y26771000D01*
X-572059000Y26731000D02*
X-580793000Y26731000D01*
X-572101000Y26691000D02*
X-580751000Y26691000D01*
X-572144000Y26651000D02*
X-580708000Y26651000D01*
X-572188000Y26611000D02*
X-580664000Y26611000D01*
X-572232000Y26571000D02*
X-580620000Y26571000D01*
X-572278000Y26531000D02*
X-580574000Y26531000D01*
X-572324000Y26491000D02*
X-580528000Y26491000D01*
X-572371000Y26451000D02*
X-580481000Y26451000D01*
X-572419000Y26411000D02*
X-580433000Y26411000D01*
X-572469000Y26371000D02*
X-580383000Y26371000D01*
X-572519000Y26331000D02*
X-580333000Y26331000D01*
X-572570000Y26291000D02*
X-580282000Y26291000D01*
X-572622000Y26251000D02*
X-580230000Y26251000D01*
X-572676000Y26211000D02*
X-580176000Y26211000D01*
X-572730000Y26171000D02*
X-580122000Y26171000D01*
X-572786000Y26131000D02*
X-580066000Y26131000D01*
X-572843000Y26091000D02*
X-580009000Y26091000D01*
X-572902000Y26051000D02*
X-579950000Y26051000D01*
X-572962000Y26011000D02*
X-579890000Y26011000D01*
X-573024000Y25971000D02*
X-579828000Y25971000D01*
X-573087000Y25931000D02*
X-579765000Y25931000D01*
X-573151000Y25891000D02*
X-579701000Y25891000D01*
X-573218000Y25851000D02*
X-579634000Y25851000D01*
X-573286000Y25811000D02*
X-579566000Y25811000D01*
X-573357000Y25771000D02*
X-579495000Y25771000D01*
X-573430000Y25731000D02*
X-579422000Y25731000D01*
X-573505000Y25691000D02*
X-579347000Y25691000D01*
X-573582000Y25651000D02*
X-579270000Y25651000D01*
X-573662000Y25611000D02*
X-579190000Y25611000D01*
X-573745000Y25571000D02*
X-579107000Y25571000D01*
X-573832000Y25531000D02*
X-579020000Y25531000D01*
X-573922000Y25491000D02*
X-578930000Y25491000D01*
X-574016000Y25451000D02*
X-578836000Y25451000D01*
X-574114000Y25411000D02*
X-578738000Y25411000D01*
X-574217000Y25371000D02*
X-578635000Y25371000D01*
X-574326000Y25331000D02*
X-578526000Y25331000D01*
X-574442000Y25291000D02*
X-578410000Y25291000D01*
X-574565000Y25251000D02*
X-578287000Y25251000D01*
X-574698000Y25211000D02*
X-578154000Y25211000D01*
X-574843000Y25171000D02*
X-578009000Y25171000D01*
X-575004000Y25131000D02*
X-577848000Y25131000D01*
X-575185000Y25091000D02*
X-577667000Y25091000D01*
X-575398000Y25051000D02*
X-577454000Y25051000D01*
X-575669000Y25011000D02*
X-577183000Y25011000D01*
X-576109000Y24971000D02*
X-576743000Y24971000D01*
X-572851000Y38149082D02*
X-572851000Y36899082D01*
X-572226000Y37524082D02*
X-573476000Y37524082D01*
%TO.C,C7*%
X-584070000Y29200000D02*
G75*
G03*
X-584070000Y29200000I-9120000J0D01*
G01*
X-602271000Y29200000D02*
X-584109000Y29200000D01*
X-602270000Y29240000D02*
X-584110000Y29240000D01*
X-602270000Y29280000D02*
X-584110000Y29280000D01*
X-602270000Y29320000D02*
X-584110000Y29320000D01*
X-602269000Y29360000D02*
X-584111000Y29360000D01*
X-602268000Y29400000D02*
X-584112000Y29400000D01*
X-602267000Y29440000D02*
X-584113000Y29440000D01*
X-602266000Y29480000D02*
X-584114000Y29480000D01*
X-602265000Y29520000D02*
X-584115000Y29520000D01*
X-602263000Y29560000D02*
X-584117000Y29560000D01*
X-602262000Y29600000D02*
X-584118000Y29600000D01*
X-602260000Y29640000D02*
X-584120000Y29640000D01*
X-602258000Y29680000D02*
X-584122000Y29680000D01*
X-602256000Y29720000D02*
X-584124000Y29720000D01*
X-602253000Y29760000D02*
X-584127000Y29760000D01*
X-602251000Y29800000D02*
X-584129000Y29800000D01*
X-602248000Y29840000D02*
X-584132000Y29840000D01*
X-602245000Y29880000D02*
X-584135000Y29880000D01*
X-602242000Y29921000D02*
X-584138000Y29921000D01*
X-602239000Y29961000D02*
X-584141000Y29961000D01*
X-602235000Y30001000D02*
X-584145000Y30001000D01*
X-602232000Y30041000D02*
X-584148000Y30041000D01*
X-602228000Y30081000D02*
X-584152000Y30081000D01*
X-602224000Y30121000D02*
X-584156000Y30121000D01*
X-602220000Y30161000D02*
X-584160000Y30161000D01*
X-602216000Y30201000D02*
X-584164000Y30201000D01*
X-602211000Y30241000D02*
X-584169000Y30241000D01*
X-602206000Y30281000D02*
X-584174000Y30281000D01*
X-602201000Y30321000D02*
X-584179000Y30321000D01*
X-602196000Y30361000D02*
X-584184000Y30361000D01*
X-602191000Y30401000D02*
X-584189000Y30401000D01*
X-602186000Y30441000D02*
X-584194000Y30441000D01*
X-602180000Y30481000D02*
X-584200000Y30481000D01*
X-602174000Y30521000D02*
X-584206000Y30521000D01*
X-602169000Y30561000D02*
X-584211000Y30561000D01*
X-602162000Y30601000D02*
X-584218000Y30601000D01*
X-602156000Y30641000D02*
X-584224000Y30641000D01*
X-602150000Y30681000D02*
X-584230000Y30681000D01*
X-602143000Y30721000D02*
X-584237000Y30721000D01*
X-602136000Y30761000D02*
X-584244000Y30761000D01*
X-602129000Y30801000D02*
X-584251000Y30801000D01*
X-602122000Y30841000D02*
X-584258000Y30841000D01*
X-602114000Y30881000D02*
X-584266000Y30881000D01*
X-602107000Y30921000D02*
X-584273000Y30921000D01*
X-602099000Y30961000D02*
X-584281000Y30961000D01*
X-602091000Y31001000D02*
X-584289000Y31001000D01*
X-602083000Y31041000D02*
X-584297000Y31041000D01*
X-602075000Y31081000D02*
X-584305000Y31081000D01*
X-602066000Y31121000D02*
X-584314000Y31121000D01*
X-602057000Y31161000D02*
X-584323000Y31161000D01*
X-602048000Y31201000D02*
X-584332000Y31201000D01*
X-602039000Y31241000D02*
X-584341000Y31241000D01*
X-602030000Y31281000D02*
X-584350000Y31281000D01*
X-602021000Y31321000D02*
X-584359000Y31321000D01*
X-602011000Y31361000D02*
X-584369000Y31361000D01*
X-602001000Y31401000D02*
X-584379000Y31401000D01*
X-601991000Y31441000D02*
X-584389000Y31441000D01*
X-601981000Y31481000D02*
X-584399000Y31481000D01*
X-601970000Y31521000D02*
X-594630000Y31521000D01*
X-591750000Y31521000D02*
X-584410000Y31521000D01*
X-601960000Y31561000D02*
X-594630000Y31561000D01*
X-591750000Y31561000D02*
X-584420000Y31561000D01*
X-601949000Y31601000D02*
X-594630000Y31601000D01*
X-591750000Y31601000D02*
X-584431000Y31601000D01*
X-601938000Y31641000D02*
X-594630000Y31641000D01*
X-591750000Y31641000D02*
X-584442000Y31641000D01*
X-601927000Y31681000D02*
X-594630000Y31681000D01*
X-591750000Y31681000D02*
X-584453000Y31681000D01*
X-601915000Y31721000D02*
X-594630000Y31721000D01*
X-591750000Y31721000D02*
X-584465000Y31721000D01*
X-601904000Y31761000D02*
X-594630000Y31761000D01*
X-591750000Y31761000D02*
X-584476000Y31761000D01*
X-601892000Y31801000D02*
X-594630000Y31801000D01*
X-591750000Y31801000D02*
X-584488000Y31801000D01*
X-601880000Y31841000D02*
X-594630000Y31841000D01*
X-591750000Y31841000D02*
X-584500000Y31841000D01*
X-601868000Y31881000D02*
X-594630000Y31881000D01*
X-591750000Y31881000D02*
X-584512000Y31881000D01*
X-601855000Y31921000D02*
X-594630000Y31921000D01*
X-591750000Y31921000D02*
X-584525000Y31921000D01*
X-601843000Y31961000D02*
X-594630000Y31961000D01*
X-591750000Y31961000D02*
X-584537000Y31961000D01*
X-601830000Y32001000D02*
X-594630000Y32001000D01*
X-591750000Y32001000D02*
X-584550000Y32001000D01*
X-601817000Y32041000D02*
X-594630000Y32041000D01*
X-591750000Y32041000D02*
X-584563000Y32041000D01*
X-601804000Y32081000D02*
X-594630000Y32081000D01*
X-591750000Y32081000D02*
X-584576000Y32081000D01*
X-601790000Y32121000D02*
X-594630000Y32121000D01*
X-591750000Y32121000D02*
X-584590000Y32121000D01*
X-601777000Y32161000D02*
X-594630000Y32161000D01*
X-591750000Y32161000D02*
X-584603000Y32161000D01*
X-601763000Y32201000D02*
X-594630000Y32201000D01*
X-591750000Y32201000D02*
X-584617000Y32201000D01*
X-601749000Y32241000D02*
X-594630000Y32241000D01*
X-591750000Y32241000D02*
X-584631000Y32241000D01*
X-601735000Y32281000D02*
X-594630000Y32281000D01*
X-591750000Y32281000D02*
X-584645000Y32281000D01*
X-601720000Y32321000D02*
X-594630000Y32321000D01*
X-591750000Y32321000D02*
X-584660000Y32321000D01*
X-601706000Y32361000D02*
X-594630000Y32361000D01*
X-591750000Y32361000D02*
X-584674000Y32361000D01*
X-601691000Y32401000D02*
X-594630000Y32401000D01*
X-591750000Y32401000D02*
X-584689000Y32401000D01*
X-601676000Y32441000D02*
X-594630000Y32441000D01*
X-591750000Y32441000D02*
X-584704000Y32441000D01*
X-601660000Y32481000D02*
X-594630000Y32481000D01*
X-591750000Y32481000D02*
X-584720000Y32481000D01*
X-601645000Y32521000D02*
X-594630000Y32521000D01*
X-591750000Y32521000D02*
X-584735000Y32521000D01*
X-601629000Y32561000D02*
X-594630000Y32561000D01*
X-591750000Y32561000D02*
X-584751000Y32561000D01*
X-601613000Y32601000D02*
X-594630000Y32601000D01*
X-591750000Y32601000D02*
X-584767000Y32601000D01*
X-601597000Y32641000D02*
X-594630000Y32641000D01*
X-591750000Y32641000D02*
X-584783000Y32641000D01*
X-601580000Y32681000D02*
X-594630000Y32681000D01*
X-591750000Y32681000D02*
X-584800000Y32681000D01*
X-601564000Y32721000D02*
X-594630000Y32721000D01*
X-591750000Y32721000D02*
X-584816000Y32721000D01*
X-601547000Y32761000D02*
X-594630000Y32761000D01*
X-591750000Y32761000D02*
X-584833000Y32761000D01*
X-601530000Y32801000D02*
X-594630000Y32801000D01*
X-591750000Y32801000D02*
X-584850000Y32801000D01*
X-601513000Y32841000D02*
X-594630000Y32841000D01*
X-591750000Y32841000D02*
X-584867000Y32841000D01*
X-601495000Y32881000D02*
X-594630000Y32881000D01*
X-591750000Y32881000D02*
X-584885000Y32881000D01*
X-601477000Y32921000D02*
X-594630000Y32921000D01*
X-591750000Y32921000D02*
X-584903000Y32921000D01*
X-601459000Y32961000D02*
X-594630000Y32961000D01*
X-591750000Y32961000D02*
X-584921000Y32961000D01*
X-601441000Y33001000D02*
X-594630000Y33001000D01*
X-591750000Y33001000D02*
X-584939000Y33001000D01*
X-601423000Y33041000D02*
X-594630000Y33041000D01*
X-591750000Y33041000D02*
X-584957000Y33041000D01*
X-601404000Y33081000D02*
X-594630000Y33081000D01*
X-591750000Y33081000D02*
X-584976000Y33081000D01*
X-601385000Y33121000D02*
X-594630000Y33121000D01*
X-591750000Y33121000D02*
X-584995000Y33121000D01*
X-601366000Y33161000D02*
X-594630000Y33161000D01*
X-591750000Y33161000D02*
X-585014000Y33161000D01*
X-601346000Y33201000D02*
X-594630000Y33201000D01*
X-591750000Y33201000D02*
X-585034000Y33201000D01*
X-601327000Y33241000D02*
X-594630000Y33241000D01*
X-591750000Y33241000D02*
X-585053000Y33241000D01*
X-601307000Y33281000D02*
X-594630000Y33281000D01*
X-591750000Y33281000D02*
X-585073000Y33281000D01*
X-601287000Y33321000D02*
X-594630000Y33321000D01*
X-591750000Y33321000D02*
X-585093000Y33321000D01*
X-601266000Y33361000D02*
X-594630000Y33361000D01*
X-591750000Y33361000D02*
X-585114000Y33361000D01*
X-601246000Y33401000D02*
X-594630000Y33401000D01*
X-591750000Y33401000D02*
X-585134000Y33401000D01*
X-601225000Y33441000D02*
X-594630000Y33441000D01*
X-591750000Y33441000D02*
X-585155000Y33441000D01*
X-601204000Y33481000D02*
X-594630000Y33481000D01*
X-591750000Y33481000D02*
X-585176000Y33481000D01*
X-601182000Y33521000D02*
X-594630000Y33521000D01*
X-591750000Y33521000D02*
X-585198000Y33521000D01*
X-601161000Y33561000D02*
X-594630000Y33561000D01*
X-591750000Y33561000D02*
X-585219000Y33561000D01*
X-601139000Y33601000D02*
X-594630000Y33601000D01*
X-591750000Y33601000D02*
X-585241000Y33601000D01*
X-601117000Y33641000D02*
X-594630000Y33641000D01*
X-591750000Y33641000D02*
X-585263000Y33641000D01*
X-601094000Y33681000D02*
X-594630000Y33681000D01*
X-591750000Y33681000D02*
X-585286000Y33681000D01*
X-601072000Y33721000D02*
X-594630000Y33721000D01*
X-591750000Y33721000D02*
X-585308000Y33721000D01*
X-601049000Y33761000D02*
X-594630000Y33761000D01*
X-591750000Y33761000D02*
X-585331000Y33761000D01*
X-601025000Y33801000D02*
X-594630000Y33801000D01*
X-591750000Y33801000D02*
X-585355000Y33801000D01*
X-601002000Y33841000D02*
X-594630000Y33841000D01*
X-591750000Y33841000D02*
X-585378000Y33841000D01*
X-600978000Y33881000D02*
X-594630000Y33881000D01*
X-591750000Y33881000D02*
X-585402000Y33881000D01*
X-600954000Y33921000D02*
X-594630000Y33921000D01*
X-591750000Y33921000D02*
X-585426000Y33921000D01*
X-600930000Y33961000D02*
X-594630000Y33961000D01*
X-591750000Y33961000D02*
X-585450000Y33961000D01*
X-600905000Y34001000D02*
X-594630000Y34001000D01*
X-591750000Y34001000D02*
X-585475000Y34001000D01*
X-600880000Y34041000D02*
X-594630000Y34041000D01*
X-591750000Y34041000D02*
X-585500000Y34041000D01*
X-600855000Y34081000D02*
X-594630000Y34081000D01*
X-591750000Y34081000D02*
X-585525000Y34081000D01*
X-600830000Y34121000D02*
X-594630000Y34121000D01*
X-591750000Y34121000D02*
X-585550000Y34121000D01*
X-600804000Y34161000D02*
X-594630000Y34161000D01*
X-591750000Y34161000D02*
X-585576000Y34161000D01*
X-600778000Y34201000D02*
X-594630000Y34201000D01*
X-591750000Y34201000D02*
X-585602000Y34201000D01*
X-600751000Y34241000D02*
X-594630000Y34241000D01*
X-591750000Y34241000D02*
X-585629000Y34241000D01*
X-600725000Y34281000D02*
X-594630000Y34281000D01*
X-591750000Y34281000D02*
X-585655000Y34281000D01*
X-600698000Y34321000D02*
X-594630000Y34321000D01*
X-591750000Y34321000D02*
X-585682000Y34321000D01*
X-600670000Y34361000D02*
X-594630000Y34361000D01*
X-591750000Y34361000D02*
X-585710000Y34361000D01*
X-600643000Y34401000D02*
X-585737000Y34401000D01*
X-600615000Y34441000D02*
X-585765000Y34441000D01*
X-600587000Y34481000D02*
X-585793000Y34481000D01*
X-600558000Y34521000D02*
X-585822000Y34521000D01*
X-600529000Y34561000D02*
X-585851000Y34561000D01*
X-600500000Y34601000D02*
X-585880000Y34601000D01*
X-600470000Y34641000D02*
X-585910000Y34641000D01*
X-600440000Y34681000D02*
X-585940000Y34681000D01*
X-600410000Y34721000D02*
X-585970000Y34721000D01*
X-600380000Y34761000D02*
X-586000000Y34761000D01*
X-600349000Y34801000D02*
X-586031000Y34801000D01*
X-600317000Y34841000D02*
X-586063000Y34841000D01*
X-600286000Y34881000D02*
X-586094000Y34881000D01*
X-600254000Y34921000D02*
X-586126000Y34921000D01*
X-600221000Y34961000D02*
X-586159000Y34961000D01*
X-600189000Y35001000D02*
X-586191000Y35001000D01*
X-600155000Y35041000D02*
X-586225000Y35041000D01*
X-600122000Y35081000D02*
X-586258000Y35081000D01*
X-600088000Y35121000D02*
X-586292000Y35121000D01*
X-600054000Y35161000D02*
X-586326000Y35161000D01*
X-600019000Y35201000D02*
X-586361000Y35201000D01*
X-599984000Y35241000D02*
X-586396000Y35241000D01*
X-599948000Y35281000D02*
X-586432000Y35281000D01*
X-599912000Y35321000D02*
X-586468000Y35321000D01*
X-599876000Y35361000D02*
X-586504000Y35361000D01*
X-599839000Y35401000D02*
X-586541000Y35401000D01*
X-599802000Y35441000D02*
X-586578000Y35441000D01*
X-599764000Y35481000D02*
X-586616000Y35481000D01*
X-599726000Y35521000D02*
X-586654000Y35521000D01*
X-599687000Y35561000D02*
X-586693000Y35561000D01*
X-599648000Y35601000D02*
X-586732000Y35601000D01*
X-599608000Y35641000D02*
X-586772000Y35641000D01*
X-599568000Y35681000D02*
X-586812000Y35681000D01*
X-599527000Y35721000D02*
X-586853000Y35721000D01*
X-599486000Y35761000D02*
X-586894000Y35761000D01*
X-599444000Y35801000D02*
X-586936000Y35801000D01*
X-599402000Y35841000D02*
X-586978000Y35841000D01*
X-599360000Y35881000D02*
X-587020000Y35881000D01*
X-599316000Y35921000D02*
X-587064000Y35921000D01*
X-599272000Y35961000D02*
X-587108000Y35961000D01*
X-599228000Y36001000D02*
X-587152000Y36001000D01*
X-599183000Y36041000D02*
X-587197000Y36041000D01*
X-599137000Y36081000D02*
X-587243000Y36081000D01*
X-599091000Y36121000D02*
X-587289000Y36121000D01*
X-599044000Y36161000D02*
X-587336000Y36161000D01*
X-598996000Y36201000D02*
X-587384000Y36201000D01*
X-598948000Y36241000D02*
X-587432000Y36241000D01*
X-598899000Y36281000D02*
X-587481000Y36281000D01*
X-598850000Y36321000D02*
X-587530000Y36321000D01*
X-598799000Y36361000D02*
X-587581000Y36361000D01*
X-598748000Y36401000D02*
X-587632000Y36401000D01*
X-598696000Y36441000D02*
X-587684000Y36441000D01*
X-598644000Y36481000D02*
X-587736000Y36481000D01*
X-598590000Y36521000D02*
X-587790000Y36521000D01*
X-598536000Y36561000D02*
X-587844000Y36561000D01*
X-598481000Y36601000D02*
X-587899000Y36601000D01*
X-598425000Y36641000D02*
X-587955000Y36641000D01*
X-598368000Y36681000D02*
X-588012000Y36681000D01*
X-598310000Y36721000D02*
X-588070000Y36721000D01*
X-598252000Y36761000D02*
X-588128000Y36761000D01*
X-598192000Y36801000D02*
X-588188000Y36801000D01*
X-598131000Y36841000D02*
X-588249000Y36841000D01*
X-598069000Y36881000D02*
X-588311000Y36881000D01*
X-598006000Y36921000D02*
X-588374000Y36921000D01*
X-597942000Y36961000D02*
X-588438000Y36961000D01*
X-597876000Y37001000D02*
X-588504000Y37001000D01*
X-597810000Y37041000D02*
X-588570000Y37041000D01*
X-597742000Y37081000D02*
X-588638000Y37081000D01*
X-597672000Y37121000D02*
X-588708000Y37121000D01*
X-597602000Y37161000D02*
X-588778000Y37161000D01*
X-597529000Y37201000D02*
X-588851000Y37201000D01*
X-597455000Y37241000D02*
X-588925000Y37241000D01*
X-597380000Y37281000D02*
X-589000000Y37281000D01*
X-597303000Y37321000D02*
X-589077000Y37321000D01*
X-597223000Y37361000D02*
X-589157000Y37361000D01*
X-597142000Y37400000D02*
X-589238000Y37400000D01*
X-597059000Y37440000D02*
X-589321000Y37440000D01*
X-596974000Y37480000D02*
X-589406000Y37480000D01*
X-596886000Y37520000D02*
X-589494000Y37520000D01*
X-596795000Y37560000D02*
X-589585000Y37560000D01*
X-596702000Y37600000D02*
X-589678000Y37600000D01*
X-596606000Y37640000D02*
X-589774000Y37640000D01*
X-596507000Y37680000D02*
X-589873000Y37680000D01*
X-596404000Y37720000D02*
X-589976000Y37720000D01*
X-596297000Y37760000D02*
X-590083000Y37760000D01*
X-596186000Y37800000D02*
X-590194000Y37800000D01*
X-596070000Y37840000D02*
X-590310000Y37840000D01*
X-595949000Y37880000D02*
X-590431000Y37880000D01*
X-595822000Y37920000D02*
X-590558000Y37920000D01*
X-595688000Y37960000D02*
X-590692000Y37960000D01*
X-595545000Y38000000D02*
X-590835000Y38000000D01*
X-595393000Y38040000D02*
X-590987000Y38040000D01*
X-595229000Y38080000D02*
X-591151000Y38080000D01*
X-595050000Y38120000D02*
X-591330000Y38120000D01*
X-594851000Y38160000D02*
X-591529000Y38160000D01*
X-594625000Y38200000D02*
X-591755000Y38200000D01*
X-594356000Y38240000D02*
X-592024000Y38240000D01*
X-594004000Y38280000D02*
X-592376000Y38280000D01*
X-593230000Y38320000D02*
X-593150000Y38320000D01*
X-598305000Y19440560D02*
X-598305000Y21240560D01*
X-599205000Y20340560D02*
X-597405000Y20340560D01*
%TO.C,C3*%
X-602866000Y29066000D02*
G75*
G03*
X-602866000Y29066000I-9120000J0D01*
G01*
X-602905000Y29066000D02*
X-621067000Y29066000D01*
X-602906000Y29026000D02*
X-621066000Y29026000D01*
X-602906000Y28986000D02*
X-621066000Y28986000D01*
X-602906000Y28946000D02*
X-621066000Y28946000D01*
X-602907000Y28906000D02*
X-621065000Y28906000D01*
X-602908000Y28866000D02*
X-621064000Y28866000D01*
X-602909000Y28826000D02*
X-621063000Y28826000D01*
X-602910000Y28786000D02*
X-621062000Y28786000D01*
X-602911000Y28746000D02*
X-621061000Y28746000D01*
X-602913000Y28706000D02*
X-621059000Y28706000D01*
X-602914000Y28666000D02*
X-621058000Y28666000D01*
X-602916000Y28626000D02*
X-621056000Y28626000D01*
X-602918000Y28586000D02*
X-621054000Y28586000D01*
X-602920000Y28546000D02*
X-621052000Y28546000D01*
X-602923000Y28506000D02*
X-621049000Y28506000D01*
X-602925000Y28466000D02*
X-621047000Y28466000D01*
X-602928000Y28426000D02*
X-621044000Y28426000D01*
X-602931000Y28386000D02*
X-621041000Y28386000D01*
X-602934000Y28345000D02*
X-621038000Y28345000D01*
X-602937000Y28305000D02*
X-621035000Y28305000D01*
X-602941000Y28265000D02*
X-621031000Y28265000D01*
X-602944000Y28225000D02*
X-621028000Y28225000D01*
X-602948000Y28185000D02*
X-621024000Y28185000D01*
X-602952000Y28145000D02*
X-621020000Y28145000D01*
X-602956000Y28105000D02*
X-621016000Y28105000D01*
X-602960000Y28065000D02*
X-621012000Y28065000D01*
X-602965000Y28025000D02*
X-621007000Y28025000D01*
X-602970000Y27985000D02*
X-621002000Y27985000D01*
X-602975000Y27945000D02*
X-620997000Y27945000D01*
X-602980000Y27905000D02*
X-620992000Y27905000D01*
X-602985000Y27865000D02*
X-620987000Y27865000D01*
X-602990000Y27825000D02*
X-620982000Y27825000D01*
X-602996000Y27785000D02*
X-620976000Y27785000D01*
X-603002000Y27745000D02*
X-620970000Y27745000D01*
X-603007000Y27705000D02*
X-620965000Y27705000D01*
X-603014000Y27665000D02*
X-620958000Y27665000D01*
X-603020000Y27625000D02*
X-620952000Y27625000D01*
X-603026000Y27585000D02*
X-620946000Y27585000D01*
X-603033000Y27545000D02*
X-620939000Y27545000D01*
X-603040000Y27505000D02*
X-620932000Y27505000D01*
X-603047000Y27465000D02*
X-620925000Y27465000D01*
X-603054000Y27425000D02*
X-620918000Y27425000D01*
X-603062000Y27385000D02*
X-620910000Y27385000D01*
X-603069000Y27345000D02*
X-620903000Y27345000D01*
X-603077000Y27305000D02*
X-620895000Y27305000D01*
X-603085000Y27265000D02*
X-620887000Y27265000D01*
X-603093000Y27225000D02*
X-620879000Y27225000D01*
X-603101000Y27185000D02*
X-620871000Y27185000D01*
X-603110000Y27145000D02*
X-620862000Y27145000D01*
X-603119000Y27105000D02*
X-620853000Y27105000D01*
X-603128000Y27065000D02*
X-620844000Y27065000D01*
X-603137000Y27025000D02*
X-620835000Y27025000D01*
X-603146000Y26985000D02*
X-620826000Y26985000D01*
X-603155000Y26945000D02*
X-620817000Y26945000D01*
X-603165000Y26905000D02*
X-620807000Y26905000D01*
X-603175000Y26865000D02*
X-620797000Y26865000D01*
X-603185000Y26825000D02*
X-620787000Y26825000D01*
X-603195000Y26785000D02*
X-620777000Y26785000D01*
X-603206000Y26745000D02*
X-610546000Y26745000D01*
X-613426000Y26745000D02*
X-620766000Y26745000D01*
X-603216000Y26705000D02*
X-610546000Y26705000D01*
X-613426000Y26705000D02*
X-620756000Y26705000D01*
X-603227000Y26665000D02*
X-610546000Y26665000D01*
X-613426000Y26665000D02*
X-620745000Y26665000D01*
X-603238000Y26625000D02*
X-610546000Y26625000D01*
X-613426000Y26625000D02*
X-620734000Y26625000D01*
X-603249000Y26585000D02*
X-610546000Y26585000D01*
X-613426000Y26585000D02*
X-620723000Y26585000D01*
X-603261000Y26545000D02*
X-610546000Y26545000D01*
X-613426000Y26545000D02*
X-620711000Y26545000D01*
X-603272000Y26505000D02*
X-610546000Y26505000D01*
X-613426000Y26505000D02*
X-620700000Y26505000D01*
X-603284000Y26465000D02*
X-610546000Y26465000D01*
X-613426000Y26465000D02*
X-620688000Y26465000D01*
X-603296000Y26425000D02*
X-610546000Y26425000D01*
X-613426000Y26425000D02*
X-620676000Y26425000D01*
X-603308000Y26385000D02*
X-610546000Y26385000D01*
X-613426000Y26385000D02*
X-620664000Y26385000D01*
X-603321000Y26345000D02*
X-610546000Y26345000D01*
X-613426000Y26345000D02*
X-620651000Y26345000D01*
X-603333000Y26305000D02*
X-610546000Y26305000D01*
X-613426000Y26305000D02*
X-620639000Y26305000D01*
X-603346000Y26265000D02*
X-610546000Y26265000D01*
X-613426000Y26265000D02*
X-620626000Y26265000D01*
X-603359000Y26225000D02*
X-610546000Y26225000D01*
X-613426000Y26225000D02*
X-620613000Y26225000D01*
X-603372000Y26185000D02*
X-610546000Y26185000D01*
X-613426000Y26185000D02*
X-620600000Y26185000D01*
X-603386000Y26145000D02*
X-610546000Y26145000D01*
X-613426000Y26145000D02*
X-620586000Y26145000D01*
X-603399000Y26105000D02*
X-610546000Y26105000D01*
X-613426000Y26105000D02*
X-620573000Y26105000D01*
X-603413000Y26065000D02*
X-610546000Y26065000D01*
X-613426000Y26065000D02*
X-620559000Y26065000D01*
X-603427000Y26025000D02*
X-610546000Y26025000D01*
X-613426000Y26025000D02*
X-620545000Y26025000D01*
X-603441000Y25985000D02*
X-610546000Y25985000D01*
X-613426000Y25985000D02*
X-620531000Y25985000D01*
X-603456000Y25945000D02*
X-610546000Y25945000D01*
X-613426000Y25945000D02*
X-620516000Y25945000D01*
X-603470000Y25905000D02*
X-610546000Y25905000D01*
X-613426000Y25905000D02*
X-620502000Y25905000D01*
X-603485000Y25865000D02*
X-610546000Y25865000D01*
X-613426000Y25865000D02*
X-620487000Y25865000D01*
X-603500000Y25825000D02*
X-610546000Y25825000D01*
X-613426000Y25825000D02*
X-620472000Y25825000D01*
X-603516000Y25785000D02*
X-610546000Y25785000D01*
X-613426000Y25785000D02*
X-620456000Y25785000D01*
X-603531000Y25745000D02*
X-610546000Y25745000D01*
X-613426000Y25745000D02*
X-620441000Y25745000D01*
X-603547000Y25705000D02*
X-610546000Y25705000D01*
X-613426000Y25705000D02*
X-620425000Y25705000D01*
X-603563000Y25665000D02*
X-610546000Y25665000D01*
X-613426000Y25665000D02*
X-620409000Y25665000D01*
X-603579000Y25625000D02*
X-610546000Y25625000D01*
X-613426000Y25625000D02*
X-620393000Y25625000D01*
X-603596000Y25585000D02*
X-610546000Y25585000D01*
X-613426000Y25585000D02*
X-620376000Y25585000D01*
X-603612000Y25545000D02*
X-610546000Y25545000D01*
X-613426000Y25545000D02*
X-620360000Y25545000D01*
X-603629000Y25505000D02*
X-610546000Y25505000D01*
X-613426000Y25505000D02*
X-620343000Y25505000D01*
X-603646000Y25465000D02*
X-610546000Y25465000D01*
X-613426000Y25465000D02*
X-620326000Y25465000D01*
X-603663000Y25425000D02*
X-610546000Y25425000D01*
X-613426000Y25425000D02*
X-620309000Y25425000D01*
X-603681000Y25385000D02*
X-610546000Y25385000D01*
X-613426000Y25385000D02*
X-620291000Y25385000D01*
X-603699000Y25345000D02*
X-610546000Y25345000D01*
X-613426000Y25345000D02*
X-620273000Y25345000D01*
X-603717000Y25305000D02*
X-610546000Y25305000D01*
X-613426000Y25305000D02*
X-620255000Y25305000D01*
X-603735000Y25265000D02*
X-610546000Y25265000D01*
X-613426000Y25265000D02*
X-620237000Y25265000D01*
X-603753000Y25225000D02*
X-610546000Y25225000D01*
X-613426000Y25225000D02*
X-620219000Y25225000D01*
X-603772000Y25185000D02*
X-610546000Y25185000D01*
X-613426000Y25185000D02*
X-620200000Y25185000D01*
X-603791000Y25145000D02*
X-610546000Y25145000D01*
X-613426000Y25145000D02*
X-620181000Y25145000D01*
X-603810000Y25105000D02*
X-610546000Y25105000D01*
X-613426000Y25105000D02*
X-620162000Y25105000D01*
X-603830000Y25065000D02*
X-610546000Y25065000D01*
X-613426000Y25065000D02*
X-620142000Y25065000D01*
X-603849000Y25025000D02*
X-610546000Y25025000D01*
X-613426000Y25025000D02*
X-620123000Y25025000D01*
X-603869000Y24985000D02*
X-610546000Y24985000D01*
X-613426000Y24985000D02*
X-620103000Y24985000D01*
X-603889000Y24945000D02*
X-610546000Y24945000D01*
X-613426000Y24945000D02*
X-620083000Y24945000D01*
X-603910000Y24905000D02*
X-610546000Y24905000D01*
X-613426000Y24905000D02*
X-620062000Y24905000D01*
X-603930000Y24865000D02*
X-610546000Y24865000D01*
X-613426000Y24865000D02*
X-620042000Y24865000D01*
X-603951000Y24825000D02*
X-610546000Y24825000D01*
X-613426000Y24825000D02*
X-620021000Y24825000D01*
X-603972000Y24785000D02*
X-610546000Y24785000D01*
X-613426000Y24785000D02*
X-620000000Y24785000D01*
X-603994000Y24745000D02*
X-610546000Y24745000D01*
X-613426000Y24745000D02*
X-619978000Y24745000D01*
X-604015000Y24705000D02*
X-610546000Y24705000D01*
X-613426000Y24705000D02*
X-619957000Y24705000D01*
X-604037000Y24665000D02*
X-610546000Y24665000D01*
X-613426000Y24665000D02*
X-619935000Y24665000D01*
X-604059000Y24625000D02*
X-610546000Y24625000D01*
X-613426000Y24625000D02*
X-619913000Y24625000D01*
X-604082000Y24585000D02*
X-610546000Y24585000D01*
X-613426000Y24585000D02*
X-619890000Y24585000D01*
X-604104000Y24545000D02*
X-610546000Y24545000D01*
X-613426000Y24545000D02*
X-619868000Y24545000D01*
X-604127000Y24505000D02*
X-610546000Y24505000D01*
X-613426000Y24505000D02*
X-619845000Y24505000D01*
X-604151000Y24465000D02*
X-610546000Y24465000D01*
X-613426000Y24465000D02*
X-619821000Y24465000D01*
X-604174000Y24425000D02*
X-610546000Y24425000D01*
X-613426000Y24425000D02*
X-619798000Y24425000D01*
X-604198000Y24385000D02*
X-610546000Y24385000D01*
X-613426000Y24385000D02*
X-619774000Y24385000D01*
X-604222000Y24345000D02*
X-610546000Y24345000D01*
X-613426000Y24345000D02*
X-619750000Y24345000D01*
X-604246000Y24305000D02*
X-610546000Y24305000D01*
X-613426000Y24305000D02*
X-619726000Y24305000D01*
X-604271000Y24265000D02*
X-610546000Y24265000D01*
X-613426000Y24265000D02*
X-619701000Y24265000D01*
X-604296000Y24225000D02*
X-610546000Y24225000D01*
X-613426000Y24225000D02*
X-619676000Y24225000D01*
X-604321000Y24185000D02*
X-610546000Y24185000D01*
X-613426000Y24185000D02*
X-619651000Y24185000D01*
X-604346000Y24145000D02*
X-610546000Y24145000D01*
X-613426000Y24145000D02*
X-619626000Y24145000D01*
X-604372000Y24105000D02*
X-610546000Y24105000D01*
X-613426000Y24105000D02*
X-619600000Y24105000D01*
X-604398000Y24065000D02*
X-610546000Y24065000D01*
X-613426000Y24065000D02*
X-619574000Y24065000D01*
X-604425000Y24025000D02*
X-610546000Y24025000D01*
X-613426000Y24025000D02*
X-619547000Y24025000D01*
X-604451000Y23985000D02*
X-610546000Y23985000D01*
X-613426000Y23985000D02*
X-619521000Y23985000D01*
X-604478000Y23945000D02*
X-610546000Y23945000D01*
X-613426000Y23945000D02*
X-619494000Y23945000D01*
X-604506000Y23905000D02*
X-610546000Y23905000D01*
X-613426000Y23905000D02*
X-619466000Y23905000D01*
X-604533000Y23865000D02*
X-619439000Y23865000D01*
X-604561000Y23825000D02*
X-619411000Y23825000D01*
X-604589000Y23785000D02*
X-619383000Y23785000D01*
X-604618000Y23745000D02*
X-619354000Y23745000D01*
X-604647000Y23705000D02*
X-619325000Y23705000D01*
X-604676000Y23665000D02*
X-619296000Y23665000D01*
X-604706000Y23625000D02*
X-619266000Y23625000D01*
X-604736000Y23585000D02*
X-619236000Y23585000D01*
X-604766000Y23545000D02*
X-619206000Y23545000D01*
X-604796000Y23505000D02*
X-619176000Y23505000D01*
X-604827000Y23465000D02*
X-619145000Y23465000D01*
X-604859000Y23425000D02*
X-619113000Y23425000D01*
X-604890000Y23385000D02*
X-619082000Y23385000D01*
X-604922000Y23345000D02*
X-619050000Y23345000D01*
X-604955000Y23305000D02*
X-619017000Y23305000D01*
X-604987000Y23265000D02*
X-618985000Y23265000D01*
X-605021000Y23225000D02*
X-618951000Y23225000D01*
X-605054000Y23185000D02*
X-618918000Y23185000D01*
X-605088000Y23145000D02*
X-618884000Y23145000D01*
X-605122000Y23105000D02*
X-618850000Y23105000D01*
X-605157000Y23065000D02*
X-618815000Y23065000D01*
X-605192000Y23025000D02*
X-618780000Y23025000D01*
X-605228000Y22985000D02*
X-618744000Y22985000D01*
X-605264000Y22945000D02*
X-618708000Y22945000D01*
X-605300000Y22905000D02*
X-618672000Y22905000D01*
X-605337000Y22865000D02*
X-618635000Y22865000D01*
X-605374000Y22825000D02*
X-618598000Y22825000D01*
X-605412000Y22785000D02*
X-618560000Y22785000D01*
X-605450000Y22745000D02*
X-618522000Y22745000D01*
X-605489000Y22705000D02*
X-618483000Y22705000D01*
X-605528000Y22665000D02*
X-618444000Y22665000D01*
X-605568000Y22625000D02*
X-618404000Y22625000D01*
X-605608000Y22585000D02*
X-618364000Y22585000D01*
X-605649000Y22545000D02*
X-618323000Y22545000D01*
X-605690000Y22505000D02*
X-618282000Y22505000D01*
X-605732000Y22465000D02*
X-618240000Y22465000D01*
X-605774000Y22425000D02*
X-618198000Y22425000D01*
X-605816000Y22385000D02*
X-618156000Y22385000D01*
X-605860000Y22345000D02*
X-618112000Y22345000D01*
X-605904000Y22305000D02*
X-618068000Y22305000D01*
X-605948000Y22265000D02*
X-618024000Y22265000D01*
X-605993000Y22225000D02*
X-617979000Y22225000D01*
X-606039000Y22185000D02*
X-617933000Y22185000D01*
X-606085000Y22145000D02*
X-617887000Y22145000D01*
X-606132000Y22105000D02*
X-617840000Y22105000D01*
X-606180000Y22065000D02*
X-617792000Y22065000D01*
X-606228000Y22025000D02*
X-617744000Y22025000D01*
X-606277000Y21985000D02*
X-617695000Y21985000D01*
X-606326000Y21945000D02*
X-617646000Y21945000D01*
X-606377000Y21905000D02*
X-617595000Y21905000D01*
X-606428000Y21865000D02*
X-617544000Y21865000D01*
X-606480000Y21825000D02*
X-617492000Y21825000D01*
X-606532000Y21785000D02*
X-617440000Y21785000D01*
X-606586000Y21745000D02*
X-617386000Y21745000D01*
X-606640000Y21705000D02*
X-617332000Y21705000D01*
X-606695000Y21665000D02*
X-617277000Y21665000D01*
X-606751000Y21625000D02*
X-617221000Y21625000D01*
X-606808000Y21585000D02*
X-617164000Y21585000D01*
X-606866000Y21545000D02*
X-617106000Y21545000D01*
X-606924000Y21505000D02*
X-617048000Y21505000D01*
X-606984000Y21465000D02*
X-616988000Y21465000D01*
X-607045000Y21425000D02*
X-616927000Y21425000D01*
X-607107000Y21385000D02*
X-616865000Y21385000D01*
X-607170000Y21345000D02*
X-616802000Y21345000D01*
X-607234000Y21305000D02*
X-616738000Y21305000D01*
X-607300000Y21265000D02*
X-616672000Y21265000D01*
X-607366000Y21225000D02*
X-616606000Y21225000D01*
X-607434000Y21185000D02*
X-616538000Y21185000D01*
X-607504000Y21145000D02*
X-616468000Y21145000D01*
X-607574000Y21105000D02*
X-616398000Y21105000D01*
X-607647000Y21065000D02*
X-616325000Y21065000D01*
X-607721000Y21025000D02*
X-616251000Y21025000D01*
X-607796000Y20985000D02*
X-616176000Y20985000D01*
X-607873000Y20945000D02*
X-616099000Y20945000D01*
X-607953000Y20905000D02*
X-616019000Y20905000D01*
X-608034000Y20866000D02*
X-615938000Y20866000D01*
X-608117000Y20826000D02*
X-615855000Y20826000D01*
X-608202000Y20786000D02*
X-615770000Y20786000D01*
X-608290000Y20746000D02*
X-615682000Y20746000D01*
X-608381000Y20706000D02*
X-615591000Y20706000D01*
X-608474000Y20666000D02*
X-615498000Y20666000D01*
X-608570000Y20626000D02*
X-615402000Y20626000D01*
X-608669000Y20586000D02*
X-615303000Y20586000D01*
X-608772000Y20546000D02*
X-615200000Y20546000D01*
X-608879000Y20506000D02*
X-615093000Y20506000D01*
X-608990000Y20466000D02*
X-614982000Y20466000D01*
X-609106000Y20426000D02*
X-614866000Y20426000D01*
X-609227000Y20386000D02*
X-614745000Y20386000D01*
X-609354000Y20346000D02*
X-614618000Y20346000D01*
X-609488000Y20306000D02*
X-614484000Y20306000D01*
X-609631000Y20266000D02*
X-614341000Y20266000D01*
X-609783000Y20226000D02*
X-614189000Y20226000D01*
X-609947000Y20186000D02*
X-614025000Y20186000D01*
X-610126000Y20146000D02*
X-613846000Y20146000D01*
X-610325000Y20106000D02*
X-613647000Y20106000D01*
X-610551000Y20066000D02*
X-613421000Y20066000D01*
X-610820000Y20026000D02*
X-613152000Y20026000D01*
X-611172000Y19986000D02*
X-612800000Y19986000D01*
X-611946000Y19946000D02*
X-612026000Y19946000D01*
X-606871000Y38825440D02*
X-606871000Y37025440D01*
X-605971000Y37925440D02*
X-607771000Y37925440D01*
%TO.C,C2*%
X-525090000Y13258000D02*
G75*
G03*
X-525090000Y13258000I-4120000J0D01*
G01*
X-529210000Y17338000D02*
X-529210000Y9178000D01*
X-529170000Y17338000D02*
X-529170000Y9178000D01*
X-529130000Y17338000D02*
X-529130000Y9178000D01*
X-529090000Y17337000D02*
X-529090000Y9179000D01*
X-529050000Y17335000D02*
X-529050000Y9181000D01*
X-529010000Y17334000D02*
X-529010000Y9182000D01*
X-528970000Y17332000D02*
X-528970000Y9184000D01*
X-528930000Y17329000D02*
X-528930000Y9187000D01*
X-528890000Y17326000D02*
X-528890000Y9190000D01*
X-528850000Y17323000D02*
X-528850000Y9193000D01*
X-528810000Y17319000D02*
X-528810000Y9197000D01*
X-528770000Y17315000D02*
X-528770000Y9201000D01*
X-528730000Y17310000D02*
X-528730000Y9206000D01*
X-528690000Y17306000D02*
X-528690000Y9210000D01*
X-528650000Y17300000D02*
X-528650000Y9216000D01*
X-528610000Y17295000D02*
X-528610000Y9221000D01*
X-528570000Y17288000D02*
X-528570000Y9228000D01*
X-528530000Y17282000D02*
X-528530000Y9234000D01*
X-528489000Y17275000D02*
X-528489000Y14298000D01*
X-528489000Y12218000D02*
X-528489000Y9241000D01*
X-528449000Y17268000D02*
X-528449000Y14298000D01*
X-528449000Y12218000D02*
X-528449000Y9248000D01*
X-528409000Y17260000D02*
X-528409000Y14298000D01*
X-528409000Y12218000D02*
X-528409000Y9256000D01*
X-528369000Y17252000D02*
X-528369000Y14298000D01*
X-528369000Y12218000D02*
X-528369000Y9264000D01*
X-528329000Y17243000D02*
X-528329000Y14298000D01*
X-528329000Y12218000D02*
X-528329000Y9273000D01*
X-528289000Y17234000D02*
X-528289000Y14298000D01*
X-528289000Y12218000D02*
X-528289000Y9282000D01*
X-528249000Y17225000D02*
X-528249000Y14298000D01*
X-528249000Y12218000D02*
X-528249000Y9291000D01*
X-528209000Y17215000D02*
X-528209000Y14298000D01*
X-528209000Y12218000D02*
X-528209000Y9301000D01*
X-528169000Y17205000D02*
X-528169000Y14298000D01*
X-528169000Y12218000D02*
X-528169000Y9311000D01*
X-528129000Y17194000D02*
X-528129000Y14298000D01*
X-528129000Y12218000D02*
X-528129000Y9322000D01*
X-528089000Y17183000D02*
X-528089000Y14298000D01*
X-528089000Y12218000D02*
X-528089000Y9333000D01*
X-528049000Y17172000D02*
X-528049000Y14298000D01*
X-528049000Y12218000D02*
X-528049000Y9344000D01*
X-528009000Y17160000D02*
X-528009000Y14298000D01*
X-528009000Y12218000D02*
X-528009000Y9356000D01*
X-527969000Y17147000D02*
X-527969000Y14298000D01*
X-527969000Y12218000D02*
X-527969000Y9369000D01*
X-527929000Y17135000D02*
X-527929000Y14298000D01*
X-527929000Y12218000D02*
X-527929000Y9381000D01*
X-527889000Y17121000D02*
X-527889000Y14298000D01*
X-527889000Y12218000D02*
X-527889000Y9395000D01*
X-527849000Y17108000D02*
X-527849000Y14298000D01*
X-527849000Y12218000D02*
X-527849000Y9408000D01*
X-527809000Y17093000D02*
X-527809000Y14298000D01*
X-527809000Y12218000D02*
X-527809000Y9423000D01*
X-527769000Y17079000D02*
X-527769000Y14298000D01*
X-527769000Y12218000D02*
X-527769000Y9437000D01*
X-527729000Y17063000D02*
X-527729000Y14298000D01*
X-527729000Y12218000D02*
X-527729000Y9453000D01*
X-527689000Y17048000D02*
X-527689000Y14298000D01*
X-527689000Y12218000D02*
X-527689000Y9468000D01*
X-527649000Y17032000D02*
X-527649000Y14298000D01*
X-527649000Y12218000D02*
X-527649000Y9484000D01*
X-527609000Y17015000D02*
X-527609000Y14298000D01*
X-527609000Y12218000D02*
X-527609000Y9501000D01*
X-527569000Y16998000D02*
X-527569000Y14298000D01*
X-527569000Y12218000D02*
X-527569000Y9518000D01*
X-527529000Y16980000D02*
X-527529000Y14298000D01*
X-527529000Y12218000D02*
X-527529000Y9536000D01*
X-527489000Y16962000D02*
X-527489000Y14298000D01*
X-527489000Y12218000D02*
X-527489000Y9554000D01*
X-527449000Y16944000D02*
X-527449000Y14298000D01*
X-527449000Y12218000D02*
X-527449000Y9572000D01*
X-527409000Y16924000D02*
X-527409000Y14298000D01*
X-527409000Y12218000D02*
X-527409000Y9592000D01*
X-527369000Y16905000D02*
X-527369000Y14298000D01*
X-527369000Y12218000D02*
X-527369000Y9611000D01*
X-527329000Y16885000D02*
X-527329000Y14298000D01*
X-527329000Y12218000D02*
X-527329000Y9631000D01*
X-527289000Y16864000D02*
X-527289000Y14298000D01*
X-527289000Y12218000D02*
X-527289000Y9652000D01*
X-527249000Y16842000D02*
X-527249000Y14298000D01*
X-527249000Y12218000D02*
X-527249000Y9674000D01*
X-527209000Y16820000D02*
X-527209000Y14298000D01*
X-527209000Y12218000D02*
X-527209000Y9696000D01*
X-527169000Y16798000D02*
X-527169000Y14298000D01*
X-527169000Y12218000D02*
X-527169000Y9718000D01*
X-527129000Y16775000D02*
X-527129000Y14298000D01*
X-527129000Y12218000D02*
X-527129000Y9741000D01*
X-527089000Y16751000D02*
X-527089000Y14298000D01*
X-527089000Y12218000D02*
X-527089000Y9765000D01*
X-527049000Y16727000D02*
X-527049000Y14298000D01*
X-527049000Y12218000D02*
X-527049000Y9789000D01*
X-527009000Y16702000D02*
X-527009000Y14298000D01*
X-527009000Y12218000D02*
X-527009000Y9814000D01*
X-526969000Y16676000D02*
X-526969000Y14298000D01*
X-526969000Y12218000D02*
X-526969000Y9840000D01*
X-526929000Y16650000D02*
X-526929000Y14298000D01*
X-526929000Y12218000D02*
X-526929000Y9866000D01*
X-526889000Y16623000D02*
X-526889000Y14298000D01*
X-526889000Y12218000D02*
X-526889000Y9893000D01*
X-526849000Y16596000D02*
X-526849000Y14298000D01*
X-526849000Y12218000D02*
X-526849000Y9920000D01*
X-526809000Y16567000D02*
X-526809000Y14298000D01*
X-526809000Y12218000D02*
X-526809000Y9949000D01*
X-526769000Y16538000D02*
X-526769000Y14298000D01*
X-526769000Y12218000D02*
X-526769000Y9978000D01*
X-526729000Y16508000D02*
X-526729000Y14298000D01*
X-526729000Y12218000D02*
X-526729000Y10008000D01*
X-526689000Y16478000D02*
X-526689000Y14298000D01*
X-526689000Y12218000D02*
X-526689000Y10038000D01*
X-526649000Y16447000D02*
X-526649000Y14298000D01*
X-526649000Y12218000D02*
X-526649000Y10069000D01*
X-526609000Y16414000D02*
X-526609000Y14298000D01*
X-526609000Y12218000D02*
X-526609000Y10102000D01*
X-526569000Y16382000D02*
X-526569000Y14298000D01*
X-526569000Y12218000D02*
X-526569000Y10134000D01*
X-526529000Y16348000D02*
X-526529000Y14298000D01*
X-526529000Y12218000D02*
X-526529000Y10168000D01*
X-526489000Y16313000D02*
X-526489000Y14298000D01*
X-526489000Y12218000D02*
X-526489000Y10203000D01*
X-526449000Y16277000D02*
X-526449000Y14298000D01*
X-526449000Y12218000D02*
X-526449000Y10239000D01*
X-526409000Y16241000D02*
X-526409000Y10275000D01*
X-526369000Y16203000D02*
X-526369000Y10313000D01*
X-526329000Y16165000D02*
X-526329000Y10351000D01*
X-526289000Y16125000D02*
X-526289000Y10391000D01*
X-526249000Y16084000D02*
X-526249000Y10432000D01*
X-526209000Y16042000D02*
X-526209000Y10474000D01*
X-526169000Y15999000D02*
X-526169000Y10517000D01*
X-526129000Y15955000D02*
X-526129000Y10561000D01*
X-526089000Y15909000D02*
X-526089000Y10607000D01*
X-526049000Y15862000D02*
X-526049000Y10654000D01*
X-526009000Y15814000D02*
X-526009000Y10702000D01*
X-525969000Y15763000D02*
X-525969000Y10753000D01*
X-525929000Y15712000D02*
X-525929000Y10804000D01*
X-525889000Y15658000D02*
X-525889000Y10858000D01*
X-525849000Y15603000D02*
X-525849000Y10913000D01*
X-525809000Y15545000D02*
X-525809000Y10971000D01*
X-525769000Y15486000D02*
X-525769000Y11030000D01*
X-525729000Y15424000D02*
X-525729000Y11092000D01*
X-525689000Y15360000D02*
X-525689000Y11156000D01*
X-525649000Y15292000D02*
X-525649000Y11224000D01*
X-525609000Y15222000D02*
X-525609000Y11294000D01*
X-525569000Y15148000D02*
X-525569000Y11368000D01*
X-525529000Y15071000D02*
X-525529000Y11445000D01*
X-525489000Y14989000D02*
X-525489000Y11527000D01*
X-525449000Y14903000D02*
X-525449000Y11613000D01*
X-525409000Y14810000D02*
X-525409000Y11706000D01*
X-525369000Y14711000D02*
X-525369000Y11805000D01*
X-525329000Y14604000D02*
X-525329000Y11912000D01*
X-525289000Y14487000D02*
X-525289000Y12029000D01*
X-525249000Y14356000D02*
X-525249000Y12160000D01*
X-525209000Y14206000D02*
X-525209000Y12310000D01*
X-525169000Y14026000D02*
X-525169000Y12490000D01*
X-525129000Y13791000D02*
X-525129000Y12725000D01*
X-533619698Y15573000D02*
X-532819698Y15573000D01*
X-533219698Y15973000D02*
X-533219698Y15173000D01*
%TO.C,C1*%
X-562400000Y5666000D02*
G75*
G03*
X-562400000Y5666000I-4120000J0D01*
G01*
X-562440000Y5666000D02*
X-570600000Y5666000D01*
X-562440000Y5626000D02*
X-570600000Y5626000D01*
X-562440000Y5586000D02*
X-570600000Y5586000D01*
X-562441000Y5546000D02*
X-570599000Y5546000D01*
X-562443000Y5506000D02*
X-570597000Y5506000D01*
X-562444000Y5466000D02*
X-570596000Y5466000D01*
X-562446000Y5426000D02*
X-570594000Y5426000D01*
X-562449000Y5386000D02*
X-570591000Y5386000D01*
X-562452000Y5346000D02*
X-570588000Y5346000D01*
X-562455000Y5306000D02*
X-570585000Y5306000D01*
X-562459000Y5266000D02*
X-570581000Y5266000D01*
X-562463000Y5226000D02*
X-570577000Y5226000D01*
X-562468000Y5186000D02*
X-570572000Y5186000D01*
X-562472000Y5146000D02*
X-570568000Y5146000D01*
X-562478000Y5106000D02*
X-570562000Y5106000D01*
X-562483000Y5066000D02*
X-570557000Y5066000D01*
X-562490000Y5026000D02*
X-570550000Y5026000D01*
X-562496000Y4986000D02*
X-570544000Y4986000D01*
X-562503000Y4945000D02*
X-565480000Y4945000D01*
X-567560000Y4945000D02*
X-570537000Y4945000D01*
X-562510000Y4905000D02*
X-565480000Y4905000D01*
X-567560000Y4905000D02*
X-570530000Y4905000D01*
X-562518000Y4865000D02*
X-565480000Y4865000D01*
X-567560000Y4865000D02*
X-570522000Y4865000D01*
X-562526000Y4825000D02*
X-565480000Y4825000D01*
X-567560000Y4825000D02*
X-570514000Y4825000D01*
X-562535000Y4785000D02*
X-565480000Y4785000D01*
X-567560000Y4785000D02*
X-570505000Y4785000D01*
X-562544000Y4745000D02*
X-565480000Y4745000D01*
X-567560000Y4745000D02*
X-570496000Y4745000D01*
X-562553000Y4705000D02*
X-565480000Y4705000D01*
X-567560000Y4705000D02*
X-570487000Y4705000D01*
X-562563000Y4665000D02*
X-565480000Y4665000D01*
X-567560000Y4665000D02*
X-570477000Y4665000D01*
X-562573000Y4625000D02*
X-565480000Y4625000D01*
X-567560000Y4625000D02*
X-570467000Y4625000D01*
X-562584000Y4585000D02*
X-565480000Y4585000D01*
X-567560000Y4585000D02*
X-570456000Y4585000D01*
X-562595000Y4545000D02*
X-565480000Y4545000D01*
X-567560000Y4545000D02*
X-570445000Y4545000D01*
X-562606000Y4505000D02*
X-565480000Y4505000D01*
X-567560000Y4505000D02*
X-570434000Y4505000D01*
X-562618000Y4465000D02*
X-565480000Y4465000D01*
X-567560000Y4465000D02*
X-570422000Y4465000D01*
X-562631000Y4425000D02*
X-565480000Y4425000D01*
X-567560000Y4425000D02*
X-570409000Y4425000D01*
X-562643000Y4385000D02*
X-565480000Y4385000D01*
X-567560000Y4385000D02*
X-570397000Y4385000D01*
X-562657000Y4345000D02*
X-565480000Y4345000D01*
X-567560000Y4345000D02*
X-570383000Y4345000D01*
X-562670000Y4305000D02*
X-565480000Y4305000D01*
X-567560000Y4305000D02*
X-570370000Y4305000D01*
X-562685000Y4265000D02*
X-565480000Y4265000D01*
X-567560000Y4265000D02*
X-570355000Y4265000D01*
X-562699000Y4225000D02*
X-565480000Y4225000D01*
X-567560000Y4225000D02*
X-570341000Y4225000D01*
X-562715000Y4185000D02*
X-565480000Y4185000D01*
X-567560000Y4185000D02*
X-570325000Y4185000D01*
X-562730000Y4145000D02*
X-565480000Y4145000D01*
X-567560000Y4145000D02*
X-570310000Y4145000D01*
X-562746000Y4105000D02*
X-565480000Y4105000D01*
X-567560000Y4105000D02*
X-570294000Y4105000D01*
X-562763000Y4065000D02*
X-565480000Y4065000D01*
X-567560000Y4065000D02*
X-570277000Y4065000D01*
X-562780000Y4025000D02*
X-565480000Y4025000D01*
X-567560000Y4025000D02*
X-570260000Y4025000D01*
X-562798000Y3985000D02*
X-565480000Y3985000D01*
X-567560000Y3985000D02*
X-570242000Y3985000D01*
X-562816000Y3945000D02*
X-565480000Y3945000D01*
X-567560000Y3945000D02*
X-570224000Y3945000D01*
X-562834000Y3905000D02*
X-565480000Y3905000D01*
X-567560000Y3905000D02*
X-570206000Y3905000D01*
X-562854000Y3865000D02*
X-565480000Y3865000D01*
X-567560000Y3865000D02*
X-570186000Y3865000D01*
X-562873000Y3825000D02*
X-565480000Y3825000D01*
X-567560000Y3825000D02*
X-570167000Y3825000D01*
X-562893000Y3785000D02*
X-565480000Y3785000D01*
X-567560000Y3785000D02*
X-570147000Y3785000D01*
X-562914000Y3745000D02*
X-565480000Y3745000D01*
X-567560000Y3745000D02*
X-570126000Y3745000D01*
X-562936000Y3705000D02*
X-565480000Y3705000D01*
X-567560000Y3705000D02*
X-570104000Y3705000D01*
X-562958000Y3665000D02*
X-565480000Y3665000D01*
X-567560000Y3665000D02*
X-570082000Y3665000D01*
X-562980000Y3625000D02*
X-565480000Y3625000D01*
X-567560000Y3625000D02*
X-570060000Y3625000D01*
X-563003000Y3585000D02*
X-565480000Y3585000D01*
X-567560000Y3585000D02*
X-570037000Y3585000D01*
X-563027000Y3545000D02*
X-565480000Y3545000D01*
X-567560000Y3545000D02*
X-570013000Y3545000D01*
X-563051000Y3505000D02*
X-565480000Y3505000D01*
X-567560000Y3505000D02*
X-569989000Y3505000D01*
X-563076000Y3465000D02*
X-565480000Y3465000D01*
X-567560000Y3465000D02*
X-569964000Y3465000D01*
X-563102000Y3425000D02*
X-565480000Y3425000D01*
X-567560000Y3425000D02*
X-569938000Y3425000D01*
X-563128000Y3385000D02*
X-565480000Y3385000D01*
X-567560000Y3385000D02*
X-569912000Y3385000D01*
X-563155000Y3345000D02*
X-565480000Y3345000D01*
X-567560000Y3345000D02*
X-569885000Y3345000D01*
X-563182000Y3305000D02*
X-565480000Y3305000D01*
X-567560000Y3305000D02*
X-569858000Y3305000D01*
X-563211000Y3265000D02*
X-565480000Y3265000D01*
X-567560000Y3265000D02*
X-569829000Y3265000D01*
X-563240000Y3225000D02*
X-565480000Y3225000D01*
X-567560000Y3225000D02*
X-569800000Y3225000D01*
X-563270000Y3185000D02*
X-565480000Y3185000D01*
X-567560000Y3185000D02*
X-569770000Y3185000D01*
X-563300000Y3145000D02*
X-565480000Y3145000D01*
X-567560000Y3145000D02*
X-569740000Y3145000D01*
X-563331000Y3105000D02*
X-565480000Y3105000D01*
X-567560000Y3105000D02*
X-569709000Y3105000D01*
X-563364000Y3065000D02*
X-565480000Y3065000D01*
X-567560000Y3065000D02*
X-569676000Y3065000D01*
X-563396000Y3025000D02*
X-565480000Y3025000D01*
X-567560000Y3025000D02*
X-569644000Y3025000D01*
X-563430000Y2985000D02*
X-565480000Y2985000D01*
X-567560000Y2985000D02*
X-569610000Y2985000D01*
X-563465000Y2945000D02*
X-565480000Y2945000D01*
X-567560000Y2945000D02*
X-569575000Y2945000D01*
X-563501000Y2905000D02*
X-565480000Y2905000D01*
X-567560000Y2905000D02*
X-569539000Y2905000D01*
X-563537000Y2865000D02*
X-569503000Y2865000D01*
X-563575000Y2825000D02*
X-569465000Y2825000D01*
X-563613000Y2785000D02*
X-569427000Y2785000D01*
X-563653000Y2745000D02*
X-569387000Y2745000D01*
X-563694000Y2705000D02*
X-569346000Y2705000D01*
X-563736000Y2665000D02*
X-569304000Y2665000D01*
X-563779000Y2625000D02*
X-569261000Y2625000D01*
X-563823000Y2585000D02*
X-569217000Y2585000D01*
X-563869000Y2545000D02*
X-569171000Y2545000D01*
X-563916000Y2505000D02*
X-569124000Y2505000D01*
X-563964000Y2465000D02*
X-569076000Y2465000D01*
X-564015000Y2425000D02*
X-569025000Y2425000D01*
X-564066000Y2385000D02*
X-568974000Y2385000D01*
X-564120000Y2345000D02*
X-568920000Y2345000D01*
X-564175000Y2305000D02*
X-568865000Y2305000D01*
X-564233000Y2265000D02*
X-568807000Y2265000D01*
X-564292000Y2225000D02*
X-568748000Y2225000D01*
X-564354000Y2185000D02*
X-568686000Y2185000D01*
X-564418000Y2145000D02*
X-568622000Y2145000D01*
X-564486000Y2105000D02*
X-568554000Y2105000D01*
X-564556000Y2065000D02*
X-568484000Y2065000D01*
X-564630000Y2025000D02*
X-568410000Y2025000D01*
X-564707000Y1985000D02*
X-568333000Y1985000D01*
X-564789000Y1945000D02*
X-568251000Y1945000D01*
X-564875000Y1905000D02*
X-568165000Y1905000D01*
X-564968000Y1865000D02*
X-568072000Y1865000D01*
X-565067000Y1825000D02*
X-567973000Y1825000D01*
X-565174000Y1785000D02*
X-567866000Y1785000D01*
X-565291000Y1745000D02*
X-567749000Y1745000D01*
X-565422000Y1705000D02*
X-567618000Y1705000D01*
X-565572000Y1665000D02*
X-567468000Y1665000D01*
X-565752000Y1625000D02*
X-567288000Y1625000D01*
X-565987000Y1585000D02*
X-567053000Y1585000D01*
X-564205000Y10075698D02*
X-564205000Y9275698D01*
X-563805000Y9675698D02*
X-564605000Y9675698D01*
%TO.C,BR1*%
D12*
X-624014714Y17442952D02*
X-623954238Y17624380D01*
X-623893761Y17684857D01*
X-623772809Y17745333D01*
X-623591380Y17745333D01*
X-623470428Y17684857D01*
X-623409952Y17624380D01*
X-623349476Y17503428D01*
X-623349476Y17019619D01*
X-624619476Y17019619D01*
X-624619476Y17442952D01*
X-624559000Y17563904D01*
X-624498523Y17624380D01*
X-624377571Y17684857D01*
X-624256619Y17684857D01*
X-624135666Y17624380D01*
X-624075190Y17563904D01*
X-624014714Y17442952D01*
X-624014714Y17019619D01*
X-623349476Y19015333D02*
X-623954238Y18592000D01*
X-623349476Y18289619D02*
X-624619476Y18289619D01*
X-624619476Y18773428D01*
X-624559000Y18894380D01*
X-624498523Y18954857D01*
X-624377571Y19015333D01*
X-624196142Y19015333D01*
X-624075190Y18954857D01*
X-624014714Y18894380D01*
X-623954238Y18773428D01*
X-623954238Y18289619D01*
X-623349476Y20224857D02*
X-623349476Y19499142D01*
X-623349476Y19862000D02*
X-624619476Y19862000D01*
X-624438047Y19741047D01*
X-624317095Y19620095D01*
X-624256619Y19499142D01*
%TO.C,H4*%
D13*
X-480159904Y-2180380D02*
X-480159904Y-1180380D01*
X-480159904Y-1656571D02*
X-479588476Y-1656571D01*
X-479588476Y-2180380D02*
X-479588476Y-1180380D01*
X-478683714Y-1513714D02*
X-478683714Y-2180380D01*
X-478921809Y-1132761D02*
X-479159904Y-1847047D01*
X-478540857Y-1847047D01*
%TO.C,H3*%
X-480413904Y30331619D02*
X-480413904Y31331619D01*
X-480413904Y30855428D02*
X-479842476Y30855428D01*
X-479842476Y30331619D02*
X-479842476Y31331619D01*
X-479461523Y31331619D02*
X-478842476Y31331619D01*
X-479175809Y30950666D01*
X-479032952Y30950666D01*
X-478937714Y30903047D01*
X-478890095Y30855428D01*
X-478842476Y30760190D01*
X-478842476Y30522095D01*
X-478890095Y30426857D01*
X-478937714Y30379238D01*
X-479032952Y30331619D01*
X-479318666Y30331619D01*
X-479413904Y30379238D01*
X-479461523Y30426857D01*
%TO.C,H2*%
X-633829904Y-4466380D02*
X-633829904Y-3466380D01*
X-633829904Y-3942571D02*
X-633258476Y-3942571D01*
X-633258476Y-4466380D02*
X-633258476Y-3466380D01*
X-632829904Y-3561619D02*
X-632782285Y-3514000D01*
X-632687047Y-3466380D01*
X-632448952Y-3466380D01*
X-632353714Y-3514000D01*
X-632306095Y-3561619D01*
X-632258476Y-3656857D01*
X-632258476Y-3752095D01*
X-632306095Y-3894952D01*
X-632877523Y-4466380D01*
X-632258476Y-4466380D01*
%TO.C,H1*%
X-629003904Y30331619D02*
X-629003904Y31331619D01*
X-629003904Y30855428D02*
X-628432476Y30855428D01*
X-628432476Y30331619D02*
X-628432476Y31331619D01*
X-627432476Y30331619D02*
X-628003904Y30331619D01*
X-627718190Y30331619D02*
X-627718190Y31331619D01*
X-627813428Y31188761D01*
X-627908666Y31093523D01*
X-628003904Y31045904D01*
%TO.C,J12*%
X-631425619Y25268476D02*
X-630711333Y25268476D01*
X-630568476Y25220857D01*
X-630473238Y25125619D01*
X-630425619Y24982761D01*
X-630425619Y24887523D01*
X-630425619Y26268476D02*
X-630425619Y25697047D01*
X-630425619Y25982761D02*
X-631425619Y25982761D01*
X-631282761Y25887523D01*
X-631187523Y25792285D01*
X-631139904Y25697047D01*
X-631330380Y26649428D02*
X-631378000Y26697047D01*
X-631425619Y26792285D01*
X-631425619Y27030380D01*
X-631378000Y27125619D01*
X-631330380Y27173238D01*
X-631235142Y27220857D01*
X-631139904Y27220857D01*
X-630997047Y27173238D01*
X-630425619Y26601809D01*
X-630425619Y27220857D01*
%TO.C,R26*%
X-547445619Y10075142D02*
X-547921809Y9741809D01*
X-547445619Y9503714D02*
X-548445619Y9503714D01*
X-548445619Y9884666D01*
X-548398000Y9979904D01*
X-548350380Y10027523D01*
X-548255142Y10075142D01*
X-548112285Y10075142D01*
X-548017047Y10027523D01*
X-547969428Y9979904D01*
X-547921809Y9884666D01*
X-547921809Y9503714D01*
X-548350380Y10456095D02*
X-548398000Y10503714D01*
X-548445619Y10598952D01*
X-548445619Y10837047D01*
X-548398000Y10932285D01*
X-548350380Y10979904D01*
X-548255142Y11027523D01*
X-548159904Y11027523D01*
X-548017047Y10979904D01*
X-547445619Y10408476D01*
X-547445619Y11027523D01*
X-548445619Y11884666D02*
X-548445619Y11694190D01*
X-548398000Y11598952D01*
X-548350380Y11551333D01*
X-548207523Y11456095D01*
X-548017047Y11408476D01*
X-547636095Y11408476D01*
X-547540857Y11456095D01*
X-547493238Y11503714D01*
X-547445619Y11598952D01*
X-547445619Y11789428D01*
X-547493238Y11884666D01*
X-547540857Y11932285D01*
X-547636095Y11979904D01*
X-547874190Y11979904D01*
X-547969428Y11932285D01*
X-548017047Y11884666D01*
X-548064666Y11789428D01*
X-548064666Y11598952D01*
X-548017047Y11503714D01*
X-547969428Y11456095D01*
X-547874190Y11408476D01*
%TO.C,R20*%
X-597483619Y14139142D02*
X-597959809Y13805809D01*
X-597483619Y13567714D02*
X-598483619Y13567714D01*
X-598483619Y13948666D01*
X-598436000Y14043904D01*
X-598388380Y14091523D01*
X-598293142Y14139142D01*
X-598150285Y14139142D01*
X-598055047Y14091523D01*
X-598007428Y14043904D01*
X-597959809Y13948666D01*
X-597959809Y13567714D01*
X-598388380Y14520095D02*
X-598436000Y14567714D01*
X-598483619Y14662952D01*
X-598483619Y14901047D01*
X-598436000Y14996285D01*
X-598388380Y15043904D01*
X-598293142Y15091523D01*
X-598197904Y15091523D01*
X-598055047Y15043904D01*
X-597483619Y14472476D01*
X-597483619Y15091523D01*
X-598483619Y15710571D02*
X-598483619Y15805809D01*
X-598436000Y15901047D01*
X-598388380Y15948666D01*
X-598293142Y15996285D01*
X-598102666Y16043904D01*
X-597864571Y16043904D01*
X-597674095Y15996285D01*
X-597578857Y15948666D01*
X-597531238Y15901047D01*
X-597483619Y15805809D01*
X-597483619Y15710571D01*
X-597531238Y15615333D01*
X-597578857Y15567714D01*
X-597674095Y15520095D01*
X-597864571Y15472476D01*
X-598102666Y15472476D01*
X-598293142Y15520095D01*
X-598388380Y15567714D01*
X-598436000Y15615333D01*
X-598483619Y15710571D01*
%TO.C,R17*%
X-552685619Y19473142D02*
X-553161809Y19139809D01*
X-552685619Y18901714D02*
X-553685619Y18901714D01*
X-553685619Y19282666D01*
X-553638000Y19377904D01*
X-553590380Y19425523D01*
X-553495142Y19473142D01*
X-553352285Y19473142D01*
X-553257047Y19425523D01*
X-553209428Y19377904D01*
X-553161809Y19282666D01*
X-553161809Y18901714D01*
X-552685619Y20425523D02*
X-552685619Y19854095D01*
X-552685619Y20139809D02*
X-553685619Y20139809D01*
X-553542761Y20044571D01*
X-553447523Y19949333D01*
X-553399904Y19854095D01*
X-553685619Y20758857D02*
X-553685619Y21425523D01*
X-552685619Y20996952D01*
%TO.C,R15*%
X-595357619Y14139142D02*
X-595833809Y13805809D01*
X-595357619Y13567714D02*
X-596357619Y13567714D01*
X-596357619Y13948666D01*
X-596310000Y14043904D01*
X-596262380Y14091523D01*
X-596167142Y14139142D01*
X-596024285Y14139142D01*
X-595929047Y14091523D01*
X-595881428Y14043904D01*
X-595833809Y13948666D01*
X-595833809Y13567714D01*
X-595357619Y15091523D02*
X-595357619Y14520095D01*
X-595357619Y14805809D02*
X-596357619Y14805809D01*
X-596214761Y14710571D01*
X-596119523Y14615333D01*
X-596071904Y14520095D01*
X-596357619Y15996285D02*
X-596357619Y15520095D01*
X-595881428Y15472476D01*
X-595929047Y15520095D01*
X-595976666Y15615333D01*
X-595976666Y15853428D01*
X-595929047Y15948666D01*
X-595881428Y15996285D01*
X-595786190Y16043904D01*
X-595548095Y16043904D01*
X-595452857Y15996285D01*
X-595405238Y15948666D01*
X-595357619Y15853428D01*
X-595357619Y15615333D01*
X-595405238Y15520095D01*
X-595452857Y15472476D01*
%TO.C,R14*%
X-532327619Y21733142D02*
X-532803809Y21399809D01*
X-532327619Y21161714D02*
X-533327619Y21161714D01*
X-533327619Y21542666D01*
X-533280000Y21637904D01*
X-533232380Y21685523D01*
X-533137142Y21733142D01*
X-532994285Y21733142D01*
X-532899047Y21685523D01*
X-532851428Y21637904D01*
X-532803809Y21542666D01*
X-532803809Y21161714D01*
X-532327619Y22685523D02*
X-532327619Y22114095D01*
X-532327619Y22399809D02*
X-533327619Y22399809D01*
X-533184761Y22304571D01*
X-533089523Y22209333D01*
X-533041904Y22114095D01*
X-532994285Y23542666D02*
X-532327619Y23542666D01*
X-533375238Y23304571D02*
X-532660952Y23066476D01*
X-532660952Y23685523D01*
%TO.C,R13*%
X-571226857Y12509619D02*
X-571560190Y12985809D01*
X-571798285Y12509619D02*
X-571798285Y13509619D01*
X-571417333Y13509619D01*
X-571322095Y13462000D01*
X-571274476Y13414380D01*
X-571226857Y13319142D01*
X-571226857Y13176285D01*
X-571274476Y13081047D01*
X-571322095Y13033428D01*
X-571417333Y12985809D01*
X-571798285Y12985809D01*
X-570274476Y12509619D02*
X-570845904Y12509619D01*
X-570560190Y12509619D02*
X-570560190Y13509619D01*
X-570655428Y13366761D01*
X-570750666Y13271523D01*
X-570845904Y13223904D01*
X-569941142Y13509619D02*
X-569322095Y13509619D01*
X-569655428Y13128666D01*
X-569512571Y13128666D01*
X-569417333Y13081047D01*
X-569369714Y13033428D01*
X-569322095Y12938190D01*
X-569322095Y12700095D01*
X-569369714Y12604857D01*
X-569417333Y12557238D01*
X-569512571Y12509619D01*
X-569798285Y12509619D01*
X-569893523Y12557238D01*
X-569941142Y12604857D01*
%TO.C,R12*%
X-534237619Y23537142D02*
X-534713809Y23203809D01*
X-534237619Y22965714D02*
X-535237619Y22965714D01*
X-535237619Y23346666D01*
X-535190000Y23441904D01*
X-535142380Y23489523D01*
X-535047142Y23537142D01*
X-534904285Y23537142D01*
X-534809047Y23489523D01*
X-534761428Y23441904D01*
X-534713809Y23346666D01*
X-534713809Y22965714D01*
X-534237619Y24489523D02*
X-534237619Y23918095D01*
X-534237619Y24203809D02*
X-535237619Y24203809D01*
X-535094761Y24108571D01*
X-534999523Y24013333D01*
X-534951904Y23918095D01*
X-535142380Y24870476D02*
X-535190000Y24918095D01*
X-535237619Y25013333D01*
X-535237619Y25251428D01*
X-535190000Y25346666D01*
X-535142380Y25394285D01*
X-535047142Y25441904D01*
X-534951904Y25441904D01*
X-534809047Y25394285D01*
X-534237619Y24822857D01*
X-534237619Y25441904D01*
%TO.C,L2*%
X-601484666Y9503619D02*
X-601960857Y9503619D01*
X-601960857Y10503619D01*
X-601198952Y10408380D02*
X-601151333Y10456000D01*
X-601056095Y10503619D01*
X-600818000Y10503619D01*
X-600722761Y10456000D01*
X-600675142Y10408380D01*
X-600627523Y10313142D01*
X-600627523Y10217904D01*
X-600675142Y10075047D01*
X-601246571Y9503619D01*
X-600627523Y9503619D01*
%TO.C,L1*%
X-606818666Y-1342380D02*
X-607294857Y-1342380D01*
X-607294857Y-342380D01*
X-605961523Y-1342380D02*
X-606532952Y-1342380D01*
X-606247238Y-1342380D02*
X-606247238Y-342380D01*
X-606342476Y-485238D01*
X-606437714Y-580476D01*
X-606532952Y-628095D01*
%TO.C,U6*%
X-502765904Y-9314380D02*
X-502765904Y-10123904D01*
X-502718285Y-10219142D01*
X-502670666Y-10266761D01*
X-502575428Y-10314380D01*
X-502384952Y-10314380D01*
X-502289714Y-10266761D01*
X-502242095Y-10219142D01*
X-502194476Y-10123904D01*
X-502194476Y-9314380D01*
X-501289714Y-9314380D02*
X-501480190Y-9314380D01*
X-501575428Y-9362000D01*
X-501623047Y-9409619D01*
X-501718285Y-9552476D01*
X-501765904Y-9742952D01*
X-501765904Y-10123904D01*
X-501718285Y-10219142D01*
X-501670666Y-10266761D01*
X-501575428Y-10314380D01*
X-501384952Y-10314380D01*
X-501289714Y-10266761D01*
X-501242095Y-10219142D01*
X-501194476Y-10123904D01*
X-501194476Y-9885809D01*
X-501242095Y-9790571D01*
X-501289714Y-9742952D01*
X-501384952Y-9695333D01*
X-501575428Y-9695333D01*
X-501670666Y-9742952D01*
X-501718285Y-9790571D01*
X-501765904Y-9885809D01*
%TO.C,U5*%
X-516481904Y-9314380D02*
X-516481904Y-10123904D01*
X-516434285Y-10219142D01*
X-516386666Y-10266761D01*
X-516291428Y-10314380D01*
X-516100952Y-10314380D01*
X-516005714Y-10266761D01*
X-515958095Y-10219142D01*
X-515910476Y-10123904D01*
X-515910476Y-9314380D01*
X-514958095Y-9314380D02*
X-515434285Y-9314380D01*
X-515481904Y-9790571D01*
X-515434285Y-9742952D01*
X-515339047Y-9695333D01*
X-515100952Y-9695333D01*
X-515005714Y-9742952D01*
X-514958095Y-9790571D01*
X-514910476Y-9885809D01*
X-514910476Y-10123904D01*
X-514958095Y-10219142D01*
X-515005714Y-10266761D01*
X-515100952Y-10314380D01*
X-515339047Y-10314380D01*
X-515434285Y-10266761D01*
X-515481904Y-10219142D01*
%TO.C,J13*%
X-483501619Y9146476D02*
X-482787333Y9146476D01*
X-482644476Y9098857D01*
X-482549238Y9003619D01*
X-482501619Y8860761D01*
X-482501619Y8765523D01*
X-482501619Y10146476D02*
X-482501619Y9575047D01*
X-482501619Y9860761D02*
X-483501619Y9860761D01*
X-483358761Y9765523D01*
X-483263523Y9670285D01*
X-483215904Y9575047D01*
X-483501619Y10479809D02*
X-483501619Y11098857D01*
X-483120666Y10765523D01*
X-483120666Y10908380D01*
X-483073047Y11003619D01*
X-483025428Y11051238D01*
X-482930190Y11098857D01*
X-482692095Y11098857D01*
X-482596857Y11051238D01*
X-482549238Y11003619D01*
X-482501619Y10908380D01*
X-482501619Y10622666D01*
X-482549238Y10527428D01*
X-482596857Y10479809D01*
%TO.C,J11*%
X-494891523Y28931619D02*
X-494891523Y28217333D01*
X-494939142Y28074476D01*
X-495034380Y27979238D01*
X-495177238Y27931619D01*
X-495272476Y27931619D01*
X-493891523Y27931619D02*
X-494462952Y27931619D01*
X-494177238Y27931619D02*
X-494177238Y28931619D01*
X-494272476Y28788761D01*
X-494367714Y28693523D01*
X-494462952Y28645904D01*
X-492939142Y27931619D02*
X-493510571Y27931619D01*
X-493224857Y27931619D02*
X-493224857Y28931619D01*
X-493320095Y28788761D01*
X-493415333Y28693523D01*
X-493510571Y28645904D01*
%TO.C,J10*%
X-563313523Y-50380D02*
X-563313523Y-764666D01*
X-563361142Y-907523D01*
X-563456380Y-1002761D01*
X-563599238Y-1050380D01*
X-563694476Y-1050380D01*
X-562313523Y-1050380D02*
X-562884952Y-1050380D01*
X-562599238Y-1050380D02*
X-562599238Y-50380D01*
X-562694476Y-193238D01*
X-562789714Y-288476D01*
X-562884952Y-336095D01*
X-561694476Y-50380D02*
X-561599238Y-50380D01*
X-561504000Y-98000D01*
X-561456380Y-145619D01*
X-561408761Y-240857D01*
X-561361142Y-431333D01*
X-561361142Y-669428D01*
X-561408761Y-859904D01*
X-561456380Y-955142D01*
X-561504000Y-1002761D01*
X-561599238Y-1050380D01*
X-561694476Y-1050380D01*
X-561789714Y-1002761D01*
X-561837333Y-955142D01*
X-561884952Y-859904D01*
X-561932571Y-669428D01*
X-561932571Y-431333D01*
X-561884952Y-240857D01*
X-561837333Y-145619D01*
X-561789714Y-98000D01*
X-561694476Y-50380D01*
%TO.C,J9*%
X-523927333Y343619D02*
X-523927333Y-370666D01*
X-523974952Y-513523D01*
X-524070190Y-608761D01*
X-524213047Y-656380D01*
X-524308285Y-656380D01*
X-523403523Y-656380D02*
X-523213047Y-656380D01*
X-523117809Y-608761D01*
X-523070190Y-561142D01*
X-522974952Y-418285D01*
X-522927333Y-227809D01*
X-522927333Y153142D01*
X-522974952Y248380D01*
X-523022571Y296000D01*
X-523117809Y343619D01*
X-523308285Y343619D01*
X-523403523Y296000D01*
X-523451142Y248380D01*
X-523498761Y153142D01*
X-523498761Y-84952D01*
X-523451142Y-180190D01*
X-523403523Y-227809D01*
X-523308285Y-275428D01*
X-523117809Y-275428D01*
X-523022571Y-227809D01*
X-522974952Y-180190D01*
X-522927333Y-84952D01*
%TO.C,J8*%
X-616431333Y-558380D02*
X-616431333Y-1272666D01*
X-616478952Y-1415523D01*
X-616574190Y-1510761D01*
X-616717047Y-1558380D01*
X-616812285Y-1558380D01*
X-615812285Y-986952D02*
X-615907523Y-939333D01*
X-615955142Y-891714D01*
X-616002761Y-796476D01*
X-616002761Y-748857D01*
X-615955142Y-653619D01*
X-615907523Y-606000D01*
X-615812285Y-558380D01*
X-615621809Y-558380D01*
X-615526571Y-606000D01*
X-615478952Y-653619D01*
X-615431333Y-748857D01*
X-615431333Y-796476D01*
X-615478952Y-891714D01*
X-615526571Y-939333D01*
X-615621809Y-986952D01*
X-615812285Y-986952D01*
X-615907523Y-1034571D01*
X-615955142Y-1082190D01*
X-616002761Y-1177428D01*
X-616002761Y-1367904D01*
X-615955142Y-1463142D01*
X-615907523Y-1510761D01*
X-615812285Y-1558380D01*
X-615621809Y-1558380D01*
X-615526571Y-1510761D01*
X-615478952Y-1463142D01*
X-615431333Y-1367904D01*
X-615431333Y-1177428D01*
X-615478952Y-1082190D01*
X-615526571Y-1034571D01*
X-615621809Y-986952D01*
%TO.C,J7*%
X-509909333Y28931619D02*
X-509909333Y28217333D01*
X-509956952Y28074476D01*
X-510052190Y27979238D01*
X-510195047Y27931619D01*
X-510290285Y27931619D01*
X-509528380Y28931619D02*
X-508861714Y28931619D01*
X-509290285Y27931619D01*
%TO.C,J6*%
X-542675333Y29185619D02*
X-542675333Y28471333D01*
X-542722952Y28328476D01*
X-542818190Y28233238D01*
X-542961047Y28185619D01*
X-543056285Y28185619D01*
X-541770571Y29185619D02*
X-541961047Y29185619D01*
X-542056285Y29138000D01*
X-542103904Y29090380D01*
X-542199142Y28947523D01*
X-542246761Y28757047D01*
X-542246761Y28376095D01*
X-542199142Y28280857D01*
X-542151523Y28233238D01*
X-542056285Y28185619D01*
X-541865809Y28185619D01*
X-541770571Y28233238D01*
X-541722952Y28280857D01*
X-541675333Y28376095D01*
X-541675333Y28614190D01*
X-541722952Y28709428D01*
X-541770571Y28757047D01*
X-541865809Y28804666D01*
X-542056285Y28804666D01*
X-542151523Y28757047D01*
X-542199142Y28709428D01*
X-542246761Y28614190D01*
%TO.C,J5*%
X-579105333Y1009619D02*
X-579105333Y295333D01*
X-579152952Y152476D01*
X-579248190Y57238D01*
X-579391047Y9619D01*
X-579486285Y9619D01*
X-578152952Y1009619D02*
X-578629142Y1009619D01*
X-578676761Y533428D01*
X-578629142Y581047D01*
X-578533904Y628666D01*
X-578295809Y628666D01*
X-578200571Y581047D01*
X-578152952Y533428D01*
X-578105333Y438190D01*
X-578105333Y200095D01*
X-578152952Y104857D01*
X-578200571Y57238D01*
X-578295809Y9619D01*
X-578533904Y9619D01*
X-578629142Y57238D01*
X-578676761Y104857D01*
%TO.C,J4*%
X-546339333Y1517619D02*
X-546339333Y803333D01*
X-546386952Y660476D01*
X-546482190Y565238D01*
X-546625047Y517619D01*
X-546720285Y517619D01*
X-545434571Y1184285D02*
X-545434571Y517619D01*
X-545672666Y1565238D02*
X-545910761Y850952D01*
X-545291714Y850952D01*
%TO.C,J3*%
X-631679619Y5364666D02*
X-630965333Y5364666D01*
X-630822476Y5317047D01*
X-630727238Y5221809D01*
X-630679619Y5078952D01*
X-630679619Y4983714D01*
X-631679619Y5745619D02*
X-631679619Y6364666D01*
X-631298666Y6031333D01*
X-631298666Y6174190D01*
X-631251047Y6269428D01*
X-631203428Y6317047D01*
X-631108190Y6364666D01*
X-630870095Y6364666D01*
X-630774857Y6317047D01*
X-630727238Y6269428D01*
X-630679619Y6174190D01*
X-630679619Y5888476D01*
X-630727238Y5793238D01*
X-630774857Y5745619D01*
%TO.C,J2*%
X-526407333Y27871619D02*
X-526407333Y27157333D01*
X-526454952Y27014476D01*
X-526550190Y26919238D01*
X-526693047Y26871619D01*
X-526788285Y26871619D01*
X-525978761Y27776380D02*
X-525931142Y27824000D01*
X-525835904Y27871619D01*
X-525597809Y27871619D01*
X-525502571Y27824000D01*
X-525454952Y27776380D01*
X-525407333Y27681142D01*
X-525407333Y27585904D01*
X-525454952Y27443047D01*
X-526026380Y26871619D01*
X-525407333Y26871619D01*
%TO.C,J1*%
X-558919333Y27871619D02*
X-558919333Y27157333D01*
X-558966952Y27014476D01*
X-559062190Y26919238D01*
X-559205047Y26871619D01*
X-559300285Y26871619D01*
X-557919333Y26871619D02*
X-558490761Y26871619D01*
X-558205047Y26871619D02*
X-558205047Y27871619D01*
X-558300285Y27728761D01*
X-558395523Y27633523D01*
X-558490761Y27585904D01*
%TO.C,C16*%
X-514584857Y21028857D02*
X-514632476Y20981238D01*
X-514775333Y20933619D01*
X-514870571Y20933619D01*
X-515013428Y20981238D01*
X-515108666Y21076476D01*
X-515156285Y21171714D01*
X-515203904Y21362190D01*
X-515203904Y21505047D01*
X-515156285Y21695523D01*
X-515108666Y21790761D01*
X-515013428Y21886000D01*
X-514870571Y21933619D01*
X-514775333Y21933619D01*
X-514632476Y21886000D01*
X-514584857Y21838380D01*
X-513632476Y20933619D02*
X-514203904Y20933619D01*
X-513918190Y20933619D02*
X-513918190Y21933619D01*
X-514013428Y21790761D01*
X-514108666Y21695523D01*
X-514203904Y21647904D01*
X-512775333Y21933619D02*
X-512965809Y21933619D01*
X-513061047Y21886000D01*
X-513108666Y21838380D01*
X-513203904Y21695523D01*
X-513251523Y21505047D01*
X-513251523Y21124095D01*
X-513203904Y21028857D01*
X-513156285Y20981238D01*
X-513061047Y20933619D01*
X-512870571Y20933619D01*
X-512775333Y20981238D01*
X-512727714Y21028857D01*
X-512680095Y21124095D01*
X-512680095Y21362190D01*
X-512727714Y21457428D01*
X-512775333Y21505047D01*
X-512870571Y21552666D01*
X-513061047Y21552666D01*
X-513156285Y21505047D01*
X-513203904Y21457428D01*
X-513251523Y21362190D01*
%TO.C,C15*%
X-514060857Y20072857D02*
X-514108476Y20025238D01*
X-514251333Y19977619D01*
X-514346571Y19977619D01*
X-514489428Y20025238D01*
X-514584666Y20120476D01*
X-514632285Y20215714D01*
X-514679904Y20406190D01*
X-514679904Y20549047D01*
X-514632285Y20739523D01*
X-514584666Y20834761D01*
X-514489428Y20930000D01*
X-514346571Y20977619D01*
X-514251333Y20977619D01*
X-514108476Y20930000D01*
X-514060857Y20882380D01*
X-513108476Y19977619D02*
X-513679904Y19977619D01*
X-513394190Y19977619D02*
X-513394190Y20977619D01*
X-513489428Y20834761D01*
X-513584666Y20739523D01*
X-513679904Y20691904D01*
X-512203714Y20977619D02*
X-512679904Y20977619D01*
X-512727523Y20501428D01*
X-512679904Y20549047D01*
X-512584666Y20596666D01*
X-512346571Y20596666D01*
X-512251333Y20549047D01*
X-512203714Y20501428D01*
X-512156095Y20406190D01*
X-512156095Y20168095D01*
X-512203714Y20072857D01*
X-512251333Y20025238D01*
X-512346571Y19977619D01*
X-512584666Y19977619D01*
X-512679904Y20025238D01*
X-512727523Y20072857D01*
%TO.C,C14*%
X-493248857Y1724857D02*
X-493296476Y1677238D01*
X-493439333Y1629619D01*
X-493534571Y1629619D01*
X-493677428Y1677238D01*
X-493772666Y1772476D01*
X-493820285Y1867714D01*
X-493867904Y2058190D01*
X-493867904Y2201047D01*
X-493820285Y2391523D01*
X-493772666Y2486761D01*
X-493677428Y2582000D01*
X-493534571Y2629619D01*
X-493439333Y2629619D01*
X-493296476Y2582000D01*
X-493248857Y2534380D01*
X-492296476Y1629619D02*
X-492867904Y1629619D01*
X-492582190Y1629619D02*
X-492582190Y2629619D01*
X-492677428Y2486761D01*
X-492772666Y2391523D01*
X-492867904Y2343904D01*
X-491439333Y2296285D02*
X-491439333Y1629619D01*
X-491677428Y2677238D02*
X-491915523Y1962952D01*
X-491296476Y1962952D01*
%TO.C,C13*%
X-497312857Y24838857D02*
X-497360476Y24791238D01*
X-497503333Y24743619D01*
X-497598571Y24743619D01*
X-497741428Y24791238D01*
X-497836666Y24886476D01*
X-497884285Y24981714D01*
X-497931904Y25172190D01*
X-497931904Y25315047D01*
X-497884285Y25505523D01*
X-497836666Y25600761D01*
X-497741428Y25696000D01*
X-497598571Y25743619D01*
X-497503333Y25743619D01*
X-497360476Y25696000D01*
X-497312857Y25648380D01*
X-496360476Y24743619D02*
X-496931904Y24743619D01*
X-496646190Y24743619D02*
X-496646190Y25743619D01*
X-496741428Y25600761D01*
X-496836666Y25505523D01*
X-496931904Y25457904D01*
X-496027142Y25743619D02*
X-495408095Y25743619D01*
X-495741428Y25362666D01*
X-495598571Y25362666D01*
X-495503333Y25315047D01*
X-495455714Y25267428D01*
X-495408095Y25172190D01*
X-495408095Y24934095D01*
X-495455714Y24838857D01*
X-495503333Y24791238D01*
X-495598571Y24743619D01*
X-495884285Y24743619D01*
X-495979523Y24791238D01*
X-496027142Y24838857D01*
%TO.C,C12*%
X-489906857Y-10875142D02*
X-489954476Y-10922761D01*
X-490097333Y-10970380D01*
X-490192571Y-10970380D01*
X-490335428Y-10922761D01*
X-490430666Y-10827523D01*
X-490478285Y-10732285D01*
X-490525904Y-10541809D01*
X-490525904Y-10398952D01*
X-490478285Y-10208476D01*
X-490430666Y-10113238D01*
X-490335428Y-10018000D01*
X-490192571Y-9970380D01*
X-490097333Y-9970380D01*
X-489954476Y-10018000D01*
X-489906857Y-10065619D01*
X-488954476Y-10970380D02*
X-489525904Y-10970380D01*
X-489240190Y-10970380D02*
X-489240190Y-9970380D01*
X-489335428Y-10113238D01*
X-489430666Y-10208476D01*
X-489525904Y-10256095D01*
X-488573523Y-10065619D02*
X-488525904Y-10018000D01*
X-488430666Y-9970380D01*
X-488192571Y-9970380D01*
X-488097333Y-10018000D01*
X-488049714Y-10065619D01*
X-488002095Y-10160857D01*
X-488002095Y-10256095D01*
X-488049714Y-10398952D01*
X-488621142Y-10970380D01*
X-488002095Y-10970380D01*
%TO.C,C11*%
X-494772857Y24584857D02*
X-494820476Y24537238D01*
X-494963333Y24489619D01*
X-495058571Y24489619D01*
X-495201428Y24537238D01*
X-495296666Y24632476D01*
X-495344285Y24727714D01*
X-495391904Y24918190D01*
X-495391904Y25061047D01*
X-495344285Y25251523D01*
X-495296666Y25346761D01*
X-495201428Y25442000D01*
X-495058571Y25489619D01*
X-494963333Y25489619D01*
X-494820476Y25442000D01*
X-494772857Y25394380D01*
X-493820476Y24489619D02*
X-494391904Y24489619D01*
X-494106190Y24489619D02*
X-494106190Y25489619D01*
X-494201428Y25346761D01*
X-494296666Y25251523D01*
X-494391904Y25203904D01*
X-492868095Y24489619D02*
X-493439523Y24489619D01*
X-493153809Y24489619D02*
X-493153809Y25489619D01*
X-493249047Y25346761D01*
X-493344285Y25251523D01*
X-493439523Y25203904D01*
%TO.C,C10*%
X-561574857Y10106857D02*
X-561622476Y10059238D01*
X-561765333Y10011619D01*
X-561860571Y10011619D01*
X-562003428Y10059238D01*
X-562098666Y10154476D01*
X-562146285Y10249714D01*
X-562193904Y10440190D01*
X-562193904Y10583047D01*
X-562146285Y10773523D01*
X-562098666Y10868761D01*
X-562003428Y10964000D01*
X-561860571Y11011619D01*
X-561765333Y11011619D01*
X-561622476Y10964000D01*
X-561574857Y10916380D01*
X-560622476Y10011619D02*
X-561193904Y10011619D01*
X-560908190Y10011619D02*
X-560908190Y11011619D01*
X-561003428Y10868761D01*
X-561098666Y10773523D01*
X-561193904Y10725904D01*
X-560003428Y11011619D02*
X-559908190Y11011619D01*
X-559812952Y10964000D01*
X-559765333Y10916380D01*
X-559717714Y10821142D01*
X-559670095Y10630666D01*
X-559670095Y10392571D01*
X-559717714Y10202095D01*
X-559765333Y10106857D01*
X-559812952Y10059238D01*
X-559908190Y10011619D01*
X-560003428Y10011619D01*
X-560098666Y10059238D01*
X-560146285Y10106857D01*
X-560193904Y10202095D01*
X-560241523Y10392571D01*
X-560241523Y10630666D01*
X-560193904Y10821142D01*
X-560146285Y10916380D01*
X-560098666Y10964000D01*
X-560003428Y11011619D01*
%TO.C,C9*%
X-533396857Y-116666D02*
X-533349238Y-164285D01*
X-533301619Y-307142D01*
X-533301619Y-402380D01*
X-533349238Y-545238D01*
X-533444476Y-640476D01*
X-533539714Y-688095D01*
X-533730190Y-735714D01*
X-533873047Y-735714D01*
X-534063523Y-688095D01*
X-534158761Y-640476D01*
X-534254000Y-545238D01*
X-534301619Y-402380D01*
X-534301619Y-307142D01*
X-534254000Y-164285D01*
X-534206380Y-116666D01*
X-533301619Y359523D02*
X-533301619Y550000D01*
X-533349238Y645238D01*
X-533396857Y692857D01*
X-533539714Y788095D01*
X-533730190Y835714D01*
X-534111142Y835714D01*
X-534206380Y788095D01*
X-534254000Y740476D01*
X-534301619Y645238D01*
X-534301619Y454761D01*
X-534254000Y359523D01*
X-534206380Y311904D01*
X-534111142Y264285D01*
X-533873047Y264285D01*
X-533777809Y311904D01*
X-533730190Y359523D01*
X-533682571Y454761D01*
X-533682571Y645238D01*
X-533730190Y740476D01*
X-533777809Y788095D01*
X-533873047Y835714D01*
%TO.C,C8*%
X-581656857Y25283333D02*
X-581609238Y25235714D01*
X-581561619Y25092857D01*
X-581561619Y24997619D01*
X-581609238Y24854761D01*
X-581704476Y24759523D01*
X-581799714Y24711904D01*
X-581990190Y24664285D01*
X-582133047Y24664285D01*
X-582323523Y24711904D01*
X-582418761Y24759523D01*
X-582514000Y24854761D01*
X-582561619Y24997619D01*
X-582561619Y25092857D01*
X-582514000Y25235714D01*
X-582466380Y25283333D01*
X-582133047Y25854761D02*
X-582180666Y25759523D01*
X-582228285Y25711904D01*
X-582323523Y25664285D01*
X-582371142Y25664285D01*
X-582466380Y25711904D01*
X-582514000Y25759523D01*
X-582561619Y25854761D01*
X-582561619Y26045238D01*
X-582514000Y26140476D01*
X-582466380Y26188095D01*
X-582371142Y26235714D01*
X-582323523Y26235714D01*
X-582228285Y26188095D01*
X-582180666Y26140476D01*
X-582133047Y26045238D01*
X-582133047Y25854761D01*
X-582085428Y25759523D01*
X-582037809Y25711904D01*
X-581942571Y25664285D01*
X-581752095Y25664285D01*
X-581656857Y25711904D01*
X-581609238Y25759523D01*
X-581561619Y25854761D01*
X-581561619Y26045238D01*
X-581609238Y26140476D01*
X-581656857Y26188095D01*
X-581752095Y26235714D01*
X-581942571Y26235714D01*
X-582037809Y26188095D01*
X-582085428Y26140476D01*
X-582133047Y26045238D01*
%TO.C,C7*%
X-600214666Y36776857D02*
X-600262285Y36729238D01*
X-600405142Y36681619D01*
X-600500380Y36681619D01*
X-600643238Y36729238D01*
X-600738476Y36824476D01*
X-600786095Y36919714D01*
X-600833714Y37110190D01*
X-600833714Y37253047D01*
X-600786095Y37443523D01*
X-600738476Y37538761D01*
X-600643238Y37634000D01*
X-600500380Y37681619D01*
X-600405142Y37681619D01*
X-600262285Y37634000D01*
X-600214666Y37586380D01*
X-599881333Y37681619D02*
X-599214666Y37681619D01*
X-599643238Y36681619D01*
%TO.C,C3*%
X-618756666Y36776857D02*
X-618804285Y36729238D01*
X-618947142Y36681619D01*
X-619042380Y36681619D01*
X-619185238Y36729238D01*
X-619280476Y36824476D01*
X-619328095Y36919714D01*
X-619375714Y37110190D01*
X-619375714Y37253047D01*
X-619328095Y37443523D01*
X-619280476Y37538761D01*
X-619185238Y37634000D01*
X-619042380Y37681619D01*
X-618947142Y37681619D01*
X-618804285Y37634000D01*
X-618756666Y37586380D01*
X-618423333Y37681619D02*
X-617804285Y37681619D01*
X-618137619Y37300666D01*
X-617994761Y37300666D01*
X-617899523Y37253047D01*
X-617851904Y37205428D01*
X-617804285Y37110190D01*
X-617804285Y36872095D01*
X-617851904Y36776857D01*
X-617899523Y36729238D01*
X-617994761Y36681619D01*
X-618280476Y36681619D01*
X-618375714Y36729238D01*
X-618423333Y36776857D01*
%TO.C,C2*%
X-533904857Y9789333D02*
X-533857238Y9741714D01*
X-533809619Y9598857D01*
X-533809619Y9503619D01*
X-533857238Y9360761D01*
X-533952476Y9265523D01*
X-534047714Y9217904D01*
X-534238190Y9170285D01*
X-534381047Y9170285D01*
X-534571523Y9217904D01*
X-534666761Y9265523D01*
X-534762000Y9360761D01*
X-534809619Y9503619D01*
X-534809619Y9598857D01*
X-534762000Y9741714D01*
X-534714380Y9789333D01*
X-534714380Y10170285D02*
X-534762000Y10217904D01*
X-534809619Y10313142D01*
X-534809619Y10551238D01*
X-534762000Y10646476D01*
X-534714380Y10694095D01*
X-534619142Y10741714D01*
X-534523904Y10741714D01*
X-534381047Y10694095D01*
X-533809619Y10122666D01*
X-533809619Y10741714D01*
%TO.C,C1*%
X-570242666Y9852857D02*
X-570290285Y9805238D01*
X-570433142Y9757619D01*
X-570528380Y9757619D01*
X-570671238Y9805238D01*
X-570766476Y9900476D01*
X-570814095Y9995714D01*
X-570861714Y10186190D01*
X-570861714Y10329047D01*
X-570814095Y10519523D01*
X-570766476Y10614761D01*
X-570671238Y10710000D01*
X-570528380Y10757619D01*
X-570433142Y10757619D01*
X-570290285Y10710000D01*
X-570242666Y10662380D01*
X-569290285Y9757619D02*
X-569861714Y9757619D01*
X-569576000Y9757619D02*
X-569576000Y10757619D01*
X-569671238Y10614761D01*
X-569766476Y10519523D01*
X-569861714Y10471904D01*
%TD*%
M02*
