%TF.GenerationSoftware,KiCad,Pcbnew,(5.1.10)-1*%
%TF.CreationDate,2021-11-20T18:22:11+01:00*%
%TF.ProjectId,MRAMP00_PowerSupply,4d52414d-5030-4305-9f50-6f7765725375,rev?*%
%TF.SameCoordinates,Original*%
%TF.FileFunction,Paste,Bot*%
%TF.FilePolarity,Positive*%
%FSLAX46Y46*%
G04 Gerber Fmt 4.6, Leading zero omitted, Abs format (unit mm)*
G04 Created by KiCad (PCBNEW (5.1.10)-1) date 2021-11-20 18:22:11*
%MOMM*%
%LPD*%
G01*
G04 APERTURE LIST*
%ADD10R,1.400000X2.100000*%
%ADD11R,2.750000X3.050000*%
%ADD12R,1.200000X2.200000*%
%ADD13R,3.050000X2.750000*%
%ADD14R,2.200000X1.200000*%
G04 APERTURE END LIST*
D10*
%TO.C,D2*%
X-490996000Y2590000D03*
X-486596000Y2590000D03*
%TD*%
%TO.C,D1*%
X-486850000Y14020000D03*
X-491250000Y14020000D03*
%TD*%
%TO.C,R31*%
G36*
G01*
X-508725001Y22772000D02*
X-507474999Y22772000D01*
G75*
G02*
X-507225000Y22522001I0J-249999D01*
G01*
X-507225000Y21721999D01*
G75*
G02*
X-507474999Y21472000I-249999J0D01*
G01*
X-508725001Y21472000D01*
G75*
G02*
X-508975000Y21721999I0J249999D01*
G01*
X-508975000Y22522001D01*
G75*
G02*
X-508725001Y22772000I249999J0D01*
G01*
G37*
G36*
G01*
X-508725001Y25872000D02*
X-507474999Y25872000D01*
G75*
G02*
X-507225000Y25622001I0J-249999D01*
G01*
X-507225000Y24821999D01*
G75*
G02*
X-507474999Y24572000I-249999J0D01*
G01*
X-508725001Y24572000D01*
G75*
G02*
X-508975000Y24821999I0J249999D01*
G01*
X-508975000Y25622001D01*
G75*
G02*
X-508725001Y25872000I249999J0D01*
G01*
G37*
%TD*%
%TO.C,R29*%
G36*
G01*
X-508725001Y16168000D02*
X-507474999Y16168000D01*
G75*
G02*
X-507225000Y15918001I0J-249999D01*
G01*
X-507225000Y15117999D01*
G75*
G02*
X-507474999Y14868000I-249999J0D01*
G01*
X-508725001Y14868000D01*
G75*
G02*
X-508975000Y15117999I0J249999D01*
G01*
X-508975000Y15918001D01*
G75*
G02*
X-508725001Y16168000I249999J0D01*
G01*
G37*
G36*
G01*
X-508725001Y19268000D02*
X-507474999Y19268000D01*
G75*
G02*
X-507225000Y19018001I0J-249999D01*
G01*
X-507225000Y18217999D01*
G75*
G02*
X-507474999Y17968000I-249999J0D01*
G01*
X-508725001Y17968000D01*
G75*
G02*
X-508975000Y18217999I0J249999D01*
G01*
X-508975000Y19018001D01*
G75*
G02*
X-508725001Y19268000I249999J0D01*
G01*
G37*
%TD*%
%TO.C,R28*%
G36*
G01*
X-507982999Y12126000D02*
X-509233001Y12126000D01*
G75*
G02*
X-509483000Y12375999I0J249999D01*
G01*
X-509483000Y13176001D01*
G75*
G02*
X-509233001Y13426000I249999J0D01*
G01*
X-507982999Y13426000D01*
G75*
G02*
X-507733000Y13176001I0J-249999D01*
G01*
X-507733000Y12375999D01*
G75*
G02*
X-507982999Y12126000I-249999J0D01*
G01*
G37*
G36*
G01*
X-507982999Y9026000D02*
X-509233001Y9026000D01*
G75*
G02*
X-509483000Y9275999I0J249999D01*
G01*
X-509483000Y10076001D01*
G75*
G02*
X-509233001Y10326000I249999J0D01*
G01*
X-507982999Y10326000D01*
G75*
G02*
X-507733000Y10076001I0J-249999D01*
G01*
X-507733000Y9275999D01*
G75*
G02*
X-507982999Y9026000I-249999J0D01*
G01*
G37*
%TD*%
%TO.C,R27*%
G36*
G01*
X-588519001Y14972000D02*
X-585668999Y14972000D01*
G75*
G02*
X-585419000Y14722001I0J-249999D01*
G01*
X-585419000Y13821999D01*
G75*
G02*
X-585668999Y13572000I-249999J0D01*
G01*
X-588519001Y13572000D01*
G75*
G02*
X-588769000Y13821999I0J249999D01*
G01*
X-588769000Y14722001D01*
G75*
G02*
X-588519001Y14972000I249999J0D01*
G01*
G37*
G36*
G01*
X-588519001Y21072000D02*
X-585668999Y21072000D01*
G75*
G02*
X-585419000Y20822001I0J-249999D01*
G01*
X-585419000Y19921999D01*
G75*
G02*
X-585668999Y19672000I-249999J0D01*
G01*
X-588519001Y19672000D01*
G75*
G02*
X-588769000Y19921999I0J249999D01*
G01*
X-588769000Y20822001D01*
G75*
G02*
X-588519001Y21072000I249999J0D01*
G01*
G37*
%TD*%
%TO.C,R25*%
G36*
G01*
X-571228999Y9078000D02*
X-572479001Y9078000D01*
G75*
G02*
X-572729000Y9327999I0J249999D01*
G01*
X-572729000Y10128001D01*
G75*
G02*
X-572479001Y10378000I249999J0D01*
G01*
X-571228999Y10378000D01*
G75*
G02*
X-570979000Y10128001I0J-249999D01*
G01*
X-570979000Y9327999D01*
G75*
G02*
X-571228999Y9078000I-249999J0D01*
G01*
G37*
G36*
G01*
X-571228999Y5978000D02*
X-572479001Y5978000D01*
G75*
G02*
X-572729000Y6227999I0J249999D01*
G01*
X-572729000Y7028001D01*
G75*
G02*
X-572479001Y7278000I249999J0D01*
G01*
X-571228999Y7278000D01*
G75*
G02*
X-570979000Y7028001I0J-249999D01*
G01*
X-570979000Y6227999D01*
G75*
G02*
X-571228999Y5978000I-249999J0D01*
G01*
G37*
%TD*%
%TO.C,R24*%
G36*
G01*
X-534144999Y6538000D02*
X-535395001Y6538000D01*
G75*
G02*
X-535645000Y6787999I0J249999D01*
G01*
X-535645000Y7588001D01*
G75*
G02*
X-535395001Y7838000I249999J0D01*
G01*
X-534144999Y7838000D01*
G75*
G02*
X-533895000Y7588001I0J-249999D01*
G01*
X-533895000Y6787999D01*
G75*
G02*
X-534144999Y6538000I-249999J0D01*
G01*
G37*
G36*
G01*
X-534144999Y3438000D02*
X-535395001Y3438000D01*
G75*
G02*
X-535645000Y3687999I0J249999D01*
G01*
X-535645000Y4488001D01*
G75*
G02*
X-535395001Y4738000I249999J0D01*
G01*
X-534144999Y4738000D01*
G75*
G02*
X-533895000Y4488001I0J-249999D01*
G01*
X-533895000Y3687999D01*
G75*
G02*
X-534144999Y3438000I-249999J0D01*
G01*
G37*
%TD*%
%TO.C,R23*%
G36*
G01*
X-578140000Y19198999D02*
X-578140000Y22049001D01*
G75*
G02*
X-577890001Y22299000I249999J0D01*
G01*
X-576989999Y22299000D01*
G75*
G02*
X-576740000Y22049001I0J-249999D01*
G01*
X-576740000Y19198999D01*
G75*
G02*
X-576989999Y18949000I-249999J0D01*
G01*
X-577890001Y18949000D01*
G75*
G02*
X-578140000Y19198999I0J249999D01*
G01*
G37*
G36*
G01*
X-584240000Y19198999D02*
X-584240000Y22049001D01*
G75*
G02*
X-583990001Y22299000I249999J0D01*
G01*
X-583089999Y22299000D01*
G75*
G02*
X-582840000Y22049001I0J-249999D01*
G01*
X-582840000Y19198999D01*
G75*
G02*
X-583089999Y18949000I-249999J0D01*
G01*
X-583990001Y18949000D01*
G75*
G02*
X-584240000Y19198999I0J249999D01*
G01*
G37*
%TD*%
%TO.C,R22*%
G36*
G01*
X-542742999Y25768000D02*
X-545593001Y25768000D01*
G75*
G02*
X-545843000Y26017999I0J249999D01*
G01*
X-545843000Y26918001D01*
G75*
G02*
X-545593001Y27168000I249999J0D01*
G01*
X-542742999Y27168000D01*
G75*
G02*
X-542493000Y26918001I0J-249999D01*
G01*
X-542493000Y26017999D01*
G75*
G02*
X-542742999Y25768000I-249999J0D01*
G01*
G37*
G36*
G01*
X-542742999Y19668000D02*
X-545593001Y19668000D01*
G75*
G02*
X-545843000Y19917999I0J249999D01*
G01*
X-545843000Y20818001D01*
G75*
G02*
X-545593001Y21068000I249999J0D01*
G01*
X-542742999Y21068000D01*
G75*
G02*
X-542493000Y20818001I0J-249999D01*
G01*
X-542493000Y19917999D01*
G75*
G02*
X-542742999Y19668000I-249999J0D01*
G01*
G37*
%TD*%
%TO.C,R21*%
G36*
G01*
X-491706000Y27110999D02*
X-491706000Y28361001D01*
G75*
G02*
X-491456001Y28611000I249999J0D01*
G01*
X-490655999Y28611000D01*
G75*
G02*
X-490406000Y28361001I0J-249999D01*
G01*
X-490406000Y27110999D01*
G75*
G02*
X-490655999Y26861000I-249999J0D01*
G01*
X-491456001Y26861000D01*
G75*
G02*
X-491706000Y27110999I0J249999D01*
G01*
G37*
G36*
G01*
X-494806000Y27110999D02*
X-494806000Y28361001D01*
G75*
G02*
X-494556001Y28611000I249999J0D01*
G01*
X-493755999Y28611000D01*
G75*
G02*
X-493506000Y28361001I0J-249999D01*
G01*
X-493506000Y27110999D01*
G75*
G02*
X-493755999Y26861000I-249999J0D01*
G01*
X-494556001Y26861000D01*
G75*
G02*
X-494806000Y27110999I0J249999D01*
G01*
G37*
%TD*%
%TO.C,R19*%
G36*
G01*
X-500596000Y15934999D02*
X-500596000Y17185001D01*
G75*
G02*
X-500346001Y17435000I249999J0D01*
G01*
X-499545999Y17435000D01*
G75*
G02*
X-499296000Y17185001I0J-249999D01*
G01*
X-499296000Y15934999D01*
G75*
G02*
X-499545999Y15685000I-249999J0D01*
G01*
X-500346001Y15685000D01*
G75*
G02*
X-500596000Y15934999I0J249999D01*
G01*
G37*
G36*
G01*
X-503696000Y15934999D02*
X-503696000Y17185001D01*
G75*
G02*
X-503446001Y17435000I249999J0D01*
G01*
X-502645999Y17435000D01*
G75*
G02*
X-502396000Y17185001I0J-249999D01*
G01*
X-502396000Y15934999D01*
G75*
G02*
X-502645999Y15685000I-249999J0D01*
G01*
X-503446001Y15685000D01*
G75*
G02*
X-503696000Y15934999I0J249999D01*
G01*
G37*
%TD*%
%TO.C,R18*%
G36*
G01*
X-529500000Y9857001D02*
X-529500000Y7006999D01*
G75*
G02*
X-529749999Y6757000I-249999J0D01*
G01*
X-530650001Y6757000D01*
G75*
G02*
X-530900000Y7006999I0J249999D01*
G01*
X-530900000Y9857001D01*
G75*
G02*
X-530650001Y10107000I249999J0D01*
G01*
X-529749999Y10107000D01*
G75*
G02*
X-529500000Y9857001I0J-249999D01*
G01*
G37*
G36*
G01*
X-523400000Y9857001D02*
X-523400000Y7006999D01*
G75*
G02*
X-523649999Y6757000I-249999J0D01*
G01*
X-524550001Y6757000D01*
G75*
G02*
X-524800000Y7006999I0J249999D01*
G01*
X-524800000Y9857001D01*
G75*
G02*
X-524550001Y10107000I249999J0D01*
G01*
X-523649999Y10107000D01*
G75*
G02*
X-523400000Y9857001I0J-249999D01*
G01*
G37*
%TD*%
%TO.C,R16*%
G36*
G01*
X-500596000Y13140999D02*
X-500596000Y14391001D01*
G75*
G02*
X-500346001Y14641000I249999J0D01*
G01*
X-499545999Y14641000D01*
G75*
G02*
X-499296000Y14391001I0J-249999D01*
G01*
X-499296000Y13140999D01*
G75*
G02*
X-499545999Y12891000I-249999J0D01*
G01*
X-500346001Y12891000D01*
G75*
G02*
X-500596000Y13140999I0J249999D01*
G01*
G37*
G36*
G01*
X-503696000Y13140999D02*
X-503696000Y14391001D01*
G75*
G02*
X-503446001Y14641000I249999J0D01*
G01*
X-502645999Y14641000D01*
G75*
G02*
X-502396000Y14391001I0J-249999D01*
G01*
X-502396000Y13140999D01*
G75*
G02*
X-502645999Y12891000I-249999J0D01*
G01*
X-503446001Y12891000D01*
G75*
G02*
X-503696000Y13140999I0J249999D01*
G01*
G37*
%TD*%
%TO.C,R11*%
G36*
G01*
X-573025001Y20560000D02*
X-570174999Y20560000D01*
G75*
G02*
X-569925000Y20310001I0J-249999D01*
G01*
X-569925000Y19409999D01*
G75*
G02*
X-570174999Y19160000I-249999J0D01*
G01*
X-573025001Y19160000D01*
G75*
G02*
X-573275000Y19409999I0J249999D01*
G01*
X-573275000Y20310001D01*
G75*
G02*
X-573025001Y20560000I249999J0D01*
G01*
G37*
G36*
G01*
X-573025001Y26660000D02*
X-570174999Y26660000D01*
G75*
G02*
X-569925000Y26410001I0J-249999D01*
G01*
X-569925000Y25509999D01*
G75*
G02*
X-570174999Y25260000I-249999J0D01*
G01*
X-573025001Y25260000D01*
G75*
G02*
X-573275000Y25509999I0J249999D01*
G01*
X-573275000Y26410001D01*
G75*
G02*
X-573025001Y26660000I249999J0D01*
G01*
G37*
%TD*%
%TO.C,R10*%
G36*
G01*
X-572479001Y-3898000D02*
X-571228999Y-3898000D01*
G75*
G02*
X-570979000Y-4147999I0J-249999D01*
G01*
X-570979000Y-4948001D01*
G75*
G02*
X-571228999Y-5198000I-249999J0D01*
G01*
X-572479001Y-5198000D01*
G75*
G02*
X-572729000Y-4948001I0J249999D01*
G01*
X-572729000Y-4147999D01*
G75*
G02*
X-572479001Y-3898000I249999J0D01*
G01*
G37*
G36*
G01*
X-572479001Y-798000D02*
X-571228999Y-798000D01*
G75*
G02*
X-570979000Y-1047999I0J-249999D01*
G01*
X-570979000Y-1848001D01*
G75*
G02*
X-571228999Y-2098000I-249999J0D01*
G01*
X-572479001Y-2098000D01*
G75*
G02*
X-572729000Y-1848001I0J249999D01*
G01*
X-572729000Y-1047999D01*
G75*
G02*
X-572479001Y-798000I249999J0D01*
G01*
G37*
%TD*%
%TO.C,R9*%
G36*
G01*
X-578594999Y-2352000D02*
X-579845001Y-2352000D01*
G75*
G02*
X-580095000Y-2102001I0J249999D01*
G01*
X-580095000Y-1301999D01*
G75*
G02*
X-579845001Y-1052000I249999J0D01*
G01*
X-578594999Y-1052000D01*
G75*
G02*
X-578345000Y-1301999I0J-249999D01*
G01*
X-578345000Y-2102001D01*
G75*
G02*
X-578594999Y-2352000I-249999J0D01*
G01*
G37*
G36*
G01*
X-578594999Y-5452000D02*
X-579845001Y-5452000D01*
G75*
G02*
X-580095000Y-5202001I0J249999D01*
G01*
X-580095000Y-4401999D01*
G75*
G02*
X-579845001Y-4152000I249999J0D01*
G01*
X-578594999Y-4152000D01*
G75*
G02*
X-578345000Y-4401999I0J-249999D01*
G01*
X-578345000Y-5202001D01*
G75*
G02*
X-578594999Y-5452000I-249999J0D01*
G01*
G37*
%TD*%
%TO.C,R8*%
G36*
G01*
X-539967001Y-544000D02*
X-538716999Y-544000D01*
G75*
G02*
X-538467000Y-793999I0J-249999D01*
G01*
X-538467000Y-1594001D01*
G75*
G02*
X-538716999Y-1844000I-249999J0D01*
G01*
X-539967001Y-1844000D01*
G75*
G02*
X-540217000Y-1594001I0J249999D01*
G01*
X-540217000Y-793999D01*
G75*
G02*
X-539967001Y-544000I249999J0D01*
G01*
G37*
G36*
G01*
X-539967001Y-3644000D02*
X-538716999Y-3644000D01*
G75*
G02*
X-538467000Y-3893999I0J-249999D01*
G01*
X-538467000Y-4694001D01*
G75*
G02*
X-538716999Y-4944000I-249999J0D01*
G01*
X-539967001Y-4944000D01*
G75*
G02*
X-540217000Y-4694001I0J249999D01*
G01*
X-540217000Y-3893999D01*
G75*
G02*
X-539967001Y-3644000I249999J0D01*
G01*
G37*
%TD*%
%TO.C,R7*%
G36*
G01*
X-546082999Y-1844000D02*
X-547333001Y-1844000D01*
G75*
G02*
X-547583000Y-1594001I0J249999D01*
G01*
X-547583000Y-793999D01*
G75*
G02*
X-547333001Y-544000I249999J0D01*
G01*
X-546082999Y-544000D01*
G75*
G02*
X-545833000Y-793999I0J-249999D01*
G01*
X-545833000Y-1594001D01*
G75*
G02*
X-546082999Y-1844000I-249999J0D01*
G01*
G37*
G36*
G01*
X-546082999Y-4944000D02*
X-547333001Y-4944000D01*
G75*
G02*
X-547583000Y-4694001I0J249999D01*
G01*
X-547583000Y-3893999D01*
G75*
G02*
X-547333001Y-3644000I249999J0D01*
G01*
X-546082999Y-3644000D01*
G75*
G02*
X-545833000Y-3893999I0J-249999D01*
G01*
X-545833000Y-4694001D01*
G75*
G02*
X-546082999Y-4944000I-249999J0D01*
G01*
G37*
%TD*%
%TO.C,R6*%
G36*
G01*
X-633185001Y1436000D02*
X-631934999Y1436000D01*
G75*
G02*
X-631685000Y1186001I0J-249999D01*
G01*
X-631685000Y385999D01*
G75*
G02*
X-631934999Y136000I-249999J0D01*
G01*
X-633185001Y136000D01*
G75*
G02*
X-633435000Y385999I0J249999D01*
G01*
X-633435000Y1186001D01*
G75*
G02*
X-633185001Y1436000I249999J0D01*
G01*
G37*
G36*
G01*
X-633185001Y4536000D02*
X-631934999Y4536000D01*
G75*
G02*
X-631685000Y4286001I0J-249999D01*
G01*
X-631685000Y3485999D01*
G75*
G02*
X-631934999Y3236000I-249999J0D01*
G01*
X-633185001Y3236000D01*
G75*
G02*
X-633435000Y3485999I0J249999D01*
G01*
X-633435000Y4286001D01*
G75*
G02*
X-633185001Y4536000I249999J0D01*
G01*
G37*
%TD*%
%TO.C,R5*%
G36*
G01*
X-633185001Y8802000D02*
X-631934999Y8802000D01*
G75*
G02*
X-631685000Y8552001I0J-249999D01*
G01*
X-631685000Y7751999D01*
G75*
G02*
X-631934999Y7502000I-249999J0D01*
G01*
X-633185001Y7502000D01*
G75*
G02*
X-633435000Y7751999I0J249999D01*
G01*
X-633435000Y8552001D01*
G75*
G02*
X-633185001Y8802000I249999J0D01*
G01*
G37*
G36*
G01*
X-633185001Y11902000D02*
X-631934999Y11902000D01*
G75*
G02*
X-631685000Y11652001I0J-249999D01*
G01*
X-631685000Y10851999D01*
G75*
G02*
X-631934999Y10602000I-249999J0D01*
G01*
X-633185001Y10602000D01*
G75*
G02*
X-633435000Y10851999I0J249999D01*
G01*
X-633435000Y11652001D01*
G75*
G02*
X-633185001Y11902000I249999J0D01*
G01*
G37*
%TD*%
%TO.C,R4*%
G36*
G01*
X-532620999Y32700000D02*
X-533871001Y32700000D01*
G75*
G02*
X-534121000Y32949999I0J249999D01*
G01*
X-534121000Y33750001D01*
G75*
G02*
X-533871001Y34000000I249999J0D01*
G01*
X-532620999Y34000000D01*
G75*
G02*
X-532371000Y33750001I0J-249999D01*
G01*
X-532371000Y32949999D01*
G75*
G02*
X-532620999Y32700000I-249999J0D01*
G01*
G37*
G36*
G01*
X-532620999Y29600000D02*
X-533871001Y29600000D01*
G75*
G02*
X-534121000Y29849999I0J249999D01*
G01*
X-534121000Y30650001D01*
G75*
G02*
X-533871001Y30900000I249999J0D01*
G01*
X-532620999Y30900000D01*
G75*
G02*
X-532371000Y30650001I0J-249999D01*
G01*
X-532371000Y29849999D01*
G75*
G02*
X-532620999Y29600000I-249999J0D01*
G01*
G37*
%TD*%
%TO.C,R3*%
G36*
G01*
X-525997001Y30900000D02*
X-524746999Y30900000D01*
G75*
G02*
X-524497000Y30650001I0J-249999D01*
G01*
X-524497000Y29849999D01*
G75*
G02*
X-524746999Y29600000I-249999J0D01*
G01*
X-525997001Y29600000D01*
G75*
G02*
X-526247000Y29849999I0J249999D01*
G01*
X-526247000Y30650001D01*
G75*
G02*
X-525997001Y30900000I249999J0D01*
G01*
G37*
G36*
G01*
X-525997001Y34000000D02*
X-524746999Y34000000D01*
G75*
G02*
X-524497000Y33750001I0J-249999D01*
G01*
X-524497000Y32949999D01*
G75*
G02*
X-524746999Y32700000I-249999J0D01*
G01*
X-525997001Y32700000D01*
G75*
G02*
X-526247000Y32949999I0J249999D01*
G01*
X-526247000Y33750001D01*
G75*
G02*
X-525997001Y34000000I249999J0D01*
G01*
G37*
%TD*%
%TO.C,R2*%
G36*
G01*
X-565132999Y33208000D02*
X-566383001Y33208000D01*
G75*
G02*
X-566633000Y33457999I0J249999D01*
G01*
X-566633000Y34258001D01*
G75*
G02*
X-566383001Y34508000I249999J0D01*
G01*
X-565132999Y34508000D01*
G75*
G02*
X-564883000Y34258001I0J-249999D01*
G01*
X-564883000Y33457999D01*
G75*
G02*
X-565132999Y33208000I-249999J0D01*
G01*
G37*
G36*
G01*
X-565132999Y30108000D02*
X-566383001Y30108000D01*
G75*
G02*
X-566633000Y30357999I0J249999D01*
G01*
X-566633000Y31158001D01*
G75*
G02*
X-566383001Y31408000I249999J0D01*
G01*
X-565132999Y31408000D01*
G75*
G02*
X-564883000Y31158001I0J-249999D01*
G01*
X-564883000Y30357999D01*
G75*
G02*
X-565132999Y30108000I-249999J0D01*
G01*
G37*
%TD*%
%TO.C,R1*%
G36*
G01*
X-558509001Y31408000D02*
X-557258999Y31408000D01*
G75*
G02*
X-557009000Y31158001I0J-249999D01*
G01*
X-557009000Y30357999D01*
G75*
G02*
X-557258999Y30108000I-249999J0D01*
G01*
X-558509001Y30108000D01*
G75*
G02*
X-558759000Y30357999I0J249999D01*
G01*
X-558759000Y31158001D01*
G75*
G02*
X-558509001Y31408000I249999J0D01*
G01*
G37*
G36*
G01*
X-558509001Y34508000D02*
X-557258999Y34508000D01*
G75*
G02*
X-557009000Y34258001I0J-249999D01*
G01*
X-557009000Y33457999D01*
G75*
G02*
X-557258999Y33208000I-249999J0D01*
G01*
X-558509001Y33208000D01*
G75*
G02*
X-558759000Y33457999I0J249999D01*
G01*
X-558759000Y34258001D01*
G75*
G02*
X-558509001Y34508000I249999J0D01*
G01*
G37*
%TD*%
D11*
%TO.C,U4*%
X-577949000Y8515000D03*
X-580999000Y5165000D03*
X-580999000Y8515000D03*
X-577949000Y5165000D03*
D12*
X-577194000Y13140000D03*
X-581754000Y13140000D03*
%TD*%
D11*
%TO.C,U3*%
X-540611000Y8769000D03*
X-543661000Y5419000D03*
X-543661000Y8769000D03*
X-540611000Y5419000D03*
D12*
X-539856000Y13394000D03*
X-544416000Y13394000D03*
%TD*%
D13*
%TO.C,U2*%
X-526217000Y23673000D03*
X-522867000Y20623000D03*
X-526217000Y20623000D03*
X-522867000Y23673000D03*
D14*
X-530842000Y24428000D03*
X-530842000Y19868000D03*
%TD*%
D11*
%TO.C,U1*%
X-557883000Y18929000D03*
X-560933000Y15579000D03*
X-560933000Y18929000D03*
X-557883000Y15579000D03*
D12*
X-557128000Y23554000D03*
X-561688000Y23554000D03*
%TD*%
M02*
