M48
; DRILL file {KiCad (5.1.10)-1} date 11/20/21 18:22:18
; FORMAT={-:-/ absolute / metric / decimal}
; #@! TF.CreationDate,2021-11-20T18:22:18+01:00
; #@! TF.GenerationSoftware,Kicad,Pcbnew,(5.1.10)-1
; #@! TF.FileFunction,Plated,1,2,PTH
FMAT,2
METRIC
T1C0.400
T2C0.800
T3C0.900
T4C1.000
T5C1.100
T6C1.200
T7C1.400
T8C1.450
T9C3.200
T10C3.500
%
G90
G05
T1
X-568.707Y21.928
X-564.631Y16.944
X-541.465Y17.992
X-537.078Y17.992
X-530.96Y26.948
X-520.038Y4.622
X-520.038Y2.59
X-520.038Y0.812
X-520.038Y-0.966
X-520.038Y-2.744
X-520.038Y-4.522
X-520.038Y-6.3
X-520.038Y-8.078
X-518.006Y4.622
X-518.006Y2.59
X-518.006Y0.812
X-518.006Y-0.966
X-518.006Y-2.744
X-515.974Y4.622
X-515.974Y2.59
X-515.974Y0.812
X-515.974Y-0.966
X-515.974Y-2.744
X-513.942Y4.622
X-513.942Y2.59
X-513.942Y0.812
X-513.942Y-0.966
X-513.942Y-2.744
X-511.91Y4.622
X-511.91Y2.59
X-511.91Y0.812
X-511.91Y-0.966
X-511.91Y-2.744
X-511.91Y-4.522
X-511.91Y-6.3
X-511.91Y-8.332
X-506.068Y4.622
X-506.068Y2.336
X-506.068Y0.05
X-506.068Y-2.236
X-506.068Y-4.522
X-506.068Y-6.3
X-506.068Y-8.078
X-505.388Y25.831
X-504.036Y4.622
X-504.036Y2.336
X-504.036Y0.05
X-504.036Y-2.236
X-502.004Y4.622
X-502.004Y2.336
X-502.004Y0.05
X-502.004Y-2.236
X-501.496Y17.576
X-499.972Y4.622
X-499.972Y2.336
X-499.972Y0.05
X-499.972Y-2.236
X-497.94Y4.622
X-497.94Y2.336
X-497.94Y0.05
X-497.94Y-2.236
X-497.94Y-4.268
X-497.94Y-6.046
X-497.686Y-7.824
T2
X-566.52Y7.416
X-566.52Y3.916
X-557.122Y7.614
X-557.122Y4.114
X-530.96Y13.258
X-530.706Y3.606
X-527.46Y13.258
X-527.206Y3.606
X-514.672Y17.576
X-514.418Y24.18
X-512.672Y17.576
X-512.418Y24.18
T3
X-616.652Y16.36
X-616.652Y3.86
X-606.652Y16.36
X-606.652Y3.86
X-601.666Y5.692
X-601.666Y-6.808
X-591.666Y5.692
X-591.666Y-6.808
T4
X-619.098Y-4.776
X-619.098Y-7.776
X-616.098Y-4.776
X-616.098Y-7.776
X-613.098Y-4.776
X-613.098Y-7.776
X-565.504Y-4.268
X-565.504Y-7.268
X-562.504Y-4.268
X-562.504Y-7.268
X-559.504Y-4.268
X-559.504Y-7.268
X-545.342Y35.308
X-545.342Y32.308
X-542.342Y35.308
X-542.342Y32.308
X-539.342Y35.308
X-539.342Y32.308
X-532.484Y-3.76
X-532.484Y-6.76
X-529.484Y-3.76
X-529.484Y-6.76
X-526.484Y-3.76
X-526.484Y-6.76
X-512.576Y35.054
X-512.576Y32.054
X-509.576Y35.054
X-509.576Y32.054
X-506.576Y35.054
X-506.576Y32.054
X-503.782Y19.862
X-498.782Y19.862
X-497.082Y35.054
X-497.082Y32.054
X-494.082Y35.054
X-494.082Y32.054
X-491.764Y19.862
X-491.764Y7.67
X-491.764Y-4.268
X-491.082Y35.054
X-491.082Y32.054
X-486.764Y19.862
X-486.764Y7.67
X-486.764Y-4.268
T5
X-518.26Y10.718
X-515.72Y10.718
X-513.18Y10.718
X-504.544Y10.718
X-502.004Y10.718
X-499.464Y10.718
T6
X-611.986Y32.816
X-611.986Y25.316
X-593.19Y32.95
X-593.19Y25.45
X-576.426Y33.832
X-576.426Y28.832
T7
X-637.132Y9.448
X-637.132Y1.948
X-636.878Y33.578
X-636.878Y26.078
X-636.878Y18.578
X-582.522Y-5.538
X-575.022Y-5.538
X-562.336Y33.324
X-554.836Y33.324
X-549.756Y-5.03
X-542.256Y-5.03
X-529.824Y33.324
X-522.324Y33.324
X-476.858Y20.384
X-476.858Y12.884
X-476.858Y5.384
T8
X-623.924Y18.592
X-623.924Y13.592
X-623.924Y8.592
X-623.924Y3.592
T9
X-637.386Y-6.554
X-626.21Y34.848
X-476.0Y34.086
X-476.0Y-5.538
T10
X-515.72Y-5.942
X-502.004Y-5.942
T0
M30
