%TF.GenerationSoftware,KiCad,Pcbnew,(5.1.10)-1*%
%TF.CreationDate,2021-11-22T13:13:25+01:00*%
%TF.ProjectId,Amplificatore,416d706c-6966-4696-9361-746f72652e6b,rev?*%
%TF.SameCoordinates,Original*%
%TF.FileFunction,Legend,Top*%
%TF.FilePolarity,Positive*%
%FSLAX46Y46*%
G04 Gerber Fmt 4.6, Leading zero omitted, Abs format (unit mm)*
G04 Created by KiCad (PCBNEW (5.1.10)-1) date 2021-11-22 13:13:25*
%MOMM*%
%LPD*%
G01*
G04 APERTURE LIST*
%ADD10C,0.120000*%
%ADD11C,0.150000*%
G04 APERTURE END LIST*
D10*
%TO.C,R20*%
X134255000Y-86102936D02*
X134255000Y-86557064D01*
X135725000Y-86102936D02*
X135725000Y-86557064D01*
%TO.C,R18*%
X119221064Y-78287000D02*
X118766936Y-78287000D01*
X119221064Y-79757000D02*
X118766936Y-79757000D01*
%TO.C,R14*%
X118916936Y-82805000D02*
X119371064Y-82805000D01*
X118916936Y-81335000D02*
X119371064Y-81335000D01*
%TO.C,R13*%
X119325064Y-84637000D02*
X118870936Y-84637000D01*
X119325064Y-86107000D02*
X118870936Y-86107000D01*
%TO.C,R12*%
X119325064Y-87685000D02*
X118870936Y-87685000D01*
X119325064Y-89155000D02*
X118870936Y-89155000D01*
%TO.C,R10*%
X88844564Y-76963000D02*
X88390436Y-76963000D01*
X88844564Y-75493000D02*
X88390436Y-75493000D01*
%TO.C,R15*%
X135985064Y-57205000D02*
X135530936Y-57205000D01*
X135985064Y-58675000D02*
X135530936Y-58675000D01*
%TO.C,J21*%
X158497000Y-40286000D02*
X158497000Y-39976000D01*
X158497000Y-39976000D02*
X145627000Y-39976000D01*
X145627000Y-39976000D02*
X145627000Y-40286000D01*
X158497000Y-41806000D02*
X158497000Y-47566000D01*
X158497000Y-47566000D02*
X157077000Y-47566000D01*
X157077000Y-47566000D02*
X157077000Y-47066000D01*
X157077000Y-47066000D02*
X147047000Y-47066000D01*
X147047000Y-47066000D02*
X147047000Y-47566000D01*
X147047000Y-47566000D02*
X145627000Y-47566000D01*
X145627000Y-47566000D02*
X145627000Y-41806000D01*
%TO.C,J20*%
X219457000Y-76570000D02*
X219457000Y-76260000D01*
X219457000Y-76260000D02*
X206587000Y-76260000D01*
X206587000Y-76260000D02*
X206587000Y-76570000D01*
X219457000Y-78090000D02*
X219457000Y-83850000D01*
X219457000Y-83850000D02*
X218037000Y-83850000D01*
X218037000Y-83850000D02*
X218037000Y-83350000D01*
X218037000Y-83350000D02*
X208007000Y-83350000D01*
X208007000Y-83350000D02*
X208007000Y-83850000D01*
X208007000Y-83850000D02*
X206587000Y-83850000D01*
X206587000Y-83850000D02*
X206587000Y-78090000D01*
%TO.C,J10*%
X72391000Y-41048000D02*
X72391000Y-40738000D01*
X72391000Y-40738000D02*
X59521000Y-40738000D01*
X59521000Y-40738000D02*
X59521000Y-41048000D01*
X72391000Y-42568000D02*
X72391000Y-48328000D01*
X72391000Y-48328000D02*
X70971000Y-48328000D01*
X70971000Y-48328000D02*
X70971000Y-47828000D01*
X70971000Y-47828000D02*
X60941000Y-47828000D01*
X60941000Y-47828000D02*
X60941000Y-48328000D01*
X60941000Y-48328000D02*
X59521000Y-48328000D01*
X59521000Y-48328000D02*
X59521000Y-42568000D01*
%TO.C,C30*%
X190870000Y-57210000D02*
X196110000Y-57210000D01*
X190870000Y-75450000D02*
X196110000Y-75450000D01*
X196110000Y-75450000D02*
X196110000Y-57210000D01*
X190870000Y-75450000D02*
X190870000Y-57210000D01*
%TO.C,C28*%
X187870000Y-90450000D02*
X187870000Y-85210000D01*
X206110000Y-90450000D02*
X206110000Y-85210000D01*
X206110000Y-85210000D02*
X187870000Y-85210000D01*
X206110000Y-90450000D02*
X187870000Y-90450000D01*
%TO.C,C27*%
X195304000Y-49210000D02*
X195304000Y-54450000D01*
X177064000Y-49210000D02*
X177064000Y-54450000D01*
X177064000Y-54450000D02*
X195304000Y-54450000D01*
X177064000Y-49210000D02*
X195304000Y-49210000D01*
%TO.C,C24*%
X201725000Y-41068748D02*
X201725000Y-41591252D01*
X200255000Y-41068748D02*
X200255000Y-41591252D01*
%TO.C,C23*%
X192766748Y-46095000D02*
X193289252Y-46095000D01*
X192766748Y-47565000D02*
X193289252Y-47565000D01*
%TO.C,U3*%
X193990000Y-44390000D02*
X195940000Y-44390000D01*
X193990000Y-44390000D02*
X192040000Y-44390000D01*
X193990000Y-39270000D02*
X195940000Y-39270000D01*
X193990000Y-39270000D02*
X190540000Y-39270000D01*
%TO.C,J15*%
X179000000Y-47060000D02*
X179000000Y-44940000D01*
X179000000Y-47060000D02*
X183060000Y-47060000D01*
X183060000Y-47060000D02*
X183060000Y-44940000D01*
X179000000Y-44940000D02*
X183060000Y-44940000D01*
X176940000Y-44940000D02*
X178000000Y-44940000D01*
X176940000Y-46000000D02*
X176940000Y-44940000D01*
%TO.C,J14*%
X179000000Y-41060000D02*
X179000000Y-38940000D01*
X179000000Y-41060000D02*
X183060000Y-41060000D01*
X183060000Y-41060000D02*
X183060000Y-38940000D01*
X179000000Y-38940000D02*
X183060000Y-38940000D01*
X176940000Y-38940000D02*
X178000000Y-38940000D01*
X176940000Y-40000000D02*
X176940000Y-38940000D01*
%TO.C,J13*%
X206587000Y-73850000D02*
X206587000Y-68090000D01*
X208007000Y-73850000D02*
X206587000Y-73850000D01*
X208007000Y-73350000D02*
X208007000Y-73850000D01*
X218037000Y-73350000D02*
X208007000Y-73350000D01*
X218037000Y-73850000D02*
X218037000Y-73350000D01*
X219457000Y-73850000D02*
X218037000Y-73850000D01*
X219457000Y-68090000D02*
X219457000Y-73850000D01*
X206587000Y-66260000D02*
X206587000Y-66570000D01*
X219457000Y-66260000D02*
X206587000Y-66260000D01*
X219457000Y-66570000D02*
X219457000Y-66260000D01*
%TO.C,J12*%
X206587000Y-53850000D02*
X206587000Y-48090000D01*
X208007000Y-53850000D02*
X206587000Y-53850000D01*
X208007000Y-53350000D02*
X208007000Y-53850000D01*
X218037000Y-53350000D02*
X208007000Y-53350000D01*
X218037000Y-53850000D02*
X218037000Y-53350000D01*
X219457000Y-53850000D02*
X218037000Y-53850000D01*
X219457000Y-48090000D02*
X219457000Y-53850000D01*
X206587000Y-46260000D02*
X206587000Y-46570000D01*
X219457000Y-46260000D02*
X206587000Y-46260000D01*
X219457000Y-46570000D02*
X219457000Y-46260000D01*
%TO.C,J11*%
X206587000Y-63850000D02*
X206587000Y-58090000D01*
X208007000Y-63850000D02*
X206587000Y-63850000D01*
X208007000Y-63350000D02*
X208007000Y-63850000D01*
X218037000Y-63350000D02*
X208007000Y-63350000D01*
X218037000Y-63850000D02*
X218037000Y-63350000D01*
X219457000Y-63850000D02*
X218037000Y-63850000D01*
X219457000Y-58090000D02*
X219457000Y-63850000D01*
X206587000Y-56260000D02*
X206587000Y-56570000D01*
X219457000Y-56260000D02*
X206587000Y-56260000D01*
X219457000Y-56570000D02*
X219457000Y-56260000D01*
%TO.C,R24*%
X141024000Y-41792936D02*
X141024000Y-46147064D01*
X137604000Y-41792936D02*
X137604000Y-46147064D01*
%TO.C,R23*%
X135731000Y-78794936D02*
X135731000Y-79249064D01*
X134261000Y-78794936D02*
X134261000Y-79249064D01*
%TO.C,J9*%
X168000000Y-41060000D02*
X168000000Y-38940000D01*
X168000000Y-41060000D02*
X172060000Y-41060000D01*
X172060000Y-41060000D02*
X172060000Y-38940000D01*
X168000000Y-38940000D02*
X172060000Y-38940000D01*
X165940000Y-38940000D02*
X167000000Y-38940000D01*
X165940000Y-40000000D02*
X165940000Y-38940000D01*
%TO.C,J8*%
X178940000Y-59000000D02*
X181060000Y-59000000D01*
X178940000Y-59000000D02*
X178940000Y-63060000D01*
X178940000Y-63060000D02*
X181060000Y-63060000D01*
X181060000Y-59000000D02*
X181060000Y-63060000D01*
X181060000Y-56940000D02*
X181060000Y-58000000D01*
X180000000Y-56940000D02*
X181060000Y-56940000D01*
%TO.C,J7*%
X168000000Y-47060000D02*
X168000000Y-44940000D01*
X168000000Y-47060000D02*
X172060000Y-47060000D01*
X172060000Y-47060000D02*
X172060000Y-44940000D01*
X168000000Y-44940000D02*
X172060000Y-44940000D01*
X165940000Y-44940000D02*
X167000000Y-44940000D01*
X165940000Y-46000000D02*
X165940000Y-44940000D01*
%TO.C,J6*%
X171940000Y-59000000D02*
X174060000Y-59000000D01*
X171940000Y-59000000D02*
X171940000Y-63060000D01*
X171940000Y-63060000D02*
X174060000Y-63060000D01*
X174060000Y-59000000D02*
X174060000Y-63060000D01*
X174060000Y-56940000D02*
X174060000Y-58000000D01*
X173000000Y-56940000D02*
X174060000Y-56940000D01*
%TO.C,J5*%
X168050000Y-61000000D02*
X165930000Y-61000000D01*
X168050000Y-61000000D02*
X168050000Y-56940000D01*
X168050000Y-56940000D02*
X165930000Y-56940000D01*
X165930000Y-61000000D02*
X165930000Y-56940000D01*
X165930000Y-63060000D02*
X165930000Y-62000000D01*
X166990000Y-63060000D02*
X165930000Y-63060000D01*
%TO.C,C22*%
X187870000Y-83450000D02*
X187870000Y-79210000D01*
X201110000Y-83450000D02*
X201110000Y-79210000D01*
X201110000Y-79210000D02*
X187870000Y-79210000D01*
X201110000Y-83450000D02*
X187870000Y-83450000D01*
%TO.C,C21*%
X169870000Y-72710000D02*
X188110000Y-72710000D01*
X169870000Y-77950000D02*
X188110000Y-77950000D01*
X169870000Y-72710000D02*
X169870000Y-77950000D01*
X188110000Y-72710000D02*
X188110000Y-77950000D01*
%TO.C,C20*%
X160300000Y-57278000D02*
X160300000Y-47038000D01*
X163540000Y-57278000D02*
X163540000Y-47038000D01*
X160300000Y-57278000D02*
X163540000Y-57278000D01*
X160300000Y-47038000D02*
X163540000Y-47038000D01*
%TO.C,C19*%
X158194000Y-57302000D02*
X153454000Y-57302000D01*
X158194000Y-49862000D02*
X153454000Y-49862000D01*
X153454000Y-49862000D02*
X153454000Y-57302000D01*
X158194000Y-49862000D02*
X158194000Y-57302000D01*
%TO.C,C18*%
X183110000Y-70450000D02*
X169870000Y-70450000D01*
X183110000Y-66210000D02*
X169870000Y-66210000D01*
X183110000Y-70450000D02*
X183110000Y-66210000D01*
X169870000Y-70450000D02*
X169870000Y-66210000D01*
%TO.C,C17*%
X162610000Y-64450000D02*
X149370000Y-64450000D01*
X162610000Y-60210000D02*
X149370000Y-60210000D01*
X162610000Y-64450000D02*
X162610000Y-60210000D01*
X149370000Y-64450000D02*
X149370000Y-60210000D01*
%TO.C,C16*%
X167610000Y-71450000D02*
X149370000Y-71450000D01*
X167610000Y-66210000D02*
X149370000Y-66210000D01*
X167610000Y-71450000D02*
X167610000Y-66210000D01*
X149370000Y-71450000D02*
X149370000Y-66210000D01*
%TO.C,J4*%
X52910000Y-63258000D02*
X55030000Y-63258000D01*
X52910000Y-63258000D02*
X52910000Y-67318000D01*
X52910000Y-67318000D02*
X55030000Y-67318000D01*
X55030000Y-63258000D02*
X55030000Y-67318000D01*
X55030000Y-61198000D02*
X55030000Y-62258000D01*
X53970000Y-61198000D02*
X55030000Y-61198000D01*
%TO.C,K4*%
X182770000Y-87560000D02*
X182770000Y-85020000D01*
X178325000Y-85020000D02*
X182135000Y-82480000D01*
X180230000Y-82480000D02*
X180230000Y-83750000D01*
X175150000Y-87560000D02*
X175150000Y-85020000D01*
X175150000Y-85020000D02*
X178325000Y-85020000D01*
X167020000Y-85780000D02*
X168040000Y-84770000D01*
X167530000Y-81210000D02*
X166260000Y-81210000D01*
X167530000Y-84000000D02*
X167530000Y-81210000D01*
X167530000Y-88830000D02*
X167530000Y-86540000D01*
X166260000Y-88830000D02*
X167530000Y-88830000D01*
X167530000Y-86540000D02*
X167020000Y-86540000D01*
X167020000Y-86540000D02*
X167020000Y-84000000D01*
X167020000Y-84000000D02*
X167530000Y-84000000D01*
X167530000Y-84000000D02*
X168040000Y-84000000D01*
X168040000Y-84000000D02*
X168040000Y-86540000D01*
X168040000Y-86540000D02*
X167530000Y-86540000D01*
X163310000Y-90520000D02*
X184450000Y-90520000D01*
X184450000Y-90520000D02*
X184450000Y-79520000D01*
X163310000Y-90520000D02*
X163310000Y-79520000D01*
X163310000Y-79520000D02*
X184450000Y-79520000D01*
X178452000Y-85020000D02*
G75*
G03*
X178452000Y-85020000I-127000J0D01*
G01*
%TO.C,K3*%
X159770000Y-87560000D02*
X159770000Y-85020000D01*
X155325000Y-85020000D02*
X159135000Y-82480000D01*
X157230000Y-82480000D02*
X157230000Y-83750000D01*
X152150000Y-87560000D02*
X152150000Y-85020000D01*
X152150000Y-85020000D02*
X155325000Y-85020000D01*
X144020000Y-85780000D02*
X145040000Y-84770000D01*
X144530000Y-81210000D02*
X143260000Y-81210000D01*
X144530000Y-84000000D02*
X144530000Y-81210000D01*
X144530000Y-88830000D02*
X144530000Y-86540000D01*
X143260000Y-88830000D02*
X144530000Y-88830000D01*
X144530000Y-86540000D02*
X144020000Y-86540000D01*
X144020000Y-86540000D02*
X144020000Y-84000000D01*
X144020000Y-84000000D02*
X144530000Y-84000000D01*
X144530000Y-84000000D02*
X145040000Y-84000000D01*
X145040000Y-84000000D02*
X145040000Y-86540000D01*
X145040000Y-86540000D02*
X144530000Y-86540000D01*
X140310000Y-90520000D02*
X161450000Y-90520000D01*
X161450000Y-90520000D02*
X161450000Y-79520000D01*
X140310000Y-90520000D02*
X140310000Y-79520000D01*
X140310000Y-79520000D02*
X161450000Y-79520000D01*
X155452000Y-85020000D02*
G75*
G03*
X155452000Y-85020000I-127000J0D01*
G01*
%TO.C,J3*%
X187050000Y-61000000D02*
X184930000Y-61000000D01*
X187050000Y-61000000D02*
X187050000Y-56940000D01*
X187050000Y-56940000D02*
X184930000Y-56940000D01*
X184930000Y-61000000D02*
X184930000Y-56940000D01*
X184930000Y-63060000D02*
X184930000Y-62000000D01*
X185990000Y-63060000D02*
X184930000Y-63060000D01*
%TO.C,C15*%
X167610000Y-72710000D02*
X167610000Y-77950000D01*
X149370000Y-72710000D02*
X149370000Y-77950000D01*
X149370000Y-77950000D02*
X167610000Y-77950000D01*
X149370000Y-72710000D02*
X167610000Y-72710000D01*
%TO.C,R19*%
X126428000Y-81670936D02*
X126428000Y-86025064D01*
X129848000Y-81670936D02*
X129848000Y-86025064D01*
%TO.C,K2*%
X91054000Y-85118000D02*
G75*
G03*
X91054000Y-85118000I-127000J0D01*
G01*
X105942000Y-90618000D02*
X84802000Y-90618000D01*
X105942000Y-79618000D02*
X105942000Y-90618000D01*
X84802000Y-79618000D02*
X84802000Y-90618000D01*
X105942000Y-79618000D02*
X84802000Y-79618000D01*
X101212000Y-83598000D02*
X101722000Y-83598000D01*
X101212000Y-86138000D02*
X101212000Y-83598000D01*
X101722000Y-86138000D02*
X101212000Y-86138000D01*
X102232000Y-86138000D02*
X101722000Y-86138000D01*
X102232000Y-83598000D02*
X102232000Y-86138000D01*
X101722000Y-83598000D02*
X102232000Y-83598000D01*
X102992000Y-81308000D02*
X101722000Y-81308000D01*
X101722000Y-81308000D02*
X101722000Y-83598000D01*
X101722000Y-86138000D02*
X101722000Y-88928000D01*
X101722000Y-88928000D02*
X102992000Y-88928000D01*
X102232000Y-84358000D02*
X101212000Y-85368000D01*
X94102000Y-85118000D02*
X90927000Y-85118000D01*
X94102000Y-82578000D02*
X94102000Y-85118000D01*
X89022000Y-87658000D02*
X89022000Y-86388000D01*
X90927000Y-85118000D02*
X87117000Y-87658000D01*
X86482000Y-82578000D02*
X86482000Y-85118000D01*
%TO.C,D7*%
X103850000Y-73800000D02*
X103850000Y-70860000D01*
X103610000Y-73800000D02*
X103610000Y-70860000D01*
X103730000Y-73800000D02*
X103730000Y-70860000D01*
X98170000Y-72330000D02*
X99190000Y-72330000D01*
X105650000Y-72330000D02*
X104630000Y-72330000D01*
X99190000Y-73800000D02*
X104630000Y-73800000D01*
X99190000Y-70860000D02*
X99190000Y-73800000D01*
X104630000Y-70860000D02*
X99190000Y-70860000D01*
X104630000Y-73800000D02*
X104630000Y-70860000D01*
%TO.C,D6*%
X115130000Y-71860000D02*
X115130000Y-74800000D01*
X115370000Y-71860000D02*
X115370000Y-74800000D01*
X115250000Y-71860000D02*
X115250000Y-74800000D01*
X120810000Y-73330000D02*
X119790000Y-73330000D01*
X113330000Y-73330000D02*
X114350000Y-73330000D01*
X119790000Y-71860000D02*
X114350000Y-71860000D01*
X119790000Y-74800000D02*
X119790000Y-71860000D01*
X114350000Y-74800000D02*
X119790000Y-74800000D01*
X114350000Y-71860000D02*
X114350000Y-74800000D01*
%TO.C,C14*%
X129044000Y-55734000D02*
X129044000Y-50494000D01*
X147284000Y-55734000D02*
X147284000Y-50494000D01*
X147284000Y-50494000D02*
X129044000Y-50494000D01*
X147284000Y-55734000D02*
X129044000Y-55734000D01*
%TO.C,C13*%
X123610000Y-64210000D02*
X123610000Y-68450000D01*
X110370000Y-64210000D02*
X110370000Y-68450000D01*
X110370000Y-68450000D02*
X123610000Y-68450000D01*
X110370000Y-64210000D02*
X123610000Y-64210000D01*
%TO.C,R17*%
X129476000Y-41792936D02*
X129476000Y-46147064D01*
X132896000Y-41792936D02*
X132896000Y-46147064D01*
%TO.C,R16*%
X143404936Y-59183000D02*
X143859064Y-59183000D01*
X143404936Y-57713000D02*
X143859064Y-57713000D01*
%TO.C,J2*%
X113196000Y-87420000D02*
X111076000Y-87420000D01*
X113196000Y-87420000D02*
X113196000Y-83360000D01*
X113196000Y-83360000D02*
X111076000Y-83360000D01*
X111076000Y-87420000D02*
X111076000Y-83360000D01*
X111076000Y-89480000D02*
X111076000Y-88420000D01*
X112136000Y-89480000D02*
X111076000Y-89480000D01*
%TO.C,D5*%
X119630000Y-41800000D02*
X119630000Y-38860000D01*
X119630000Y-38860000D02*
X114190000Y-38860000D01*
X114190000Y-38860000D02*
X114190000Y-41800000D01*
X114190000Y-41800000D02*
X119630000Y-41800000D01*
X120650000Y-40330000D02*
X119630000Y-40330000D01*
X113170000Y-40330000D02*
X114190000Y-40330000D01*
X118730000Y-41800000D02*
X118730000Y-38860000D01*
X118610000Y-41800000D02*
X118610000Y-38860000D01*
X118850000Y-41800000D02*
X118850000Y-38860000D01*
%TO.C,D4*%
X119630000Y-46800000D02*
X119630000Y-43860000D01*
X119630000Y-43860000D02*
X114190000Y-43860000D01*
X114190000Y-43860000D02*
X114190000Y-46800000D01*
X114190000Y-46800000D02*
X119630000Y-46800000D01*
X120650000Y-45330000D02*
X119630000Y-45330000D01*
X113170000Y-45330000D02*
X114190000Y-45330000D01*
X118730000Y-46800000D02*
X118730000Y-43860000D01*
X118610000Y-46800000D02*
X118610000Y-43860000D01*
X118850000Y-46800000D02*
X118850000Y-43860000D01*
%TO.C,D3*%
X119630000Y-61800000D02*
X119630000Y-58860000D01*
X119630000Y-58860000D02*
X114190000Y-58860000D01*
X114190000Y-58860000D02*
X114190000Y-61800000D01*
X114190000Y-61800000D02*
X119630000Y-61800000D01*
X120650000Y-60330000D02*
X119630000Y-60330000D01*
X113170000Y-60330000D02*
X114190000Y-60330000D01*
X118730000Y-61800000D02*
X118730000Y-58860000D01*
X118610000Y-61800000D02*
X118610000Y-58860000D01*
X118850000Y-61800000D02*
X118850000Y-58860000D01*
%TO.C,D2*%
X114350000Y-53860000D02*
X114350000Y-56800000D01*
X114350000Y-56800000D02*
X119790000Y-56800000D01*
X119790000Y-56800000D02*
X119790000Y-53860000D01*
X119790000Y-53860000D02*
X114350000Y-53860000D01*
X113330000Y-55330000D02*
X114350000Y-55330000D01*
X120810000Y-55330000D02*
X119790000Y-55330000D01*
X115250000Y-53860000D02*
X115250000Y-56800000D01*
X115370000Y-53860000D02*
X115370000Y-56800000D01*
X115130000Y-53860000D02*
X115130000Y-56800000D01*
%TO.C,D1*%
X114350000Y-48860000D02*
X114350000Y-51800000D01*
X114350000Y-51800000D02*
X119790000Y-51800000D01*
X119790000Y-51800000D02*
X119790000Y-48860000D01*
X119790000Y-48860000D02*
X114350000Y-48860000D01*
X113330000Y-50330000D02*
X114350000Y-50330000D01*
X120810000Y-50330000D02*
X119790000Y-50330000D01*
X115250000Y-48860000D02*
X115250000Y-51800000D01*
X115370000Y-48860000D02*
X115370000Y-51800000D01*
X115130000Y-48860000D02*
X115130000Y-51800000D01*
%TO.C,C12*%
X108610000Y-68450000D02*
X95370000Y-68450000D01*
X108610000Y-64210000D02*
X95370000Y-64210000D01*
X108610000Y-68450000D02*
X108610000Y-64210000D01*
X95370000Y-68450000D02*
X95370000Y-64210000D01*
%TO.C,R11*%
X93526000Y-67954936D02*
X93526000Y-72309064D01*
X90106000Y-67954936D02*
X90106000Y-72309064D01*
%TO.C,K1*%
X99944000Y-58110000D02*
X102484000Y-58110000D01*
X102484000Y-53665000D02*
X105024000Y-57475000D01*
X105024000Y-55570000D02*
X103754000Y-55570000D01*
X99944000Y-50490000D02*
X102484000Y-50490000D01*
X102484000Y-50490000D02*
X102484000Y-53665000D01*
X101724000Y-42360000D02*
X102734000Y-43380000D01*
X106294000Y-42870000D02*
X106294000Y-41600000D01*
X103504000Y-42870000D02*
X106294000Y-42870000D01*
X98674000Y-42870000D02*
X100964000Y-42870000D01*
X98674000Y-41600000D02*
X98674000Y-42870000D01*
X100964000Y-42870000D02*
X100964000Y-42360000D01*
X100964000Y-42360000D02*
X103504000Y-42360000D01*
X103504000Y-42360000D02*
X103504000Y-42870000D01*
X103504000Y-42870000D02*
X103504000Y-43380000D01*
X103504000Y-43380000D02*
X100964000Y-43380000D01*
X100964000Y-43380000D02*
X100964000Y-42870000D01*
X96984000Y-38650000D02*
X96984000Y-59790000D01*
X96984000Y-59790000D02*
X107984000Y-59790000D01*
X96984000Y-38650000D02*
X107984000Y-38650000D01*
X107984000Y-38650000D02*
X107984000Y-59790000D01*
X102611000Y-53665000D02*
G75*
G03*
X102611000Y-53665000I-127000J0D01*
G01*
%TO.C,J1*%
X53970000Y-50054000D02*
X55030000Y-50054000D01*
X55030000Y-50054000D02*
X55030000Y-51114000D01*
X55030000Y-52114000D02*
X55030000Y-56174000D01*
X52910000Y-56174000D02*
X55030000Y-56174000D01*
X52910000Y-52114000D02*
X52910000Y-56174000D01*
X52910000Y-52114000D02*
X55030000Y-52114000D01*
%TO.C,C11*%
X90204000Y-64640000D02*
X90204000Y-51400000D01*
X94444000Y-64640000D02*
X94444000Y-51400000D01*
X90204000Y-64640000D02*
X94444000Y-64640000D01*
X90204000Y-51400000D02*
X94444000Y-51400000D01*
%TO.C,C10*%
X83036000Y-79498000D02*
X83036000Y-90738000D01*
X64796000Y-79498000D02*
X64796000Y-90738000D01*
X64796000Y-90738000D02*
X83036000Y-90738000D01*
X64796000Y-79498000D02*
X83036000Y-79498000D01*
%TO.C,C9*%
X90958000Y-38910000D02*
X94198000Y-38910000D01*
X90958000Y-49150000D02*
X94198000Y-49150000D01*
X94198000Y-49150000D02*
X94198000Y-38910000D01*
X90958000Y-49150000D02*
X90958000Y-38910000D01*
%TO.C,C7*%
X50478000Y-83682000D02*
X50478000Y-79442000D01*
X63718000Y-83682000D02*
X63718000Y-79442000D01*
X63718000Y-79442000D02*
X50478000Y-79442000D01*
X63718000Y-83682000D02*
X50478000Y-83682000D01*
%TO.C,C5*%
X63812000Y-72838000D02*
X63812000Y-77078000D01*
X50572000Y-72838000D02*
X50572000Y-77078000D01*
X50572000Y-77078000D02*
X63812000Y-77078000D01*
X50572000Y-72838000D02*
X63812000Y-72838000D01*
%TO.C,R4*%
X60642000Y-55508936D02*
X60642000Y-59863064D01*
X64062000Y-55508936D02*
X64062000Y-59863064D01*
%TO.C,C3*%
X70310000Y-54180000D02*
X70310000Y-61620000D01*
X65570000Y-54180000D02*
X65570000Y-61620000D01*
X70310000Y-54180000D02*
X65570000Y-54180000D01*
X70310000Y-61620000D02*
X65570000Y-61620000D01*
%TO.C,C1*%
X60478000Y-69270000D02*
X60478000Y-64430000D01*
X63718000Y-69270000D02*
X63718000Y-64430000D01*
X60478000Y-69270000D02*
X63718000Y-69270000D01*
X60478000Y-64430000D02*
X63718000Y-64430000D01*
%TO.C,C4*%
X87610000Y-56950000D02*
X76370000Y-56950000D01*
X87610000Y-38710000D02*
X76370000Y-38710000D01*
X76370000Y-38710000D02*
X76370000Y-56950000D01*
X87610000Y-38710000D02*
X87610000Y-56950000D01*
%TO.C,R20*%
D11*
X137092380Y-86972857D02*
X136616190Y-87306190D01*
X137092380Y-87544285D02*
X136092380Y-87544285D01*
X136092380Y-87163333D01*
X136140000Y-87068095D01*
X136187619Y-87020476D01*
X136282857Y-86972857D01*
X136425714Y-86972857D01*
X136520952Y-87020476D01*
X136568571Y-87068095D01*
X136616190Y-87163333D01*
X136616190Y-87544285D01*
X136187619Y-86591904D02*
X136140000Y-86544285D01*
X136092380Y-86449047D01*
X136092380Y-86210952D01*
X136140000Y-86115714D01*
X136187619Y-86068095D01*
X136282857Y-86020476D01*
X136378095Y-86020476D01*
X136520952Y-86068095D01*
X137092380Y-86639523D01*
X137092380Y-86020476D01*
X136092380Y-85401428D02*
X136092380Y-85306190D01*
X136140000Y-85210952D01*
X136187619Y-85163333D01*
X136282857Y-85115714D01*
X136473333Y-85068095D01*
X136711428Y-85068095D01*
X136901904Y-85115714D01*
X136997142Y-85163333D01*
X137044761Y-85210952D01*
X137092380Y-85306190D01*
X137092380Y-85401428D01*
X137044761Y-85496666D01*
X136997142Y-85544285D01*
X136901904Y-85591904D01*
X136711428Y-85639523D01*
X136473333Y-85639523D01*
X136282857Y-85591904D01*
X136187619Y-85544285D01*
X136140000Y-85496666D01*
X136092380Y-85401428D01*
%TO.C,R18*%
X121907142Y-79474380D02*
X121573809Y-78998190D01*
X121335714Y-79474380D02*
X121335714Y-78474380D01*
X121716666Y-78474380D01*
X121811904Y-78522000D01*
X121859523Y-78569619D01*
X121907142Y-78664857D01*
X121907142Y-78807714D01*
X121859523Y-78902952D01*
X121811904Y-78950571D01*
X121716666Y-78998190D01*
X121335714Y-78998190D01*
X122859523Y-79474380D02*
X122288095Y-79474380D01*
X122573809Y-79474380D02*
X122573809Y-78474380D01*
X122478571Y-78617238D01*
X122383333Y-78712476D01*
X122288095Y-78760095D01*
X123430952Y-78902952D02*
X123335714Y-78855333D01*
X123288095Y-78807714D01*
X123240476Y-78712476D01*
X123240476Y-78664857D01*
X123288095Y-78569619D01*
X123335714Y-78522000D01*
X123430952Y-78474380D01*
X123621428Y-78474380D01*
X123716666Y-78522000D01*
X123764285Y-78569619D01*
X123811904Y-78664857D01*
X123811904Y-78712476D01*
X123764285Y-78807714D01*
X123716666Y-78855333D01*
X123621428Y-78902952D01*
X123430952Y-78902952D01*
X123335714Y-78950571D01*
X123288095Y-78998190D01*
X123240476Y-79093428D01*
X123240476Y-79283904D01*
X123288095Y-79379142D01*
X123335714Y-79426761D01*
X123430952Y-79474380D01*
X123621428Y-79474380D01*
X123716666Y-79426761D01*
X123764285Y-79379142D01*
X123811904Y-79283904D01*
X123811904Y-79093428D01*
X123764285Y-78998190D01*
X123716666Y-78950571D01*
X123621428Y-78902952D01*
%TO.C,R14*%
X121906642Y-82522380D02*
X121573309Y-82046190D01*
X121335214Y-82522380D02*
X121335214Y-81522380D01*
X121716166Y-81522380D01*
X121811404Y-81570000D01*
X121859023Y-81617619D01*
X121906642Y-81712857D01*
X121906642Y-81855714D01*
X121859023Y-81950952D01*
X121811404Y-81998571D01*
X121716166Y-82046190D01*
X121335214Y-82046190D01*
X122859023Y-82522380D02*
X122287595Y-82522380D01*
X122573309Y-82522380D02*
X122573309Y-81522380D01*
X122478071Y-81665238D01*
X122382833Y-81760476D01*
X122287595Y-81808095D01*
X123716166Y-81855714D02*
X123716166Y-82522380D01*
X123478071Y-81474761D02*
X123239976Y-82189047D01*
X123859023Y-82189047D01*
%TO.C,R13*%
X121907642Y-86078380D02*
X121574309Y-85602190D01*
X121336214Y-86078380D02*
X121336214Y-85078380D01*
X121717166Y-85078380D01*
X121812404Y-85126000D01*
X121860023Y-85173619D01*
X121907642Y-85268857D01*
X121907642Y-85411714D01*
X121860023Y-85506952D01*
X121812404Y-85554571D01*
X121717166Y-85602190D01*
X121336214Y-85602190D01*
X122860023Y-86078380D02*
X122288595Y-86078380D01*
X122574309Y-86078380D02*
X122574309Y-85078380D01*
X122479071Y-85221238D01*
X122383833Y-85316476D01*
X122288595Y-85364095D01*
X123193357Y-85078380D02*
X123812404Y-85078380D01*
X123479071Y-85459333D01*
X123621928Y-85459333D01*
X123717166Y-85506952D01*
X123764785Y-85554571D01*
X123812404Y-85649809D01*
X123812404Y-85887904D01*
X123764785Y-85983142D01*
X123717166Y-86030761D01*
X123621928Y-86078380D01*
X123336214Y-86078380D01*
X123240976Y-86030761D01*
X123193357Y-85983142D01*
%TO.C,R12*%
X121907642Y-89126380D02*
X121574309Y-88650190D01*
X121336214Y-89126380D02*
X121336214Y-88126380D01*
X121717166Y-88126380D01*
X121812404Y-88174000D01*
X121860023Y-88221619D01*
X121907642Y-88316857D01*
X121907642Y-88459714D01*
X121860023Y-88554952D01*
X121812404Y-88602571D01*
X121717166Y-88650190D01*
X121336214Y-88650190D01*
X122860023Y-89126380D02*
X122288595Y-89126380D01*
X122574309Y-89126380D02*
X122574309Y-88126380D01*
X122479071Y-88269238D01*
X122383833Y-88364476D01*
X122288595Y-88412095D01*
X123240976Y-88221619D02*
X123288595Y-88174000D01*
X123383833Y-88126380D01*
X123621928Y-88126380D01*
X123717166Y-88174000D01*
X123764785Y-88221619D01*
X123812404Y-88316857D01*
X123812404Y-88412095D01*
X123764785Y-88554952D01*
X123193357Y-89126380D01*
X123812404Y-89126380D01*
%TO.C,R10*%
X87974642Y-78330380D02*
X87641309Y-77854190D01*
X87403214Y-78330380D02*
X87403214Y-77330380D01*
X87784166Y-77330380D01*
X87879404Y-77378000D01*
X87927023Y-77425619D01*
X87974642Y-77520857D01*
X87974642Y-77663714D01*
X87927023Y-77758952D01*
X87879404Y-77806571D01*
X87784166Y-77854190D01*
X87403214Y-77854190D01*
X88927023Y-78330380D02*
X88355595Y-78330380D01*
X88641309Y-78330380D02*
X88641309Y-77330380D01*
X88546071Y-77473238D01*
X88450833Y-77568476D01*
X88355595Y-77616095D01*
X89546071Y-77330380D02*
X89641309Y-77330380D01*
X89736547Y-77378000D01*
X89784166Y-77425619D01*
X89831785Y-77520857D01*
X89879404Y-77711333D01*
X89879404Y-77949428D01*
X89831785Y-78139904D01*
X89784166Y-78235142D01*
X89736547Y-78282761D01*
X89641309Y-78330380D01*
X89546071Y-78330380D01*
X89450833Y-78282761D01*
X89403214Y-78235142D01*
X89355595Y-78139904D01*
X89307976Y-77949428D01*
X89307976Y-77711333D01*
X89355595Y-77520857D01*
X89403214Y-77425619D01*
X89450833Y-77378000D01*
X89546071Y-77330380D01*
%TO.C,R15*%
X131305142Y-58138380D02*
X130971809Y-57662190D01*
X130733714Y-58138380D02*
X130733714Y-57138380D01*
X131114666Y-57138380D01*
X131209904Y-57186000D01*
X131257523Y-57233619D01*
X131305142Y-57328857D01*
X131305142Y-57471714D01*
X131257523Y-57566952D01*
X131209904Y-57614571D01*
X131114666Y-57662190D01*
X130733714Y-57662190D01*
X132257523Y-58138380D02*
X131686095Y-58138380D01*
X131971809Y-58138380D02*
X131971809Y-57138380D01*
X131876571Y-57281238D01*
X131781333Y-57376476D01*
X131686095Y-57424095D01*
X133162285Y-57138380D02*
X132686095Y-57138380D01*
X132638476Y-57614571D01*
X132686095Y-57566952D01*
X132781333Y-57519333D01*
X133019428Y-57519333D01*
X133114666Y-57566952D01*
X133162285Y-57614571D01*
X133209904Y-57709809D01*
X133209904Y-57947904D01*
X133162285Y-58043142D01*
X133114666Y-58090761D01*
X133019428Y-58138380D01*
X132781333Y-58138380D01*
X132686095Y-58090761D01*
X132638476Y-58043142D01*
%TO.C,J21*%
X159586476Y-39866380D02*
X159586476Y-40580666D01*
X159538857Y-40723523D01*
X159443619Y-40818761D01*
X159300761Y-40866380D01*
X159205523Y-40866380D01*
X160015047Y-39961619D02*
X160062666Y-39914000D01*
X160157904Y-39866380D01*
X160396000Y-39866380D01*
X160491238Y-39914000D01*
X160538857Y-39961619D01*
X160586476Y-40056857D01*
X160586476Y-40152095D01*
X160538857Y-40294952D01*
X159967428Y-40866380D01*
X160586476Y-40866380D01*
X161538857Y-40866380D02*
X160967428Y-40866380D01*
X161253142Y-40866380D02*
X161253142Y-39866380D01*
X161157904Y-40009238D01*
X161062666Y-40104476D01*
X160967428Y-40152095D01*
%TO.C,J20*%
X205060380Y-80555523D02*
X205774666Y-80555523D01*
X205917523Y-80603142D01*
X206012761Y-80698380D01*
X206060380Y-80841238D01*
X206060380Y-80936476D01*
X205155619Y-80126952D02*
X205108000Y-80079333D01*
X205060380Y-79984095D01*
X205060380Y-79746000D01*
X205108000Y-79650761D01*
X205155619Y-79603142D01*
X205250857Y-79555523D01*
X205346095Y-79555523D01*
X205488952Y-79603142D01*
X206060380Y-80174571D01*
X206060380Y-79555523D01*
X205060380Y-78936476D02*
X205060380Y-78841238D01*
X205108000Y-78746000D01*
X205155619Y-78698380D01*
X205250857Y-78650761D01*
X205441333Y-78603142D01*
X205679428Y-78603142D01*
X205869904Y-78650761D01*
X205965142Y-78698380D01*
X206012761Y-78746000D01*
X206060380Y-78841238D01*
X206060380Y-78936476D01*
X206012761Y-79031714D01*
X205965142Y-79079333D01*
X205869904Y-79126952D01*
X205679428Y-79174571D01*
X205441333Y-79174571D01*
X205250857Y-79126952D01*
X205155619Y-79079333D01*
X205108000Y-79031714D01*
X205060380Y-78936476D01*
%TO.C,J10*%
X59510476Y-49010380D02*
X59510476Y-49724666D01*
X59462857Y-49867523D01*
X59367619Y-49962761D01*
X59224761Y-50010380D01*
X59129523Y-50010380D01*
X60510476Y-50010380D02*
X59939047Y-50010380D01*
X60224761Y-50010380D02*
X60224761Y-49010380D01*
X60129523Y-49153238D01*
X60034285Y-49248476D01*
X59939047Y-49296095D01*
X61129523Y-49010380D02*
X61224761Y-49010380D01*
X61320000Y-49058000D01*
X61367619Y-49105619D01*
X61415238Y-49200857D01*
X61462857Y-49391333D01*
X61462857Y-49629428D01*
X61415238Y-49819904D01*
X61367619Y-49915142D01*
X61320000Y-49962761D01*
X61224761Y-50010380D01*
X61129523Y-50010380D01*
X61034285Y-49962761D01*
X60986666Y-49915142D01*
X60939047Y-49819904D01*
X60891428Y-49629428D01*
X60891428Y-49391333D01*
X60939047Y-49200857D01*
X60986666Y-49105619D01*
X61034285Y-49058000D01*
X61129523Y-49010380D01*
%TO.C,C30*%
X190097142Y-66972857D02*
X190144761Y-67020476D01*
X190192380Y-67163333D01*
X190192380Y-67258571D01*
X190144761Y-67401428D01*
X190049523Y-67496666D01*
X189954285Y-67544285D01*
X189763809Y-67591904D01*
X189620952Y-67591904D01*
X189430476Y-67544285D01*
X189335238Y-67496666D01*
X189240000Y-67401428D01*
X189192380Y-67258571D01*
X189192380Y-67163333D01*
X189240000Y-67020476D01*
X189287619Y-66972857D01*
X189192380Y-66639523D02*
X189192380Y-66020476D01*
X189573333Y-66353809D01*
X189573333Y-66210952D01*
X189620952Y-66115714D01*
X189668571Y-66068095D01*
X189763809Y-66020476D01*
X190001904Y-66020476D01*
X190097142Y-66068095D01*
X190144761Y-66115714D01*
X190192380Y-66210952D01*
X190192380Y-66496666D01*
X190144761Y-66591904D01*
X190097142Y-66639523D01*
X189192380Y-65401428D02*
X189192380Y-65306190D01*
X189240000Y-65210952D01*
X189287619Y-65163333D01*
X189382857Y-65115714D01*
X189573333Y-65068095D01*
X189811428Y-65068095D01*
X190001904Y-65115714D01*
X190097142Y-65163333D01*
X190144761Y-65210952D01*
X190192380Y-65306190D01*
X190192380Y-65401428D01*
X190144761Y-65496666D01*
X190097142Y-65544285D01*
X190001904Y-65591904D01*
X189811428Y-65639523D01*
X189573333Y-65639523D01*
X189382857Y-65591904D01*
X189287619Y-65544285D01*
X189240000Y-65496666D01*
X189192380Y-65401428D01*
%TO.C,C28*%
X196347142Y-91937142D02*
X196299523Y-91984761D01*
X196156666Y-92032380D01*
X196061428Y-92032380D01*
X195918571Y-91984761D01*
X195823333Y-91889523D01*
X195775714Y-91794285D01*
X195728095Y-91603809D01*
X195728095Y-91460952D01*
X195775714Y-91270476D01*
X195823333Y-91175238D01*
X195918571Y-91080000D01*
X196061428Y-91032380D01*
X196156666Y-91032380D01*
X196299523Y-91080000D01*
X196347142Y-91127619D01*
X196728095Y-91127619D02*
X196775714Y-91080000D01*
X196870952Y-91032380D01*
X197109047Y-91032380D01*
X197204285Y-91080000D01*
X197251904Y-91127619D01*
X197299523Y-91222857D01*
X197299523Y-91318095D01*
X197251904Y-91460952D01*
X196680476Y-92032380D01*
X197299523Y-92032380D01*
X197870952Y-91460952D02*
X197775714Y-91413333D01*
X197728095Y-91365714D01*
X197680476Y-91270476D01*
X197680476Y-91222857D01*
X197728095Y-91127619D01*
X197775714Y-91080000D01*
X197870952Y-91032380D01*
X198061428Y-91032380D01*
X198156666Y-91080000D01*
X198204285Y-91127619D01*
X198251904Y-91222857D01*
X198251904Y-91270476D01*
X198204285Y-91365714D01*
X198156666Y-91413333D01*
X198061428Y-91460952D01*
X197870952Y-91460952D01*
X197775714Y-91508571D01*
X197728095Y-91556190D01*
X197680476Y-91651428D01*
X197680476Y-91841904D01*
X197728095Y-91937142D01*
X197775714Y-91984761D01*
X197870952Y-92032380D01*
X198061428Y-92032380D01*
X198156666Y-91984761D01*
X198204285Y-91937142D01*
X198251904Y-91841904D01*
X198251904Y-91651428D01*
X198204285Y-91556190D01*
X198156666Y-91508571D01*
X198061428Y-91460952D01*
%TO.C,C27*%
X174485142Y-49915142D02*
X174437523Y-49962761D01*
X174294666Y-50010380D01*
X174199428Y-50010380D01*
X174056571Y-49962761D01*
X173961333Y-49867523D01*
X173913714Y-49772285D01*
X173866095Y-49581809D01*
X173866095Y-49438952D01*
X173913714Y-49248476D01*
X173961333Y-49153238D01*
X174056571Y-49058000D01*
X174199428Y-49010380D01*
X174294666Y-49010380D01*
X174437523Y-49058000D01*
X174485142Y-49105619D01*
X174866095Y-49105619D02*
X174913714Y-49058000D01*
X175008952Y-49010380D01*
X175247047Y-49010380D01*
X175342285Y-49058000D01*
X175389904Y-49105619D01*
X175437523Y-49200857D01*
X175437523Y-49296095D01*
X175389904Y-49438952D01*
X174818476Y-50010380D01*
X175437523Y-50010380D01*
X175770857Y-49010380D02*
X176437523Y-49010380D01*
X176008952Y-50010380D01*
%TO.C,C24*%
X203847142Y-41972857D02*
X203894761Y-42020476D01*
X203942380Y-42163333D01*
X203942380Y-42258571D01*
X203894761Y-42401428D01*
X203799523Y-42496666D01*
X203704285Y-42544285D01*
X203513809Y-42591904D01*
X203370952Y-42591904D01*
X203180476Y-42544285D01*
X203085238Y-42496666D01*
X202990000Y-42401428D01*
X202942380Y-42258571D01*
X202942380Y-42163333D01*
X202990000Y-42020476D01*
X203037619Y-41972857D01*
X203037619Y-41591904D02*
X202990000Y-41544285D01*
X202942380Y-41449047D01*
X202942380Y-41210952D01*
X202990000Y-41115714D01*
X203037619Y-41068095D01*
X203132857Y-41020476D01*
X203228095Y-41020476D01*
X203370952Y-41068095D01*
X203942380Y-41639523D01*
X203942380Y-41020476D01*
X203275714Y-40163333D02*
X203942380Y-40163333D01*
X202894761Y-40401428D02*
X203609047Y-40639523D01*
X203609047Y-40020476D01*
%TO.C,C23*%
X195567142Y-47375142D02*
X195519523Y-47422761D01*
X195376666Y-47470380D01*
X195281428Y-47470380D01*
X195138571Y-47422761D01*
X195043333Y-47327523D01*
X194995714Y-47232285D01*
X194948095Y-47041809D01*
X194948095Y-46898952D01*
X194995714Y-46708476D01*
X195043333Y-46613238D01*
X195138571Y-46518000D01*
X195281428Y-46470380D01*
X195376666Y-46470380D01*
X195519523Y-46518000D01*
X195567142Y-46565619D01*
X195948095Y-46565619D02*
X195995714Y-46518000D01*
X196090952Y-46470380D01*
X196329047Y-46470380D01*
X196424285Y-46518000D01*
X196471904Y-46565619D01*
X196519523Y-46660857D01*
X196519523Y-46756095D01*
X196471904Y-46898952D01*
X195900476Y-47470380D01*
X196519523Y-47470380D01*
X196852857Y-46470380D02*
X197471904Y-46470380D01*
X197138571Y-46851333D01*
X197281428Y-46851333D01*
X197376666Y-46898952D01*
X197424285Y-46946571D01*
X197471904Y-47041809D01*
X197471904Y-47279904D01*
X197424285Y-47375142D01*
X197376666Y-47422761D01*
X197281428Y-47470380D01*
X196995714Y-47470380D01*
X196900476Y-47422761D01*
X196852857Y-47375142D01*
%TO.C,J19*%
X209624476Y-40120380D02*
X209624476Y-40834666D01*
X209576857Y-40977523D01*
X209481619Y-41072761D01*
X209338761Y-41120380D01*
X209243523Y-41120380D01*
X210624476Y-41120380D02*
X210053047Y-41120380D01*
X210338761Y-41120380D02*
X210338761Y-40120380D01*
X210243523Y-40263238D01*
X210148285Y-40358476D01*
X210053047Y-40406095D01*
X211100666Y-41120380D02*
X211291142Y-41120380D01*
X211386380Y-41072761D01*
X211434000Y-41025142D01*
X211529238Y-40882285D01*
X211576857Y-40691809D01*
X211576857Y-40310857D01*
X211529238Y-40215619D01*
X211481619Y-40168000D01*
X211386380Y-40120380D01*
X211195904Y-40120380D01*
X211100666Y-40168000D01*
X211053047Y-40215619D01*
X211005428Y-40310857D01*
X211005428Y-40548952D01*
X211053047Y-40644190D01*
X211100666Y-40691809D01*
X211195904Y-40739428D01*
X211386380Y-40739428D01*
X211481619Y-40691809D01*
X211529238Y-40644190D01*
X211576857Y-40548952D01*
%TO.C,J18*%
X209190476Y-89452380D02*
X209190476Y-90166666D01*
X209142857Y-90309523D01*
X209047619Y-90404761D01*
X208904761Y-90452380D01*
X208809523Y-90452380D01*
X210190476Y-90452380D02*
X209619047Y-90452380D01*
X209904761Y-90452380D02*
X209904761Y-89452380D01*
X209809523Y-89595238D01*
X209714285Y-89690476D01*
X209619047Y-89738095D01*
X210761904Y-89880952D02*
X210666666Y-89833333D01*
X210619047Y-89785714D01*
X210571428Y-89690476D01*
X210571428Y-89642857D01*
X210619047Y-89547619D01*
X210666666Y-89500000D01*
X210761904Y-89452380D01*
X210952380Y-89452380D01*
X211047619Y-89500000D01*
X211095238Y-89547619D01*
X211142857Y-89642857D01*
X211142857Y-89690476D01*
X211095238Y-89785714D01*
X211047619Y-89833333D01*
X210952380Y-89880952D01*
X210761904Y-89880952D01*
X210666666Y-89928571D01*
X210619047Y-89976190D01*
X210571428Y-90071428D01*
X210571428Y-90261904D01*
X210619047Y-90357142D01*
X210666666Y-90404761D01*
X210761904Y-90452380D01*
X210952380Y-90452380D01*
X211047619Y-90404761D01*
X211095238Y-90357142D01*
X211142857Y-90261904D01*
X211142857Y-90071428D01*
X211095238Y-89976190D01*
X211047619Y-89928571D01*
X210952380Y-89880952D01*
%TO.C,J17*%
X59190476Y-88452380D02*
X59190476Y-89166666D01*
X59142857Y-89309523D01*
X59047619Y-89404761D01*
X58904761Y-89452380D01*
X58809523Y-89452380D01*
X60190476Y-89452380D02*
X59619047Y-89452380D01*
X59904761Y-89452380D02*
X59904761Y-88452380D01*
X59809523Y-88595238D01*
X59714285Y-88690476D01*
X59619047Y-88738095D01*
X60523809Y-88452380D02*
X61190476Y-88452380D01*
X60761904Y-89452380D01*
%TO.C,J16*%
X52652476Y-43168380D02*
X52652476Y-43882666D01*
X52604857Y-44025523D01*
X52509619Y-44120761D01*
X52366761Y-44168380D01*
X52271523Y-44168380D01*
X53652476Y-44168380D02*
X53081047Y-44168380D01*
X53366761Y-44168380D02*
X53366761Y-43168380D01*
X53271523Y-43311238D01*
X53176285Y-43406476D01*
X53081047Y-43454095D01*
X54509619Y-43168380D02*
X54319142Y-43168380D01*
X54223904Y-43216000D01*
X54176285Y-43263619D01*
X54081047Y-43406476D01*
X54033428Y-43596952D01*
X54033428Y-43977904D01*
X54081047Y-44073142D01*
X54128666Y-44120761D01*
X54223904Y-44168380D01*
X54414380Y-44168380D01*
X54509619Y-44120761D01*
X54557238Y-44073142D01*
X54604857Y-43977904D01*
X54604857Y-43739809D01*
X54557238Y-43644571D01*
X54509619Y-43596952D01*
X54414380Y-43549333D01*
X54223904Y-43549333D01*
X54128666Y-43596952D01*
X54081047Y-43644571D01*
X54033428Y-43739809D01*
%TO.C,U3*%
X197988095Y-44438380D02*
X197988095Y-45247904D01*
X198035714Y-45343142D01*
X198083333Y-45390761D01*
X198178571Y-45438380D01*
X198369047Y-45438380D01*
X198464285Y-45390761D01*
X198511904Y-45343142D01*
X198559523Y-45247904D01*
X198559523Y-44438380D01*
X198940476Y-44438380D02*
X199559523Y-44438380D01*
X199226190Y-44819333D01*
X199369047Y-44819333D01*
X199464285Y-44866952D01*
X199511904Y-44914571D01*
X199559523Y-45009809D01*
X199559523Y-45247904D01*
X199511904Y-45343142D01*
X199464285Y-45390761D01*
X199369047Y-45438380D01*
X199083333Y-45438380D01*
X198988095Y-45390761D01*
X198940476Y-45343142D01*
%TO.C,J15*%
X184224476Y-45454380D02*
X184224476Y-46168666D01*
X184176857Y-46311523D01*
X184081619Y-46406761D01*
X183938761Y-46454380D01*
X183843523Y-46454380D01*
X185224476Y-46454380D02*
X184653047Y-46454380D01*
X184938761Y-46454380D02*
X184938761Y-45454380D01*
X184843523Y-45597238D01*
X184748285Y-45692476D01*
X184653047Y-45740095D01*
X186129238Y-45454380D02*
X185653047Y-45454380D01*
X185605428Y-45930571D01*
X185653047Y-45882952D01*
X185748285Y-45835333D01*
X185986380Y-45835333D01*
X186081619Y-45882952D01*
X186129238Y-45930571D01*
X186176857Y-46025809D01*
X186176857Y-46263904D01*
X186129238Y-46359142D01*
X186081619Y-46406761D01*
X185986380Y-46454380D01*
X185748285Y-46454380D01*
X185653047Y-46406761D01*
X185605428Y-46359142D01*
%TO.C,J14*%
X184224476Y-39358380D02*
X184224476Y-40072666D01*
X184176857Y-40215523D01*
X184081619Y-40310761D01*
X183938761Y-40358380D01*
X183843523Y-40358380D01*
X185224476Y-40358380D02*
X184653047Y-40358380D01*
X184938761Y-40358380D02*
X184938761Y-39358380D01*
X184843523Y-39501238D01*
X184748285Y-39596476D01*
X184653047Y-39644095D01*
X186081619Y-39691714D02*
X186081619Y-40358380D01*
X185843523Y-39310761D02*
X185605428Y-40025047D01*
X186224476Y-40025047D01*
%TO.C,J13*%
X205060380Y-73603523D02*
X205774666Y-73603523D01*
X205917523Y-73651142D01*
X206012761Y-73746380D01*
X206060380Y-73889238D01*
X206060380Y-73984476D01*
X206060380Y-72603523D02*
X206060380Y-73174952D01*
X206060380Y-72889238D02*
X205060380Y-72889238D01*
X205203238Y-72984476D01*
X205298476Y-73079714D01*
X205346095Y-73174952D01*
X205060380Y-72270190D02*
X205060380Y-71651142D01*
X205441333Y-71984476D01*
X205441333Y-71841619D01*
X205488952Y-71746380D01*
X205536571Y-71698761D01*
X205631809Y-71651142D01*
X205869904Y-71651142D01*
X205965142Y-71698761D01*
X206012761Y-71746380D01*
X206060380Y-71841619D01*
X206060380Y-72127333D01*
X206012761Y-72222571D01*
X205965142Y-72270190D01*
%TO.C,J12*%
X205060380Y-53095523D02*
X205774666Y-53095523D01*
X205917523Y-53143142D01*
X206012761Y-53238380D01*
X206060380Y-53381238D01*
X206060380Y-53476476D01*
X206060380Y-52095523D02*
X206060380Y-52666952D01*
X206060380Y-52381238D02*
X205060380Y-52381238D01*
X205203238Y-52476476D01*
X205298476Y-52571714D01*
X205346095Y-52666952D01*
X205155619Y-51714571D02*
X205108000Y-51666952D01*
X205060380Y-51571714D01*
X205060380Y-51333619D01*
X205108000Y-51238380D01*
X205155619Y-51190761D01*
X205250857Y-51143142D01*
X205346095Y-51143142D01*
X205488952Y-51190761D01*
X206060380Y-51762190D01*
X206060380Y-51143142D01*
%TO.C,J11*%
X205060380Y-62841523D02*
X205774666Y-62841523D01*
X205917523Y-62889142D01*
X206012761Y-62984380D01*
X206060380Y-63127238D01*
X206060380Y-63222476D01*
X206060380Y-61841523D02*
X206060380Y-62412952D01*
X206060380Y-62127238D02*
X205060380Y-62127238D01*
X205203238Y-62222476D01*
X205298476Y-62317714D01*
X205346095Y-62412952D01*
X206060380Y-60889142D02*
X206060380Y-61460571D01*
X206060380Y-61174857D02*
X205060380Y-61174857D01*
X205203238Y-61270095D01*
X205298476Y-61365333D01*
X205346095Y-61460571D01*
%TO.C,R24*%
X136766380Y-44612857D02*
X136290190Y-44946190D01*
X136766380Y-45184285D02*
X135766380Y-45184285D01*
X135766380Y-44803333D01*
X135814000Y-44708095D01*
X135861619Y-44660476D01*
X135956857Y-44612857D01*
X136099714Y-44612857D01*
X136194952Y-44660476D01*
X136242571Y-44708095D01*
X136290190Y-44803333D01*
X136290190Y-45184285D01*
X135861619Y-44231904D02*
X135814000Y-44184285D01*
X135766380Y-44089047D01*
X135766380Y-43850952D01*
X135814000Y-43755714D01*
X135861619Y-43708095D01*
X135956857Y-43660476D01*
X136052095Y-43660476D01*
X136194952Y-43708095D01*
X136766380Y-44279523D01*
X136766380Y-43660476D01*
X136099714Y-42803333D02*
X136766380Y-42803333D01*
X135718761Y-43041428D02*
X136433047Y-43279523D01*
X136433047Y-42660476D01*
%TO.C,R23*%
X137098380Y-79664857D02*
X136622190Y-79998190D01*
X137098380Y-80236285D02*
X136098380Y-80236285D01*
X136098380Y-79855333D01*
X136146000Y-79760095D01*
X136193619Y-79712476D01*
X136288857Y-79664857D01*
X136431714Y-79664857D01*
X136526952Y-79712476D01*
X136574571Y-79760095D01*
X136622190Y-79855333D01*
X136622190Y-80236285D01*
X136193619Y-79283904D02*
X136146000Y-79236285D01*
X136098380Y-79141047D01*
X136098380Y-78902952D01*
X136146000Y-78807714D01*
X136193619Y-78760095D01*
X136288857Y-78712476D01*
X136384095Y-78712476D01*
X136526952Y-78760095D01*
X137098380Y-79331523D01*
X137098380Y-78712476D01*
X136098380Y-78379142D02*
X136098380Y-77760095D01*
X136479333Y-78093428D01*
X136479333Y-77950571D01*
X136526952Y-77855333D01*
X136574571Y-77807714D01*
X136669809Y-77760095D01*
X136907904Y-77760095D01*
X137003142Y-77807714D01*
X137050761Y-77855333D01*
X137098380Y-77950571D01*
X137098380Y-78236285D01*
X137050761Y-78331523D01*
X137003142Y-78379142D01*
%TO.C,J9*%
X172254666Y-41644380D02*
X172254666Y-42358666D01*
X172207047Y-42501523D01*
X172111809Y-42596761D01*
X171968952Y-42644380D01*
X171873714Y-42644380D01*
X172778476Y-42644380D02*
X172968952Y-42644380D01*
X173064190Y-42596761D01*
X173111809Y-42549142D01*
X173207047Y-42406285D01*
X173254666Y-42215809D01*
X173254666Y-41834857D01*
X173207047Y-41739619D01*
X173159428Y-41692000D01*
X173064190Y-41644380D01*
X172873714Y-41644380D01*
X172778476Y-41692000D01*
X172730857Y-41739619D01*
X172683238Y-41834857D01*
X172683238Y-42072952D01*
X172730857Y-42168190D01*
X172778476Y-42215809D01*
X172873714Y-42263428D01*
X173064190Y-42263428D01*
X173159428Y-42215809D01*
X173207047Y-42168190D01*
X173254666Y-42072952D01*
%TO.C,J8*%
X177334666Y-63234380D02*
X177334666Y-63948666D01*
X177287047Y-64091523D01*
X177191809Y-64186761D01*
X177048952Y-64234380D01*
X176953714Y-64234380D01*
X177953714Y-63662952D02*
X177858476Y-63615333D01*
X177810857Y-63567714D01*
X177763238Y-63472476D01*
X177763238Y-63424857D01*
X177810857Y-63329619D01*
X177858476Y-63282000D01*
X177953714Y-63234380D01*
X178144190Y-63234380D01*
X178239428Y-63282000D01*
X178287047Y-63329619D01*
X178334666Y-63424857D01*
X178334666Y-63472476D01*
X178287047Y-63567714D01*
X178239428Y-63615333D01*
X178144190Y-63662952D01*
X177953714Y-63662952D01*
X177858476Y-63710571D01*
X177810857Y-63758190D01*
X177763238Y-63853428D01*
X177763238Y-64043904D01*
X177810857Y-64139142D01*
X177858476Y-64186761D01*
X177953714Y-64234380D01*
X178144190Y-64234380D01*
X178239428Y-64186761D01*
X178287047Y-64139142D01*
X178334666Y-64043904D01*
X178334666Y-63853428D01*
X178287047Y-63758190D01*
X178239428Y-63710571D01*
X178144190Y-63662952D01*
%TO.C,J7*%
X170730666Y-47740380D02*
X170730666Y-48454666D01*
X170683047Y-48597523D01*
X170587809Y-48692761D01*
X170444952Y-48740380D01*
X170349714Y-48740380D01*
X171111619Y-47740380D02*
X171778285Y-47740380D01*
X171349714Y-48740380D01*
%TO.C,J6*%
X175048666Y-55614380D02*
X175048666Y-56328666D01*
X175001047Y-56471523D01*
X174905809Y-56566761D01*
X174762952Y-56614380D01*
X174667714Y-56614380D01*
X175953428Y-55614380D02*
X175762952Y-55614380D01*
X175667714Y-55662000D01*
X175620095Y-55709619D01*
X175524857Y-55852476D01*
X175477238Y-56042952D01*
X175477238Y-56423904D01*
X175524857Y-56519142D01*
X175572476Y-56566761D01*
X175667714Y-56614380D01*
X175858190Y-56614380D01*
X175953428Y-56566761D01*
X176001047Y-56519142D01*
X176048666Y-56423904D01*
X176048666Y-56185809D01*
X176001047Y-56090571D01*
X175953428Y-56042952D01*
X175858190Y-55995333D01*
X175667714Y-55995333D01*
X175572476Y-56042952D01*
X175524857Y-56090571D01*
X175477238Y-56185809D01*
%TO.C,J5*%
X168952666Y-55614380D02*
X168952666Y-56328666D01*
X168905047Y-56471523D01*
X168809809Y-56566761D01*
X168666952Y-56614380D01*
X168571714Y-56614380D01*
X169905047Y-55614380D02*
X169428857Y-55614380D01*
X169381238Y-56090571D01*
X169428857Y-56042952D01*
X169524095Y-55995333D01*
X169762190Y-55995333D01*
X169857428Y-56042952D01*
X169905047Y-56090571D01*
X169952666Y-56185809D01*
X169952666Y-56423904D01*
X169905047Y-56519142D01*
X169857428Y-56566761D01*
X169762190Y-56614380D01*
X169524095Y-56614380D01*
X169428857Y-56566761D01*
X169381238Y-56519142D01*
%TO.C,C22*%
X193847142Y-78187142D02*
X193799523Y-78234761D01*
X193656666Y-78282380D01*
X193561428Y-78282380D01*
X193418571Y-78234761D01*
X193323333Y-78139523D01*
X193275714Y-78044285D01*
X193228095Y-77853809D01*
X193228095Y-77710952D01*
X193275714Y-77520476D01*
X193323333Y-77425238D01*
X193418571Y-77330000D01*
X193561428Y-77282380D01*
X193656666Y-77282380D01*
X193799523Y-77330000D01*
X193847142Y-77377619D01*
X194228095Y-77377619D02*
X194275714Y-77330000D01*
X194370952Y-77282380D01*
X194609047Y-77282380D01*
X194704285Y-77330000D01*
X194751904Y-77377619D01*
X194799523Y-77472857D01*
X194799523Y-77568095D01*
X194751904Y-77710952D01*
X194180476Y-78282380D01*
X194799523Y-78282380D01*
X195180476Y-77377619D02*
X195228095Y-77330000D01*
X195323333Y-77282380D01*
X195561428Y-77282380D01*
X195656666Y-77330000D01*
X195704285Y-77377619D01*
X195751904Y-77472857D01*
X195751904Y-77568095D01*
X195704285Y-77710952D01*
X195132857Y-78282380D01*
X195751904Y-78282380D01*
%TO.C,C21*%
X185847142Y-71937142D02*
X185799523Y-71984761D01*
X185656666Y-72032380D01*
X185561428Y-72032380D01*
X185418571Y-71984761D01*
X185323333Y-71889523D01*
X185275714Y-71794285D01*
X185228095Y-71603809D01*
X185228095Y-71460952D01*
X185275714Y-71270476D01*
X185323333Y-71175238D01*
X185418571Y-71080000D01*
X185561428Y-71032380D01*
X185656666Y-71032380D01*
X185799523Y-71080000D01*
X185847142Y-71127619D01*
X186228095Y-71127619D02*
X186275714Y-71080000D01*
X186370952Y-71032380D01*
X186609047Y-71032380D01*
X186704285Y-71080000D01*
X186751904Y-71127619D01*
X186799523Y-71222857D01*
X186799523Y-71318095D01*
X186751904Y-71460952D01*
X186180476Y-72032380D01*
X186799523Y-72032380D01*
X187751904Y-72032380D02*
X187180476Y-72032380D01*
X187466190Y-72032380D02*
X187466190Y-71032380D01*
X187370952Y-71175238D01*
X187275714Y-71270476D01*
X187180476Y-71318095D01*
%TO.C,C20*%
X165071142Y-50454857D02*
X165118761Y-50502476D01*
X165166380Y-50645333D01*
X165166380Y-50740571D01*
X165118761Y-50883428D01*
X165023523Y-50978666D01*
X164928285Y-51026285D01*
X164737809Y-51073904D01*
X164594952Y-51073904D01*
X164404476Y-51026285D01*
X164309238Y-50978666D01*
X164214000Y-50883428D01*
X164166380Y-50740571D01*
X164166380Y-50645333D01*
X164214000Y-50502476D01*
X164261619Y-50454857D01*
X164261619Y-50073904D02*
X164214000Y-50026285D01*
X164166380Y-49931047D01*
X164166380Y-49692952D01*
X164214000Y-49597714D01*
X164261619Y-49550095D01*
X164356857Y-49502476D01*
X164452095Y-49502476D01*
X164594952Y-49550095D01*
X165166380Y-50121523D01*
X165166380Y-49502476D01*
X164166380Y-48883428D02*
X164166380Y-48788190D01*
X164214000Y-48692952D01*
X164261619Y-48645333D01*
X164356857Y-48597714D01*
X164547333Y-48550095D01*
X164785428Y-48550095D01*
X164975904Y-48597714D01*
X165071142Y-48645333D01*
X165118761Y-48692952D01*
X165166380Y-48788190D01*
X165166380Y-48883428D01*
X165118761Y-48978666D01*
X165071142Y-49026285D01*
X164975904Y-49073904D01*
X164785428Y-49121523D01*
X164547333Y-49121523D01*
X164356857Y-49073904D01*
X164261619Y-49026285D01*
X164214000Y-48978666D01*
X164166380Y-48883428D01*
%TO.C,C19*%
X152879142Y-51724857D02*
X152926761Y-51772476D01*
X152974380Y-51915333D01*
X152974380Y-52010571D01*
X152926761Y-52153428D01*
X152831523Y-52248666D01*
X152736285Y-52296285D01*
X152545809Y-52343904D01*
X152402952Y-52343904D01*
X152212476Y-52296285D01*
X152117238Y-52248666D01*
X152022000Y-52153428D01*
X151974380Y-52010571D01*
X151974380Y-51915333D01*
X152022000Y-51772476D01*
X152069619Y-51724857D01*
X152974380Y-50772476D02*
X152974380Y-51343904D01*
X152974380Y-51058190D02*
X151974380Y-51058190D01*
X152117238Y-51153428D01*
X152212476Y-51248666D01*
X152260095Y-51343904D01*
X152974380Y-50296285D02*
X152974380Y-50105809D01*
X152926761Y-50010571D01*
X152879142Y-49962952D01*
X152736285Y-49867714D01*
X152545809Y-49820095D01*
X152164857Y-49820095D01*
X152069619Y-49867714D01*
X152022000Y-49915333D01*
X151974380Y-50010571D01*
X151974380Y-50201047D01*
X152022000Y-50296285D01*
X152069619Y-50343904D01*
X152164857Y-50391523D01*
X152402952Y-50391523D01*
X152498190Y-50343904D01*
X152545809Y-50296285D01*
X152593428Y-50201047D01*
X152593428Y-50010571D01*
X152545809Y-49915333D01*
X152498190Y-49867714D01*
X152402952Y-49820095D01*
%TO.C,C18*%
X184347142Y-67187142D02*
X184299523Y-67234761D01*
X184156666Y-67282380D01*
X184061428Y-67282380D01*
X183918571Y-67234761D01*
X183823333Y-67139523D01*
X183775714Y-67044285D01*
X183728095Y-66853809D01*
X183728095Y-66710952D01*
X183775714Y-66520476D01*
X183823333Y-66425238D01*
X183918571Y-66330000D01*
X184061428Y-66282380D01*
X184156666Y-66282380D01*
X184299523Y-66330000D01*
X184347142Y-66377619D01*
X185299523Y-67282380D02*
X184728095Y-67282380D01*
X185013809Y-67282380D02*
X185013809Y-66282380D01*
X184918571Y-66425238D01*
X184823333Y-66520476D01*
X184728095Y-66568095D01*
X185870952Y-66710952D02*
X185775714Y-66663333D01*
X185728095Y-66615714D01*
X185680476Y-66520476D01*
X185680476Y-66472857D01*
X185728095Y-66377619D01*
X185775714Y-66330000D01*
X185870952Y-66282380D01*
X186061428Y-66282380D01*
X186156666Y-66330000D01*
X186204285Y-66377619D01*
X186251904Y-66472857D01*
X186251904Y-66520476D01*
X186204285Y-66615714D01*
X186156666Y-66663333D01*
X186061428Y-66710952D01*
X185870952Y-66710952D01*
X185775714Y-66758571D01*
X185728095Y-66806190D01*
X185680476Y-66901428D01*
X185680476Y-67091904D01*
X185728095Y-67187142D01*
X185775714Y-67234761D01*
X185870952Y-67282380D01*
X186061428Y-67282380D01*
X186156666Y-67234761D01*
X186204285Y-67187142D01*
X186251904Y-67091904D01*
X186251904Y-66901428D01*
X186204285Y-66806190D01*
X186156666Y-66758571D01*
X186061428Y-66710952D01*
%TO.C,C17*%
X160847142Y-59187142D02*
X160799523Y-59234761D01*
X160656666Y-59282380D01*
X160561428Y-59282380D01*
X160418571Y-59234761D01*
X160323333Y-59139523D01*
X160275714Y-59044285D01*
X160228095Y-58853809D01*
X160228095Y-58710952D01*
X160275714Y-58520476D01*
X160323333Y-58425238D01*
X160418571Y-58330000D01*
X160561428Y-58282380D01*
X160656666Y-58282380D01*
X160799523Y-58330000D01*
X160847142Y-58377619D01*
X161799523Y-59282380D02*
X161228095Y-59282380D01*
X161513809Y-59282380D02*
X161513809Y-58282380D01*
X161418571Y-58425238D01*
X161323333Y-58520476D01*
X161228095Y-58568095D01*
X162132857Y-58282380D02*
X162799523Y-58282380D01*
X162370952Y-59282380D01*
%TO.C,C16*%
X163847142Y-65687142D02*
X163799523Y-65734761D01*
X163656666Y-65782380D01*
X163561428Y-65782380D01*
X163418571Y-65734761D01*
X163323333Y-65639523D01*
X163275714Y-65544285D01*
X163228095Y-65353809D01*
X163228095Y-65210952D01*
X163275714Y-65020476D01*
X163323333Y-64925238D01*
X163418571Y-64830000D01*
X163561428Y-64782380D01*
X163656666Y-64782380D01*
X163799523Y-64830000D01*
X163847142Y-64877619D01*
X164799523Y-65782380D02*
X164228095Y-65782380D01*
X164513809Y-65782380D02*
X164513809Y-64782380D01*
X164418571Y-64925238D01*
X164323333Y-65020476D01*
X164228095Y-65068095D01*
X165656666Y-64782380D02*
X165466190Y-64782380D01*
X165370952Y-64830000D01*
X165323333Y-64877619D01*
X165228095Y-65020476D01*
X165180476Y-65210952D01*
X165180476Y-65591904D01*
X165228095Y-65687142D01*
X165275714Y-65734761D01*
X165370952Y-65782380D01*
X165561428Y-65782380D01*
X165656666Y-65734761D01*
X165704285Y-65687142D01*
X165751904Y-65591904D01*
X165751904Y-65353809D01*
X165704285Y-65258571D01*
X165656666Y-65210952D01*
X165561428Y-65163333D01*
X165370952Y-65163333D01*
X165275714Y-65210952D01*
X165228095Y-65258571D01*
X165180476Y-65353809D01*
%TO.C,J4*%
X50080666Y-63742380D02*
X50080666Y-64456666D01*
X50033047Y-64599523D01*
X49937809Y-64694761D01*
X49794952Y-64742380D01*
X49699714Y-64742380D01*
X50985428Y-64075714D02*
X50985428Y-64742380D01*
X50747333Y-63694761D02*
X50509238Y-64409047D01*
X51128285Y-64409047D01*
%TO.C,K4*%
X173751904Y-92282380D02*
X173751904Y-91282380D01*
X174323333Y-92282380D02*
X173894761Y-91710952D01*
X174323333Y-91282380D02*
X173751904Y-91853809D01*
X175180476Y-91615714D02*
X175180476Y-92282380D01*
X174942380Y-91234761D02*
X174704285Y-91949047D01*
X175323333Y-91949047D01*
%TO.C,K3*%
X151251904Y-92282380D02*
X151251904Y-91282380D01*
X151823333Y-92282380D02*
X151394761Y-91710952D01*
X151823333Y-91282380D02*
X151251904Y-91853809D01*
X152156666Y-91282380D02*
X152775714Y-91282380D01*
X152442380Y-91663333D01*
X152585238Y-91663333D01*
X152680476Y-91710952D01*
X152728095Y-91758571D01*
X152775714Y-91853809D01*
X152775714Y-92091904D01*
X152728095Y-92187142D01*
X152680476Y-92234761D01*
X152585238Y-92282380D01*
X152299523Y-92282380D01*
X152204285Y-92234761D01*
X152156666Y-92187142D01*
%TO.C,J3*%
X182922666Y-63234380D02*
X182922666Y-63948666D01*
X182875047Y-64091523D01*
X182779809Y-64186761D01*
X182636952Y-64234380D01*
X182541714Y-64234380D01*
X183303619Y-63234380D02*
X183922666Y-63234380D01*
X183589333Y-63615333D01*
X183732190Y-63615333D01*
X183827428Y-63662952D01*
X183875047Y-63710571D01*
X183922666Y-63805809D01*
X183922666Y-64043904D01*
X183875047Y-64139142D01*
X183827428Y-64186761D01*
X183732190Y-64234380D01*
X183446476Y-64234380D01*
X183351238Y-64186761D01*
X183303619Y-64139142D01*
%TO.C,C15*%
X146847142Y-77687142D02*
X146799523Y-77734761D01*
X146656666Y-77782380D01*
X146561428Y-77782380D01*
X146418571Y-77734761D01*
X146323333Y-77639523D01*
X146275714Y-77544285D01*
X146228095Y-77353809D01*
X146228095Y-77210952D01*
X146275714Y-77020476D01*
X146323333Y-76925238D01*
X146418571Y-76830000D01*
X146561428Y-76782380D01*
X146656666Y-76782380D01*
X146799523Y-76830000D01*
X146847142Y-76877619D01*
X147799523Y-77782380D02*
X147228095Y-77782380D01*
X147513809Y-77782380D02*
X147513809Y-76782380D01*
X147418571Y-76925238D01*
X147323333Y-77020476D01*
X147228095Y-77068095D01*
X148704285Y-76782380D02*
X148228095Y-76782380D01*
X148180476Y-77258571D01*
X148228095Y-77210952D01*
X148323333Y-77163333D01*
X148561428Y-77163333D01*
X148656666Y-77210952D01*
X148704285Y-77258571D01*
X148751904Y-77353809D01*
X148751904Y-77591904D01*
X148704285Y-77687142D01*
X148656666Y-77734761D01*
X148561428Y-77782380D01*
X148323333Y-77782380D01*
X148228095Y-77734761D01*
X148180476Y-77687142D01*
%TO.C,R19*%
X127995142Y-89800380D02*
X127661809Y-89324190D01*
X127423714Y-89800380D02*
X127423714Y-88800380D01*
X127804666Y-88800380D01*
X127899904Y-88848000D01*
X127947523Y-88895619D01*
X127995142Y-88990857D01*
X127995142Y-89133714D01*
X127947523Y-89228952D01*
X127899904Y-89276571D01*
X127804666Y-89324190D01*
X127423714Y-89324190D01*
X128947523Y-89800380D02*
X128376095Y-89800380D01*
X128661809Y-89800380D02*
X128661809Y-88800380D01*
X128566571Y-88943238D01*
X128471333Y-89038476D01*
X128376095Y-89086095D01*
X129423714Y-89800380D02*
X129614190Y-89800380D01*
X129709428Y-89752761D01*
X129757047Y-89705142D01*
X129852285Y-89562285D01*
X129899904Y-89371809D01*
X129899904Y-88990857D01*
X129852285Y-88895619D01*
X129804666Y-88848000D01*
X129709428Y-88800380D01*
X129518952Y-88800380D01*
X129423714Y-88848000D01*
X129376095Y-88895619D01*
X129328476Y-88990857D01*
X129328476Y-89228952D01*
X129376095Y-89324190D01*
X129423714Y-89371809D01*
X129518952Y-89419428D01*
X129709428Y-89419428D01*
X129804666Y-89371809D01*
X129852285Y-89324190D01*
X129899904Y-89228952D01*
%TO.C,K2*%
X103793904Y-92330380D02*
X103793904Y-91330380D01*
X104365333Y-92330380D02*
X103936761Y-91758952D01*
X104365333Y-91330380D02*
X103793904Y-91901809D01*
X104746285Y-91425619D02*
X104793904Y-91378000D01*
X104889142Y-91330380D01*
X105127238Y-91330380D01*
X105222476Y-91378000D01*
X105270095Y-91425619D01*
X105317714Y-91520857D01*
X105317714Y-91616095D01*
X105270095Y-91758952D01*
X104698666Y-92330380D01*
X105317714Y-92330380D01*
%TO.C,D7*%
X100751904Y-75782380D02*
X100751904Y-74782380D01*
X100990000Y-74782380D01*
X101132857Y-74830000D01*
X101228095Y-74925238D01*
X101275714Y-75020476D01*
X101323333Y-75210952D01*
X101323333Y-75353809D01*
X101275714Y-75544285D01*
X101228095Y-75639523D01*
X101132857Y-75734761D01*
X100990000Y-75782380D01*
X100751904Y-75782380D01*
X101656666Y-74782380D02*
X102323333Y-74782380D01*
X101894761Y-75782380D01*
X106728095Y-74882380D02*
X106728095Y-73882380D01*
X107299523Y-74882380D02*
X106870952Y-74310952D01*
X107299523Y-73882380D02*
X106728095Y-74453809D01*
%TO.C,D6*%
X116985904Y-71092380D02*
X116985904Y-70092380D01*
X117224000Y-70092380D01*
X117366857Y-70140000D01*
X117462095Y-70235238D01*
X117509714Y-70330476D01*
X117557333Y-70520952D01*
X117557333Y-70663809D01*
X117509714Y-70854285D01*
X117462095Y-70949523D01*
X117366857Y-71044761D01*
X117224000Y-71092380D01*
X116985904Y-71092380D01*
X118414476Y-70092380D02*
X118224000Y-70092380D01*
X118128761Y-70140000D01*
X118081142Y-70187619D01*
X117985904Y-70330476D01*
X117938285Y-70520952D01*
X117938285Y-70901904D01*
X117985904Y-70997142D01*
X118033523Y-71044761D01*
X118128761Y-71092380D01*
X118319238Y-71092380D01*
X118414476Y-71044761D01*
X118462095Y-70997142D01*
X118509714Y-70901904D01*
X118509714Y-70663809D01*
X118462095Y-70568571D01*
X118414476Y-70520952D01*
X118319238Y-70473333D01*
X118128761Y-70473333D01*
X118033523Y-70520952D01*
X117985904Y-70568571D01*
X117938285Y-70663809D01*
X111728095Y-71682380D02*
X111728095Y-70682380D01*
X112299523Y-71682380D02*
X111870952Y-71110952D01*
X112299523Y-70682380D02*
X111728095Y-71253809D01*
%TO.C,C14*%
X148323142Y-55757142D02*
X148275523Y-55804761D01*
X148132666Y-55852380D01*
X148037428Y-55852380D01*
X147894571Y-55804761D01*
X147799333Y-55709523D01*
X147751714Y-55614285D01*
X147704095Y-55423809D01*
X147704095Y-55280952D01*
X147751714Y-55090476D01*
X147799333Y-54995238D01*
X147894571Y-54900000D01*
X148037428Y-54852380D01*
X148132666Y-54852380D01*
X148275523Y-54900000D01*
X148323142Y-54947619D01*
X149275523Y-55852380D02*
X148704095Y-55852380D01*
X148989809Y-55852380D02*
X148989809Y-54852380D01*
X148894571Y-54995238D01*
X148799333Y-55090476D01*
X148704095Y-55138095D01*
X150132666Y-55185714D02*
X150132666Y-55852380D01*
X149894571Y-54804761D02*
X149656476Y-55519047D01*
X150275523Y-55519047D01*
%TO.C,C13*%
X124847142Y-68187142D02*
X124799523Y-68234761D01*
X124656666Y-68282380D01*
X124561428Y-68282380D01*
X124418571Y-68234761D01*
X124323333Y-68139523D01*
X124275714Y-68044285D01*
X124228095Y-67853809D01*
X124228095Y-67710952D01*
X124275714Y-67520476D01*
X124323333Y-67425238D01*
X124418571Y-67330000D01*
X124561428Y-67282380D01*
X124656666Y-67282380D01*
X124799523Y-67330000D01*
X124847142Y-67377619D01*
X125799523Y-68282380D02*
X125228095Y-68282380D01*
X125513809Y-68282380D02*
X125513809Y-67282380D01*
X125418571Y-67425238D01*
X125323333Y-67520476D01*
X125228095Y-67568095D01*
X126132857Y-67282380D02*
X126751904Y-67282380D01*
X126418571Y-67663333D01*
X126561428Y-67663333D01*
X126656666Y-67710952D01*
X126704285Y-67758571D01*
X126751904Y-67853809D01*
X126751904Y-68091904D01*
X126704285Y-68187142D01*
X126656666Y-68234761D01*
X126561428Y-68282380D01*
X126275714Y-68282380D01*
X126180476Y-68234761D01*
X126132857Y-68187142D01*
%TO.C,R17*%
X134258380Y-44612857D02*
X133782190Y-44946190D01*
X134258380Y-45184285D02*
X133258380Y-45184285D01*
X133258380Y-44803333D01*
X133306000Y-44708095D01*
X133353619Y-44660476D01*
X133448857Y-44612857D01*
X133591714Y-44612857D01*
X133686952Y-44660476D01*
X133734571Y-44708095D01*
X133782190Y-44803333D01*
X133782190Y-45184285D01*
X134258380Y-43660476D02*
X134258380Y-44231904D01*
X134258380Y-43946190D02*
X133258380Y-43946190D01*
X133401238Y-44041428D01*
X133496476Y-44136666D01*
X133544095Y-44231904D01*
X133258380Y-43327142D02*
X133258380Y-42660476D01*
X134258380Y-43089047D01*
%TO.C,R16*%
X146037142Y-58900380D02*
X145703809Y-58424190D01*
X145465714Y-58900380D02*
X145465714Y-57900380D01*
X145846666Y-57900380D01*
X145941904Y-57948000D01*
X145989523Y-57995619D01*
X146037142Y-58090857D01*
X146037142Y-58233714D01*
X145989523Y-58328952D01*
X145941904Y-58376571D01*
X145846666Y-58424190D01*
X145465714Y-58424190D01*
X146989523Y-58900380D02*
X146418095Y-58900380D01*
X146703809Y-58900380D02*
X146703809Y-57900380D01*
X146608571Y-58043238D01*
X146513333Y-58138476D01*
X146418095Y-58186095D01*
X147846666Y-57900380D02*
X147656190Y-57900380D01*
X147560952Y-57948000D01*
X147513333Y-57995619D01*
X147418095Y-58138476D01*
X147370476Y-58328952D01*
X147370476Y-58709904D01*
X147418095Y-58805142D01*
X147465714Y-58852761D01*
X147560952Y-58900380D01*
X147751428Y-58900380D01*
X147846666Y-58852761D01*
X147894285Y-58805142D01*
X147941904Y-58709904D01*
X147941904Y-58471809D01*
X147894285Y-58376571D01*
X147846666Y-58328952D01*
X147751428Y-58281333D01*
X147560952Y-58281333D01*
X147465714Y-58328952D01*
X147418095Y-58376571D01*
X147370476Y-58471809D01*
%TO.C,J2*%
X108802666Y-88372380D02*
X108802666Y-89086666D01*
X108755047Y-89229523D01*
X108659809Y-89324761D01*
X108516952Y-89372380D01*
X108421714Y-89372380D01*
X109231238Y-88467619D02*
X109278857Y-88420000D01*
X109374095Y-88372380D01*
X109612190Y-88372380D01*
X109707428Y-88420000D01*
X109755047Y-88467619D01*
X109802666Y-88562857D01*
X109802666Y-88658095D01*
X109755047Y-88800952D01*
X109183619Y-89372380D01*
X109802666Y-89372380D01*
%TO.C,D5*%
X124251904Y-40782380D02*
X124251904Y-39782380D01*
X124490000Y-39782380D01*
X124632857Y-39830000D01*
X124728095Y-39925238D01*
X124775714Y-40020476D01*
X124823333Y-40210952D01*
X124823333Y-40353809D01*
X124775714Y-40544285D01*
X124728095Y-40639523D01*
X124632857Y-40734761D01*
X124490000Y-40782380D01*
X124251904Y-40782380D01*
X125728095Y-39782380D02*
X125251904Y-39782380D01*
X125204285Y-40258571D01*
X125251904Y-40210952D01*
X125347142Y-40163333D01*
X125585238Y-40163333D01*
X125680476Y-40210952D01*
X125728095Y-40258571D01*
X125775714Y-40353809D01*
X125775714Y-40591904D01*
X125728095Y-40687142D01*
X125680476Y-40734761D01*
X125585238Y-40782380D01*
X125347142Y-40782380D01*
X125251904Y-40734761D01*
X125204285Y-40687142D01*
X121728095Y-42882380D02*
X121728095Y-41882380D01*
X122299523Y-42882380D02*
X121870952Y-42310952D01*
X122299523Y-41882380D02*
X121728095Y-42453809D01*
%TO.C,D4*%
X124251904Y-45282380D02*
X124251904Y-44282380D01*
X124490000Y-44282380D01*
X124632857Y-44330000D01*
X124728095Y-44425238D01*
X124775714Y-44520476D01*
X124823333Y-44710952D01*
X124823333Y-44853809D01*
X124775714Y-45044285D01*
X124728095Y-45139523D01*
X124632857Y-45234761D01*
X124490000Y-45282380D01*
X124251904Y-45282380D01*
X125680476Y-44615714D02*
X125680476Y-45282380D01*
X125442380Y-44234761D02*
X125204285Y-44949047D01*
X125823333Y-44949047D01*
X121728095Y-47882380D02*
X121728095Y-46882380D01*
X122299523Y-47882380D02*
X121870952Y-47310952D01*
X122299523Y-46882380D02*
X121728095Y-47453809D01*
%TO.C,D3*%
X124251904Y-60282380D02*
X124251904Y-59282380D01*
X124490000Y-59282380D01*
X124632857Y-59330000D01*
X124728095Y-59425238D01*
X124775714Y-59520476D01*
X124823333Y-59710952D01*
X124823333Y-59853809D01*
X124775714Y-60044285D01*
X124728095Y-60139523D01*
X124632857Y-60234761D01*
X124490000Y-60282380D01*
X124251904Y-60282380D01*
X125156666Y-59282380D02*
X125775714Y-59282380D01*
X125442380Y-59663333D01*
X125585238Y-59663333D01*
X125680476Y-59710952D01*
X125728095Y-59758571D01*
X125775714Y-59853809D01*
X125775714Y-60091904D01*
X125728095Y-60187142D01*
X125680476Y-60234761D01*
X125585238Y-60282380D01*
X125299523Y-60282380D01*
X125204285Y-60234761D01*
X125156666Y-60187142D01*
X121728095Y-62882380D02*
X121728095Y-61882380D01*
X122299523Y-62882380D02*
X121870952Y-62310952D01*
X122299523Y-61882380D02*
X121728095Y-62453809D01*
%TO.C,D2*%
X124251904Y-55782380D02*
X124251904Y-54782380D01*
X124490000Y-54782380D01*
X124632857Y-54830000D01*
X124728095Y-54925238D01*
X124775714Y-55020476D01*
X124823333Y-55210952D01*
X124823333Y-55353809D01*
X124775714Y-55544285D01*
X124728095Y-55639523D01*
X124632857Y-55734761D01*
X124490000Y-55782380D01*
X124251904Y-55782380D01*
X125204285Y-54877619D02*
X125251904Y-54830000D01*
X125347142Y-54782380D01*
X125585238Y-54782380D01*
X125680476Y-54830000D01*
X125728095Y-54877619D01*
X125775714Y-54972857D01*
X125775714Y-55068095D01*
X125728095Y-55210952D01*
X125156666Y-55782380D01*
X125775714Y-55782380D01*
X111728095Y-53682380D02*
X111728095Y-52682380D01*
X112299523Y-53682380D02*
X111870952Y-53110952D01*
X112299523Y-52682380D02*
X111728095Y-53253809D01*
%TO.C,D1*%
X124251904Y-50782380D02*
X124251904Y-49782380D01*
X124490000Y-49782380D01*
X124632857Y-49830000D01*
X124728095Y-49925238D01*
X124775714Y-50020476D01*
X124823333Y-50210952D01*
X124823333Y-50353809D01*
X124775714Y-50544285D01*
X124728095Y-50639523D01*
X124632857Y-50734761D01*
X124490000Y-50782380D01*
X124251904Y-50782380D01*
X125775714Y-50782380D02*
X125204285Y-50782380D01*
X125490000Y-50782380D02*
X125490000Y-49782380D01*
X125394761Y-49925238D01*
X125299523Y-50020476D01*
X125204285Y-50068095D01*
X111728095Y-48682380D02*
X111728095Y-47682380D01*
X112299523Y-48682380D02*
X111870952Y-48110952D01*
X112299523Y-47682380D02*
X111728095Y-48253809D01*
%TO.C,C12*%
X106347142Y-63187142D02*
X106299523Y-63234761D01*
X106156666Y-63282380D01*
X106061428Y-63282380D01*
X105918571Y-63234761D01*
X105823333Y-63139523D01*
X105775714Y-63044285D01*
X105728095Y-62853809D01*
X105728095Y-62710952D01*
X105775714Y-62520476D01*
X105823333Y-62425238D01*
X105918571Y-62330000D01*
X106061428Y-62282380D01*
X106156666Y-62282380D01*
X106299523Y-62330000D01*
X106347142Y-62377619D01*
X107299523Y-63282380D02*
X106728095Y-63282380D01*
X107013809Y-63282380D02*
X107013809Y-62282380D01*
X106918571Y-62425238D01*
X106823333Y-62520476D01*
X106728095Y-62568095D01*
X107680476Y-62377619D02*
X107728095Y-62330000D01*
X107823333Y-62282380D01*
X108061428Y-62282380D01*
X108156666Y-62330000D01*
X108204285Y-62377619D01*
X108251904Y-62472857D01*
X108251904Y-62568095D01*
X108204285Y-62710952D01*
X107632857Y-63282380D01*
X108251904Y-63282380D01*
%TO.C,R11*%
X94888380Y-70774857D02*
X94412190Y-71108190D01*
X94888380Y-71346285D02*
X93888380Y-71346285D01*
X93888380Y-70965333D01*
X93936000Y-70870095D01*
X93983619Y-70822476D01*
X94078857Y-70774857D01*
X94221714Y-70774857D01*
X94316952Y-70822476D01*
X94364571Y-70870095D01*
X94412190Y-70965333D01*
X94412190Y-71346285D01*
X94888380Y-69822476D02*
X94888380Y-70393904D01*
X94888380Y-70108190D02*
X93888380Y-70108190D01*
X94031238Y-70203428D01*
X94126476Y-70298666D01*
X94174095Y-70393904D01*
X94888380Y-68870095D02*
X94888380Y-69441523D01*
X94888380Y-69155809D02*
X93888380Y-69155809D01*
X94031238Y-69251047D01*
X94126476Y-69346285D01*
X94174095Y-69441523D01*
%TO.C,K1*%
X97427904Y-61440380D02*
X97427904Y-60440380D01*
X97999333Y-61440380D02*
X97570761Y-60868952D01*
X97999333Y-60440380D02*
X97427904Y-61011809D01*
X98951714Y-61440380D02*
X98380285Y-61440380D01*
X98666000Y-61440380D02*
X98666000Y-60440380D01*
X98570761Y-60583238D01*
X98475523Y-60678476D01*
X98380285Y-60726095D01*
%TO.C,J1*%
X50080666Y-53074380D02*
X50080666Y-53788666D01*
X50033047Y-53931523D01*
X49937809Y-54026761D01*
X49794952Y-54074380D01*
X49699714Y-54074380D01*
X51080666Y-54074380D02*
X50509238Y-54074380D01*
X50794952Y-54074380D02*
X50794952Y-53074380D01*
X50699714Y-53217238D01*
X50604476Y-53312476D01*
X50509238Y-53360095D01*
%TO.C,C11*%
X89431142Y-58662857D02*
X89478761Y-58710476D01*
X89526380Y-58853333D01*
X89526380Y-58948571D01*
X89478761Y-59091428D01*
X89383523Y-59186666D01*
X89288285Y-59234285D01*
X89097809Y-59281904D01*
X88954952Y-59281904D01*
X88764476Y-59234285D01*
X88669238Y-59186666D01*
X88574000Y-59091428D01*
X88526380Y-58948571D01*
X88526380Y-58853333D01*
X88574000Y-58710476D01*
X88621619Y-58662857D01*
X89526380Y-57710476D02*
X89526380Y-58281904D01*
X89526380Y-57996190D02*
X88526380Y-57996190D01*
X88669238Y-58091428D01*
X88764476Y-58186666D01*
X88812095Y-58281904D01*
X89526380Y-56758095D02*
X89526380Y-57329523D01*
X89526380Y-57043809D02*
X88526380Y-57043809D01*
X88669238Y-57139047D01*
X88764476Y-57234285D01*
X88812095Y-57329523D01*
%TO.C,C10*%
X72377142Y-78871142D02*
X72329523Y-78918761D01*
X72186666Y-78966380D01*
X72091428Y-78966380D01*
X71948571Y-78918761D01*
X71853333Y-78823523D01*
X71805714Y-78728285D01*
X71758095Y-78537809D01*
X71758095Y-78394952D01*
X71805714Y-78204476D01*
X71853333Y-78109238D01*
X71948571Y-78014000D01*
X72091428Y-77966380D01*
X72186666Y-77966380D01*
X72329523Y-78014000D01*
X72377142Y-78061619D01*
X73329523Y-78966380D02*
X72758095Y-78966380D01*
X73043809Y-78966380D02*
X73043809Y-77966380D01*
X72948571Y-78109238D01*
X72853333Y-78204476D01*
X72758095Y-78252095D01*
X73948571Y-77966380D02*
X74043809Y-77966380D01*
X74139047Y-78014000D01*
X74186666Y-78061619D01*
X74234285Y-78156857D01*
X74281904Y-78347333D01*
X74281904Y-78585428D01*
X74234285Y-78775904D01*
X74186666Y-78871142D01*
X74139047Y-78918761D01*
X74043809Y-78966380D01*
X73948571Y-78966380D01*
X73853333Y-78918761D01*
X73805714Y-78871142D01*
X73758095Y-78775904D01*
X73710476Y-78585428D01*
X73710476Y-78347333D01*
X73758095Y-78156857D01*
X73805714Y-78061619D01*
X73853333Y-78014000D01*
X73948571Y-77966380D01*
%TO.C,C9*%
X89617333Y-40009142D02*
X89569714Y-40056761D01*
X89426857Y-40104380D01*
X89331619Y-40104380D01*
X89188761Y-40056761D01*
X89093523Y-39961523D01*
X89045904Y-39866285D01*
X88998285Y-39675809D01*
X88998285Y-39532952D01*
X89045904Y-39342476D01*
X89093523Y-39247238D01*
X89188761Y-39152000D01*
X89331619Y-39104380D01*
X89426857Y-39104380D01*
X89569714Y-39152000D01*
X89617333Y-39199619D01*
X90093523Y-40104380D02*
X90284000Y-40104380D01*
X90379238Y-40056761D01*
X90426857Y-40009142D01*
X90522095Y-39866285D01*
X90569714Y-39675809D01*
X90569714Y-39294857D01*
X90522095Y-39199619D01*
X90474476Y-39152000D01*
X90379238Y-39104380D01*
X90188761Y-39104380D01*
X90093523Y-39152000D01*
X90045904Y-39199619D01*
X89998285Y-39294857D01*
X89998285Y-39532952D01*
X90045904Y-39628190D01*
X90093523Y-39675809D01*
X90188761Y-39723428D01*
X90379238Y-39723428D01*
X90474476Y-39675809D01*
X90522095Y-39628190D01*
X90569714Y-39532952D01*
%TO.C,C7*%
X60915333Y-85475142D02*
X60867714Y-85522761D01*
X60724857Y-85570380D01*
X60629619Y-85570380D01*
X60486761Y-85522761D01*
X60391523Y-85427523D01*
X60343904Y-85332285D01*
X60296285Y-85141809D01*
X60296285Y-84998952D01*
X60343904Y-84808476D01*
X60391523Y-84713238D01*
X60486761Y-84618000D01*
X60629619Y-84570380D01*
X60724857Y-84570380D01*
X60867714Y-84618000D01*
X60915333Y-84665619D01*
X61248666Y-84570380D02*
X61915333Y-84570380D01*
X61486761Y-85570380D01*
%TO.C,C5*%
X65525333Y-73815142D02*
X65477714Y-73862761D01*
X65334857Y-73910380D01*
X65239619Y-73910380D01*
X65096761Y-73862761D01*
X65001523Y-73767523D01*
X64953904Y-73672285D01*
X64906285Y-73481809D01*
X64906285Y-73338952D01*
X64953904Y-73148476D01*
X65001523Y-73053238D01*
X65096761Y-72958000D01*
X65239619Y-72910380D01*
X65334857Y-72910380D01*
X65477714Y-72958000D01*
X65525333Y-73005619D01*
X66430095Y-72910380D02*
X65953904Y-72910380D01*
X65906285Y-73386571D01*
X65953904Y-73338952D01*
X66049142Y-73291333D01*
X66287238Y-73291333D01*
X66382476Y-73338952D01*
X66430095Y-73386571D01*
X66477714Y-73481809D01*
X66477714Y-73719904D01*
X66430095Y-73815142D01*
X66382476Y-73862761D01*
X66287238Y-73910380D01*
X66049142Y-73910380D01*
X65953904Y-73862761D01*
X65906285Y-73815142D01*
%TO.C,R4*%
X59804380Y-55352666D02*
X59328190Y-55686000D01*
X59804380Y-55924095D02*
X58804380Y-55924095D01*
X58804380Y-55543142D01*
X58852000Y-55447904D01*
X58899619Y-55400285D01*
X58994857Y-55352666D01*
X59137714Y-55352666D01*
X59232952Y-55400285D01*
X59280571Y-55447904D01*
X59328190Y-55543142D01*
X59328190Y-55924095D01*
X59137714Y-54495523D02*
X59804380Y-54495523D01*
X58756761Y-54733619D02*
X59471047Y-54971714D01*
X59471047Y-54352666D01*
%TO.C,C3*%
X71599142Y-55312666D02*
X71646761Y-55360285D01*
X71694380Y-55503142D01*
X71694380Y-55598380D01*
X71646761Y-55741238D01*
X71551523Y-55836476D01*
X71456285Y-55884095D01*
X71265809Y-55931714D01*
X71122952Y-55931714D01*
X70932476Y-55884095D01*
X70837238Y-55836476D01*
X70742000Y-55741238D01*
X70694380Y-55598380D01*
X70694380Y-55503142D01*
X70742000Y-55360285D01*
X70789619Y-55312666D01*
X70694380Y-54979333D02*
X70694380Y-54360285D01*
X71075333Y-54693619D01*
X71075333Y-54550761D01*
X71122952Y-54455523D01*
X71170571Y-54407904D01*
X71265809Y-54360285D01*
X71503904Y-54360285D01*
X71599142Y-54407904D01*
X71646761Y-54455523D01*
X71694380Y-54550761D01*
X71694380Y-54836476D01*
X71646761Y-54931714D01*
X71599142Y-54979333D01*
%TO.C,C1*%
X63217142Y-70806666D02*
X63264761Y-70854285D01*
X63312380Y-70997142D01*
X63312380Y-71092380D01*
X63264761Y-71235238D01*
X63169523Y-71330476D01*
X63074285Y-71378095D01*
X62883809Y-71425714D01*
X62740952Y-71425714D01*
X62550476Y-71378095D01*
X62455238Y-71330476D01*
X62360000Y-71235238D01*
X62312380Y-71092380D01*
X62312380Y-70997142D01*
X62360000Y-70854285D01*
X62407619Y-70806666D01*
X63312380Y-69854285D02*
X63312380Y-70425714D01*
X63312380Y-70140000D02*
X62312380Y-70140000D01*
X62455238Y-70235238D01*
X62550476Y-70330476D01*
X62598095Y-70425714D01*
%TO.C,C4*%
X75139333Y-39755142D02*
X75091714Y-39802761D01*
X74948857Y-39850380D01*
X74853619Y-39850380D01*
X74710761Y-39802761D01*
X74615523Y-39707523D01*
X74567904Y-39612285D01*
X74520285Y-39421809D01*
X74520285Y-39278952D01*
X74567904Y-39088476D01*
X74615523Y-38993238D01*
X74710761Y-38898000D01*
X74853619Y-38850380D01*
X74948857Y-38850380D01*
X75091714Y-38898000D01*
X75139333Y-38945619D01*
X75996476Y-39183714D02*
X75996476Y-39850380D01*
X75758380Y-38802761D02*
X75520285Y-39517047D01*
X76139333Y-39517047D01*
%TD*%
M02*
