%TF.GenerationSoftware,KiCad,Pcbnew,(5.1.10)-1*%
%TF.CreationDate,2021-11-03T21:28:22+01:00*%
%TF.ProjectId,Amplificatore,416d706c-6966-4696-9361-746f72652e6b,rev?*%
%TF.SameCoordinates,Original*%
%TF.FileFunction,Paste,Bot*%
%TF.FilePolarity,Positive*%
%FSLAX46Y46*%
G04 Gerber Fmt 4.6, Leading zero omitted, Abs format (unit mm)*
G04 Created by KiCad (PCBNEW (5.1.10)-1) date 2021-11-03 21:28:22*
%MOMM*%
%LPD*%
G01*
G04 APERTURE LIST*
%ADD10R,0.700000X0.600000*%
%ADD11R,0.600000X0.700000*%
G04 APERTURE END LIST*
%TO.C,R39*%
G36*
G01*
X205440001Y-79430000D02*
X204539999Y-79430000D01*
G75*
G02*
X204290000Y-79180001I0J249999D01*
G01*
X204290000Y-78654999D01*
G75*
G02*
X204539999Y-78405000I249999J0D01*
G01*
X205440001Y-78405000D01*
G75*
G02*
X205690000Y-78654999I0J-249999D01*
G01*
X205690000Y-79180001D01*
G75*
G02*
X205440001Y-79430000I-249999J0D01*
G01*
G37*
G36*
G01*
X205440001Y-81255000D02*
X204539999Y-81255000D01*
G75*
G02*
X204290000Y-81005001I0J249999D01*
G01*
X204290000Y-80479999D01*
G75*
G02*
X204539999Y-80230000I249999J0D01*
G01*
X205440001Y-80230000D01*
G75*
G02*
X205690000Y-80479999I0J-249999D01*
G01*
X205690000Y-81005001D01*
G75*
G02*
X205440001Y-81255000I-249999J0D01*
G01*
G37*
%TD*%
D10*
%TO.C,D10*%
X168990000Y-85030000D03*
X168990000Y-83630000D03*
%TD*%
D11*
%TO.C,D9*%
X97290000Y-45330000D03*
X98690000Y-45330000D03*
%TD*%
%TO.C,D8*%
X85290000Y-84330000D03*
X86690000Y-84330000D03*
%TD*%
%TO.C,C31*%
G36*
G01*
X210540000Y-86855000D02*
X210540000Y-87805000D01*
G75*
G02*
X210290000Y-88055000I-250000J0D01*
G01*
X209615000Y-88055000D01*
G75*
G02*
X209365000Y-87805000I0J250000D01*
G01*
X209365000Y-86855000D01*
G75*
G02*
X209615000Y-86605000I250000J0D01*
G01*
X210290000Y-86605000D01*
G75*
G02*
X210540000Y-86855000I0J-250000D01*
G01*
G37*
G36*
G01*
X212615000Y-86855000D02*
X212615000Y-87805000D01*
G75*
G02*
X212365000Y-88055000I-250000J0D01*
G01*
X211690000Y-88055000D01*
G75*
G02*
X211440000Y-87805000I0J250000D01*
G01*
X211440000Y-86855000D01*
G75*
G02*
X211690000Y-86605000I250000J0D01*
G01*
X212365000Y-86605000D01*
G75*
G02*
X212615000Y-86855000I0J-250000D01*
G01*
G37*
%TD*%
%TO.C,C29*%
G36*
G01*
X206402000Y-73805000D02*
X206402000Y-72855000D01*
G75*
G02*
X206652000Y-72605000I250000J0D01*
G01*
X207327000Y-72605000D01*
G75*
G02*
X207577000Y-72855000I0J-250000D01*
G01*
X207577000Y-73805000D01*
G75*
G02*
X207327000Y-74055000I-250000J0D01*
G01*
X206652000Y-74055000D01*
G75*
G02*
X206402000Y-73805000I0J250000D01*
G01*
G37*
G36*
G01*
X204327000Y-73805000D02*
X204327000Y-72855000D01*
G75*
G02*
X204577000Y-72605000I250000J0D01*
G01*
X205252000Y-72605000D01*
G75*
G02*
X205502000Y-72855000I0J-250000D01*
G01*
X205502000Y-73805000D01*
G75*
G02*
X205252000Y-74055000I-250000J0D01*
G01*
X204577000Y-74055000D01*
G75*
G02*
X204327000Y-73805000I0J250000D01*
G01*
G37*
%TD*%
%TO.C,R35*%
G36*
G01*
X199890000Y-52280001D02*
X199890000Y-51379999D01*
G75*
G02*
X200139999Y-51130000I249999J0D01*
G01*
X200665001Y-51130000D01*
G75*
G02*
X200915000Y-51379999I0J-249999D01*
G01*
X200915000Y-52280001D01*
G75*
G02*
X200665001Y-52530000I-249999J0D01*
G01*
X200139999Y-52530000D01*
G75*
G02*
X199890000Y-52280001I0J249999D01*
G01*
G37*
G36*
G01*
X198065000Y-52280001D02*
X198065000Y-51379999D01*
G75*
G02*
X198314999Y-51130000I249999J0D01*
G01*
X198840001Y-51130000D01*
G75*
G02*
X199090000Y-51379999I0J-249999D01*
G01*
X199090000Y-52280001D01*
G75*
G02*
X198840001Y-52530000I-249999J0D01*
G01*
X198314999Y-52530000D01*
G75*
G02*
X198065000Y-52280001I0J249999D01*
G01*
G37*
%TD*%
%TO.C,C26*%
G36*
G01*
X193890000Y-47480001D02*
X193890000Y-46179999D01*
G75*
G02*
X194139999Y-45930000I249999J0D01*
G01*
X194965001Y-45930000D01*
G75*
G02*
X195215000Y-46179999I0J-249999D01*
G01*
X195215000Y-47480001D01*
G75*
G02*
X194965001Y-47730000I-249999J0D01*
G01*
X194139999Y-47730000D01*
G75*
G02*
X193890000Y-47480001I0J249999D01*
G01*
G37*
G36*
G01*
X190765000Y-47480001D02*
X190765000Y-46179999D01*
G75*
G02*
X191014999Y-45930000I249999J0D01*
G01*
X191840001Y-45930000D01*
G75*
G02*
X192090000Y-46179999I0J-249999D01*
G01*
X192090000Y-47480001D01*
G75*
G02*
X191840001Y-47730000I-249999J0D01*
G01*
X191014999Y-47730000D01*
G75*
G02*
X190765000Y-47480001I0J249999D01*
G01*
G37*
%TD*%
%TO.C,C25*%
G36*
G01*
X200339999Y-42230000D02*
X201640001Y-42230000D01*
G75*
G02*
X201890000Y-42479999I0J-249999D01*
G01*
X201890000Y-43305001D01*
G75*
G02*
X201640001Y-43555000I-249999J0D01*
G01*
X200339999Y-43555000D01*
G75*
G02*
X200090000Y-43305001I0J249999D01*
G01*
X200090000Y-42479999D01*
G75*
G02*
X200339999Y-42230000I249999J0D01*
G01*
G37*
G36*
G01*
X200339999Y-39105000D02*
X201640001Y-39105000D01*
G75*
G02*
X201890000Y-39354999I0J-249999D01*
G01*
X201890000Y-40180001D01*
G75*
G02*
X201640001Y-40430000I-249999J0D01*
G01*
X200339999Y-40430000D01*
G75*
G02*
X200090000Y-40180001I0J249999D01*
G01*
X200090000Y-39354999D01*
G75*
G02*
X200339999Y-39105000I249999J0D01*
G01*
G37*
%TD*%
%TO.C,R30*%
G36*
G01*
X189302000Y-52755000D02*
X189302000Y-49905000D01*
G75*
G02*
X189552000Y-49655000I250000J0D01*
G01*
X190277000Y-49655000D01*
G75*
G02*
X190527000Y-49905000I0J-250000D01*
G01*
X190527000Y-52755000D01*
G75*
G02*
X190277000Y-53005000I-250000J0D01*
G01*
X189552000Y-53005000D01*
G75*
G02*
X189302000Y-52755000I0J250000D01*
G01*
G37*
G36*
G01*
X183377000Y-52755000D02*
X183377000Y-49905000D01*
G75*
G02*
X183627000Y-49655000I250000J0D01*
G01*
X184352000Y-49655000D01*
G75*
G02*
X184602000Y-49905000I0J-250000D01*
G01*
X184602000Y-52755000D01*
G75*
G02*
X184352000Y-53005000I-250000J0D01*
G01*
X183627000Y-53005000D01*
G75*
G02*
X183377000Y-52755000I0J250000D01*
G01*
G37*
%TD*%
%TO.C,R29*%
G36*
G01*
X191640000Y-39405000D02*
X191640000Y-42255000D01*
G75*
G02*
X191390000Y-42505000I-250000J0D01*
G01*
X190665000Y-42505000D01*
G75*
G02*
X190415000Y-42255000I0J250000D01*
G01*
X190415000Y-39405000D01*
G75*
G02*
X190665000Y-39155000I250000J0D01*
G01*
X191390000Y-39155000D01*
G75*
G02*
X191640000Y-39405000I0J-250000D01*
G01*
G37*
G36*
G01*
X197565000Y-39405000D02*
X197565000Y-42255000D01*
G75*
G02*
X197315000Y-42505000I-250000J0D01*
G01*
X196590000Y-42505000D01*
G75*
G02*
X196340000Y-42255000I0J250000D01*
G01*
X196340000Y-39405000D01*
G75*
G02*
X196590000Y-39155000I250000J0D01*
G01*
X197315000Y-39155000D01*
G75*
G02*
X197565000Y-39405000I0J-250000D01*
G01*
G37*
%TD*%
%TO.C,R28*%
G36*
G01*
X177915000Y-66480000D02*
X175065000Y-66480000D01*
G75*
G02*
X174815000Y-66230000I0J250000D01*
G01*
X174815000Y-65505000D01*
G75*
G02*
X175065000Y-65255000I250000J0D01*
G01*
X177915000Y-65255000D01*
G75*
G02*
X178165000Y-65505000I0J-250000D01*
G01*
X178165000Y-66230000D01*
G75*
G02*
X177915000Y-66480000I-250000J0D01*
G01*
G37*
G36*
G01*
X177915000Y-72405000D02*
X175065000Y-72405000D01*
G75*
G02*
X174815000Y-72155000I0J250000D01*
G01*
X174815000Y-71430000D01*
G75*
G02*
X175065000Y-71180000I250000J0D01*
G01*
X177915000Y-71180000D01*
G75*
G02*
X178165000Y-71430000I0J-250000D01*
G01*
X178165000Y-72155000D01*
G75*
G02*
X177915000Y-72405000I-250000J0D01*
G01*
G37*
%TD*%
%TO.C,R27*%
G36*
G01*
X181840000Y-76755000D02*
X181840000Y-73905000D01*
G75*
G02*
X182090000Y-73655000I250000J0D01*
G01*
X182815000Y-73655000D01*
G75*
G02*
X183065000Y-73905000I0J-250000D01*
G01*
X183065000Y-76755000D01*
G75*
G02*
X182815000Y-77005000I-250000J0D01*
G01*
X182090000Y-77005000D01*
G75*
G02*
X181840000Y-76755000I0J250000D01*
G01*
G37*
G36*
G01*
X175915000Y-76755000D02*
X175915000Y-73905000D01*
G75*
G02*
X176165000Y-73655000I250000J0D01*
G01*
X176890000Y-73655000D01*
G75*
G02*
X177140000Y-73905000I0J-250000D01*
G01*
X177140000Y-76755000D01*
G75*
G02*
X176890000Y-77005000I-250000J0D01*
G01*
X176165000Y-77005000D01*
G75*
G02*
X175915000Y-76755000I0J250000D01*
G01*
G37*
%TD*%
%TO.C,R26*%
G36*
G01*
X160340000Y-70255000D02*
X160340000Y-67405000D01*
G75*
G02*
X160590000Y-67155000I250000J0D01*
G01*
X161315000Y-67155000D01*
G75*
G02*
X161565000Y-67405000I0J-250000D01*
G01*
X161565000Y-70255000D01*
G75*
G02*
X161315000Y-70505000I-250000J0D01*
G01*
X160590000Y-70505000D01*
G75*
G02*
X160340000Y-70255000I0J250000D01*
G01*
G37*
G36*
G01*
X154415000Y-70255000D02*
X154415000Y-67405000D01*
G75*
G02*
X154665000Y-67155000I250000J0D01*
G01*
X155390000Y-67155000D01*
G75*
G02*
X155640000Y-67405000I0J-250000D01*
G01*
X155640000Y-70255000D01*
G75*
G02*
X155390000Y-70505000I-250000J0D01*
G01*
X154665000Y-70505000D01*
G75*
G02*
X154415000Y-70255000I0J250000D01*
G01*
G37*
%TD*%
%TO.C,R25*%
G36*
G01*
X171840000Y-54255000D02*
X171840000Y-51405000D01*
G75*
G02*
X172090000Y-51155000I250000J0D01*
G01*
X172815000Y-51155000D01*
G75*
G02*
X173065000Y-51405000I0J-250000D01*
G01*
X173065000Y-54255000D01*
G75*
G02*
X172815000Y-54505000I-250000J0D01*
G01*
X172090000Y-54505000D01*
G75*
G02*
X171840000Y-54255000I0J250000D01*
G01*
G37*
G36*
G01*
X165915000Y-54255000D02*
X165915000Y-51405000D01*
G75*
G02*
X166165000Y-51155000I250000J0D01*
G01*
X166890000Y-51155000D01*
G75*
G02*
X167140000Y-51405000I0J-250000D01*
G01*
X167140000Y-54255000D01*
G75*
G02*
X166890000Y-54505000I-250000J0D01*
G01*
X166165000Y-54505000D01*
G75*
G02*
X165915000Y-54255000I0J250000D01*
G01*
G37*
%TD*%
%TO.C,R22*%
G36*
G01*
X158802000Y-75280001D02*
X158802000Y-74379999D01*
G75*
G02*
X159051999Y-74130000I249999J0D01*
G01*
X159577001Y-74130000D01*
G75*
G02*
X159827000Y-74379999I0J-249999D01*
G01*
X159827000Y-75280001D01*
G75*
G02*
X159577001Y-75530000I-249999J0D01*
G01*
X159051999Y-75530000D01*
G75*
G02*
X158802000Y-75280001I0J249999D01*
G01*
G37*
G36*
G01*
X156977000Y-75280001D02*
X156977000Y-74379999D01*
G75*
G02*
X157226999Y-74130000I249999J0D01*
G01*
X157752001Y-74130000D01*
G75*
G02*
X158002000Y-74379999I0J-249999D01*
G01*
X158002000Y-75280001D01*
G75*
G02*
X157752001Y-75530000I-249999J0D01*
G01*
X157226999Y-75530000D01*
G75*
G02*
X156977000Y-75280001I0J249999D01*
G01*
G37*
%TD*%
%TO.C,R21*%
G36*
G01*
X192140000Y-64905000D02*
X192140000Y-67755000D01*
G75*
G02*
X191890000Y-68005000I-250000J0D01*
G01*
X191165000Y-68005000D01*
G75*
G02*
X190915000Y-67755000I0J250000D01*
G01*
X190915000Y-64905000D01*
G75*
G02*
X191165000Y-64655000I250000J0D01*
G01*
X191890000Y-64655000D01*
G75*
G02*
X192140000Y-64905000I0J-250000D01*
G01*
G37*
G36*
G01*
X198065000Y-64905000D02*
X198065000Y-67755000D01*
G75*
G02*
X197815000Y-68005000I-250000J0D01*
G01*
X197090000Y-68005000D01*
G75*
G02*
X196840000Y-67755000I0J250000D01*
G01*
X196840000Y-64905000D01*
G75*
G02*
X197090000Y-64655000I250000J0D01*
G01*
X197815000Y-64655000D01*
G75*
G02*
X198065000Y-64905000I0J-250000D01*
G01*
G37*
%TD*%
%TO.C,R14*%
G36*
G01*
X118640000Y-77905000D02*
X118640000Y-80755000D01*
G75*
G02*
X118390000Y-81005000I-250000J0D01*
G01*
X117665000Y-81005000D01*
G75*
G02*
X117415000Y-80755000I0J250000D01*
G01*
X117415000Y-77905000D01*
G75*
G02*
X117665000Y-77655000I250000J0D01*
G01*
X118390000Y-77655000D01*
G75*
G02*
X118640000Y-77905000I0J-250000D01*
G01*
G37*
G36*
G01*
X124565000Y-77905000D02*
X124565000Y-80755000D01*
G75*
G02*
X124315000Y-81005000I-250000J0D01*
G01*
X123590000Y-81005000D01*
G75*
G02*
X123340000Y-80755000I0J250000D01*
G01*
X123340000Y-77905000D01*
G75*
G02*
X123590000Y-77655000I250000J0D01*
G01*
X124315000Y-77655000D01*
G75*
G02*
X124565000Y-77905000I0J-250000D01*
G01*
G37*
%TD*%
%TO.C,R9*%
G36*
G01*
X96527500Y-82165000D02*
X96527500Y-85015000D01*
G75*
G02*
X96277500Y-85265000I-250000J0D01*
G01*
X95552500Y-85265000D01*
G75*
G02*
X95302500Y-85015000I0J250000D01*
G01*
X95302500Y-82165000D01*
G75*
G02*
X95552500Y-81915000I250000J0D01*
G01*
X96277500Y-81915000D01*
G75*
G02*
X96527500Y-82165000I0J-250000D01*
G01*
G37*
G36*
G01*
X90602500Y-82165000D02*
X90602500Y-85015000D01*
G75*
G02*
X90352500Y-85265000I-250000J0D01*
G01*
X89627500Y-85265000D01*
G75*
G02*
X89377500Y-85015000I0J250000D01*
G01*
X89377500Y-82165000D01*
G75*
G02*
X89627500Y-81915000I250000J0D01*
G01*
X90352500Y-81915000D01*
G75*
G02*
X90602500Y-82165000I0J-250000D01*
G01*
G37*
%TD*%
%TO.C,R8*%
G36*
G01*
X85575000Y-45425000D02*
X88425000Y-45425000D01*
G75*
G02*
X88675000Y-45675000I0J-250000D01*
G01*
X88675000Y-46400000D01*
G75*
G02*
X88425000Y-46650000I-250000J0D01*
G01*
X85575000Y-46650000D01*
G75*
G02*
X85325000Y-46400000I0J250000D01*
G01*
X85325000Y-45675000D01*
G75*
G02*
X85575000Y-45425000I250000J0D01*
G01*
G37*
G36*
G01*
X85575000Y-51350000D02*
X88425000Y-51350000D01*
G75*
G02*
X88675000Y-51600000I0J-250000D01*
G01*
X88675000Y-52325000D01*
G75*
G02*
X88425000Y-52575000I-250000J0D01*
G01*
X85575000Y-52575000D01*
G75*
G02*
X85325000Y-52325000I0J250000D01*
G01*
X85325000Y-51600000D01*
G75*
G02*
X85575000Y-51350000I250000J0D01*
G01*
G37*
%TD*%
%TO.C,R7*%
G36*
G01*
X57590000Y-84879999D02*
X57590000Y-85780001D01*
G75*
G02*
X57340001Y-86030000I-249999J0D01*
G01*
X56814999Y-86030000D01*
G75*
G02*
X56565000Y-85780001I0J249999D01*
G01*
X56565000Y-84879999D01*
G75*
G02*
X56814999Y-84630000I249999J0D01*
G01*
X57340001Y-84630000D01*
G75*
G02*
X57590000Y-84879999I0J-249999D01*
G01*
G37*
G36*
G01*
X59415000Y-84879999D02*
X59415000Y-85780001D01*
G75*
G02*
X59165001Y-86030000I-249999J0D01*
G01*
X58639999Y-86030000D01*
G75*
G02*
X58390000Y-85780001I0J249999D01*
G01*
X58390000Y-84879999D01*
G75*
G02*
X58639999Y-84630000I249999J0D01*
G01*
X59165001Y-84630000D01*
G75*
G02*
X59415000Y-84879999I0J-249999D01*
G01*
G37*
%TD*%
%TO.C,R6*%
G36*
G01*
X62415000Y-69980000D02*
X59565000Y-69980000D01*
G75*
G02*
X59315000Y-69730000I0J250000D01*
G01*
X59315000Y-69005000D01*
G75*
G02*
X59565000Y-68755000I250000J0D01*
G01*
X62415000Y-68755000D01*
G75*
G02*
X62665000Y-69005000I0J-250000D01*
G01*
X62665000Y-69730000D01*
G75*
G02*
X62415000Y-69980000I-250000J0D01*
G01*
G37*
G36*
G01*
X62415000Y-75905000D02*
X59565000Y-75905000D01*
G75*
G02*
X59315000Y-75655000I0J250000D01*
G01*
X59315000Y-74930000D01*
G75*
G02*
X59565000Y-74680000I250000J0D01*
G01*
X62415000Y-74680000D01*
G75*
G02*
X62665000Y-74930000I0J-250000D01*
G01*
X62665000Y-75655000D01*
G75*
G02*
X62415000Y-75905000I-250000J0D01*
G01*
G37*
%TD*%
%TO.C,C8*%
G36*
G01*
X57340000Y-80904999D02*
X57340000Y-81755001D01*
G75*
G02*
X57090001Y-82005000I-249999J0D01*
G01*
X56189999Y-82005000D01*
G75*
G02*
X55940000Y-81755001I0J249999D01*
G01*
X55940000Y-80904999D01*
G75*
G02*
X56189999Y-80655000I249999J0D01*
G01*
X57090001Y-80655000D01*
G75*
G02*
X57340000Y-80904999I0J-249999D01*
G01*
G37*
G36*
G01*
X60040000Y-80904999D02*
X60040000Y-81755001D01*
G75*
G02*
X59790001Y-82005000I-249999J0D01*
G01*
X58889999Y-82005000D01*
G75*
G02*
X58640000Y-81755001I0J249999D01*
G01*
X58640000Y-80904999D01*
G75*
G02*
X58889999Y-80655000I249999J0D01*
G01*
X59790001Y-80655000D01*
G75*
G02*
X60040000Y-80904999I0J-249999D01*
G01*
G37*
%TD*%
M02*
