M48
; DRILL file {KiCad (5.1.10)-1} date 11/22/21 13:13:34
; FORMAT={-:-/ absolute / metric / decimal}
; #@! TF.CreationDate,2021-11-22T13:13:34+01:00
; #@! TF.GenerationSoftware,Kicad,Pcbnew,(5.1.10)-1
; #@! TF.FileFunction,Plated,1,2,PTH
FMAT,2
METRIC
T1C0.400
T2C0.700
T3C0.800
T4C1.000
T5C1.020
T6C1.100
T7C1.200
T8C1.300
T9C3.200
%
G90
G05
T1
X70.236Y-56.206
X145.284Y-79.194
X191.427Y-45.195
X192.065Y-85.859
X193.979Y-48.433
X194.015Y-44.986
X194.975Y-42.465
X195.698Y-67.07
X198.164Y-42.297
T2
X62.098Y-65.6
X62.098Y-68.1
T3
X53.97Y-51.114
X53.97Y-53.114
X53.97Y-55.114
X53.97Y-62.258
X53.97Y-64.258
X53.97Y-66.258
X67.94Y-55.4
X67.94Y-60.4
X112.136Y-84.42
X112.136Y-86.42
X112.136Y-88.42
X155.824Y-51.082
X155.824Y-56.082
X166.99Y-58.0
X166.99Y-60.0
X166.99Y-62.0
X167.0Y-40.0
X167.0Y-46.0
X169.0Y-40.0
X169.0Y-46.0
X171.0Y-40.0
X171.0Y-46.0
X173.0Y-58.0
X173.0Y-60.0
X173.0Y-62.0
X178.0Y-40.0
X178.0Y-46.0
X180.0Y-40.0
X180.0Y-46.0
X180.0Y-58.0
X180.0Y-60.0
X180.0Y-62.0
X182.0Y-40.0
X182.0Y-46.0
X185.99Y-58.0
X185.99Y-60.0
X185.99Y-62.0
T4
X52.098Y-81.562
X52.192Y-74.958
X62.098Y-81.562
X62.192Y-74.958
X62.956Y-42.748
X62.956Y-45.748
X65.956Y-42.748
X65.956Y-45.748
X68.956Y-42.748
X68.956Y-45.748
X92.324Y-53.02
X92.324Y-63.02
X92.578Y-40.28
X92.578Y-47.78
X96.99Y-66.33
X106.99Y-66.33
X111.99Y-66.33
X121.99Y-66.33
X149.062Y-41.986
X149.062Y-44.986
X150.99Y-62.33
X152.062Y-41.986
X152.062Y-44.986
X155.062Y-41.986
X155.062Y-44.986
X160.99Y-62.33
X161.92Y-48.408
X161.92Y-55.908
X171.49Y-68.33
X181.49Y-68.33
X189.49Y-81.33
X199.49Y-81.33
X210.022Y-48.27
X210.022Y-51.27
X210.022Y-58.27
X210.022Y-61.27
X210.022Y-68.27
X210.022Y-71.27
X210.022Y-78.27
X210.022Y-81.27
X213.022Y-48.27
X213.022Y-51.27
X213.022Y-58.27
X213.022Y-61.27
X213.022Y-68.27
X213.022Y-71.27
X213.022Y-78.27
X213.022Y-81.27
X216.022Y-48.27
X216.022Y-51.27
X216.022Y-58.27
X216.022Y-61.27
X216.022Y-68.27
X216.022Y-71.27
X216.022Y-78.27
X216.022Y-81.27
T6
X96.83Y-72.33
X106.99Y-72.33
X111.83Y-40.33
X111.83Y-45.33
X111.83Y-60.33
X111.99Y-50.33
X111.99Y-55.33
X111.99Y-73.33
X121.99Y-40.33
X121.99Y-45.33
X121.99Y-60.33
X122.15Y-50.33
X122.15Y-55.33
X122.15Y-73.33
T7
X66.416Y-85.118
X81.416Y-85.118
X81.99Y-40.33
X81.99Y-55.33
X130.664Y-53.114
X145.664Y-53.114
X150.99Y-68.83
X150.99Y-75.33
X165.99Y-68.83
X165.99Y-75.33
X171.49Y-75.33
X178.684Y-51.83
X186.49Y-75.33
X189.49Y-87.83
X193.49Y-58.83
X193.49Y-73.83
X193.684Y-51.83
X204.49Y-87.83
T8
X86.482Y-81.308
X89.022Y-88.928
X94.102Y-81.308
X98.674Y-40.33
X98.674Y-50.49
X98.674Y-58.11
X104.262Y-81.308
X104.262Y-88.928
X106.294Y-40.33
X106.294Y-55.57
X141.99Y-81.21
X141.99Y-88.83
X152.15Y-88.83
X157.23Y-81.21
X159.77Y-88.83
X164.99Y-81.21
X164.99Y-88.83
X175.15Y-88.83
X180.23Y-81.21
X182.77Y-88.83
T9
X54.0Y-42.0
X54.0Y-89.0
X215.0Y-42.0
X215.0Y-89.0
T5
G00X73.34Y-68.385
M15
G01X73.34Y-67.375
M16
G05
G00X74.777Y-64.011
M15
G01X74.183Y-64.829
M16
G05
G00X74.777Y-71.739
M15
G01X74.183Y-70.921
M16
G05
G00X77.89Y-62.114
M15
G01X76.93Y-62.426
M16
G05
G00X77.89Y-73.636
M15
G01X76.93Y-73.324
M16
G05
G00X81.5Y-62.426
M15
G01X80.54Y-62.114
M16
G05
G00X81.54Y-73.324
M15
G01X80.58Y-73.636
M16
G05
G00X84.287Y-64.829
M15
G01X83.693Y-64.011
M16
G05
G00X84.287Y-70.921
M15
G01X83.693Y-71.739
M16
G05
G00X132.34Y-68.385
M15
G01X132.34Y-67.375
M16
G05
G00X133.777Y-64.011
M15
G01X133.183Y-64.829
M16
G05
G00X133.777Y-71.739
M15
G01X133.183Y-70.921
M16
G05
G00X136.89Y-62.114
M15
G01X135.93Y-62.426
M16
G05
G00X136.89Y-73.636
M15
G01X135.93Y-73.324
M16
G05
G00X140.5Y-62.426
M15
G01X139.54Y-62.114
M16
G05
G00X140.54Y-73.324
M15
G01X139.58Y-73.636
M16
G05
G00X143.287Y-64.829
M15
G01X142.693Y-64.011
M16
G05
G00X143.287Y-70.921
M15
G01X142.693Y-71.739
M16
G05
T0
M30
