M48
; DRILL file {KiCad (5.1.10)-1} date 11/03/21 21:29:28
; FORMAT={-:-/ absolute / inch / decimal}
; #@! TF.CreationDate,2021-11-03T21:29:28+01:00
; #@! TF.GenerationSoftware,Kicad,Pcbnew,(5.1.10)-1
; #@! TF.FileFunction,Plated,1,2,PTH
FMAT,2
INCH
T1C0.0157
T2C0.0276
T3C0.0315
T4C0.0394
T5C0.0402
T6C0.0433
T7C0.0472
T8C0.0512
T9C0.1220
T10C0.1260
%
G90
G05
T1
X5.0217Y-2.6358
X7.5386Y-1.7805
X7.7388Y-1.8144
X7.8071Y-1.6777
X7.9765Y-1.668
X8.1574Y-2.9672
X8.2541Y-3.2003
X8.3029Y-2.3655
X8.3339Y-2.4933
X8.3406Y-2.9979
T2
X2.1846Y-2.2965
X2.2831Y-2.2965
T3
X1.9484Y-2.2177
X1.9484Y-2.2965
X1.9484Y-2.3752
X1.9484Y-2.6902
X1.9484Y-2.7689
X1.9484Y-2.8476
X2.4406Y-2.2965
X2.6374Y-2.2965
X4.4091Y-3.1232
X4.4091Y-3.202
X4.4091Y-3.2807
X6.128Y-2.2177
X6.3248Y-2.2177
X6.5744Y-2.2835
X6.5744Y-2.3622
X6.5744Y-2.4409
X6.811Y-2.2835
X6.811Y-2.3622
X6.811Y-2.4409
X6.8303Y-1.5878
X6.8303Y-1.6665
X6.8303Y-1.7453
X7.0665Y-1.5878
X7.0665Y-1.6665
X7.0665Y-1.7453
X7.0866Y-2.2835
X7.0866Y-2.3622
X7.0866Y-2.4409
X7.3224Y-1.5878
X7.3224Y-1.6665
X7.3224Y-1.7453
X7.3224Y-2.2835
X7.3224Y-2.3622
X7.3224Y-2.4409
X8.3264Y-1.6075
X8.3264Y-1.6862
X8.3264Y-1.765
T4
X2.2043Y-2.5327
X2.2043Y-2.7689
X2.3228Y-1.6535
X2.3228Y-1.7717
X2.4409Y-1.6535
X2.4409Y-1.7717
X2.5591Y-1.6535
X2.5591Y-1.7717
X2.598Y-2.5327
X2.598Y-2.7689
X2.7949Y-3.4579
X3.1886Y-3.4579
X3.5823Y-1.7913
X3.5823Y-2.0866
X3.8185Y-2.6114
X4.2122Y-2.6114
X4.4091Y-2.6114
X4.8028Y-2.6114
X5.9445Y-2.4539
X6.102Y-1.6665
X6.102Y-1.7846
X6.102Y-1.9028
X6.2201Y-1.6665
X6.2201Y-1.7846
X6.2201Y-1.9028
X6.3382Y-2.4539
X6.5744Y-1.5878
X6.5744Y-1.8831
X6.7516Y-2.6902
X7.1453Y-2.6902
X7.4602Y-3.202
X7.8539Y-3.202
X8.6807Y-1.6272
X8.6807Y-1.7453
X8.6807Y-2.1587
X8.6807Y-2.2768
X8.6807Y-2.6508
X8.6807Y-2.7689
X8.6807Y-3.3201
X8.6807Y-3.4382
X8.7988Y-1.6272
X8.7988Y-1.7453
X8.7988Y-2.1587
X8.7988Y-2.2768
X8.7988Y-2.6508
X8.7988Y-2.7689
X8.7988Y-3.3201
X8.7988Y-3.4382
X8.9169Y-1.6272
X8.9169Y-1.7453
X8.9169Y-2.1587
X8.9169Y-2.2768
X8.9169Y-2.6508
X8.9169Y-2.7689
X8.9169Y-3.3201
X8.9169Y-3.4382
T6
X3.8122Y-2.8476
X4.2122Y-2.8476
X4.4028Y-1.5878
X4.4028Y-1.7846
X4.4028Y-2.3752
X4.4091Y-1.9815
X4.4091Y-2.1783
X4.4091Y-2.887
X4.8028Y-1.5878
X4.8028Y-1.7846
X4.8028Y-2.3752
X4.8091Y-1.9815
X4.8091Y-2.1783
X4.8091Y-2.887
T7
X1.9681Y-3.3398
X2.5587Y-3.3398
X3.228Y-1.5878
X3.228Y-2.1783
X5.1181Y-2.0472
X5.7087Y-2.0472
X5.9445Y-2.7098
X5.9445Y-2.9657
X6.535Y-2.7098
X6.535Y-2.9657
X6.7516Y-2.9657
X7.0469Y-2.0406
X7.3421Y-2.9657
X7.4602Y-3.4579
X7.6177Y-2.3161
X7.6177Y-2.9067
X7.6374Y-2.0406
X8.0508Y-3.4579
T8
X3.3854Y-3.1972
X3.3854Y-3.4972
X3.7854Y-3.4972
X3.8185Y-1.5878
X3.8185Y-1.9878
X3.8185Y-2.2878
X3.9854Y-3.1972
X4.0854Y-3.4972
X4.1185Y-1.5878
X4.1185Y-2.1878
X5.5902Y-3.1972
X5.5902Y-3.4972
X5.9902Y-3.4972
X6.1902Y-3.1972
X6.2902Y-3.4972
X6.4957Y-3.1972
X6.4957Y-3.4972
X6.8957Y-3.4972
X7.0957Y-3.1972
X7.1957Y-3.4972
T9
X3.1197Y-2.6724
X5.4425Y-2.6724
T10
X1.7717Y-1.378
X1.7717Y-3.7402
X9.252Y-1.378
X9.252Y-3.7402
T5
G00X2.8874Y-2.6923
M15
G01X2.8874Y-2.6526
M16
G05
G00X2.944Y-2.5201
M15
G01X2.9206Y-2.5523
M16
G05
G00X2.944Y-2.8244
M15
G01X2.9206Y-2.7922
M16
G05
G00X3.0665Y-2.4454
M15
G01X3.0287Y-2.4577
M16
G05
G00X3.0665Y-2.8991
M15
G01X3.0287Y-2.8868
M16
G05
G00X3.2087Y-2.4577
M15
G01X3.1709Y-2.4454
M16
G05
G00X3.2102Y-2.8868
M15
G01X3.1724Y-2.8991
M16
G05
G00X3.3184Y-2.5523
M15
G01X3.295Y-2.5201
M16
G05
G00X3.3184Y-2.7922
M15
G01X3.295Y-2.8244
M16
G05
G00X5.2102Y-2.6923
M15
G01X5.2102Y-2.6526
M16
G05
G00X5.2668Y-2.5201
M15
G01X5.2434Y-2.5523
M16
G05
G00X5.2668Y-2.8244
M15
G01X5.2434Y-2.7922
M16
G05
G00X5.3894Y-2.4454
M15
G01X5.3516Y-2.4577
M16
G05
G00X5.3894Y-2.8991
M15
G01X5.3516Y-2.8868
M16
G05
G00X5.5315Y-2.4577
M15
G01X5.4937Y-2.4454
M16
G05
G00X5.5331Y-2.8868
M15
G01X5.4953Y-2.8991
M16
G05
G00X5.6412Y-2.5523
M15
G01X5.6178Y-2.5201
M16
G05
G00X5.6412Y-2.7922
M15
G01X5.6178Y-2.8244
M16
G05
T0
M30
