%TF.GenerationSoftware,KiCad,Pcbnew,(5.1.10)-1*%
%TF.CreationDate,2021-11-03T21:28:22+01:00*%
%TF.ProjectId,Amplificatore,416d706c-6966-4696-9361-746f72652e6b,rev?*%
%TF.SameCoordinates,Original*%
%TF.FileFunction,Legend,Top*%
%TF.FilePolarity,Positive*%
%FSLAX46Y46*%
G04 Gerber Fmt 4.6, Leading zero omitted, Abs format (unit mm)*
G04 Created by KiCad (PCBNEW (5.1.10)-1) date 2021-11-03 21:28:22*
%MOMM*%
%LPD*%
G01*
G04 APERTURE LIST*
%ADD10C,0.120000*%
%ADD11C,0.150000*%
G04 APERTURE END LIST*
D10*
%TO.C,U4*%
X214050000Y-80330000D02*
X214050000Y-76880000D01*
X214050000Y-80330000D02*
X214050000Y-82280000D01*
X208930000Y-80330000D02*
X208930000Y-78380000D01*
X208930000Y-80330000D02*
X208930000Y-82280000D01*
%TO.C,R38*%
X212350936Y-74065000D02*
X212805064Y-74065000D01*
X212350936Y-72595000D02*
X212805064Y-72595000D01*
%TO.C,J21*%
X152410000Y-38895000D02*
X158170000Y-38895000D01*
X152410000Y-40315000D02*
X152410000Y-38895000D01*
X152910000Y-40315000D02*
X152410000Y-40315000D01*
X152910000Y-50345000D02*
X152910000Y-40315000D01*
X152410000Y-50345000D02*
X152910000Y-50345000D01*
X152410000Y-51765000D02*
X152410000Y-50345000D01*
X158170000Y-51765000D02*
X152410000Y-51765000D01*
X160000000Y-38895000D02*
X159690000Y-38895000D01*
X160000000Y-51765000D02*
X160000000Y-38895000D01*
X159690000Y-51765000D02*
X160000000Y-51765000D01*
%TO.C,J20*%
X217055000Y-89910000D02*
X217055000Y-84150000D01*
X218475000Y-89910000D02*
X217055000Y-89910000D01*
X218475000Y-89410000D02*
X218475000Y-89910000D01*
X228505000Y-89410000D02*
X218475000Y-89410000D01*
X228505000Y-89910000D02*
X228505000Y-89410000D01*
X229925000Y-89910000D02*
X228505000Y-89910000D01*
X229925000Y-84150000D02*
X229925000Y-89910000D01*
X217055000Y-82320000D02*
X217055000Y-82630000D01*
X229925000Y-82320000D02*
X217055000Y-82320000D01*
X229925000Y-82630000D02*
X229925000Y-82320000D01*
%TO.C,J10*%
X55565000Y-47580000D02*
X55565000Y-41820000D01*
X56985000Y-47580000D02*
X55565000Y-47580000D01*
X56985000Y-47080000D02*
X56985000Y-47580000D01*
X67015000Y-47080000D02*
X56985000Y-47080000D01*
X67015000Y-47580000D02*
X67015000Y-47080000D01*
X68435000Y-47580000D02*
X67015000Y-47580000D01*
X68435000Y-41820000D02*
X68435000Y-47580000D01*
X55565000Y-39990000D02*
X55565000Y-40300000D01*
X68435000Y-39990000D02*
X55565000Y-39990000D01*
X68435000Y-40300000D02*
X68435000Y-39990000D01*
%TO.C,C33*%
X205278748Y-74240000D02*
X206701252Y-74240000D01*
X205278748Y-72420000D02*
X206701252Y-72420000D01*
%TO.C,C32*%
X211701252Y-86420000D02*
X210278748Y-86420000D01*
X211701252Y-88240000D02*
X210278748Y-88240000D01*
%TO.C,C30*%
X190870000Y-57210000D02*
X196110000Y-57210000D01*
X190870000Y-75450000D02*
X196110000Y-75450000D01*
X196110000Y-75450000D02*
X196110000Y-57210000D01*
X190870000Y-75450000D02*
X190870000Y-57210000D01*
%TO.C,C28*%
X187870000Y-90450000D02*
X187870000Y-85210000D01*
X206110000Y-90450000D02*
X206110000Y-85210000D01*
X206110000Y-85210000D02*
X187870000Y-85210000D01*
X206110000Y-90450000D02*
X187870000Y-90450000D01*
%TO.C,C27*%
X195610000Y-49210000D02*
X195610000Y-54450000D01*
X177370000Y-49210000D02*
X177370000Y-54450000D01*
X177370000Y-54450000D02*
X195610000Y-54450000D01*
X177370000Y-49210000D02*
X195610000Y-49210000D01*
%TO.C,R36*%
X203812936Y-50620000D02*
X208167064Y-50620000D01*
X203812936Y-54040000D02*
X208167064Y-54040000D01*
%TO.C,C24*%
X201725000Y-41068748D02*
X201725000Y-41591252D01*
X200255000Y-41068748D02*
X200255000Y-41591252D01*
%TO.C,C23*%
X192766748Y-46095000D02*
X193289252Y-46095000D01*
X192766748Y-47565000D02*
X193289252Y-47565000D01*
%TO.C,U3*%
X193990000Y-44390000D02*
X195940000Y-44390000D01*
X193990000Y-44390000D02*
X192040000Y-44390000D01*
X193990000Y-39270000D02*
X195940000Y-39270000D01*
X193990000Y-39270000D02*
X190540000Y-39270000D01*
%TO.C,R34*%
X203812936Y-66120000D02*
X208167064Y-66120000D01*
X203812936Y-69540000D02*
X208167064Y-69540000D01*
%TO.C,R33*%
X203812936Y-61620000D02*
X208167064Y-61620000D01*
X203812936Y-65040000D02*
X208167064Y-65040000D01*
%TO.C,R32*%
X203742936Y-57120000D02*
X208097064Y-57120000D01*
X203742936Y-60540000D02*
X208097064Y-60540000D01*
%TO.C,R31*%
X205167064Y-48540000D02*
X200812936Y-48540000D01*
X205167064Y-45120000D02*
X200812936Y-45120000D01*
%TO.C,J15*%
X212550000Y-43830000D02*
X210430000Y-43830000D01*
X212550000Y-43830000D02*
X212550000Y-39770000D01*
X212550000Y-39770000D02*
X210430000Y-39770000D01*
X210430000Y-43830000D02*
X210430000Y-39770000D01*
X210430000Y-45890000D02*
X210430000Y-44830000D01*
X211490000Y-45890000D02*
X210430000Y-45890000D01*
%TO.C,J14*%
X184930000Y-41330000D02*
X187050000Y-41330000D01*
X184930000Y-41330000D02*
X184930000Y-45390000D01*
X184930000Y-45390000D02*
X187050000Y-45390000D01*
X187050000Y-41330000D02*
X187050000Y-45390000D01*
X187050000Y-39270000D02*
X187050000Y-40330000D01*
X185990000Y-39270000D02*
X187050000Y-39270000D01*
%TO.C,J13*%
X229925000Y-65630000D02*
X229925000Y-65320000D01*
X229925000Y-65320000D02*
X217055000Y-65320000D01*
X217055000Y-65320000D02*
X217055000Y-65630000D01*
X229925000Y-67150000D02*
X229925000Y-72910000D01*
X229925000Y-72910000D02*
X228505000Y-72910000D01*
X228505000Y-72910000D02*
X228505000Y-72410000D01*
X228505000Y-72410000D02*
X218475000Y-72410000D01*
X218475000Y-72410000D02*
X218475000Y-72910000D01*
X218475000Y-72910000D02*
X217055000Y-72910000D01*
X217055000Y-72910000D02*
X217055000Y-67150000D01*
%TO.C,J12*%
X229925000Y-39630000D02*
X229925000Y-39320000D01*
X229925000Y-39320000D02*
X217055000Y-39320000D01*
X217055000Y-39320000D02*
X217055000Y-39630000D01*
X229925000Y-41150000D02*
X229925000Y-46910000D01*
X229925000Y-46910000D02*
X228505000Y-46910000D01*
X228505000Y-46910000D02*
X228505000Y-46410000D01*
X228505000Y-46410000D02*
X218475000Y-46410000D01*
X218475000Y-46410000D02*
X218475000Y-46910000D01*
X218475000Y-46910000D02*
X217055000Y-46910000D01*
X217055000Y-46910000D02*
X217055000Y-41150000D01*
%TO.C,J11*%
X229925000Y-53130000D02*
X229925000Y-52820000D01*
X229925000Y-52820000D02*
X217055000Y-52820000D01*
X217055000Y-52820000D02*
X217055000Y-53130000D01*
X229925000Y-54650000D02*
X229925000Y-60410000D01*
X229925000Y-60410000D02*
X228505000Y-60410000D01*
X228505000Y-60410000D02*
X228505000Y-59910000D01*
X228505000Y-59910000D02*
X218475000Y-59910000D01*
X218475000Y-59910000D02*
X218475000Y-60410000D01*
X218475000Y-60410000D02*
X217055000Y-60410000D01*
X217055000Y-60410000D02*
X217055000Y-54650000D01*
%TO.C,R24*%
X142710000Y-40822936D02*
X142710000Y-45177064D01*
X139290000Y-40822936D02*
X139290000Y-45177064D01*
%TO.C,R23*%
X136225000Y-78102936D02*
X136225000Y-78557064D01*
X134755000Y-78102936D02*
X134755000Y-78557064D01*
%TO.C,J9*%
X178430000Y-41330000D02*
X180550000Y-41330000D01*
X178430000Y-41330000D02*
X178430000Y-45390000D01*
X178430000Y-45390000D02*
X180550000Y-45390000D01*
X180550000Y-41330000D02*
X180550000Y-45390000D01*
X180550000Y-39270000D02*
X180550000Y-40330000D01*
X179490000Y-39270000D02*
X180550000Y-39270000D01*
%TO.C,J8*%
X178940000Y-59000000D02*
X181060000Y-59000000D01*
X178940000Y-59000000D02*
X178940000Y-63060000D01*
X178940000Y-63060000D02*
X181060000Y-63060000D01*
X181060000Y-59000000D02*
X181060000Y-63060000D01*
X181060000Y-56940000D02*
X181060000Y-58000000D01*
X180000000Y-56940000D02*
X181060000Y-56940000D01*
%TO.C,J7*%
X172430000Y-41330000D02*
X174550000Y-41330000D01*
X172430000Y-41330000D02*
X172430000Y-45390000D01*
X172430000Y-45390000D02*
X174550000Y-45390000D01*
X174550000Y-41330000D02*
X174550000Y-45390000D01*
X174550000Y-39270000D02*
X174550000Y-40330000D01*
X173490000Y-39270000D02*
X174550000Y-39270000D01*
%TO.C,J6*%
X171940000Y-59000000D02*
X174060000Y-59000000D01*
X171940000Y-59000000D02*
X171940000Y-63060000D01*
X171940000Y-63060000D02*
X174060000Y-63060000D01*
X174060000Y-59000000D02*
X174060000Y-63060000D01*
X174060000Y-56940000D02*
X174060000Y-58000000D01*
X173000000Y-56940000D02*
X174060000Y-56940000D01*
%TO.C,J5*%
X168050000Y-61000000D02*
X165930000Y-61000000D01*
X168050000Y-61000000D02*
X168050000Y-56940000D01*
X168050000Y-56940000D02*
X165930000Y-56940000D01*
X165930000Y-61000000D02*
X165930000Y-56940000D01*
X165930000Y-63060000D02*
X165930000Y-62000000D01*
X166990000Y-63060000D02*
X165930000Y-63060000D01*
%TO.C,C22*%
X187870000Y-83450000D02*
X187870000Y-79210000D01*
X201110000Y-83450000D02*
X201110000Y-79210000D01*
X201110000Y-79210000D02*
X187870000Y-79210000D01*
X201110000Y-83450000D02*
X187870000Y-83450000D01*
%TO.C,C21*%
X169870000Y-72710000D02*
X188110000Y-72710000D01*
X169870000Y-77950000D02*
X188110000Y-77950000D01*
X169870000Y-72710000D02*
X169870000Y-77950000D01*
X188110000Y-72710000D02*
X188110000Y-77950000D01*
%TO.C,C20*%
X165370000Y-49200000D02*
X165370000Y-38960000D01*
X168610000Y-49200000D02*
X168610000Y-38960000D01*
X165370000Y-49200000D02*
X168610000Y-49200000D01*
X165370000Y-38960000D02*
X168610000Y-38960000D01*
%TO.C,C19*%
X154430000Y-58700000D02*
X154430000Y-53960000D01*
X161870000Y-58700000D02*
X161870000Y-53960000D01*
X161870000Y-53960000D02*
X154430000Y-53960000D01*
X161870000Y-58700000D02*
X154430000Y-58700000D01*
%TO.C,C18*%
X183110000Y-70450000D02*
X169870000Y-70450000D01*
X183110000Y-66210000D02*
X169870000Y-66210000D01*
X183110000Y-70450000D02*
X183110000Y-66210000D01*
X169870000Y-70450000D02*
X169870000Y-66210000D01*
%TO.C,C17*%
X162610000Y-64450000D02*
X149370000Y-64450000D01*
X162610000Y-60210000D02*
X149370000Y-60210000D01*
X162610000Y-64450000D02*
X162610000Y-60210000D01*
X149370000Y-64450000D02*
X149370000Y-60210000D01*
%TO.C,C16*%
X167610000Y-71450000D02*
X149370000Y-71450000D01*
X167610000Y-66210000D02*
X149370000Y-66210000D01*
X167610000Y-71450000D02*
X167610000Y-66210000D01*
X149370000Y-71450000D02*
X149370000Y-66210000D01*
%TO.C,J4*%
X50550000Y-59330000D02*
X48430000Y-59330000D01*
X50550000Y-59330000D02*
X50550000Y-55270000D01*
X50550000Y-55270000D02*
X48430000Y-55270000D01*
X48430000Y-59330000D02*
X48430000Y-55270000D01*
X48430000Y-61390000D02*
X48430000Y-60330000D01*
X49490000Y-61390000D02*
X48430000Y-61390000D01*
%TO.C,R2*%
X61772936Y-51265000D02*
X62227064Y-51265000D01*
X61772936Y-52735000D02*
X62227064Y-52735000D01*
%TO.C,K4*%
X182770000Y-87560000D02*
X182770000Y-85020000D01*
X178325000Y-85020000D02*
X182135000Y-82480000D01*
X180230000Y-82480000D02*
X180230000Y-83750000D01*
X175150000Y-87560000D02*
X175150000Y-85020000D01*
X175150000Y-85020000D02*
X178325000Y-85020000D01*
X167020000Y-85780000D02*
X168040000Y-84770000D01*
X167530000Y-81210000D02*
X166260000Y-81210000D01*
X167530000Y-84000000D02*
X167530000Y-81210000D01*
X167530000Y-88830000D02*
X167530000Y-86540000D01*
X166260000Y-88830000D02*
X167530000Y-88830000D01*
X167530000Y-86540000D02*
X167020000Y-86540000D01*
X167020000Y-86540000D02*
X167020000Y-84000000D01*
X167020000Y-84000000D02*
X167530000Y-84000000D01*
X167530000Y-84000000D02*
X168040000Y-84000000D01*
X168040000Y-84000000D02*
X168040000Y-86540000D01*
X168040000Y-86540000D02*
X167530000Y-86540000D01*
X163310000Y-90520000D02*
X184450000Y-90520000D01*
X184450000Y-90520000D02*
X184450000Y-79520000D01*
X163310000Y-90520000D02*
X163310000Y-79520000D01*
X163310000Y-79520000D02*
X184450000Y-79520000D01*
X178452000Y-85020000D02*
G75*
G03*
X178452000Y-85020000I-127000J0D01*
G01*
%TO.C,K3*%
X159770000Y-87560000D02*
X159770000Y-85020000D01*
X155325000Y-85020000D02*
X159135000Y-82480000D01*
X157230000Y-82480000D02*
X157230000Y-83750000D01*
X152150000Y-87560000D02*
X152150000Y-85020000D01*
X152150000Y-85020000D02*
X155325000Y-85020000D01*
X144020000Y-85780000D02*
X145040000Y-84770000D01*
X144530000Y-81210000D02*
X143260000Y-81210000D01*
X144530000Y-84000000D02*
X144530000Y-81210000D01*
X144530000Y-88830000D02*
X144530000Y-86540000D01*
X143260000Y-88830000D02*
X144530000Y-88830000D01*
X144530000Y-86540000D02*
X144020000Y-86540000D01*
X144020000Y-86540000D02*
X144020000Y-84000000D01*
X144020000Y-84000000D02*
X144530000Y-84000000D01*
X144530000Y-84000000D02*
X145040000Y-84000000D01*
X145040000Y-84000000D02*
X145040000Y-86540000D01*
X145040000Y-86540000D02*
X144530000Y-86540000D01*
X140310000Y-90520000D02*
X161450000Y-90520000D01*
X161450000Y-90520000D02*
X161450000Y-79520000D01*
X140310000Y-90520000D02*
X140310000Y-79520000D01*
X140310000Y-79520000D02*
X161450000Y-79520000D01*
X155452000Y-85020000D02*
G75*
G03*
X155452000Y-85020000I-127000J0D01*
G01*
%TO.C,J3*%
X187050000Y-61000000D02*
X184930000Y-61000000D01*
X187050000Y-61000000D02*
X187050000Y-56940000D01*
X187050000Y-56940000D02*
X184930000Y-56940000D01*
X184930000Y-61000000D02*
X184930000Y-56940000D01*
X184930000Y-63060000D02*
X184930000Y-62000000D01*
X185990000Y-63060000D02*
X184930000Y-63060000D01*
%TO.C,C15*%
X149370000Y-72710000D02*
X167610000Y-72710000D01*
X149370000Y-77950000D02*
X167610000Y-77950000D01*
X149370000Y-72710000D02*
X149370000Y-77950000D01*
X167610000Y-72710000D02*
X167610000Y-77950000D01*
%TO.C,R20*%
X133280000Y-84152936D02*
X133280000Y-88507064D01*
X136700000Y-84152936D02*
X136700000Y-88507064D01*
%TO.C,R19*%
X127280000Y-84152936D02*
X127280000Y-88507064D01*
X130700000Y-84152936D02*
X130700000Y-88507064D01*
%TO.C,R18*%
X118700000Y-83507064D02*
X118700000Y-79152936D01*
X115280000Y-83507064D02*
X115280000Y-79152936D01*
%TO.C,K2*%
X103770000Y-87560000D02*
X103770000Y-85020000D01*
X99325000Y-85020000D02*
X103135000Y-82480000D01*
X101230000Y-82480000D02*
X101230000Y-83750000D01*
X96150000Y-87560000D02*
X96150000Y-85020000D01*
X96150000Y-85020000D02*
X99325000Y-85020000D01*
X88020000Y-85780000D02*
X89040000Y-84770000D01*
X88530000Y-81210000D02*
X87260000Y-81210000D01*
X88530000Y-84000000D02*
X88530000Y-81210000D01*
X88530000Y-88830000D02*
X88530000Y-86540000D01*
X87260000Y-88830000D02*
X88530000Y-88830000D01*
X88530000Y-86540000D02*
X88020000Y-86540000D01*
X88020000Y-86540000D02*
X88020000Y-84000000D01*
X88020000Y-84000000D02*
X88530000Y-84000000D01*
X88530000Y-84000000D02*
X89040000Y-84000000D01*
X89040000Y-84000000D02*
X89040000Y-86540000D01*
X89040000Y-86540000D02*
X88530000Y-86540000D01*
X84310000Y-90520000D02*
X105450000Y-90520000D01*
X105450000Y-90520000D02*
X105450000Y-79520000D01*
X84310000Y-90520000D02*
X84310000Y-79520000D01*
X84310000Y-79520000D02*
X105450000Y-79520000D01*
X99452000Y-85020000D02*
G75*
G03*
X99452000Y-85020000I-127000J0D01*
G01*
%TO.C,D7*%
X103850000Y-73800000D02*
X103850000Y-70860000D01*
X103610000Y-73800000D02*
X103610000Y-70860000D01*
X103730000Y-73800000D02*
X103730000Y-70860000D01*
X98170000Y-72330000D02*
X99190000Y-72330000D01*
X105650000Y-72330000D02*
X104630000Y-72330000D01*
X99190000Y-73800000D02*
X104630000Y-73800000D01*
X99190000Y-70860000D02*
X99190000Y-73800000D01*
X104630000Y-70860000D02*
X99190000Y-70860000D01*
X104630000Y-73800000D02*
X104630000Y-70860000D01*
%TO.C,D6*%
X115130000Y-71860000D02*
X115130000Y-74800000D01*
X115370000Y-71860000D02*
X115370000Y-74800000D01*
X115250000Y-71860000D02*
X115250000Y-74800000D01*
X120810000Y-73330000D02*
X119790000Y-73330000D01*
X113330000Y-73330000D02*
X114350000Y-73330000D01*
X119790000Y-71860000D02*
X114350000Y-71860000D01*
X119790000Y-74800000D02*
X119790000Y-71860000D01*
X114350000Y-74800000D02*
X119790000Y-74800000D01*
X114350000Y-71860000D02*
X114350000Y-74800000D01*
%TO.C,C14*%
X146620000Y-49380000D02*
X146620000Y-54620000D01*
X128380000Y-49380000D02*
X128380000Y-54620000D01*
X128380000Y-54620000D02*
X146620000Y-54620000D01*
X128380000Y-49380000D02*
X146620000Y-49380000D01*
%TO.C,C13*%
X123610000Y-64210000D02*
X123610000Y-68450000D01*
X110370000Y-64210000D02*
X110370000Y-68450000D01*
X110370000Y-68450000D02*
X123610000Y-68450000D01*
X110370000Y-64210000D02*
X123610000Y-64210000D01*
%TO.C,R17*%
X131290000Y-40822936D02*
X131290000Y-45177064D01*
X134710000Y-40822936D02*
X134710000Y-45177064D01*
%TO.C,R16*%
X145772936Y-57735000D02*
X146227064Y-57735000D01*
X145772936Y-56265000D02*
X146227064Y-56265000D01*
%TO.C,R15*%
X128762936Y-61595000D02*
X129217064Y-61595000D01*
X128762936Y-63065000D02*
X129217064Y-63065000D01*
%TO.C,R13*%
X124700000Y-84152936D02*
X124700000Y-88507064D01*
X121280000Y-84152936D02*
X121280000Y-88507064D01*
%TO.C,R12*%
X116167064Y-90540000D02*
X111812936Y-90540000D01*
X116167064Y-87120000D02*
X111812936Y-87120000D01*
%TO.C,J2*%
X113050000Y-82330000D02*
X110930000Y-82330000D01*
X113050000Y-82330000D02*
X113050000Y-78270000D01*
X113050000Y-78270000D02*
X110930000Y-78270000D01*
X110930000Y-82330000D02*
X110930000Y-78270000D01*
X110930000Y-84390000D02*
X110930000Y-83330000D01*
X111990000Y-84390000D02*
X110930000Y-84390000D01*
%TO.C,D5*%
X119630000Y-41800000D02*
X119630000Y-38860000D01*
X119630000Y-38860000D02*
X114190000Y-38860000D01*
X114190000Y-38860000D02*
X114190000Y-41800000D01*
X114190000Y-41800000D02*
X119630000Y-41800000D01*
X120650000Y-40330000D02*
X119630000Y-40330000D01*
X113170000Y-40330000D02*
X114190000Y-40330000D01*
X118730000Y-41800000D02*
X118730000Y-38860000D01*
X118610000Y-41800000D02*
X118610000Y-38860000D01*
X118850000Y-41800000D02*
X118850000Y-38860000D01*
%TO.C,D4*%
X119630000Y-46800000D02*
X119630000Y-43860000D01*
X119630000Y-43860000D02*
X114190000Y-43860000D01*
X114190000Y-43860000D02*
X114190000Y-46800000D01*
X114190000Y-46800000D02*
X119630000Y-46800000D01*
X120650000Y-45330000D02*
X119630000Y-45330000D01*
X113170000Y-45330000D02*
X114190000Y-45330000D01*
X118730000Y-46800000D02*
X118730000Y-43860000D01*
X118610000Y-46800000D02*
X118610000Y-43860000D01*
X118850000Y-46800000D02*
X118850000Y-43860000D01*
%TO.C,D3*%
X119630000Y-61800000D02*
X119630000Y-58860000D01*
X119630000Y-58860000D02*
X114190000Y-58860000D01*
X114190000Y-58860000D02*
X114190000Y-61800000D01*
X114190000Y-61800000D02*
X119630000Y-61800000D01*
X120650000Y-60330000D02*
X119630000Y-60330000D01*
X113170000Y-60330000D02*
X114190000Y-60330000D01*
X118730000Y-61800000D02*
X118730000Y-58860000D01*
X118610000Y-61800000D02*
X118610000Y-58860000D01*
X118850000Y-61800000D02*
X118850000Y-58860000D01*
%TO.C,D2*%
X114350000Y-53860000D02*
X114350000Y-56800000D01*
X114350000Y-56800000D02*
X119790000Y-56800000D01*
X119790000Y-56800000D02*
X119790000Y-53860000D01*
X119790000Y-53860000D02*
X114350000Y-53860000D01*
X113330000Y-55330000D02*
X114350000Y-55330000D01*
X120810000Y-55330000D02*
X119790000Y-55330000D01*
X115250000Y-53860000D02*
X115250000Y-56800000D01*
X115370000Y-53860000D02*
X115370000Y-56800000D01*
X115130000Y-53860000D02*
X115130000Y-56800000D01*
%TO.C,D1*%
X114350000Y-48860000D02*
X114350000Y-51800000D01*
X114350000Y-51800000D02*
X119790000Y-51800000D01*
X119790000Y-51800000D02*
X119790000Y-48860000D01*
X119790000Y-48860000D02*
X114350000Y-48860000D01*
X113330000Y-50330000D02*
X114350000Y-50330000D01*
X120810000Y-50330000D02*
X119790000Y-50330000D01*
X115250000Y-48860000D02*
X115250000Y-51800000D01*
X115370000Y-48860000D02*
X115370000Y-51800000D01*
X115130000Y-48860000D02*
X115130000Y-51800000D01*
%TO.C,C12*%
X108610000Y-68450000D02*
X95370000Y-68450000D01*
X108610000Y-64210000D02*
X95370000Y-64210000D01*
X108610000Y-68450000D02*
X108610000Y-64210000D01*
X95370000Y-68450000D02*
X95370000Y-64210000D01*
%TO.C,R11*%
X88280000Y-75507064D02*
X88280000Y-71152936D01*
X91700000Y-75507064D02*
X91700000Y-71152936D01*
%TO.C,R10*%
X78167064Y-83040000D02*
X73812936Y-83040000D01*
X78167064Y-79620000D02*
X73812936Y-79620000D01*
%TO.C,K1*%
X98260000Y-58110000D02*
X100800000Y-58110000D01*
X100800000Y-53665000D02*
X103340000Y-57475000D01*
X103340000Y-55570000D02*
X102070000Y-55570000D01*
X98260000Y-50490000D02*
X100800000Y-50490000D01*
X100800000Y-50490000D02*
X100800000Y-53665000D01*
X100040000Y-42360000D02*
X101050000Y-43380000D01*
X104610000Y-42870000D02*
X104610000Y-41600000D01*
X101820000Y-42870000D02*
X104610000Y-42870000D01*
X96990000Y-42870000D02*
X99280000Y-42870000D01*
X96990000Y-41600000D02*
X96990000Y-42870000D01*
X99280000Y-42870000D02*
X99280000Y-42360000D01*
X99280000Y-42360000D02*
X101820000Y-42360000D01*
X101820000Y-42360000D02*
X101820000Y-42870000D01*
X101820000Y-42870000D02*
X101820000Y-43380000D01*
X101820000Y-43380000D02*
X99280000Y-43380000D01*
X99280000Y-43380000D02*
X99280000Y-42870000D01*
X95300000Y-38650000D02*
X95300000Y-59790000D01*
X95300000Y-59790000D02*
X106300000Y-59790000D01*
X95300000Y-38650000D02*
X106300000Y-38650000D01*
X106300000Y-38650000D02*
X106300000Y-59790000D01*
X100927000Y-53665000D02*
G75*
G03*
X100927000Y-53665000I-127000J0D01*
G01*
%TO.C,J1*%
X49490000Y-67270000D02*
X50550000Y-67270000D01*
X50550000Y-67270000D02*
X50550000Y-68330000D01*
X50550000Y-69330000D02*
X50550000Y-73390000D01*
X48430000Y-73390000D02*
X50550000Y-73390000D01*
X48430000Y-69330000D02*
X48430000Y-73390000D01*
X48430000Y-69330000D02*
X50550000Y-69330000D01*
%TO.C,C11*%
X82610000Y-89950000D02*
X69370000Y-89950000D01*
X82610000Y-85710000D02*
X69370000Y-85710000D01*
X82610000Y-89950000D02*
X82610000Y-85710000D01*
X69370000Y-89950000D02*
X69370000Y-85710000D01*
%TO.C,C10*%
X66610000Y-79210000D02*
X66610000Y-90450000D01*
X48370000Y-79210000D02*
X48370000Y-90450000D01*
X48370000Y-90450000D02*
X66610000Y-90450000D01*
X48370000Y-79210000D02*
X66610000Y-79210000D01*
%TO.C,C9*%
X89370000Y-44130000D02*
X92610000Y-44130000D01*
X89370000Y-54370000D02*
X92610000Y-54370000D01*
X92610000Y-54370000D02*
X92610000Y-44130000D01*
X89370000Y-54370000D02*
X89370000Y-44130000D01*
%TO.C,C7*%
X54370000Y-72450000D02*
X54370000Y-68210000D01*
X67610000Y-72450000D02*
X67610000Y-68210000D01*
X67610000Y-68210000D02*
X54370000Y-68210000D01*
X67610000Y-72450000D02*
X54370000Y-72450000D01*
%TO.C,C5*%
X67610000Y-62210000D02*
X67610000Y-66450000D01*
X54370000Y-62210000D02*
X54370000Y-66450000D01*
X54370000Y-66450000D02*
X67610000Y-66450000D01*
X54370000Y-62210000D02*
X67610000Y-62210000D01*
%TO.C,R4*%
X67822936Y-53710000D02*
X72177064Y-53710000D01*
X67822936Y-50290000D02*
X72177064Y-50290000D01*
%TO.C,R1*%
X56139564Y-52735000D02*
X55685436Y-52735000D01*
X56139564Y-51265000D02*
X55685436Y-51265000D01*
%TO.C,C3*%
X68210000Y-60700000D02*
X60770000Y-60700000D01*
X68210000Y-55960000D02*
X60770000Y-55960000D01*
X68210000Y-60700000D02*
X68210000Y-55960000D01*
X60770000Y-60700000D02*
X60770000Y-55960000D01*
%TO.C,C1*%
X59160000Y-59950000D02*
X54320000Y-59950000D01*
X59160000Y-56710000D02*
X54320000Y-56710000D01*
X59160000Y-59950000D02*
X59160000Y-56710000D01*
X54320000Y-59950000D02*
X54320000Y-56710000D01*
%TO.C,R3*%
X90265000Y-59272936D02*
X90265000Y-59727064D01*
X91735000Y-59272936D02*
X91735000Y-59727064D01*
%TO.C,C4*%
X87610000Y-56950000D02*
X76370000Y-56950000D01*
X87610000Y-38710000D02*
X76370000Y-38710000D01*
X76370000Y-38710000D02*
X76370000Y-56950000D01*
X87610000Y-38710000D02*
X87610000Y-56950000D01*
%TO.C,U4*%
D11*
X214342380Y-81091904D02*
X215151904Y-81091904D01*
X215247142Y-81044285D01*
X215294761Y-80996666D01*
X215342380Y-80901428D01*
X215342380Y-80710952D01*
X215294761Y-80615714D01*
X215247142Y-80568095D01*
X215151904Y-80520476D01*
X214342380Y-80520476D01*
X214675714Y-79615714D02*
X215342380Y-79615714D01*
X214294761Y-79853809D02*
X215009047Y-80091904D01*
X215009047Y-79472857D01*
%TO.C,R38*%
X211935142Y-71782380D02*
X211601809Y-71306190D01*
X211363714Y-71782380D02*
X211363714Y-70782380D01*
X211744666Y-70782380D01*
X211839904Y-70830000D01*
X211887523Y-70877619D01*
X211935142Y-70972857D01*
X211935142Y-71115714D01*
X211887523Y-71210952D01*
X211839904Y-71258571D01*
X211744666Y-71306190D01*
X211363714Y-71306190D01*
X212268476Y-70782380D02*
X212887523Y-70782380D01*
X212554190Y-71163333D01*
X212697047Y-71163333D01*
X212792285Y-71210952D01*
X212839904Y-71258571D01*
X212887523Y-71353809D01*
X212887523Y-71591904D01*
X212839904Y-71687142D01*
X212792285Y-71734761D01*
X212697047Y-71782380D01*
X212411333Y-71782380D01*
X212316095Y-71734761D01*
X212268476Y-71687142D01*
X213458952Y-71210952D02*
X213363714Y-71163333D01*
X213316095Y-71115714D01*
X213268476Y-71020476D01*
X213268476Y-70972857D01*
X213316095Y-70877619D01*
X213363714Y-70830000D01*
X213458952Y-70782380D01*
X213649428Y-70782380D01*
X213744666Y-70830000D01*
X213792285Y-70877619D01*
X213839904Y-70972857D01*
X213839904Y-71020476D01*
X213792285Y-71115714D01*
X213744666Y-71163333D01*
X213649428Y-71210952D01*
X213458952Y-71210952D01*
X213363714Y-71258571D01*
X213316095Y-71306190D01*
X213268476Y-71401428D01*
X213268476Y-71591904D01*
X213316095Y-71687142D01*
X213363714Y-71734761D01*
X213458952Y-71782380D01*
X213649428Y-71782380D01*
X213744666Y-71734761D01*
X213792285Y-71687142D01*
X213839904Y-71591904D01*
X213839904Y-71401428D01*
X213792285Y-71306190D01*
X213744666Y-71258571D01*
X213649428Y-71210952D01*
%TO.C,J21*%
X155680476Y-36782380D02*
X155680476Y-37496666D01*
X155632857Y-37639523D01*
X155537619Y-37734761D01*
X155394761Y-37782380D01*
X155299523Y-37782380D01*
X156109047Y-36877619D02*
X156156666Y-36830000D01*
X156251904Y-36782380D01*
X156490000Y-36782380D01*
X156585238Y-36830000D01*
X156632857Y-36877619D01*
X156680476Y-36972857D01*
X156680476Y-37068095D01*
X156632857Y-37210952D01*
X156061428Y-37782380D01*
X156680476Y-37782380D01*
X157632857Y-37782380D02*
X157061428Y-37782380D01*
X157347142Y-37782380D02*
X157347142Y-36782380D01*
X157251904Y-36925238D01*
X157156666Y-37020476D01*
X157061428Y-37068095D01*
%TO.C,J20*%
X231180476Y-88282380D02*
X231180476Y-88996666D01*
X231132857Y-89139523D01*
X231037619Y-89234761D01*
X230894761Y-89282380D01*
X230799523Y-89282380D01*
X231609047Y-88377619D02*
X231656666Y-88330000D01*
X231751904Y-88282380D01*
X231990000Y-88282380D01*
X232085238Y-88330000D01*
X232132857Y-88377619D01*
X232180476Y-88472857D01*
X232180476Y-88568095D01*
X232132857Y-88710952D01*
X231561428Y-89282380D01*
X232180476Y-89282380D01*
X232799523Y-88282380D02*
X232894761Y-88282380D01*
X232990000Y-88330000D01*
X233037619Y-88377619D01*
X233085238Y-88472857D01*
X233132857Y-88663333D01*
X233132857Y-88901428D01*
X233085238Y-89091904D01*
X233037619Y-89187142D01*
X232990000Y-89234761D01*
X232894761Y-89282380D01*
X232799523Y-89282380D01*
X232704285Y-89234761D01*
X232656666Y-89187142D01*
X232609047Y-89091904D01*
X232561428Y-88901428D01*
X232561428Y-88663333D01*
X232609047Y-88472857D01*
X232656666Y-88377619D01*
X232704285Y-88330000D01*
X232799523Y-88282380D01*
%TO.C,J10*%
X64952380Y-50809523D02*
X65666666Y-50809523D01*
X65809523Y-50857142D01*
X65904761Y-50952380D01*
X65952380Y-51095238D01*
X65952380Y-51190476D01*
X65952380Y-49809523D02*
X65952380Y-50380952D01*
X65952380Y-50095238D02*
X64952380Y-50095238D01*
X65095238Y-50190476D01*
X65190476Y-50285714D01*
X65238095Y-50380952D01*
X64952380Y-49190476D02*
X64952380Y-49095238D01*
X65000000Y-49000000D01*
X65047619Y-48952380D01*
X65142857Y-48904761D01*
X65333333Y-48857142D01*
X65571428Y-48857142D01*
X65761904Y-48904761D01*
X65857142Y-48952380D01*
X65904761Y-49000000D01*
X65952380Y-49095238D01*
X65952380Y-49190476D01*
X65904761Y-49285714D01*
X65857142Y-49333333D01*
X65761904Y-49380952D01*
X65571428Y-49428571D01*
X65333333Y-49428571D01*
X65142857Y-49380952D01*
X65047619Y-49333333D01*
X65000000Y-49285714D01*
X64952380Y-49190476D01*
%TO.C,C33*%
X204347142Y-76187142D02*
X204299523Y-76234761D01*
X204156666Y-76282380D01*
X204061428Y-76282380D01*
X203918571Y-76234761D01*
X203823333Y-76139523D01*
X203775714Y-76044285D01*
X203728095Y-75853809D01*
X203728095Y-75710952D01*
X203775714Y-75520476D01*
X203823333Y-75425238D01*
X203918571Y-75330000D01*
X204061428Y-75282380D01*
X204156666Y-75282380D01*
X204299523Y-75330000D01*
X204347142Y-75377619D01*
X204680476Y-75282380D02*
X205299523Y-75282380D01*
X204966190Y-75663333D01*
X205109047Y-75663333D01*
X205204285Y-75710952D01*
X205251904Y-75758571D01*
X205299523Y-75853809D01*
X205299523Y-76091904D01*
X205251904Y-76187142D01*
X205204285Y-76234761D01*
X205109047Y-76282380D01*
X204823333Y-76282380D01*
X204728095Y-76234761D01*
X204680476Y-76187142D01*
X205632857Y-75282380D02*
X206251904Y-75282380D01*
X205918571Y-75663333D01*
X206061428Y-75663333D01*
X206156666Y-75710952D01*
X206204285Y-75758571D01*
X206251904Y-75853809D01*
X206251904Y-76091904D01*
X206204285Y-76187142D01*
X206156666Y-76234761D01*
X206061428Y-76282380D01*
X205775714Y-76282380D01*
X205680476Y-76234761D01*
X205632857Y-76187142D01*
%TO.C,C32*%
X210347142Y-90187142D02*
X210299523Y-90234761D01*
X210156666Y-90282380D01*
X210061428Y-90282380D01*
X209918571Y-90234761D01*
X209823333Y-90139523D01*
X209775714Y-90044285D01*
X209728095Y-89853809D01*
X209728095Y-89710952D01*
X209775714Y-89520476D01*
X209823333Y-89425238D01*
X209918571Y-89330000D01*
X210061428Y-89282380D01*
X210156666Y-89282380D01*
X210299523Y-89330000D01*
X210347142Y-89377619D01*
X210680476Y-89282380D02*
X211299523Y-89282380D01*
X210966190Y-89663333D01*
X211109047Y-89663333D01*
X211204285Y-89710952D01*
X211251904Y-89758571D01*
X211299523Y-89853809D01*
X211299523Y-90091904D01*
X211251904Y-90187142D01*
X211204285Y-90234761D01*
X211109047Y-90282380D01*
X210823333Y-90282380D01*
X210728095Y-90234761D01*
X210680476Y-90187142D01*
X211680476Y-89377619D02*
X211728095Y-89330000D01*
X211823333Y-89282380D01*
X212061428Y-89282380D01*
X212156666Y-89330000D01*
X212204285Y-89377619D01*
X212251904Y-89472857D01*
X212251904Y-89568095D01*
X212204285Y-89710952D01*
X211632857Y-90282380D01*
X212251904Y-90282380D01*
%TO.C,C30*%
X190097142Y-66972857D02*
X190144761Y-67020476D01*
X190192380Y-67163333D01*
X190192380Y-67258571D01*
X190144761Y-67401428D01*
X190049523Y-67496666D01*
X189954285Y-67544285D01*
X189763809Y-67591904D01*
X189620952Y-67591904D01*
X189430476Y-67544285D01*
X189335238Y-67496666D01*
X189240000Y-67401428D01*
X189192380Y-67258571D01*
X189192380Y-67163333D01*
X189240000Y-67020476D01*
X189287619Y-66972857D01*
X189192380Y-66639523D02*
X189192380Y-66020476D01*
X189573333Y-66353809D01*
X189573333Y-66210952D01*
X189620952Y-66115714D01*
X189668571Y-66068095D01*
X189763809Y-66020476D01*
X190001904Y-66020476D01*
X190097142Y-66068095D01*
X190144761Y-66115714D01*
X190192380Y-66210952D01*
X190192380Y-66496666D01*
X190144761Y-66591904D01*
X190097142Y-66639523D01*
X189192380Y-65401428D02*
X189192380Y-65306190D01*
X189240000Y-65210952D01*
X189287619Y-65163333D01*
X189382857Y-65115714D01*
X189573333Y-65068095D01*
X189811428Y-65068095D01*
X190001904Y-65115714D01*
X190097142Y-65163333D01*
X190144761Y-65210952D01*
X190192380Y-65306190D01*
X190192380Y-65401428D01*
X190144761Y-65496666D01*
X190097142Y-65544285D01*
X190001904Y-65591904D01*
X189811428Y-65639523D01*
X189573333Y-65639523D01*
X189382857Y-65591904D01*
X189287619Y-65544285D01*
X189240000Y-65496666D01*
X189192380Y-65401428D01*
%TO.C,C28*%
X196347142Y-91937142D02*
X196299523Y-91984761D01*
X196156666Y-92032380D01*
X196061428Y-92032380D01*
X195918571Y-91984761D01*
X195823333Y-91889523D01*
X195775714Y-91794285D01*
X195728095Y-91603809D01*
X195728095Y-91460952D01*
X195775714Y-91270476D01*
X195823333Y-91175238D01*
X195918571Y-91080000D01*
X196061428Y-91032380D01*
X196156666Y-91032380D01*
X196299523Y-91080000D01*
X196347142Y-91127619D01*
X196728095Y-91127619D02*
X196775714Y-91080000D01*
X196870952Y-91032380D01*
X197109047Y-91032380D01*
X197204285Y-91080000D01*
X197251904Y-91127619D01*
X197299523Y-91222857D01*
X197299523Y-91318095D01*
X197251904Y-91460952D01*
X196680476Y-92032380D01*
X197299523Y-92032380D01*
X197870952Y-91460952D02*
X197775714Y-91413333D01*
X197728095Y-91365714D01*
X197680476Y-91270476D01*
X197680476Y-91222857D01*
X197728095Y-91127619D01*
X197775714Y-91080000D01*
X197870952Y-91032380D01*
X198061428Y-91032380D01*
X198156666Y-91080000D01*
X198204285Y-91127619D01*
X198251904Y-91222857D01*
X198251904Y-91270476D01*
X198204285Y-91365714D01*
X198156666Y-91413333D01*
X198061428Y-91460952D01*
X197870952Y-91460952D01*
X197775714Y-91508571D01*
X197728095Y-91556190D01*
X197680476Y-91651428D01*
X197680476Y-91841904D01*
X197728095Y-91937142D01*
X197775714Y-91984761D01*
X197870952Y-92032380D01*
X198061428Y-92032380D01*
X198156666Y-91984761D01*
X198204285Y-91937142D01*
X198251904Y-91841904D01*
X198251904Y-91651428D01*
X198204285Y-91556190D01*
X198156666Y-91508571D01*
X198061428Y-91460952D01*
%TO.C,C27*%
X185847142Y-48437142D02*
X185799523Y-48484761D01*
X185656666Y-48532380D01*
X185561428Y-48532380D01*
X185418571Y-48484761D01*
X185323333Y-48389523D01*
X185275714Y-48294285D01*
X185228095Y-48103809D01*
X185228095Y-47960952D01*
X185275714Y-47770476D01*
X185323333Y-47675238D01*
X185418571Y-47580000D01*
X185561428Y-47532380D01*
X185656666Y-47532380D01*
X185799523Y-47580000D01*
X185847142Y-47627619D01*
X186228095Y-47627619D02*
X186275714Y-47580000D01*
X186370952Y-47532380D01*
X186609047Y-47532380D01*
X186704285Y-47580000D01*
X186751904Y-47627619D01*
X186799523Y-47722857D01*
X186799523Y-47818095D01*
X186751904Y-47960952D01*
X186180476Y-48532380D01*
X186799523Y-48532380D01*
X187132857Y-47532380D02*
X187799523Y-47532380D01*
X187370952Y-48532380D01*
%TO.C,R36*%
X210847142Y-51782380D02*
X210513809Y-51306190D01*
X210275714Y-51782380D02*
X210275714Y-50782380D01*
X210656666Y-50782380D01*
X210751904Y-50830000D01*
X210799523Y-50877619D01*
X210847142Y-50972857D01*
X210847142Y-51115714D01*
X210799523Y-51210952D01*
X210751904Y-51258571D01*
X210656666Y-51306190D01*
X210275714Y-51306190D01*
X211180476Y-50782380D02*
X211799523Y-50782380D01*
X211466190Y-51163333D01*
X211609047Y-51163333D01*
X211704285Y-51210952D01*
X211751904Y-51258571D01*
X211799523Y-51353809D01*
X211799523Y-51591904D01*
X211751904Y-51687142D01*
X211704285Y-51734761D01*
X211609047Y-51782380D01*
X211323333Y-51782380D01*
X211228095Y-51734761D01*
X211180476Y-51687142D01*
X212656666Y-50782380D02*
X212466190Y-50782380D01*
X212370952Y-50830000D01*
X212323333Y-50877619D01*
X212228095Y-51020476D01*
X212180476Y-51210952D01*
X212180476Y-51591904D01*
X212228095Y-51687142D01*
X212275714Y-51734761D01*
X212370952Y-51782380D01*
X212561428Y-51782380D01*
X212656666Y-51734761D01*
X212704285Y-51687142D01*
X212751904Y-51591904D01*
X212751904Y-51353809D01*
X212704285Y-51258571D01*
X212656666Y-51210952D01*
X212561428Y-51163333D01*
X212370952Y-51163333D01*
X212275714Y-51210952D01*
X212228095Y-51258571D01*
X212180476Y-51353809D01*
%TO.C,C24*%
X203847142Y-41972857D02*
X203894761Y-42020476D01*
X203942380Y-42163333D01*
X203942380Y-42258571D01*
X203894761Y-42401428D01*
X203799523Y-42496666D01*
X203704285Y-42544285D01*
X203513809Y-42591904D01*
X203370952Y-42591904D01*
X203180476Y-42544285D01*
X203085238Y-42496666D01*
X202990000Y-42401428D01*
X202942380Y-42258571D01*
X202942380Y-42163333D01*
X202990000Y-42020476D01*
X203037619Y-41972857D01*
X203037619Y-41591904D02*
X202990000Y-41544285D01*
X202942380Y-41449047D01*
X202942380Y-41210952D01*
X202990000Y-41115714D01*
X203037619Y-41068095D01*
X203132857Y-41020476D01*
X203228095Y-41020476D01*
X203370952Y-41068095D01*
X203942380Y-41639523D01*
X203942380Y-41020476D01*
X203275714Y-40163333D02*
X203942380Y-40163333D01*
X202894761Y-40401428D02*
X203609047Y-40639523D01*
X203609047Y-40020476D01*
%TO.C,C23*%
X192385142Y-45507142D02*
X192337523Y-45554761D01*
X192194666Y-45602380D01*
X192099428Y-45602380D01*
X191956571Y-45554761D01*
X191861333Y-45459523D01*
X191813714Y-45364285D01*
X191766095Y-45173809D01*
X191766095Y-45030952D01*
X191813714Y-44840476D01*
X191861333Y-44745238D01*
X191956571Y-44650000D01*
X192099428Y-44602380D01*
X192194666Y-44602380D01*
X192337523Y-44650000D01*
X192385142Y-44697619D01*
X192766095Y-44697619D02*
X192813714Y-44650000D01*
X192908952Y-44602380D01*
X193147047Y-44602380D01*
X193242285Y-44650000D01*
X193289904Y-44697619D01*
X193337523Y-44792857D01*
X193337523Y-44888095D01*
X193289904Y-45030952D01*
X192718476Y-45602380D01*
X193337523Y-45602380D01*
X193670857Y-44602380D02*
X194289904Y-44602380D01*
X193956571Y-44983333D01*
X194099428Y-44983333D01*
X194194666Y-45030952D01*
X194242285Y-45078571D01*
X194289904Y-45173809D01*
X194289904Y-45411904D01*
X194242285Y-45507142D01*
X194194666Y-45554761D01*
X194099428Y-45602380D01*
X193813714Y-45602380D01*
X193718476Y-45554761D01*
X193670857Y-45507142D01*
%TO.C,J19*%
X229190476Y-33952380D02*
X229190476Y-34666666D01*
X229142857Y-34809523D01*
X229047619Y-34904761D01*
X228904761Y-34952380D01*
X228809523Y-34952380D01*
X230190476Y-34952380D02*
X229619047Y-34952380D01*
X229904761Y-34952380D02*
X229904761Y-33952380D01*
X229809523Y-34095238D01*
X229714285Y-34190476D01*
X229619047Y-34238095D01*
X230666666Y-34952380D02*
X230857142Y-34952380D01*
X230952380Y-34904761D01*
X231000000Y-34857142D01*
X231095238Y-34714285D01*
X231142857Y-34523809D01*
X231142857Y-34142857D01*
X231095238Y-34047619D01*
X231047619Y-34000000D01*
X230952380Y-33952380D01*
X230761904Y-33952380D01*
X230666666Y-34000000D01*
X230619047Y-34047619D01*
X230571428Y-34142857D01*
X230571428Y-34380952D01*
X230619047Y-34476190D01*
X230666666Y-34523809D01*
X230761904Y-34571428D01*
X230952380Y-34571428D01*
X231047619Y-34523809D01*
X231095238Y-34476190D01*
X231142857Y-34380952D01*
%TO.C,J18*%
X229190476Y-95452380D02*
X229190476Y-96166666D01*
X229142857Y-96309523D01*
X229047619Y-96404761D01*
X228904761Y-96452380D01*
X228809523Y-96452380D01*
X230190476Y-96452380D02*
X229619047Y-96452380D01*
X229904761Y-96452380D02*
X229904761Y-95452380D01*
X229809523Y-95595238D01*
X229714285Y-95690476D01*
X229619047Y-95738095D01*
X230761904Y-95880952D02*
X230666666Y-95833333D01*
X230619047Y-95785714D01*
X230571428Y-95690476D01*
X230571428Y-95642857D01*
X230619047Y-95547619D01*
X230666666Y-95500000D01*
X230761904Y-95452380D01*
X230952380Y-95452380D01*
X231047619Y-95500000D01*
X231095238Y-95547619D01*
X231142857Y-95642857D01*
X231142857Y-95690476D01*
X231095238Y-95785714D01*
X231047619Y-95833333D01*
X230952380Y-95880952D01*
X230761904Y-95880952D01*
X230666666Y-95928571D01*
X230619047Y-95976190D01*
X230571428Y-96071428D01*
X230571428Y-96261904D01*
X230619047Y-96357142D01*
X230666666Y-96404761D01*
X230761904Y-96452380D01*
X230952380Y-96452380D01*
X231047619Y-96404761D01*
X231095238Y-96357142D01*
X231142857Y-96261904D01*
X231142857Y-96071428D01*
X231095238Y-95976190D01*
X231047619Y-95928571D01*
X230952380Y-95880952D01*
%TO.C,J17*%
X50190476Y-94452380D02*
X50190476Y-95166666D01*
X50142857Y-95309523D01*
X50047619Y-95404761D01*
X49904761Y-95452380D01*
X49809523Y-95452380D01*
X51190476Y-95452380D02*
X50619047Y-95452380D01*
X50904761Y-95452380D02*
X50904761Y-94452380D01*
X50809523Y-94595238D01*
X50714285Y-94690476D01*
X50619047Y-94738095D01*
X51523809Y-94452380D02*
X52190476Y-94452380D01*
X51761904Y-95452380D01*
%TO.C,J16*%
X50190476Y-33952380D02*
X50190476Y-34666666D01*
X50142857Y-34809523D01*
X50047619Y-34904761D01*
X49904761Y-34952380D01*
X49809523Y-34952380D01*
X51190476Y-34952380D02*
X50619047Y-34952380D01*
X50904761Y-34952380D02*
X50904761Y-33952380D01*
X50809523Y-34095238D01*
X50714285Y-34190476D01*
X50619047Y-34238095D01*
X52047619Y-33952380D02*
X51857142Y-33952380D01*
X51761904Y-34000000D01*
X51714285Y-34047619D01*
X51619047Y-34190476D01*
X51571428Y-34380952D01*
X51571428Y-34761904D01*
X51619047Y-34857142D01*
X51666666Y-34904761D01*
X51761904Y-34952380D01*
X51952380Y-34952380D01*
X52047619Y-34904761D01*
X52095238Y-34857142D01*
X52142857Y-34761904D01*
X52142857Y-34523809D01*
X52095238Y-34428571D01*
X52047619Y-34380952D01*
X51952380Y-34333333D01*
X51761904Y-34333333D01*
X51666666Y-34380952D01*
X51619047Y-34428571D01*
X51571428Y-34523809D01*
%TO.C,U3*%
X193228095Y-37282380D02*
X193228095Y-38091904D01*
X193275714Y-38187142D01*
X193323333Y-38234761D01*
X193418571Y-38282380D01*
X193609047Y-38282380D01*
X193704285Y-38234761D01*
X193751904Y-38187142D01*
X193799523Y-38091904D01*
X193799523Y-37282380D01*
X194180476Y-37282380D02*
X194799523Y-37282380D01*
X194466190Y-37663333D01*
X194609047Y-37663333D01*
X194704285Y-37710952D01*
X194751904Y-37758571D01*
X194799523Y-37853809D01*
X194799523Y-38091904D01*
X194751904Y-38187142D01*
X194704285Y-38234761D01*
X194609047Y-38282380D01*
X194323333Y-38282380D01*
X194228095Y-38234761D01*
X194180476Y-38187142D01*
%TO.C,R34*%
X210847142Y-67282380D02*
X210513809Y-66806190D01*
X210275714Y-67282380D02*
X210275714Y-66282380D01*
X210656666Y-66282380D01*
X210751904Y-66330000D01*
X210799523Y-66377619D01*
X210847142Y-66472857D01*
X210847142Y-66615714D01*
X210799523Y-66710952D01*
X210751904Y-66758571D01*
X210656666Y-66806190D01*
X210275714Y-66806190D01*
X211180476Y-66282380D02*
X211799523Y-66282380D01*
X211466190Y-66663333D01*
X211609047Y-66663333D01*
X211704285Y-66710952D01*
X211751904Y-66758571D01*
X211799523Y-66853809D01*
X211799523Y-67091904D01*
X211751904Y-67187142D01*
X211704285Y-67234761D01*
X211609047Y-67282380D01*
X211323333Y-67282380D01*
X211228095Y-67234761D01*
X211180476Y-67187142D01*
X212656666Y-66615714D02*
X212656666Y-67282380D01*
X212418571Y-66234761D02*
X212180476Y-66949047D01*
X212799523Y-66949047D01*
%TO.C,R33*%
X210847142Y-62782380D02*
X210513809Y-62306190D01*
X210275714Y-62782380D02*
X210275714Y-61782380D01*
X210656666Y-61782380D01*
X210751904Y-61830000D01*
X210799523Y-61877619D01*
X210847142Y-61972857D01*
X210847142Y-62115714D01*
X210799523Y-62210952D01*
X210751904Y-62258571D01*
X210656666Y-62306190D01*
X210275714Y-62306190D01*
X211180476Y-61782380D02*
X211799523Y-61782380D01*
X211466190Y-62163333D01*
X211609047Y-62163333D01*
X211704285Y-62210952D01*
X211751904Y-62258571D01*
X211799523Y-62353809D01*
X211799523Y-62591904D01*
X211751904Y-62687142D01*
X211704285Y-62734761D01*
X211609047Y-62782380D01*
X211323333Y-62782380D01*
X211228095Y-62734761D01*
X211180476Y-62687142D01*
X212132857Y-61782380D02*
X212751904Y-61782380D01*
X212418571Y-62163333D01*
X212561428Y-62163333D01*
X212656666Y-62210952D01*
X212704285Y-62258571D01*
X212751904Y-62353809D01*
X212751904Y-62591904D01*
X212704285Y-62687142D01*
X212656666Y-62734761D01*
X212561428Y-62782380D01*
X212275714Y-62782380D01*
X212180476Y-62734761D01*
X212132857Y-62687142D01*
%TO.C,R32*%
X210847142Y-58282380D02*
X210513809Y-57806190D01*
X210275714Y-58282380D02*
X210275714Y-57282380D01*
X210656666Y-57282380D01*
X210751904Y-57330000D01*
X210799523Y-57377619D01*
X210847142Y-57472857D01*
X210847142Y-57615714D01*
X210799523Y-57710952D01*
X210751904Y-57758571D01*
X210656666Y-57806190D01*
X210275714Y-57806190D01*
X211180476Y-57282380D02*
X211799523Y-57282380D01*
X211466190Y-57663333D01*
X211609047Y-57663333D01*
X211704285Y-57710952D01*
X211751904Y-57758571D01*
X211799523Y-57853809D01*
X211799523Y-58091904D01*
X211751904Y-58187142D01*
X211704285Y-58234761D01*
X211609047Y-58282380D01*
X211323333Y-58282380D01*
X211228095Y-58234761D01*
X211180476Y-58187142D01*
X212180476Y-57377619D02*
X212228095Y-57330000D01*
X212323333Y-57282380D01*
X212561428Y-57282380D01*
X212656666Y-57330000D01*
X212704285Y-57377619D01*
X212751904Y-57472857D01*
X212751904Y-57568095D01*
X212704285Y-57710952D01*
X212132857Y-58282380D01*
X212751904Y-58282380D01*
%TO.C,R31*%
X202347142Y-49902380D02*
X202013809Y-49426190D01*
X201775714Y-49902380D02*
X201775714Y-48902380D01*
X202156666Y-48902380D01*
X202251904Y-48950000D01*
X202299523Y-48997619D01*
X202347142Y-49092857D01*
X202347142Y-49235714D01*
X202299523Y-49330952D01*
X202251904Y-49378571D01*
X202156666Y-49426190D01*
X201775714Y-49426190D01*
X202680476Y-48902380D02*
X203299523Y-48902380D01*
X202966190Y-49283333D01*
X203109047Y-49283333D01*
X203204285Y-49330952D01*
X203251904Y-49378571D01*
X203299523Y-49473809D01*
X203299523Y-49711904D01*
X203251904Y-49807142D01*
X203204285Y-49854761D01*
X203109047Y-49902380D01*
X202823333Y-49902380D01*
X202728095Y-49854761D01*
X202680476Y-49807142D01*
X204251904Y-49902380D02*
X203680476Y-49902380D01*
X203966190Y-49902380D02*
X203966190Y-48902380D01*
X203870952Y-49045238D01*
X203775714Y-49140476D01*
X203680476Y-49188095D01*
%TO.C,J15*%
X210680476Y-37782380D02*
X210680476Y-38496666D01*
X210632857Y-38639523D01*
X210537619Y-38734761D01*
X210394761Y-38782380D01*
X210299523Y-38782380D01*
X211680476Y-38782380D02*
X211109047Y-38782380D01*
X211394761Y-38782380D02*
X211394761Y-37782380D01*
X211299523Y-37925238D01*
X211204285Y-38020476D01*
X211109047Y-38068095D01*
X212585238Y-37782380D02*
X212109047Y-37782380D01*
X212061428Y-38258571D01*
X212109047Y-38210952D01*
X212204285Y-38163333D01*
X212442380Y-38163333D01*
X212537619Y-38210952D01*
X212585238Y-38258571D01*
X212632857Y-38353809D01*
X212632857Y-38591904D01*
X212585238Y-38687142D01*
X212537619Y-38734761D01*
X212442380Y-38782380D01*
X212204285Y-38782380D01*
X212109047Y-38734761D01*
X212061428Y-38687142D01*
%TO.C,J14*%
X185180476Y-37282380D02*
X185180476Y-37996666D01*
X185132857Y-38139523D01*
X185037619Y-38234761D01*
X184894761Y-38282380D01*
X184799523Y-38282380D01*
X186180476Y-38282380D02*
X185609047Y-38282380D01*
X185894761Y-38282380D02*
X185894761Y-37282380D01*
X185799523Y-37425238D01*
X185704285Y-37520476D01*
X185609047Y-37568095D01*
X187037619Y-37615714D02*
X187037619Y-38282380D01*
X186799523Y-37234761D02*
X186561428Y-37949047D01*
X187180476Y-37949047D01*
%TO.C,J13*%
X231180476Y-70782380D02*
X231180476Y-71496666D01*
X231132857Y-71639523D01*
X231037619Y-71734761D01*
X230894761Y-71782380D01*
X230799523Y-71782380D01*
X232180476Y-71782380D02*
X231609047Y-71782380D01*
X231894761Y-71782380D02*
X231894761Y-70782380D01*
X231799523Y-70925238D01*
X231704285Y-71020476D01*
X231609047Y-71068095D01*
X232513809Y-70782380D02*
X233132857Y-70782380D01*
X232799523Y-71163333D01*
X232942380Y-71163333D01*
X233037619Y-71210952D01*
X233085238Y-71258571D01*
X233132857Y-71353809D01*
X233132857Y-71591904D01*
X233085238Y-71687142D01*
X233037619Y-71734761D01*
X232942380Y-71782380D01*
X232656666Y-71782380D01*
X232561428Y-71734761D01*
X232513809Y-71687142D01*
%TO.C,J12*%
X231180476Y-45782380D02*
X231180476Y-46496666D01*
X231132857Y-46639523D01*
X231037619Y-46734761D01*
X230894761Y-46782380D01*
X230799523Y-46782380D01*
X232180476Y-46782380D02*
X231609047Y-46782380D01*
X231894761Y-46782380D02*
X231894761Y-45782380D01*
X231799523Y-45925238D01*
X231704285Y-46020476D01*
X231609047Y-46068095D01*
X232561428Y-45877619D02*
X232609047Y-45830000D01*
X232704285Y-45782380D01*
X232942380Y-45782380D01*
X233037619Y-45830000D01*
X233085238Y-45877619D01*
X233132857Y-45972857D01*
X233132857Y-46068095D01*
X233085238Y-46210952D01*
X232513809Y-46782380D01*
X233132857Y-46782380D01*
%TO.C,J11*%
X231180476Y-59282380D02*
X231180476Y-59996666D01*
X231132857Y-60139523D01*
X231037619Y-60234761D01*
X230894761Y-60282380D01*
X230799523Y-60282380D01*
X232180476Y-60282380D02*
X231609047Y-60282380D01*
X231894761Y-60282380D02*
X231894761Y-59282380D01*
X231799523Y-59425238D01*
X231704285Y-59520476D01*
X231609047Y-59568095D01*
X233132857Y-60282380D02*
X232561428Y-60282380D01*
X232847142Y-60282380D02*
X232847142Y-59282380D01*
X232751904Y-59425238D01*
X232656666Y-59520476D01*
X232561428Y-59568095D01*
%TO.C,R24*%
X138452380Y-43642857D02*
X137976190Y-43976190D01*
X138452380Y-44214285D02*
X137452380Y-44214285D01*
X137452380Y-43833333D01*
X137500000Y-43738095D01*
X137547619Y-43690476D01*
X137642857Y-43642857D01*
X137785714Y-43642857D01*
X137880952Y-43690476D01*
X137928571Y-43738095D01*
X137976190Y-43833333D01*
X137976190Y-44214285D01*
X137547619Y-43261904D02*
X137500000Y-43214285D01*
X137452380Y-43119047D01*
X137452380Y-42880952D01*
X137500000Y-42785714D01*
X137547619Y-42738095D01*
X137642857Y-42690476D01*
X137738095Y-42690476D01*
X137880952Y-42738095D01*
X138452380Y-43309523D01*
X138452380Y-42690476D01*
X137785714Y-41833333D02*
X138452380Y-41833333D01*
X137404761Y-42071428D02*
X138119047Y-42309523D01*
X138119047Y-41690476D01*
%TO.C,R23*%
X137592380Y-78972857D02*
X137116190Y-79306190D01*
X137592380Y-79544285D02*
X136592380Y-79544285D01*
X136592380Y-79163333D01*
X136640000Y-79068095D01*
X136687619Y-79020476D01*
X136782857Y-78972857D01*
X136925714Y-78972857D01*
X137020952Y-79020476D01*
X137068571Y-79068095D01*
X137116190Y-79163333D01*
X137116190Y-79544285D01*
X136687619Y-78591904D02*
X136640000Y-78544285D01*
X136592380Y-78449047D01*
X136592380Y-78210952D01*
X136640000Y-78115714D01*
X136687619Y-78068095D01*
X136782857Y-78020476D01*
X136878095Y-78020476D01*
X137020952Y-78068095D01*
X137592380Y-78639523D01*
X137592380Y-78020476D01*
X136592380Y-77687142D02*
X136592380Y-77068095D01*
X136973333Y-77401428D01*
X136973333Y-77258571D01*
X137020952Y-77163333D01*
X137068571Y-77115714D01*
X137163809Y-77068095D01*
X137401904Y-77068095D01*
X137497142Y-77115714D01*
X137544761Y-77163333D01*
X137592380Y-77258571D01*
X137592380Y-77544285D01*
X137544761Y-77639523D01*
X137497142Y-77687142D01*
%TO.C,J9*%
X179156666Y-37282380D02*
X179156666Y-37996666D01*
X179109047Y-38139523D01*
X179013809Y-38234761D01*
X178870952Y-38282380D01*
X178775714Y-38282380D01*
X179680476Y-38282380D02*
X179870952Y-38282380D01*
X179966190Y-38234761D01*
X180013809Y-38187142D01*
X180109047Y-38044285D01*
X180156666Y-37853809D01*
X180156666Y-37472857D01*
X180109047Y-37377619D01*
X180061428Y-37330000D01*
X179966190Y-37282380D01*
X179775714Y-37282380D01*
X179680476Y-37330000D01*
X179632857Y-37377619D01*
X179585238Y-37472857D01*
X179585238Y-37710952D01*
X179632857Y-37806190D01*
X179680476Y-37853809D01*
X179775714Y-37901428D01*
X179966190Y-37901428D01*
X180061428Y-37853809D01*
X180109047Y-37806190D01*
X180156666Y-37710952D01*
%TO.C,J8*%
X182166666Y-56952380D02*
X182166666Y-57666666D01*
X182119047Y-57809523D01*
X182023809Y-57904761D01*
X181880952Y-57952380D01*
X181785714Y-57952380D01*
X182785714Y-57380952D02*
X182690476Y-57333333D01*
X182642857Y-57285714D01*
X182595238Y-57190476D01*
X182595238Y-57142857D01*
X182642857Y-57047619D01*
X182690476Y-57000000D01*
X182785714Y-56952380D01*
X182976190Y-56952380D01*
X183071428Y-57000000D01*
X183119047Y-57047619D01*
X183166666Y-57142857D01*
X183166666Y-57190476D01*
X183119047Y-57285714D01*
X183071428Y-57333333D01*
X182976190Y-57380952D01*
X182785714Y-57380952D01*
X182690476Y-57428571D01*
X182642857Y-57476190D01*
X182595238Y-57571428D01*
X182595238Y-57761904D01*
X182642857Y-57857142D01*
X182690476Y-57904761D01*
X182785714Y-57952380D01*
X182976190Y-57952380D01*
X183071428Y-57904761D01*
X183119047Y-57857142D01*
X183166666Y-57761904D01*
X183166666Y-57571428D01*
X183119047Y-57476190D01*
X183071428Y-57428571D01*
X182976190Y-57380952D01*
%TO.C,J7*%
X173156666Y-37282380D02*
X173156666Y-37996666D01*
X173109047Y-38139523D01*
X173013809Y-38234761D01*
X172870952Y-38282380D01*
X172775714Y-38282380D01*
X173537619Y-37282380D02*
X174204285Y-37282380D01*
X173775714Y-38282380D01*
%TO.C,J6*%
X175166666Y-56952380D02*
X175166666Y-57666666D01*
X175119047Y-57809523D01*
X175023809Y-57904761D01*
X174880952Y-57952380D01*
X174785714Y-57952380D01*
X176071428Y-56952380D02*
X175880952Y-56952380D01*
X175785714Y-57000000D01*
X175738095Y-57047619D01*
X175642857Y-57190476D01*
X175595238Y-57380952D01*
X175595238Y-57761904D01*
X175642857Y-57857142D01*
X175690476Y-57904761D01*
X175785714Y-57952380D01*
X175976190Y-57952380D01*
X176071428Y-57904761D01*
X176119047Y-57857142D01*
X176166666Y-57761904D01*
X176166666Y-57523809D01*
X176119047Y-57428571D01*
X176071428Y-57380952D01*
X175976190Y-57333333D01*
X175785714Y-57333333D01*
X175690476Y-57380952D01*
X175642857Y-57428571D01*
X175595238Y-57523809D01*
%TO.C,J5*%
X169156666Y-61452380D02*
X169156666Y-62166666D01*
X169109047Y-62309523D01*
X169013809Y-62404761D01*
X168870952Y-62452380D01*
X168775714Y-62452380D01*
X170109047Y-61452380D02*
X169632857Y-61452380D01*
X169585238Y-61928571D01*
X169632857Y-61880952D01*
X169728095Y-61833333D01*
X169966190Y-61833333D01*
X170061428Y-61880952D01*
X170109047Y-61928571D01*
X170156666Y-62023809D01*
X170156666Y-62261904D01*
X170109047Y-62357142D01*
X170061428Y-62404761D01*
X169966190Y-62452380D01*
X169728095Y-62452380D01*
X169632857Y-62404761D01*
X169585238Y-62357142D01*
%TO.C,C22*%
X193847142Y-78187142D02*
X193799523Y-78234761D01*
X193656666Y-78282380D01*
X193561428Y-78282380D01*
X193418571Y-78234761D01*
X193323333Y-78139523D01*
X193275714Y-78044285D01*
X193228095Y-77853809D01*
X193228095Y-77710952D01*
X193275714Y-77520476D01*
X193323333Y-77425238D01*
X193418571Y-77330000D01*
X193561428Y-77282380D01*
X193656666Y-77282380D01*
X193799523Y-77330000D01*
X193847142Y-77377619D01*
X194228095Y-77377619D02*
X194275714Y-77330000D01*
X194370952Y-77282380D01*
X194609047Y-77282380D01*
X194704285Y-77330000D01*
X194751904Y-77377619D01*
X194799523Y-77472857D01*
X194799523Y-77568095D01*
X194751904Y-77710952D01*
X194180476Y-78282380D01*
X194799523Y-78282380D01*
X195180476Y-77377619D02*
X195228095Y-77330000D01*
X195323333Y-77282380D01*
X195561428Y-77282380D01*
X195656666Y-77330000D01*
X195704285Y-77377619D01*
X195751904Y-77472857D01*
X195751904Y-77568095D01*
X195704285Y-77710952D01*
X195132857Y-78282380D01*
X195751904Y-78282380D01*
%TO.C,C21*%
X185847142Y-71937142D02*
X185799523Y-71984761D01*
X185656666Y-72032380D01*
X185561428Y-72032380D01*
X185418571Y-71984761D01*
X185323333Y-71889523D01*
X185275714Y-71794285D01*
X185228095Y-71603809D01*
X185228095Y-71460952D01*
X185275714Y-71270476D01*
X185323333Y-71175238D01*
X185418571Y-71080000D01*
X185561428Y-71032380D01*
X185656666Y-71032380D01*
X185799523Y-71080000D01*
X185847142Y-71127619D01*
X186228095Y-71127619D02*
X186275714Y-71080000D01*
X186370952Y-71032380D01*
X186609047Y-71032380D01*
X186704285Y-71080000D01*
X186751904Y-71127619D01*
X186799523Y-71222857D01*
X186799523Y-71318095D01*
X186751904Y-71460952D01*
X186180476Y-72032380D01*
X186799523Y-72032380D01*
X187751904Y-72032380D02*
X187180476Y-72032380D01*
X187466190Y-72032380D02*
X187466190Y-71032380D01*
X187370952Y-71175238D01*
X187275714Y-71270476D01*
X187180476Y-71318095D01*
%TO.C,C20*%
X164597142Y-44722857D02*
X164644761Y-44770476D01*
X164692380Y-44913333D01*
X164692380Y-45008571D01*
X164644761Y-45151428D01*
X164549523Y-45246666D01*
X164454285Y-45294285D01*
X164263809Y-45341904D01*
X164120952Y-45341904D01*
X163930476Y-45294285D01*
X163835238Y-45246666D01*
X163740000Y-45151428D01*
X163692380Y-45008571D01*
X163692380Y-44913333D01*
X163740000Y-44770476D01*
X163787619Y-44722857D01*
X163787619Y-44341904D02*
X163740000Y-44294285D01*
X163692380Y-44199047D01*
X163692380Y-43960952D01*
X163740000Y-43865714D01*
X163787619Y-43818095D01*
X163882857Y-43770476D01*
X163978095Y-43770476D01*
X164120952Y-43818095D01*
X164692380Y-44389523D01*
X164692380Y-43770476D01*
X163692380Y-43151428D02*
X163692380Y-43056190D01*
X163740000Y-42960952D01*
X163787619Y-42913333D01*
X163882857Y-42865714D01*
X164073333Y-42818095D01*
X164311428Y-42818095D01*
X164501904Y-42865714D01*
X164597142Y-42913333D01*
X164644761Y-42960952D01*
X164692380Y-43056190D01*
X164692380Y-43151428D01*
X164644761Y-43246666D01*
X164597142Y-43294285D01*
X164501904Y-43341904D01*
X164311428Y-43389523D01*
X164073333Y-43389523D01*
X163882857Y-43341904D01*
X163787619Y-43294285D01*
X163740000Y-43246666D01*
X163692380Y-43151428D01*
%TO.C,C19*%
X163007142Y-55187142D02*
X162959523Y-55234761D01*
X162816666Y-55282380D01*
X162721428Y-55282380D01*
X162578571Y-55234761D01*
X162483333Y-55139523D01*
X162435714Y-55044285D01*
X162388095Y-54853809D01*
X162388095Y-54710952D01*
X162435714Y-54520476D01*
X162483333Y-54425238D01*
X162578571Y-54330000D01*
X162721428Y-54282380D01*
X162816666Y-54282380D01*
X162959523Y-54330000D01*
X163007142Y-54377619D01*
X163959523Y-55282380D02*
X163388095Y-55282380D01*
X163673809Y-55282380D02*
X163673809Y-54282380D01*
X163578571Y-54425238D01*
X163483333Y-54520476D01*
X163388095Y-54568095D01*
X164435714Y-55282380D02*
X164626190Y-55282380D01*
X164721428Y-55234761D01*
X164769047Y-55187142D01*
X164864285Y-55044285D01*
X164911904Y-54853809D01*
X164911904Y-54472857D01*
X164864285Y-54377619D01*
X164816666Y-54330000D01*
X164721428Y-54282380D01*
X164530952Y-54282380D01*
X164435714Y-54330000D01*
X164388095Y-54377619D01*
X164340476Y-54472857D01*
X164340476Y-54710952D01*
X164388095Y-54806190D01*
X164435714Y-54853809D01*
X164530952Y-54901428D01*
X164721428Y-54901428D01*
X164816666Y-54853809D01*
X164864285Y-54806190D01*
X164911904Y-54710952D01*
%TO.C,C18*%
X184347142Y-67187142D02*
X184299523Y-67234761D01*
X184156666Y-67282380D01*
X184061428Y-67282380D01*
X183918571Y-67234761D01*
X183823333Y-67139523D01*
X183775714Y-67044285D01*
X183728095Y-66853809D01*
X183728095Y-66710952D01*
X183775714Y-66520476D01*
X183823333Y-66425238D01*
X183918571Y-66330000D01*
X184061428Y-66282380D01*
X184156666Y-66282380D01*
X184299523Y-66330000D01*
X184347142Y-66377619D01*
X185299523Y-67282380D02*
X184728095Y-67282380D01*
X185013809Y-67282380D02*
X185013809Y-66282380D01*
X184918571Y-66425238D01*
X184823333Y-66520476D01*
X184728095Y-66568095D01*
X185870952Y-66710952D02*
X185775714Y-66663333D01*
X185728095Y-66615714D01*
X185680476Y-66520476D01*
X185680476Y-66472857D01*
X185728095Y-66377619D01*
X185775714Y-66330000D01*
X185870952Y-66282380D01*
X186061428Y-66282380D01*
X186156666Y-66330000D01*
X186204285Y-66377619D01*
X186251904Y-66472857D01*
X186251904Y-66520476D01*
X186204285Y-66615714D01*
X186156666Y-66663333D01*
X186061428Y-66710952D01*
X185870952Y-66710952D01*
X185775714Y-66758571D01*
X185728095Y-66806190D01*
X185680476Y-66901428D01*
X185680476Y-67091904D01*
X185728095Y-67187142D01*
X185775714Y-67234761D01*
X185870952Y-67282380D01*
X186061428Y-67282380D01*
X186156666Y-67234761D01*
X186204285Y-67187142D01*
X186251904Y-67091904D01*
X186251904Y-66901428D01*
X186204285Y-66806190D01*
X186156666Y-66758571D01*
X186061428Y-66710952D01*
%TO.C,C17*%
X160847142Y-59187142D02*
X160799523Y-59234761D01*
X160656666Y-59282380D01*
X160561428Y-59282380D01*
X160418571Y-59234761D01*
X160323333Y-59139523D01*
X160275714Y-59044285D01*
X160228095Y-58853809D01*
X160228095Y-58710952D01*
X160275714Y-58520476D01*
X160323333Y-58425238D01*
X160418571Y-58330000D01*
X160561428Y-58282380D01*
X160656666Y-58282380D01*
X160799523Y-58330000D01*
X160847142Y-58377619D01*
X161799523Y-59282380D02*
X161228095Y-59282380D01*
X161513809Y-59282380D02*
X161513809Y-58282380D01*
X161418571Y-58425238D01*
X161323333Y-58520476D01*
X161228095Y-58568095D01*
X162132857Y-58282380D02*
X162799523Y-58282380D01*
X162370952Y-59282380D01*
%TO.C,C16*%
X163847142Y-65687142D02*
X163799523Y-65734761D01*
X163656666Y-65782380D01*
X163561428Y-65782380D01*
X163418571Y-65734761D01*
X163323333Y-65639523D01*
X163275714Y-65544285D01*
X163228095Y-65353809D01*
X163228095Y-65210952D01*
X163275714Y-65020476D01*
X163323333Y-64925238D01*
X163418571Y-64830000D01*
X163561428Y-64782380D01*
X163656666Y-64782380D01*
X163799523Y-64830000D01*
X163847142Y-64877619D01*
X164799523Y-65782380D02*
X164228095Y-65782380D01*
X164513809Y-65782380D02*
X164513809Y-64782380D01*
X164418571Y-64925238D01*
X164323333Y-65020476D01*
X164228095Y-65068095D01*
X165656666Y-64782380D02*
X165466190Y-64782380D01*
X165370952Y-64830000D01*
X165323333Y-64877619D01*
X165228095Y-65020476D01*
X165180476Y-65210952D01*
X165180476Y-65591904D01*
X165228095Y-65687142D01*
X165275714Y-65734761D01*
X165370952Y-65782380D01*
X165561428Y-65782380D01*
X165656666Y-65734761D01*
X165704285Y-65687142D01*
X165751904Y-65591904D01*
X165751904Y-65353809D01*
X165704285Y-65258571D01*
X165656666Y-65210952D01*
X165561428Y-65163333D01*
X165370952Y-65163333D01*
X165275714Y-65210952D01*
X165228095Y-65258571D01*
X165180476Y-65353809D01*
%TO.C,J4*%
X46156666Y-59782380D02*
X46156666Y-60496666D01*
X46109047Y-60639523D01*
X46013809Y-60734761D01*
X45870952Y-60782380D01*
X45775714Y-60782380D01*
X47061428Y-60115714D02*
X47061428Y-60782380D01*
X46823333Y-59734761D02*
X46585238Y-60449047D01*
X47204285Y-60449047D01*
%TO.C,R2*%
X58745833Y-51952380D02*
X58412500Y-51476190D01*
X58174404Y-51952380D02*
X58174404Y-50952380D01*
X58555357Y-50952380D01*
X58650595Y-51000000D01*
X58698214Y-51047619D01*
X58745833Y-51142857D01*
X58745833Y-51285714D01*
X58698214Y-51380952D01*
X58650595Y-51428571D01*
X58555357Y-51476190D01*
X58174404Y-51476190D01*
X59126785Y-51047619D02*
X59174404Y-51000000D01*
X59269642Y-50952380D01*
X59507738Y-50952380D01*
X59602976Y-51000000D01*
X59650595Y-51047619D01*
X59698214Y-51142857D01*
X59698214Y-51238095D01*
X59650595Y-51380952D01*
X59079166Y-51952380D01*
X59698214Y-51952380D01*
%TO.C,K4*%
X173751904Y-92282380D02*
X173751904Y-91282380D01*
X174323333Y-92282380D02*
X173894761Y-91710952D01*
X174323333Y-91282380D02*
X173751904Y-91853809D01*
X175180476Y-91615714D02*
X175180476Y-92282380D01*
X174942380Y-91234761D02*
X174704285Y-91949047D01*
X175323333Y-91949047D01*
%TO.C,K3*%
X151251904Y-92282380D02*
X151251904Y-91282380D01*
X151823333Y-92282380D02*
X151394761Y-91710952D01*
X151823333Y-91282380D02*
X151251904Y-91853809D01*
X152156666Y-91282380D02*
X152775714Y-91282380D01*
X152442380Y-91663333D01*
X152585238Y-91663333D01*
X152680476Y-91710952D01*
X152728095Y-91758571D01*
X152775714Y-91853809D01*
X152775714Y-92091904D01*
X152728095Y-92187142D01*
X152680476Y-92234761D01*
X152585238Y-92282380D01*
X152299523Y-92282380D01*
X152204285Y-92234761D01*
X152156666Y-92187142D01*
%TO.C,J3*%
X188156666Y-61452380D02*
X188156666Y-62166666D01*
X188109047Y-62309523D01*
X188013809Y-62404761D01*
X187870952Y-62452380D01*
X187775714Y-62452380D01*
X188537619Y-61452380D02*
X189156666Y-61452380D01*
X188823333Y-61833333D01*
X188966190Y-61833333D01*
X189061428Y-61880952D01*
X189109047Y-61928571D01*
X189156666Y-62023809D01*
X189156666Y-62261904D01*
X189109047Y-62357142D01*
X189061428Y-62404761D01*
X188966190Y-62452380D01*
X188680476Y-62452380D01*
X188585238Y-62404761D01*
X188537619Y-62357142D01*
%TO.C,C15*%
X146847142Y-77687142D02*
X146799523Y-77734761D01*
X146656666Y-77782380D01*
X146561428Y-77782380D01*
X146418571Y-77734761D01*
X146323333Y-77639523D01*
X146275714Y-77544285D01*
X146228095Y-77353809D01*
X146228095Y-77210952D01*
X146275714Y-77020476D01*
X146323333Y-76925238D01*
X146418571Y-76830000D01*
X146561428Y-76782380D01*
X146656666Y-76782380D01*
X146799523Y-76830000D01*
X146847142Y-76877619D01*
X147799523Y-77782380D02*
X147228095Y-77782380D01*
X147513809Y-77782380D02*
X147513809Y-76782380D01*
X147418571Y-76925238D01*
X147323333Y-77020476D01*
X147228095Y-77068095D01*
X148704285Y-76782380D02*
X148228095Y-76782380D01*
X148180476Y-77258571D01*
X148228095Y-77210952D01*
X148323333Y-77163333D01*
X148561428Y-77163333D01*
X148656666Y-77210952D01*
X148704285Y-77258571D01*
X148751904Y-77353809D01*
X148751904Y-77591904D01*
X148704285Y-77687142D01*
X148656666Y-77734761D01*
X148561428Y-77782380D01*
X148323333Y-77782380D01*
X148228095Y-77734761D01*
X148180476Y-77687142D01*
%TO.C,R20*%
X134847142Y-92282380D02*
X134513809Y-91806190D01*
X134275714Y-92282380D02*
X134275714Y-91282380D01*
X134656666Y-91282380D01*
X134751904Y-91330000D01*
X134799523Y-91377619D01*
X134847142Y-91472857D01*
X134847142Y-91615714D01*
X134799523Y-91710952D01*
X134751904Y-91758571D01*
X134656666Y-91806190D01*
X134275714Y-91806190D01*
X135228095Y-91377619D02*
X135275714Y-91330000D01*
X135370952Y-91282380D01*
X135609047Y-91282380D01*
X135704285Y-91330000D01*
X135751904Y-91377619D01*
X135799523Y-91472857D01*
X135799523Y-91568095D01*
X135751904Y-91710952D01*
X135180476Y-92282380D01*
X135799523Y-92282380D01*
X136418571Y-91282380D02*
X136513809Y-91282380D01*
X136609047Y-91330000D01*
X136656666Y-91377619D01*
X136704285Y-91472857D01*
X136751904Y-91663333D01*
X136751904Y-91901428D01*
X136704285Y-92091904D01*
X136656666Y-92187142D01*
X136609047Y-92234761D01*
X136513809Y-92282380D01*
X136418571Y-92282380D01*
X136323333Y-92234761D01*
X136275714Y-92187142D01*
X136228095Y-92091904D01*
X136180476Y-91901428D01*
X136180476Y-91663333D01*
X136228095Y-91472857D01*
X136275714Y-91377619D01*
X136323333Y-91330000D01*
X136418571Y-91282380D01*
%TO.C,R19*%
X128847142Y-92282380D02*
X128513809Y-91806190D01*
X128275714Y-92282380D02*
X128275714Y-91282380D01*
X128656666Y-91282380D01*
X128751904Y-91330000D01*
X128799523Y-91377619D01*
X128847142Y-91472857D01*
X128847142Y-91615714D01*
X128799523Y-91710952D01*
X128751904Y-91758571D01*
X128656666Y-91806190D01*
X128275714Y-91806190D01*
X129799523Y-92282380D02*
X129228095Y-92282380D01*
X129513809Y-92282380D02*
X129513809Y-91282380D01*
X129418571Y-91425238D01*
X129323333Y-91520476D01*
X129228095Y-91568095D01*
X130275714Y-92282380D02*
X130466190Y-92282380D01*
X130561428Y-92234761D01*
X130609047Y-92187142D01*
X130704285Y-92044285D01*
X130751904Y-91853809D01*
X130751904Y-91472857D01*
X130704285Y-91377619D01*
X130656666Y-91330000D01*
X130561428Y-91282380D01*
X130370952Y-91282380D01*
X130275714Y-91330000D01*
X130228095Y-91377619D01*
X130180476Y-91472857D01*
X130180476Y-91710952D01*
X130228095Y-91806190D01*
X130275714Y-91853809D01*
X130370952Y-91901428D01*
X130561428Y-91901428D01*
X130656666Y-91853809D01*
X130704285Y-91806190D01*
X130751904Y-91710952D01*
%TO.C,R18*%
X120347142Y-78282380D02*
X120013809Y-77806190D01*
X119775714Y-78282380D02*
X119775714Y-77282380D01*
X120156666Y-77282380D01*
X120251904Y-77330000D01*
X120299523Y-77377619D01*
X120347142Y-77472857D01*
X120347142Y-77615714D01*
X120299523Y-77710952D01*
X120251904Y-77758571D01*
X120156666Y-77806190D01*
X119775714Y-77806190D01*
X121299523Y-78282380D02*
X120728095Y-78282380D01*
X121013809Y-78282380D02*
X121013809Y-77282380D01*
X120918571Y-77425238D01*
X120823333Y-77520476D01*
X120728095Y-77568095D01*
X121870952Y-77710952D02*
X121775714Y-77663333D01*
X121728095Y-77615714D01*
X121680476Y-77520476D01*
X121680476Y-77472857D01*
X121728095Y-77377619D01*
X121775714Y-77330000D01*
X121870952Y-77282380D01*
X122061428Y-77282380D01*
X122156666Y-77330000D01*
X122204285Y-77377619D01*
X122251904Y-77472857D01*
X122251904Y-77520476D01*
X122204285Y-77615714D01*
X122156666Y-77663333D01*
X122061428Y-77710952D01*
X121870952Y-77710952D01*
X121775714Y-77758571D01*
X121728095Y-77806190D01*
X121680476Y-77901428D01*
X121680476Y-78091904D01*
X121728095Y-78187142D01*
X121775714Y-78234761D01*
X121870952Y-78282380D01*
X122061428Y-78282380D01*
X122156666Y-78234761D01*
X122204285Y-78187142D01*
X122251904Y-78091904D01*
X122251904Y-77901428D01*
X122204285Y-77806190D01*
X122156666Y-77758571D01*
X122061428Y-77710952D01*
%TO.C,K2*%
X93751904Y-92782380D02*
X93751904Y-91782380D01*
X94323333Y-92782380D02*
X93894761Y-92210952D01*
X94323333Y-91782380D02*
X93751904Y-92353809D01*
X94704285Y-91877619D02*
X94751904Y-91830000D01*
X94847142Y-91782380D01*
X95085238Y-91782380D01*
X95180476Y-91830000D01*
X95228095Y-91877619D01*
X95275714Y-91972857D01*
X95275714Y-92068095D01*
X95228095Y-92210952D01*
X94656666Y-92782380D01*
X95275714Y-92782380D01*
%TO.C,D7*%
X100751904Y-75782380D02*
X100751904Y-74782380D01*
X100990000Y-74782380D01*
X101132857Y-74830000D01*
X101228095Y-74925238D01*
X101275714Y-75020476D01*
X101323333Y-75210952D01*
X101323333Y-75353809D01*
X101275714Y-75544285D01*
X101228095Y-75639523D01*
X101132857Y-75734761D01*
X100990000Y-75782380D01*
X100751904Y-75782380D01*
X101656666Y-74782380D02*
X102323333Y-74782380D01*
X101894761Y-75782380D01*
X106728095Y-74882380D02*
X106728095Y-73882380D01*
X107299523Y-74882380D02*
X106870952Y-74310952D01*
X107299523Y-73882380D02*
X106728095Y-74453809D01*
%TO.C,D6*%
X124251904Y-74782380D02*
X124251904Y-73782380D01*
X124490000Y-73782380D01*
X124632857Y-73830000D01*
X124728095Y-73925238D01*
X124775714Y-74020476D01*
X124823333Y-74210952D01*
X124823333Y-74353809D01*
X124775714Y-74544285D01*
X124728095Y-74639523D01*
X124632857Y-74734761D01*
X124490000Y-74782380D01*
X124251904Y-74782380D01*
X125680476Y-73782380D02*
X125490000Y-73782380D01*
X125394761Y-73830000D01*
X125347142Y-73877619D01*
X125251904Y-74020476D01*
X125204285Y-74210952D01*
X125204285Y-74591904D01*
X125251904Y-74687142D01*
X125299523Y-74734761D01*
X125394761Y-74782380D01*
X125585238Y-74782380D01*
X125680476Y-74734761D01*
X125728095Y-74687142D01*
X125775714Y-74591904D01*
X125775714Y-74353809D01*
X125728095Y-74258571D01*
X125680476Y-74210952D01*
X125585238Y-74163333D01*
X125394761Y-74163333D01*
X125299523Y-74210952D01*
X125251904Y-74258571D01*
X125204285Y-74353809D01*
X111728095Y-71682380D02*
X111728095Y-70682380D01*
X112299523Y-71682380D02*
X111870952Y-71110952D01*
X112299523Y-70682380D02*
X111728095Y-71253809D01*
%TO.C,C14*%
X136857142Y-48607142D02*
X136809523Y-48654761D01*
X136666666Y-48702380D01*
X136571428Y-48702380D01*
X136428571Y-48654761D01*
X136333333Y-48559523D01*
X136285714Y-48464285D01*
X136238095Y-48273809D01*
X136238095Y-48130952D01*
X136285714Y-47940476D01*
X136333333Y-47845238D01*
X136428571Y-47750000D01*
X136571428Y-47702380D01*
X136666666Y-47702380D01*
X136809523Y-47750000D01*
X136857142Y-47797619D01*
X137809523Y-48702380D02*
X137238095Y-48702380D01*
X137523809Y-48702380D02*
X137523809Y-47702380D01*
X137428571Y-47845238D01*
X137333333Y-47940476D01*
X137238095Y-47988095D01*
X138666666Y-48035714D02*
X138666666Y-48702380D01*
X138428571Y-47654761D02*
X138190476Y-48369047D01*
X138809523Y-48369047D01*
%TO.C,C13*%
X124847142Y-68187142D02*
X124799523Y-68234761D01*
X124656666Y-68282380D01*
X124561428Y-68282380D01*
X124418571Y-68234761D01*
X124323333Y-68139523D01*
X124275714Y-68044285D01*
X124228095Y-67853809D01*
X124228095Y-67710952D01*
X124275714Y-67520476D01*
X124323333Y-67425238D01*
X124418571Y-67330000D01*
X124561428Y-67282380D01*
X124656666Y-67282380D01*
X124799523Y-67330000D01*
X124847142Y-67377619D01*
X125799523Y-68282380D02*
X125228095Y-68282380D01*
X125513809Y-68282380D02*
X125513809Y-67282380D01*
X125418571Y-67425238D01*
X125323333Y-67520476D01*
X125228095Y-67568095D01*
X126132857Y-67282380D02*
X126751904Y-67282380D01*
X126418571Y-67663333D01*
X126561428Y-67663333D01*
X126656666Y-67710952D01*
X126704285Y-67758571D01*
X126751904Y-67853809D01*
X126751904Y-68091904D01*
X126704285Y-68187142D01*
X126656666Y-68234761D01*
X126561428Y-68282380D01*
X126275714Y-68282380D01*
X126180476Y-68234761D01*
X126132857Y-68187142D01*
%TO.C,R17*%
X136072380Y-43642857D02*
X135596190Y-43976190D01*
X136072380Y-44214285D02*
X135072380Y-44214285D01*
X135072380Y-43833333D01*
X135120000Y-43738095D01*
X135167619Y-43690476D01*
X135262857Y-43642857D01*
X135405714Y-43642857D01*
X135500952Y-43690476D01*
X135548571Y-43738095D01*
X135596190Y-43833333D01*
X135596190Y-44214285D01*
X136072380Y-42690476D02*
X136072380Y-43261904D01*
X136072380Y-42976190D02*
X135072380Y-42976190D01*
X135215238Y-43071428D01*
X135310476Y-43166666D01*
X135358095Y-43261904D01*
X135072380Y-42357142D02*
X135072380Y-41690476D01*
X136072380Y-42119047D01*
%TO.C,R16*%
X145357142Y-55452380D02*
X145023809Y-54976190D01*
X144785714Y-55452380D02*
X144785714Y-54452380D01*
X145166666Y-54452380D01*
X145261904Y-54500000D01*
X145309523Y-54547619D01*
X145357142Y-54642857D01*
X145357142Y-54785714D01*
X145309523Y-54880952D01*
X145261904Y-54928571D01*
X145166666Y-54976190D01*
X144785714Y-54976190D01*
X146309523Y-55452380D02*
X145738095Y-55452380D01*
X146023809Y-55452380D02*
X146023809Y-54452380D01*
X145928571Y-54595238D01*
X145833333Y-54690476D01*
X145738095Y-54738095D01*
X147166666Y-54452380D02*
X146976190Y-54452380D01*
X146880952Y-54500000D01*
X146833333Y-54547619D01*
X146738095Y-54690476D01*
X146690476Y-54880952D01*
X146690476Y-55261904D01*
X146738095Y-55357142D01*
X146785714Y-55404761D01*
X146880952Y-55452380D01*
X147071428Y-55452380D01*
X147166666Y-55404761D01*
X147214285Y-55357142D01*
X147261904Y-55261904D01*
X147261904Y-55023809D01*
X147214285Y-54928571D01*
X147166666Y-54880952D01*
X147071428Y-54833333D01*
X146880952Y-54833333D01*
X146785714Y-54880952D01*
X146738095Y-54928571D01*
X146690476Y-55023809D01*
%TO.C,R15*%
X132347142Y-62782380D02*
X132013809Y-62306190D01*
X131775714Y-62782380D02*
X131775714Y-61782380D01*
X132156666Y-61782380D01*
X132251904Y-61830000D01*
X132299523Y-61877619D01*
X132347142Y-61972857D01*
X132347142Y-62115714D01*
X132299523Y-62210952D01*
X132251904Y-62258571D01*
X132156666Y-62306190D01*
X131775714Y-62306190D01*
X133299523Y-62782380D02*
X132728095Y-62782380D01*
X133013809Y-62782380D02*
X133013809Y-61782380D01*
X132918571Y-61925238D01*
X132823333Y-62020476D01*
X132728095Y-62068095D01*
X134204285Y-61782380D02*
X133728095Y-61782380D01*
X133680476Y-62258571D01*
X133728095Y-62210952D01*
X133823333Y-62163333D01*
X134061428Y-62163333D01*
X134156666Y-62210952D01*
X134204285Y-62258571D01*
X134251904Y-62353809D01*
X134251904Y-62591904D01*
X134204285Y-62687142D01*
X134156666Y-62734761D01*
X134061428Y-62782380D01*
X133823333Y-62782380D01*
X133728095Y-62734761D01*
X133680476Y-62687142D01*
%TO.C,R13*%
X122347142Y-92282380D02*
X122013809Y-91806190D01*
X121775714Y-92282380D02*
X121775714Y-91282380D01*
X122156666Y-91282380D01*
X122251904Y-91330000D01*
X122299523Y-91377619D01*
X122347142Y-91472857D01*
X122347142Y-91615714D01*
X122299523Y-91710952D01*
X122251904Y-91758571D01*
X122156666Y-91806190D01*
X121775714Y-91806190D01*
X123299523Y-92282380D02*
X122728095Y-92282380D01*
X123013809Y-92282380D02*
X123013809Y-91282380D01*
X122918571Y-91425238D01*
X122823333Y-91520476D01*
X122728095Y-91568095D01*
X123632857Y-91282380D02*
X124251904Y-91282380D01*
X123918571Y-91663333D01*
X124061428Y-91663333D01*
X124156666Y-91710952D01*
X124204285Y-91758571D01*
X124251904Y-91853809D01*
X124251904Y-92091904D01*
X124204285Y-92187142D01*
X124156666Y-92234761D01*
X124061428Y-92282380D01*
X123775714Y-92282380D01*
X123680476Y-92234761D01*
X123632857Y-92187142D01*
%TO.C,R12*%
X111347142Y-92782380D02*
X111013809Y-92306190D01*
X110775714Y-92782380D02*
X110775714Y-91782380D01*
X111156666Y-91782380D01*
X111251904Y-91830000D01*
X111299523Y-91877619D01*
X111347142Y-91972857D01*
X111347142Y-92115714D01*
X111299523Y-92210952D01*
X111251904Y-92258571D01*
X111156666Y-92306190D01*
X110775714Y-92306190D01*
X112299523Y-92782380D02*
X111728095Y-92782380D01*
X112013809Y-92782380D02*
X112013809Y-91782380D01*
X111918571Y-91925238D01*
X111823333Y-92020476D01*
X111728095Y-92068095D01*
X112680476Y-91877619D02*
X112728095Y-91830000D01*
X112823333Y-91782380D01*
X113061428Y-91782380D01*
X113156666Y-91830000D01*
X113204285Y-91877619D01*
X113251904Y-91972857D01*
X113251904Y-92068095D01*
X113204285Y-92210952D01*
X112632857Y-92782380D01*
X113251904Y-92782380D01*
%TO.C,J2*%
X108656666Y-83282380D02*
X108656666Y-83996666D01*
X108609047Y-84139523D01*
X108513809Y-84234761D01*
X108370952Y-84282380D01*
X108275714Y-84282380D01*
X109085238Y-83377619D02*
X109132857Y-83330000D01*
X109228095Y-83282380D01*
X109466190Y-83282380D01*
X109561428Y-83330000D01*
X109609047Y-83377619D01*
X109656666Y-83472857D01*
X109656666Y-83568095D01*
X109609047Y-83710952D01*
X109037619Y-84282380D01*
X109656666Y-84282380D01*
%TO.C,D5*%
X124251904Y-40782380D02*
X124251904Y-39782380D01*
X124490000Y-39782380D01*
X124632857Y-39830000D01*
X124728095Y-39925238D01*
X124775714Y-40020476D01*
X124823333Y-40210952D01*
X124823333Y-40353809D01*
X124775714Y-40544285D01*
X124728095Y-40639523D01*
X124632857Y-40734761D01*
X124490000Y-40782380D01*
X124251904Y-40782380D01*
X125728095Y-39782380D02*
X125251904Y-39782380D01*
X125204285Y-40258571D01*
X125251904Y-40210952D01*
X125347142Y-40163333D01*
X125585238Y-40163333D01*
X125680476Y-40210952D01*
X125728095Y-40258571D01*
X125775714Y-40353809D01*
X125775714Y-40591904D01*
X125728095Y-40687142D01*
X125680476Y-40734761D01*
X125585238Y-40782380D01*
X125347142Y-40782380D01*
X125251904Y-40734761D01*
X125204285Y-40687142D01*
X121728095Y-42882380D02*
X121728095Y-41882380D01*
X122299523Y-42882380D02*
X121870952Y-42310952D01*
X122299523Y-41882380D02*
X121728095Y-42453809D01*
%TO.C,D4*%
X124251904Y-45282380D02*
X124251904Y-44282380D01*
X124490000Y-44282380D01*
X124632857Y-44330000D01*
X124728095Y-44425238D01*
X124775714Y-44520476D01*
X124823333Y-44710952D01*
X124823333Y-44853809D01*
X124775714Y-45044285D01*
X124728095Y-45139523D01*
X124632857Y-45234761D01*
X124490000Y-45282380D01*
X124251904Y-45282380D01*
X125680476Y-44615714D02*
X125680476Y-45282380D01*
X125442380Y-44234761D02*
X125204285Y-44949047D01*
X125823333Y-44949047D01*
X121728095Y-47882380D02*
X121728095Y-46882380D01*
X122299523Y-47882380D02*
X121870952Y-47310952D01*
X122299523Y-46882380D02*
X121728095Y-47453809D01*
%TO.C,D3*%
X124251904Y-60282380D02*
X124251904Y-59282380D01*
X124490000Y-59282380D01*
X124632857Y-59330000D01*
X124728095Y-59425238D01*
X124775714Y-59520476D01*
X124823333Y-59710952D01*
X124823333Y-59853809D01*
X124775714Y-60044285D01*
X124728095Y-60139523D01*
X124632857Y-60234761D01*
X124490000Y-60282380D01*
X124251904Y-60282380D01*
X125156666Y-59282380D02*
X125775714Y-59282380D01*
X125442380Y-59663333D01*
X125585238Y-59663333D01*
X125680476Y-59710952D01*
X125728095Y-59758571D01*
X125775714Y-59853809D01*
X125775714Y-60091904D01*
X125728095Y-60187142D01*
X125680476Y-60234761D01*
X125585238Y-60282380D01*
X125299523Y-60282380D01*
X125204285Y-60234761D01*
X125156666Y-60187142D01*
X121728095Y-62882380D02*
X121728095Y-61882380D01*
X122299523Y-62882380D02*
X121870952Y-62310952D01*
X122299523Y-61882380D02*
X121728095Y-62453809D01*
%TO.C,D2*%
X124251904Y-55782380D02*
X124251904Y-54782380D01*
X124490000Y-54782380D01*
X124632857Y-54830000D01*
X124728095Y-54925238D01*
X124775714Y-55020476D01*
X124823333Y-55210952D01*
X124823333Y-55353809D01*
X124775714Y-55544285D01*
X124728095Y-55639523D01*
X124632857Y-55734761D01*
X124490000Y-55782380D01*
X124251904Y-55782380D01*
X125204285Y-54877619D02*
X125251904Y-54830000D01*
X125347142Y-54782380D01*
X125585238Y-54782380D01*
X125680476Y-54830000D01*
X125728095Y-54877619D01*
X125775714Y-54972857D01*
X125775714Y-55068095D01*
X125728095Y-55210952D01*
X125156666Y-55782380D01*
X125775714Y-55782380D01*
X111728095Y-53682380D02*
X111728095Y-52682380D01*
X112299523Y-53682380D02*
X111870952Y-53110952D01*
X112299523Y-52682380D02*
X111728095Y-53253809D01*
%TO.C,D1*%
X124251904Y-50782380D02*
X124251904Y-49782380D01*
X124490000Y-49782380D01*
X124632857Y-49830000D01*
X124728095Y-49925238D01*
X124775714Y-50020476D01*
X124823333Y-50210952D01*
X124823333Y-50353809D01*
X124775714Y-50544285D01*
X124728095Y-50639523D01*
X124632857Y-50734761D01*
X124490000Y-50782380D01*
X124251904Y-50782380D01*
X125775714Y-50782380D02*
X125204285Y-50782380D01*
X125490000Y-50782380D02*
X125490000Y-49782380D01*
X125394761Y-49925238D01*
X125299523Y-50020476D01*
X125204285Y-50068095D01*
X111728095Y-48682380D02*
X111728095Y-47682380D01*
X112299523Y-48682380D02*
X111870952Y-48110952D01*
X112299523Y-47682380D02*
X111728095Y-48253809D01*
%TO.C,C12*%
X106347142Y-63187142D02*
X106299523Y-63234761D01*
X106156666Y-63282380D01*
X106061428Y-63282380D01*
X105918571Y-63234761D01*
X105823333Y-63139523D01*
X105775714Y-63044285D01*
X105728095Y-62853809D01*
X105728095Y-62710952D01*
X105775714Y-62520476D01*
X105823333Y-62425238D01*
X105918571Y-62330000D01*
X106061428Y-62282380D01*
X106156666Y-62282380D01*
X106299523Y-62330000D01*
X106347142Y-62377619D01*
X107299523Y-63282380D02*
X106728095Y-63282380D01*
X107013809Y-63282380D02*
X107013809Y-62282380D01*
X106918571Y-62425238D01*
X106823333Y-62520476D01*
X106728095Y-62568095D01*
X107680476Y-62377619D02*
X107728095Y-62330000D01*
X107823333Y-62282380D01*
X108061428Y-62282380D01*
X108156666Y-62330000D01*
X108204285Y-62377619D01*
X108251904Y-62472857D01*
X108251904Y-62568095D01*
X108204285Y-62710952D01*
X107632857Y-63282380D01*
X108251904Y-63282380D01*
%TO.C,R11*%
X87822380Y-73972857D02*
X87346190Y-74306190D01*
X87822380Y-74544285D02*
X86822380Y-74544285D01*
X86822380Y-74163333D01*
X86870000Y-74068095D01*
X86917619Y-74020476D01*
X87012857Y-73972857D01*
X87155714Y-73972857D01*
X87250952Y-74020476D01*
X87298571Y-74068095D01*
X87346190Y-74163333D01*
X87346190Y-74544285D01*
X87822380Y-73020476D02*
X87822380Y-73591904D01*
X87822380Y-73306190D02*
X86822380Y-73306190D01*
X86965238Y-73401428D01*
X87060476Y-73496666D01*
X87108095Y-73591904D01*
X87822380Y-72068095D02*
X87822380Y-72639523D01*
X87822380Y-72353809D02*
X86822380Y-72353809D01*
X86965238Y-72449047D01*
X87060476Y-72544285D01*
X87108095Y-72639523D01*
%TO.C,R10*%
X77847142Y-78782380D02*
X77513809Y-78306190D01*
X77275714Y-78782380D02*
X77275714Y-77782380D01*
X77656666Y-77782380D01*
X77751904Y-77830000D01*
X77799523Y-77877619D01*
X77847142Y-77972857D01*
X77847142Y-78115714D01*
X77799523Y-78210952D01*
X77751904Y-78258571D01*
X77656666Y-78306190D01*
X77275714Y-78306190D01*
X78799523Y-78782380D02*
X78228095Y-78782380D01*
X78513809Y-78782380D02*
X78513809Y-77782380D01*
X78418571Y-77925238D01*
X78323333Y-78020476D01*
X78228095Y-78068095D01*
X79418571Y-77782380D02*
X79513809Y-77782380D01*
X79609047Y-77830000D01*
X79656666Y-77877619D01*
X79704285Y-77972857D01*
X79751904Y-78163333D01*
X79751904Y-78401428D01*
X79704285Y-78591904D01*
X79656666Y-78687142D01*
X79609047Y-78734761D01*
X79513809Y-78782380D01*
X79418571Y-78782380D01*
X79323333Y-78734761D01*
X79275714Y-78687142D01*
X79228095Y-78591904D01*
X79180476Y-78401428D01*
X79180476Y-78163333D01*
X79228095Y-77972857D01*
X79275714Y-77877619D01*
X79323333Y-77830000D01*
X79418571Y-77782380D01*
%TO.C,K1*%
X107942380Y-50568095D02*
X106942380Y-50568095D01*
X107942380Y-49996666D02*
X107370952Y-50425238D01*
X106942380Y-49996666D02*
X107513809Y-50568095D01*
X107942380Y-49044285D02*
X107942380Y-49615714D01*
X107942380Y-49330000D02*
X106942380Y-49330000D01*
X107085238Y-49425238D01*
X107180476Y-49520476D01*
X107228095Y-49615714D01*
%TO.C,J1*%
X46156666Y-67782380D02*
X46156666Y-68496666D01*
X46109047Y-68639523D01*
X46013809Y-68734761D01*
X45870952Y-68782380D01*
X45775714Y-68782380D01*
X47156666Y-68782380D02*
X46585238Y-68782380D01*
X46870952Y-68782380D02*
X46870952Y-67782380D01*
X46775714Y-67925238D01*
X46680476Y-68020476D01*
X46585238Y-68068095D01*
%TO.C,C11*%
X75347142Y-91437142D02*
X75299523Y-91484761D01*
X75156666Y-91532380D01*
X75061428Y-91532380D01*
X74918571Y-91484761D01*
X74823333Y-91389523D01*
X74775714Y-91294285D01*
X74728095Y-91103809D01*
X74728095Y-90960952D01*
X74775714Y-90770476D01*
X74823333Y-90675238D01*
X74918571Y-90580000D01*
X75061428Y-90532380D01*
X75156666Y-90532380D01*
X75299523Y-90580000D01*
X75347142Y-90627619D01*
X76299523Y-91532380D02*
X75728095Y-91532380D01*
X76013809Y-91532380D02*
X76013809Y-90532380D01*
X75918571Y-90675238D01*
X75823333Y-90770476D01*
X75728095Y-90818095D01*
X77251904Y-91532380D02*
X76680476Y-91532380D01*
X76966190Y-91532380D02*
X76966190Y-90532380D01*
X76870952Y-90675238D01*
X76775714Y-90770476D01*
X76680476Y-90818095D01*
%TO.C,C10*%
X56847142Y-78437142D02*
X56799523Y-78484761D01*
X56656666Y-78532380D01*
X56561428Y-78532380D01*
X56418571Y-78484761D01*
X56323333Y-78389523D01*
X56275714Y-78294285D01*
X56228095Y-78103809D01*
X56228095Y-77960952D01*
X56275714Y-77770476D01*
X56323333Y-77675238D01*
X56418571Y-77580000D01*
X56561428Y-77532380D01*
X56656666Y-77532380D01*
X56799523Y-77580000D01*
X56847142Y-77627619D01*
X57799523Y-78532380D02*
X57228095Y-78532380D01*
X57513809Y-78532380D02*
X57513809Y-77532380D01*
X57418571Y-77675238D01*
X57323333Y-77770476D01*
X57228095Y-77818095D01*
X58418571Y-77532380D02*
X58513809Y-77532380D01*
X58609047Y-77580000D01*
X58656666Y-77627619D01*
X58704285Y-77722857D01*
X58751904Y-77913333D01*
X58751904Y-78151428D01*
X58704285Y-78341904D01*
X58656666Y-78437142D01*
X58609047Y-78484761D01*
X58513809Y-78532380D01*
X58418571Y-78532380D01*
X58323333Y-78484761D01*
X58275714Y-78437142D01*
X58228095Y-78341904D01*
X58180476Y-78151428D01*
X58180476Y-77913333D01*
X58228095Y-77722857D01*
X58275714Y-77627619D01*
X58323333Y-77580000D01*
X58418571Y-77532380D01*
%TO.C,C9*%
X90823333Y-56357142D02*
X90775714Y-56404761D01*
X90632857Y-56452380D01*
X90537619Y-56452380D01*
X90394761Y-56404761D01*
X90299523Y-56309523D01*
X90251904Y-56214285D01*
X90204285Y-56023809D01*
X90204285Y-55880952D01*
X90251904Y-55690476D01*
X90299523Y-55595238D01*
X90394761Y-55500000D01*
X90537619Y-55452380D01*
X90632857Y-55452380D01*
X90775714Y-55500000D01*
X90823333Y-55547619D01*
X91299523Y-56452380D02*
X91490000Y-56452380D01*
X91585238Y-56404761D01*
X91632857Y-56357142D01*
X91728095Y-56214285D01*
X91775714Y-56023809D01*
X91775714Y-55642857D01*
X91728095Y-55547619D01*
X91680476Y-55500000D01*
X91585238Y-55452380D01*
X91394761Y-55452380D01*
X91299523Y-55500000D01*
X91251904Y-55547619D01*
X91204285Y-55642857D01*
X91204285Y-55880952D01*
X91251904Y-55976190D01*
X91299523Y-56023809D01*
X91394761Y-56071428D01*
X91585238Y-56071428D01*
X91680476Y-56023809D01*
X91728095Y-55976190D01*
X91775714Y-55880952D01*
%TO.C,C7*%
X69323333Y-69687142D02*
X69275714Y-69734761D01*
X69132857Y-69782380D01*
X69037619Y-69782380D01*
X68894761Y-69734761D01*
X68799523Y-69639523D01*
X68751904Y-69544285D01*
X68704285Y-69353809D01*
X68704285Y-69210952D01*
X68751904Y-69020476D01*
X68799523Y-68925238D01*
X68894761Y-68830000D01*
X69037619Y-68782380D01*
X69132857Y-68782380D01*
X69275714Y-68830000D01*
X69323333Y-68877619D01*
X69656666Y-68782380D02*
X70323333Y-68782380D01*
X69894761Y-69782380D01*
%TO.C,C5*%
X69323333Y-63187142D02*
X69275714Y-63234761D01*
X69132857Y-63282380D01*
X69037619Y-63282380D01*
X68894761Y-63234761D01*
X68799523Y-63139523D01*
X68751904Y-63044285D01*
X68704285Y-62853809D01*
X68704285Y-62710952D01*
X68751904Y-62520476D01*
X68799523Y-62425238D01*
X68894761Y-62330000D01*
X69037619Y-62282380D01*
X69132857Y-62282380D01*
X69275714Y-62330000D01*
X69323333Y-62377619D01*
X70228095Y-62282380D02*
X69751904Y-62282380D01*
X69704285Y-62758571D01*
X69751904Y-62710952D01*
X69847142Y-62663333D01*
X70085238Y-62663333D01*
X70180476Y-62710952D01*
X70228095Y-62758571D01*
X70275714Y-62853809D01*
X70275714Y-63091904D01*
X70228095Y-63187142D01*
X70180476Y-63234761D01*
X70085238Y-63282380D01*
X69847142Y-63282380D01*
X69751904Y-63234761D01*
X69704285Y-63187142D01*
%TO.C,R4*%
X67333333Y-55452380D02*
X67000000Y-54976190D01*
X66761904Y-55452380D02*
X66761904Y-54452380D01*
X67142857Y-54452380D01*
X67238095Y-54500000D01*
X67285714Y-54547619D01*
X67333333Y-54642857D01*
X67333333Y-54785714D01*
X67285714Y-54880952D01*
X67238095Y-54928571D01*
X67142857Y-54976190D01*
X66761904Y-54976190D01*
X68190476Y-54785714D02*
X68190476Y-55452380D01*
X67952380Y-54404761D02*
X67714285Y-55119047D01*
X68333333Y-55119047D01*
%TO.C,R1*%
X55745833Y-54452380D02*
X55412500Y-53976190D01*
X55174404Y-54452380D02*
X55174404Y-53452380D01*
X55555357Y-53452380D01*
X55650595Y-53500000D01*
X55698214Y-53547619D01*
X55745833Y-53642857D01*
X55745833Y-53785714D01*
X55698214Y-53880952D01*
X55650595Y-53928571D01*
X55555357Y-53976190D01*
X55174404Y-53976190D01*
X56698214Y-54452380D02*
X56126785Y-54452380D01*
X56412500Y-54452380D02*
X56412500Y-53452380D01*
X56317261Y-53595238D01*
X56222023Y-53690476D01*
X56126785Y-53738095D01*
%TO.C,C3*%
X69823333Y-56687142D02*
X69775714Y-56734761D01*
X69632857Y-56782380D01*
X69537619Y-56782380D01*
X69394761Y-56734761D01*
X69299523Y-56639523D01*
X69251904Y-56544285D01*
X69204285Y-56353809D01*
X69204285Y-56210952D01*
X69251904Y-56020476D01*
X69299523Y-55925238D01*
X69394761Y-55830000D01*
X69537619Y-55782380D01*
X69632857Y-55782380D01*
X69775714Y-55830000D01*
X69823333Y-55877619D01*
X70156666Y-55782380D02*
X70775714Y-55782380D01*
X70442380Y-56163333D01*
X70585238Y-56163333D01*
X70680476Y-56210952D01*
X70728095Y-56258571D01*
X70775714Y-56353809D01*
X70775714Y-56591904D01*
X70728095Y-56687142D01*
X70680476Y-56734761D01*
X70585238Y-56782380D01*
X70299523Y-56782380D01*
X70204285Y-56734761D01*
X70156666Y-56687142D01*
%TO.C,C1*%
X55323333Y-55687142D02*
X55275714Y-55734761D01*
X55132857Y-55782380D01*
X55037619Y-55782380D01*
X54894761Y-55734761D01*
X54799523Y-55639523D01*
X54751904Y-55544285D01*
X54704285Y-55353809D01*
X54704285Y-55210952D01*
X54751904Y-55020476D01*
X54799523Y-54925238D01*
X54894761Y-54830000D01*
X55037619Y-54782380D01*
X55132857Y-54782380D01*
X55275714Y-54830000D01*
X55323333Y-54877619D01*
X56275714Y-55782380D02*
X55704285Y-55782380D01*
X55990000Y-55782380D02*
X55990000Y-54782380D01*
X55894761Y-54925238D01*
X55799523Y-55020476D01*
X55704285Y-55068095D01*
%TO.C,R3*%
X93452380Y-59666666D02*
X92976190Y-60000000D01*
X93452380Y-60238095D02*
X92452380Y-60238095D01*
X92452380Y-59857142D01*
X92500000Y-59761904D01*
X92547619Y-59714285D01*
X92642857Y-59666666D01*
X92785714Y-59666666D01*
X92880952Y-59714285D01*
X92928571Y-59761904D01*
X92976190Y-59857142D01*
X92976190Y-60238095D01*
X92452380Y-59333333D02*
X92452380Y-58714285D01*
X92833333Y-59047619D01*
X92833333Y-58904761D01*
X92880952Y-58809523D01*
X92928571Y-58761904D01*
X93023809Y-58714285D01*
X93261904Y-58714285D01*
X93357142Y-58761904D01*
X93404761Y-58809523D01*
X93452380Y-58904761D01*
X93452380Y-59190476D01*
X93404761Y-59285714D01*
X93357142Y-59333333D01*
%TO.C,C4*%
X89323333Y-39687142D02*
X89275714Y-39734761D01*
X89132857Y-39782380D01*
X89037619Y-39782380D01*
X88894761Y-39734761D01*
X88799523Y-39639523D01*
X88751904Y-39544285D01*
X88704285Y-39353809D01*
X88704285Y-39210952D01*
X88751904Y-39020476D01*
X88799523Y-38925238D01*
X88894761Y-38830000D01*
X89037619Y-38782380D01*
X89132857Y-38782380D01*
X89275714Y-38830000D01*
X89323333Y-38877619D01*
X90180476Y-39115714D02*
X90180476Y-39782380D01*
X89942380Y-38734761D02*
X89704285Y-39449047D01*
X90323333Y-39449047D01*
%TD*%
M02*
