%TF.GenerationSoftware,KiCad,Pcbnew,(5.1.10)-1*%
%TF.CreationDate,2021-11-03T21:28:22+01:00*%
%TF.ProjectId,Amplificatore,416d706c-6966-4696-9361-746f72652e6b,rev?*%
%TF.SameCoordinates,Original*%
%TF.FileFunction,Paste,Top*%
%TF.FilePolarity,Positive*%
%FSLAX46Y46*%
G04 Gerber Fmt 4.6, Leading zero omitted, Abs format (unit mm)*
G04 Created by KiCad (PCBNEW (5.1.10)-1) date 2021-11-03 21:28:22*
%MOMM*%
%LPD*%
G01*
G04 APERTURE LIST*
G04 APERTURE END LIST*
%TO.C,U4*%
G36*
G01*
X213245000Y-76880000D02*
X213545000Y-76880000D01*
G75*
G02*
X213695000Y-77030000I0J-150000D01*
G01*
X213695000Y-78480000D01*
G75*
G02*
X213545000Y-78630000I-150000J0D01*
G01*
X213245000Y-78630000D01*
G75*
G02*
X213095000Y-78480000I0J150000D01*
G01*
X213095000Y-77030000D01*
G75*
G02*
X213245000Y-76880000I150000J0D01*
G01*
G37*
G36*
G01*
X211975000Y-76880000D02*
X212275000Y-76880000D01*
G75*
G02*
X212425000Y-77030000I0J-150000D01*
G01*
X212425000Y-78480000D01*
G75*
G02*
X212275000Y-78630000I-150000J0D01*
G01*
X211975000Y-78630000D01*
G75*
G02*
X211825000Y-78480000I0J150000D01*
G01*
X211825000Y-77030000D01*
G75*
G02*
X211975000Y-76880000I150000J0D01*
G01*
G37*
G36*
G01*
X210705000Y-76880000D02*
X211005000Y-76880000D01*
G75*
G02*
X211155000Y-77030000I0J-150000D01*
G01*
X211155000Y-78480000D01*
G75*
G02*
X211005000Y-78630000I-150000J0D01*
G01*
X210705000Y-78630000D01*
G75*
G02*
X210555000Y-78480000I0J150000D01*
G01*
X210555000Y-77030000D01*
G75*
G02*
X210705000Y-76880000I150000J0D01*
G01*
G37*
G36*
G01*
X209435000Y-76880000D02*
X209735000Y-76880000D01*
G75*
G02*
X209885000Y-77030000I0J-150000D01*
G01*
X209885000Y-78480000D01*
G75*
G02*
X209735000Y-78630000I-150000J0D01*
G01*
X209435000Y-78630000D01*
G75*
G02*
X209285000Y-78480000I0J150000D01*
G01*
X209285000Y-77030000D01*
G75*
G02*
X209435000Y-76880000I150000J0D01*
G01*
G37*
G36*
G01*
X209435000Y-82030000D02*
X209735000Y-82030000D01*
G75*
G02*
X209885000Y-82180000I0J-150000D01*
G01*
X209885000Y-83630000D01*
G75*
G02*
X209735000Y-83780000I-150000J0D01*
G01*
X209435000Y-83780000D01*
G75*
G02*
X209285000Y-83630000I0J150000D01*
G01*
X209285000Y-82180000D01*
G75*
G02*
X209435000Y-82030000I150000J0D01*
G01*
G37*
G36*
G01*
X210705000Y-82030000D02*
X211005000Y-82030000D01*
G75*
G02*
X211155000Y-82180000I0J-150000D01*
G01*
X211155000Y-83630000D01*
G75*
G02*
X211005000Y-83780000I-150000J0D01*
G01*
X210705000Y-83780000D01*
G75*
G02*
X210555000Y-83630000I0J150000D01*
G01*
X210555000Y-82180000D01*
G75*
G02*
X210705000Y-82030000I150000J0D01*
G01*
G37*
G36*
G01*
X211975000Y-82030000D02*
X212275000Y-82030000D01*
G75*
G02*
X212425000Y-82180000I0J-150000D01*
G01*
X212425000Y-83630000D01*
G75*
G02*
X212275000Y-83780000I-150000J0D01*
G01*
X211975000Y-83780000D01*
G75*
G02*
X211825000Y-83630000I0J150000D01*
G01*
X211825000Y-82180000D01*
G75*
G02*
X211975000Y-82030000I150000J0D01*
G01*
G37*
G36*
G01*
X213245000Y-82030000D02*
X213545000Y-82030000D01*
G75*
G02*
X213695000Y-82180000I0J-150000D01*
G01*
X213695000Y-83630000D01*
G75*
G02*
X213545000Y-83780000I-150000J0D01*
G01*
X213245000Y-83780000D01*
G75*
G02*
X213095000Y-83630000I0J150000D01*
G01*
X213095000Y-82180000D01*
G75*
G02*
X213245000Y-82030000I150000J0D01*
G01*
G37*
%TD*%
%TO.C,R38*%
G36*
G01*
X211153000Y-73780001D02*
X211153000Y-72879999D01*
G75*
G02*
X211402999Y-72630000I249999J0D01*
G01*
X211928001Y-72630000D01*
G75*
G02*
X212178000Y-72879999I0J-249999D01*
G01*
X212178000Y-73780001D01*
G75*
G02*
X211928001Y-74030000I-249999J0D01*
G01*
X211402999Y-74030000D01*
G75*
G02*
X211153000Y-73780001I0J249999D01*
G01*
G37*
G36*
G01*
X212978000Y-73780001D02*
X212978000Y-72879999D01*
G75*
G02*
X213227999Y-72630000I249999J0D01*
G01*
X213753001Y-72630000D01*
G75*
G02*
X214003000Y-72879999I0J-249999D01*
G01*
X214003000Y-73780001D01*
G75*
G02*
X213753001Y-74030000I-249999J0D01*
G01*
X213227999Y-74030000D01*
G75*
G02*
X212978000Y-73780001I0J249999D01*
G01*
G37*
%TD*%
%TO.C,C33*%
G36*
G01*
X203765000Y-73980001D02*
X203765000Y-72679999D01*
G75*
G02*
X204014999Y-72430000I249999J0D01*
G01*
X204840001Y-72430000D01*
G75*
G02*
X205090000Y-72679999I0J-249999D01*
G01*
X205090000Y-73980001D01*
G75*
G02*
X204840001Y-74230000I-249999J0D01*
G01*
X204014999Y-74230000D01*
G75*
G02*
X203765000Y-73980001I0J249999D01*
G01*
G37*
G36*
G01*
X206890000Y-73980001D02*
X206890000Y-72679999D01*
G75*
G02*
X207139999Y-72430000I249999J0D01*
G01*
X207965001Y-72430000D01*
G75*
G02*
X208215000Y-72679999I0J-249999D01*
G01*
X208215000Y-73980001D01*
G75*
G02*
X207965001Y-74230000I-249999J0D01*
G01*
X207139999Y-74230000D01*
G75*
G02*
X206890000Y-73980001I0J249999D01*
G01*
G37*
%TD*%
%TO.C,C32*%
G36*
G01*
X213215000Y-86679999D02*
X213215000Y-87980001D01*
G75*
G02*
X212965001Y-88230000I-249999J0D01*
G01*
X212139999Y-88230000D01*
G75*
G02*
X211890000Y-87980001I0J249999D01*
G01*
X211890000Y-86679999D01*
G75*
G02*
X212139999Y-86430000I249999J0D01*
G01*
X212965001Y-86430000D01*
G75*
G02*
X213215000Y-86679999I0J-249999D01*
G01*
G37*
G36*
G01*
X210090000Y-86679999D02*
X210090000Y-87980001D01*
G75*
G02*
X209840001Y-88230000I-249999J0D01*
G01*
X209014999Y-88230000D01*
G75*
G02*
X208765000Y-87980001I0J249999D01*
G01*
X208765000Y-86679999D01*
G75*
G02*
X209014999Y-86430000I249999J0D01*
G01*
X209840001Y-86430000D01*
G75*
G02*
X210090000Y-86679999I0J-249999D01*
G01*
G37*
%TD*%
%TO.C,R36*%
G36*
G01*
X202415000Y-53755000D02*
X202415000Y-50905000D01*
G75*
G02*
X202665000Y-50655000I250000J0D01*
G01*
X203390000Y-50655000D01*
G75*
G02*
X203640000Y-50905000I0J-250000D01*
G01*
X203640000Y-53755000D01*
G75*
G02*
X203390000Y-54005000I-250000J0D01*
G01*
X202665000Y-54005000D01*
G75*
G02*
X202415000Y-53755000I0J250000D01*
G01*
G37*
G36*
G01*
X208340000Y-53755000D02*
X208340000Y-50905000D01*
G75*
G02*
X208590000Y-50655000I250000J0D01*
G01*
X209315000Y-50655000D01*
G75*
G02*
X209565000Y-50905000I0J-250000D01*
G01*
X209565000Y-53755000D01*
G75*
G02*
X209315000Y-54005000I-250000J0D01*
G01*
X208590000Y-54005000D01*
G75*
G02*
X208340000Y-53755000I0J250000D01*
G01*
G37*
%TD*%
%TO.C,C24*%
G36*
G01*
X200515000Y-39705000D02*
X201465000Y-39705000D01*
G75*
G02*
X201715000Y-39955000I0J-250000D01*
G01*
X201715000Y-40630000D01*
G75*
G02*
X201465000Y-40880000I-250000J0D01*
G01*
X200515000Y-40880000D01*
G75*
G02*
X200265000Y-40630000I0J250000D01*
G01*
X200265000Y-39955000D01*
G75*
G02*
X200515000Y-39705000I250000J0D01*
G01*
G37*
G36*
G01*
X200515000Y-41780000D02*
X201465000Y-41780000D01*
G75*
G02*
X201715000Y-42030000I0J-250000D01*
G01*
X201715000Y-42705000D01*
G75*
G02*
X201465000Y-42955000I-250000J0D01*
G01*
X200515000Y-42955000D01*
G75*
G02*
X200265000Y-42705000I0J250000D01*
G01*
X200265000Y-42030000D01*
G75*
G02*
X200515000Y-41780000I250000J0D01*
G01*
G37*
%TD*%
%TO.C,C23*%
G36*
G01*
X191403000Y-47305000D02*
X191403000Y-46355000D01*
G75*
G02*
X191653000Y-46105000I250000J0D01*
G01*
X192328000Y-46105000D01*
G75*
G02*
X192578000Y-46355000I0J-250000D01*
G01*
X192578000Y-47305000D01*
G75*
G02*
X192328000Y-47555000I-250000J0D01*
G01*
X191653000Y-47555000D01*
G75*
G02*
X191403000Y-47305000I0J250000D01*
G01*
G37*
G36*
G01*
X193478000Y-47305000D02*
X193478000Y-46355000D01*
G75*
G02*
X193728000Y-46105000I250000J0D01*
G01*
X194403000Y-46105000D01*
G75*
G02*
X194653000Y-46355000I0J-250000D01*
G01*
X194653000Y-47305000D01*
G75*
G02*
X194403000Y-47555000I-250000J0D01*
G01*
X193728000Y-47555000D01*
G75*
G02*
X193478000Y-47305000I0J250000D01*
G01*
G37*
%TD*%
%TO.C,U3*%
G36*
G01*
X190540000Y-40075000D02*
X190540000Y-39775000D01*
G75*
G02*
X190690000Y-39625000I150000J0D01*
G01*
X192140000Y-39625000D01*
G75*
G02*
X192290000Y-39775000I0J-150000D01*
G01*
X192290000Y-40075000D01*
G75*
G02*
X192140000Y-40225000I-150000J0D01*
G01*
X190690000Y-40225000D01*
G75*
G02*
X190540000Y-40075000I0J150000D01*
G01*
G37*
G36*
G01*
X190540000Y-41345000D02*
X190540000Y-41045000D01*
G75*
G02*
X190690000Y-40895000I150000J0D01*
G01*
X192140000Y-40895000D01*
G75*
G02*
X192290000Y-41045000I0J-150000D01*
G01*
X192290000Y-41345000D01*
G75*
G02*
X192140000Y-41495000I-150000J0D01*
G01*
X190690000Y-41495000D01*
G75*
G02*
X190540000Y-41345000I0J150000D01*
G01*
G37*
G36*
G01*
X190540000Y-42615000D02*
X190540000Y-42315000D01*
G75*
G02*
X190690000Y-42165000I150000J0D01*
G01*
X192140000Y-42165000D01*
G75*
G02*
X192290000Y-42315000I0J-150000D01*
G01*
X192290000Y-42615000D01*
G75*
G02*
X192140000Y-42765000I-150000J0D01*
G01*
X190690000Y-42765000D01*
G75*
G02*
X190540000Y-42615000I0J150000D01*
G01*
G37*
G36*
G01*
X190540000Y-43885000D02*
X190540000Y-43585000D01*
G75*
G02*
X190690000Y-43435000I150000J0D01*
G01*
X192140000Y-43435000D01*
G75*
G02*
X192290000Y-43585000I0J-150000D01*
G01*
X192290000Y-43885000D01*
G75*
G02*
X192140000Y-44035000I-150000J0D01*
G01*
X190690000Y-44035000D01*
G75*
G02*
X190540000Y-43885000I0J150000D01*
G01*
G37*
G36*
G01*
X195690000Y-43885000D02*
X195690000Y-43585000D01*
G75*
G02*
X195840000Y-43435000I150000J0D01*
G01*
X197290000Y-43435000D01*
G75*
G02*
X197440000Y-43585000I0J-150000D01*
G01*
X197440000Y-43885000D01*
G75*
G02*
X197290000Y-44035000I-150000J0D01*
G01*
X195840000Y-44035000D01*
G75*
G02*
X195690000Y-43885000I0J150000D01*
G01*
G37*
G36*
G01*
X195690000Y-42615000D02*
X195690000Y-42315000D01*
G75*
G02*
X195840000Y-42165000I150000J0D01*
G01*
X197290000Y-42165000D01*
G75*
G02*
X197440000Y-42315000I0J-150000D01*
G01*
X197440000Y-42615000D01*
G75*
G02*
X197290000Y-42765000I-150000J0D01*
G01*
X195840000Y-42765000D01*
G75*
G02*
X195690000Y-42615000I0J150000D01*
G01*
G37*
G36*
G01*
X195690000Y-41345000D02*
X195690000Y-41045000D01*
G75*
G02*
X195840000Y-40895000I150000J0D01*
G01*
X197290000Y-40895000D01*
G75*
G02*
X197440000Y-41045000I0J-150000D01*
G01*
X197440000Y-41345000D01*
G75*
G02*
X197290000Y-41495000I-150000J0D01*
G01*
X195840000Y-41495000D01*
G75*
G02*
X195690000Y-41345000I0J150000D01*
G01*
G37*
G36*
G01*
X195690000Y-40075000D02*
X195690000Y-39775000D01*
G75*
G02*
X195840000Y-39625000I150000J0D01*
G01*
X197290000Y-39625000D01*
G75*
G02*
X197440000Y-39775000I0J-150000D01*
G01*
X197440000Y-40075000D01*
G75*
G02*
X197290000Y-40225000I-150000J0D01*
G01*
X195840000Y-40225000D01*
G75*
G02*
X195690000Y-40075000I0J150000D01*
G01*
G37*
%TD*%
%TO.C,R34*%
G36*
G01*
X202415000Y-69255000D02*
X202415000Y-66405000D01*
G75*
G02*
X202665000Y-66155000I250000J0D01*
G01*
X203390000Y-66155000D01*
G75*
G02*
X203640000Y-66405000I0J-250000D01*
G01*
X203640000Y-69255000D01*
G75*
G02*
X203390000Y-69505000I-250000J0D01*
G01*
X202665000Y-69505000D01*
G75*
G02*
X202415000Y-69255000I0J250000D01*
G01*
G37*
G36*
G01*
X208340000Y-69255000D02*
X208340000Y-66405000D01*
G75*
G02*
X208590000Y-66155000I250000J0D01*
G01*
X209315000Y-66155000D01*
G75*
G02*
X209565000Y-66405000I0J-250000D01*
G01*
X209565000Y-69255000D01*
G75*
G02*
X209315000Y-69505000I-250000J0D01*
G01*
X208590000Y-69505000D01*
G75*
G02*
X208340000Y-69255000I0J250000D01*
G01*
G37*
%TD*%
%TO.C,R33*%
G36*
G01*
X202415000Y-64755000D02*
X202415000Y-61905000D01*
G75*
G02*
X202665000Y-61655000I250000J0D01*
G01*
X203390000Y-61655000D01*
G75*
G02*
X203640000Y-61905000I0J-250000D01*
G01*
X203640000Y-64755000D01*
G75*
G02*
X203390000Y-65005000I-250000J0D01*
G01*
X202665000Y-65005000D01*
G75*
G02*
X202415000Y-64755000I0J250000D01*
G01*
G37*
G36*
G01*
X208340000Y-64755000D02*
X208340000Y-61905000D01*
G75*
G02*
X208590000Y-61655000I250000J0D01*
G01*
X209315000Y-61655000D01*
G75*
G02*
X209565000Y-61905000I0J-250000D01*
G01*
X209565000Y-64755000D01*
G75*
G02*
X209315000Y-65005000I-250000J0D01*
G01*
X208590000Y-65005000D01*
G75*
G02*
X208340000Y-64755000I0J250000D01*
G01*
G37*
%TD*%
%TO.C,R32*%
G36*
G01*
X202345000Y-60255000D02*
X202345000Y-57405000D01*
G75*
G02*
X202595000Y-57155000I250000J0D01*
G01*
X203320000Y-57155000D01*
G75*
G02*
X203570000Y-57405000I0J-250000D01*
G01*
X203570000Y-60255000D01*
G75*
G02*
X203320000Y-60505000I-250000J0D01*
G01*
X202595000Y-60505000D01*
G75*
G02*
X202345000Y-60255000I0J250000D01*
G01*
G37*
G36*
G01*
X208270000Y-60255000D02*
X208270000Y-57405000D01*
G75*
G02*
X208520000Y-57155000I250000J0D01*
G01*
X209245000Y-57155000D01*
G75*
G02*
X209495000Y-57405000I0J-250000D01*
G01*
X209495000Y-60255000D01*
G75*
G02*
X209245000Y-60505000I-250000J0D01*
G01*
X208520000Y-60505000D01*
G75*
G02*
X208270000Y-60255000I0J250000D01*
G01*
G37*
%TD*%
%TO.C,R31*%
G36*
G01*
X206565000Y-45405000D02*
X206565000Y-48255000D01*
G75*
G02*
X206315000Y-48505000I-250000J0D01*
G01*
X205590000Y-48505000D01*
G75*
G02*
X205340000Y-48255000I0J250000D01*
G01*
X205340000Y-45405000D01*
G75*
G02*
X205590000Y-45155000I250000J0D01*
G01*
X206315000Y-45155000D01*
G75*
G02*
X206565000Y-45405000I0J-250000D01*
G01*
G37*
G36*
G01*
X200640000Y-45405000D02*
X200640000Y-48255000D01*
G75*
G02*
X200390000Y-48505000I-250000J0D01*
G01*
X199665000Y-48505000D01*
G75*
G02*
X199415000Y-48255000I0J250000D01*
G01*
X199415000Y-45405000D01*
G75*
G02*
X199665000Y-45155000I250000J0D01*
G01*
X200390000Y-45155000D01*
G75*
G02*
X200640000Y-45405000I0J-250000D01*
G01*
G37*
%TD*%
%TO.C,R24*%
G36*
G01*
X139575000Y-39425000D02*
X142425000Y-39425000D01*
G75*
G02*
X142675000Y-39675000I0J-250000D01*
G01*
X142675000Y-40400000D01*
G75*
G02*
X142425000Y-40650000I-250000J0D01*
G01*
X139575000Y-40650000D01*
G75*
G02*
X139325000Y-40400000I0J250000D01*
G01*
X139325000Y-39675000D01*
G75*
G02*
X139575000Y-39425000I250000J0D01*
G01*
G37*
G36*
G01*
X139575000Y-45350000D02*
X142425000Y-45350000D01*
G75*
G02*
X142675000Y-45600000I0J-250000D01*
G01*
X142675000Y-46325000D01*
G75*
G02*
X142425000Y-46575000I-250000J0D01*
G01*
X139575000Y-46575000D01*
G75*
G02*
X139325000Y-46325000I0J250000D01*
G01*
X139325000Y-45600000D01*
G75*
G02*
X139575000Y-45350000I250000J0D01*
G01*
G37*
%TD*%
%TO.C,R23*%
G36*
G01*
X135039999Y-76905000D02*
X135940001Y-76905000D01*
G75*
G02*
X136190000Y-77154999I0J-249999D01*
G01*
X136190000Y-77680001D01*
G75*
G02*
X135940001Y-77930000I-249999J0D01*
G01*
X135039999Y-77930000D01*
G75*
G02*
X134790000Y-77680001I0J249999D01*
G01*
X134790000Y-77154999D01*
G75*
G02*
X135039999Y-76905000I249999J0D01*
G01*
G37*
G36*
G01*
X135039999Y-78730000D02*
X135940001Y-78730000D01*
G75*
G02*
X136190000Y-78979999I0J-249999D01*
G01*
X136190000Y-79505001D01*
G75*
G02*
X135940001Y-79755000I-249999J0D01*
G01*
X135039999Y-79755000D01*
G75*
G02*
X134790000Y-79505001I0J249999D01*
G01*
X134790000Y-78979999D01*
G75*
G02*
X135039999Y-78730000I249999J0D01*
G01*
G37*
%TD*%
%TO.C,R2*%
G36*
G01*
X60575000Y-52450001D02*
X60575000Y-51549999D01*
G75*
G02*
X60824999Y-51300000I249999J0D01*
G01*
X61350001Y-51300000D01*
G75*
G02*
X61600000Y-51549999I0J-249999D01*
G01*
X61600000Y-52450001D01*
G75*
G02*
X61350001Y-52700000I-249999J0D01*
G01*
X60824999Y-52700000D01*
G75*
G02*
X60575000Y-52450001I0J249999D01*
G01*
G37*
G36*
G01*
X62400000Y-52450001D02*
X62400000Y-51549999D01*
G75*
G02*
X62649999Y-51300000I249999J0D01*
G01*
X63175001Y-51300000D01*
G75*
G02*
X63425000Y-51549999I0J-249999D01*
G01*
X63425000Y-52450001D01*
G75*
G02*
X63175001Y-52700000I-249999J0D01*
G01*
X62649999Y-52700000D01*
G75*
G02*
X62400000Y-52450001I0J249999D01*
G01*
G37*
%TD*%
%TO.C,R20*%
G36*
G01*
X133565000Y-82755000D02*
X136415000Y-82755000D01*
G75*
G02*
X136665000Y-83005000I0J-250000D01*
G01*
X136665000Y-83730000D01*
G75*
G02*
X136415000Y-83980000I-250000J0D01*
G01*
X133565000Y-83980000D01*
G75*
G02*
X133315000Y-83730000I0J250000D01*
G01*
X133315000Y-83005000D01*
G75*
G02*
X133565000Y-82755000I250000J0D01*
G01*
G37*
G36*
G01*
X133565000Y-88680000D02*
X136415000Y-88680000D01*
G75*
G02*
X136665000Y-88930000I0J-250000D01*
G01*
X136665000Y-89655000D01*
G75*
G02*
X136415000Y-89905000I-250000J0D01*
G01*
X133565000Y-89905000D01*
G75*
G02*
X133315000Y-89655000I0J250000D01*
G01*
X133315000Y-88930000D01*
G75*
G02*
X133565000Y-88680000I250000J0D01*
G01*
G37*
%TD*%
%TO.C,R19*%
G36*
G01*
X127565000Y-82755000D02*
X130415000Y-82755000D01*
G75*
G02*
X130665000Y-83005000I0J-250000D01*
G01*
X130665000Y-83730000D01*
G75*
G02*
X130415000Y-83980000I-250000J0D01*
G01*
X127565000Y-83980000D01*
G75*
G02*
X127315000Y-83730000I0J250000D01*
G01*
X127315000Y-83005000D01*
G75*
G02*
X127565000Y-82755000I250000J0D01*
G01*
G37*
G36*
G01*
X127565000Y-88680000D02*
X130415000Y-88680000D01*
G75*
G02*
X130665000Y-88930000I0J-250000D01*
G01*
X130665000Y-89655000D01*
G75*
G02*
X130415000Y-89905000I-250000J0D01*
G01*
X127565000Y-89905000D01*
G75*
G02*
X127315000Y-89655000I0J250000D01*
G01*
X127315000Y-88930000D01*
G75*
G02*
X127565000Y-88680000I250000J0D01*
G01*
G37*
%TD*%
%TO.C,R18*%
G36*
G01*
X118415000Y-84905000D02*
X115565000Y-84905000D01*
G75*
G02*
X115315000Y-84655000I0J250000D01*
G01*
X115315000Y-83930000D01*
G75*
G02*
X115565000Y-83680000I250000J0D01*
G01*
X118415000Y-83680000D01*
G75*
G02*
X118665000Y-83930000I0J-250000D01*
G01*
X118665000Y-84655000D01*
G75*
G02*
X118415000Y-84905000I-250000J0D01*
G01*
G37*
G36*
G01*
X118415000Y-78980000D02*
X115565000Y-78980000D01*
G75*
G02*
X115315000Y-78730000I0J250000D01*
G01*
X115315000Y-78005000D01*
G75*
G02*
X115565000Y-77755000I250000J0D01*
G01*
X118415000Y-77755000D01*
G75*
G02*
X118665000Y-78005000I0J-250000D01*
G01*
X118665000Y-78730000D01*
G75*
G02*
X118415000Y-78980000I-250000J0D01*
G01*
G37*
%TD*%
%TO.C,R17*%
G36*
G01*
X131575000Y-45350000D02*
X134425000Y-45350000D01*
G75*
G02*
X134675000Y-45600000I0J-250000D01*
G01*
X134675000Y-46325000D01*
G75*
G02*
X134425000Y-46575000I-250000J0D01*
G01*
X131575000Y-46575000D01*
G75*
G02*
X131325000Y-46325000I0J250000D01*
G01*
X131325000Y-45600000D01*
G75*
G02*
X131575000Y-45350000I250000J0D01*
G01*
G37*
G36*
G01*
X131575000Y-39425000D02*
X134425000Y-39425000D01*
G75*
G02*
X134675000Y-39675000I0J-250000D01*
G01*
X134675000Y-40400000D01*
G75*
G02*
X134425000Y-40650000I-250000J0D01*
G01*
X131575000Y-40650000D01*
G75*
G02*
X131325000Y-40400000I0J250000D01*
G01*
X131325000Y-39675000D01*
G75*
G02*
X131575000Y-39425000I250000J0D01*
G01*
G37*
%TD*%
%TO.C,R16*%
G36*
G01*
X146400000Y-57450001D02*
X146400000Y-56549999D01*
G75*
G02*
X146649999Y-56300000I249999J0D01*
G01*
X147175001Y-56300000D01*
G75*
G02*
X147425000Y-56549999I0J-249999D01*
G01*
X147425000Y-57450001D01*
G75*
G02*
X147175001Y-57700000I-249999J0D01*
G01*
X146649999Y-57700000D01*
G75*
G02*
X146400000Y-57450001I0J249999D01*
G01*
G37*
G36*
G01*
X144575000Y-57450001D02*
X144575000Y-56549999D01*
G75*
G02*
X144824999Y-56300000I249999J0D01*
G01*
X145350001Y-56300000D01*
G75*
G02*
X145600000Y-56549999I0J-249999D01*
G01*
X145600000Y-57450001D01*
G75*
G02*
X145350001Y-57700000I-249999J0D01*
G01*
X144824999Y-57700000D01*
G75*
G02*
X144575000Y-57450001I0J249999D01*
G01*
G37*
%TD*%
%TO.C,R15*%
G36*
G01*
X127565000Y-62780001D02*
X127565000Y-61879999D01*
G75*
G02*
X127814999Y-61630000I249999J0D01*
G01*
X128340001Y-61630000D01*
G75*
G02*
X128590000Y-61879999I0J-249999D01*
G01*
X128590000Y-62780001D01*
G75*
G02*
X128340001Y-63030000I-249999J0D01*
G01*
X127814999Y-63030000D01*
G75*
G02*
X127565000Y-62780001I0J249999D01*
G01*
G37*
G36*
G01*
X129390000Y-62780001D02*
X129390000Y-61879999D01*
G75*
G02*
X129639999Y-61630000I249999J0D01*
G01*
X130165001Y-61630000D01*
G75*
G02*
X130415000Y-61879999I0J-249999D01*
G01*
X130415000Y-62780001D01*
G75*
G02*
X130165001Y-63030000I-249999J0D01*
G01*
X129639999Y-63030000D01*
G75*
G02*
X129390000Y-62780001I0J249999D01*
G01*
G37*
%TD*%
%TO.C,R13*%
G36*
G01*
X121565000Y-82755000D02*
X124415000Y-82755000D01*
G75*
G02*
X124665000Y-83005000I0J-250000D01*
G01*
X124665000Y-83730000D01*
G75*
G02*
X124415000Y-83980000I-250000J0D01*
G01*
X121565000Y-83980000D01*
G75*
G02*
X121315000Y-83730000I0J250000D01*
G01*
X121315000Y-83005000D01*
G75*
G02*
X121565000Y-82755000I250000J0D01*
G01*
G37*
G36*
G01*
X121565000Y-88680000D02*
X124415000Y-88680000D01*
G75*
G02*
X124665000Y-88930000I0J-250000D01*
G01*
X124665000Y-89655000D01*
G75*
G02*
X124415000Y-89905000I-250000J0D01*
G01*
X121565000Y-89905000D01*
G75*
G02*
X121315000Y-89655000I0J250000D01*
G01*
X121315000Y-88930000D01*
G75*
G02*
X121565000Y-88680000I250000J0D01*
G01*
G37*
%TD*%
%TO.C,R12*%
G36*
G01*
X117565000Y-87405000D02*
X117565000Y-90255000D01*
G75*
G02*
X117315000Y-90505000I-250000J0D01*
G01*
X116590000Y-90505000D01*
G75*
G02*
X116340000Y-90255000I0J250000D01*
G01*
X116340000Y-87405000D01*
G75*
G02*
X116590000Y-87155000I250000J0D01*
G01*
X117315000Y-87155000D01*
G75*
G02*
X117565000Y-87405000I0J-250000D01*
G01*
G37*
G36*
G01*
X111640000Y-87405000D02*
X111640000Y-90255000D01*
G75*
G02*
X111390000Y-90505000I-250000J0D01*
G01*
X110665000Y-90505000D01*
G75*
G02*
X110415000Y-90255000I0J250000D01*
G01*
X110415000Y-87405000D01*
G75*
G02*
X110665000Y-87155000I250000J0D01*
G01*
X111390000Y-87155000D01*
G75*
G02*
X111640000Y-87405000I0J-250000D01*
G01*
G37*
%TD*%
%TO.C,R11*%
G36*
G01*
X91415000Y-70980000D02*
X88565000Y-70980000D01*
G75*
G02*
X88315000Y-70730000I0J250000D01*
G01*
X88315000Y-70005000D01*
G75*
G02*
X88565000Y-69755000I250000J0D01*
G01*
X91415000Y-69755000D01*
G75*
G02*
X91665000Y-70005000I0J-250000D01*
G01*
X91665000Y-70730000D01*
G75*
G02*
X91415000Y-70980000I-250000J0D01*
G01*
G37*
G36*
G01*
X91415000Y-76905000D02*
X88565000Y-76905000D01*
G75*
G02*
X88315000Y-76655000I0J250000D01*
G01*
X88315000Y-75930000D01*
G75*
G02*
X88565000Y-75680000I250000J0D01*
G01*
X91415000Y-75680000D01*
G75*
G02*
X91665000Y-75930000I0J-250000D01*
G01*
X91665000Y-76655000D01*
G75*
G02*
X91415000Y-76905000I-250000J0D01*
G01*
G37*
%TD*%
%TO.C,R10*%
G36*
G01*
X73640000Y-79905000D02*
X73640000Y-82755000D01*
G75*
G02*
X73390000Y-83005000I-250000J0D01*
G01*
X72665000Y-83005000D01*
G75*
G02*
X72415000Y-82755000I0J250000D01*
G01*
X72415000Y-79905000D01*
G75*
G02*
X72665000Y-79655000I250000J0D01*
G01*
X73390000Y-79655000D01*
G75*
G02*
X73640000Y-79905000I0J-250000D01*
G01*
G37*
G36*
G01*
X79565000Y-79905000D02*
X79565000Y-82755000D01*
G75*
G02*
X79315000Y-83005000I-250000J0D01*
G01*
X78590000Y-83005000D01*
G75*
G02*
X78340000Y-82755000I0J250000D01*
G01*
X78340000Y-79905000D01*
G75*
G02*
X78590000Y-79655000I250000J0D01*
G01*
X79315000Y-79655000D01*
G75*
G02*
X79565000Y-79905000I0J-250000D01*
G01*
G37*
%TD*%
%TO.C,R4*%
G36*
G01*
X72350000Y-53425000D02*
X72350000Y-50575000D01*
G75*
G02*
X72600000Y-50325000I250000J0D01*
G01*
X73325000Y-50325000D01*
G75*
G02*
X73575000Y-50575000I0J-250000D01*
G01*
X73575000Y-53425000D01*
G75*
G02*
X73325000Y-53675000I-250000J0D01*
G01*
X72600000Y-53675000D01*
G75*
G02*
X72350000Y-53425000I0J250000D01*
G01*
G37*
G36*
G01*
X66425000Y-53425000D02*
X66425000Y-50575000D01*
G75*
G02*
X66675000Y-50325000I250000J0D01*
G01*
X67400000Y-50325000D01*
G75*
G02*
X67650000Y-50575000I0J-250000D01*
G01*
X67650000Y-53425000D01*
G75*
G02*
X67400000Y-53675000I-250000J0D01*
G01*
X66675000Y-53675000D01*
G75*
G02*
X66425000Y-53425000I0J250000D01*
G01*
G37*
%TD*%
%TO.C,R1*%
G36*
G01*
X57337500Y-51549999D02*
X57337500Y-52450001D01*
G75*
G02*
X57087501Y-52700000I-249999J0D01*
G01*
X56562499Y-52700000D01*
G75*
G02*
X56312500Y-52450001I0J249999D01*
G01*
X56312500Y-51549999D01*
G75*
G02*
X56562499Y-51300000I249999J0D01*
G01*
X57087501Y-51300000D01*
G75*
G02*
X57337500Y-51549999I0J-249999D01*
G01*
G37*
G36*
G01*
X55512500Y-51549999D02*
X55512500Y-52450001D01*
G75*
G02*
X55262501Y-52700000I-249999J0D01*
G01*
X54737499Y-52700000D01*
G75*
G02*
X54487500Y-52450001I0J249999D01*
G01*
X54487500Y-51549999D01*
G75*
G02*
X54737499Y-51300000I249999J0D01*
G01*
X55262501Y-51300000D01*
G75*
G02*
X55512500Y-51549999I0J-249999D01*
G01*
G37*
%TD*%
%TO.C,R3*%
G36*
G01*
X90549999Y-58075000D02*
X91450001Y-58075000D01*
G75*
G02*
X91700000Y-58324999I0J-249999D01*
G01*
X91700000Y-58850001D01*
G75*
G02*
X91450001Y-59100000I-249999J0D01*
G01*
X90549999Y-59100000D01*
G75*
G02*
X90300000Y-58850001I0J249999D01*
G01*
X90300000Y-58324999D01*
G75*
G02*
X90549999Y-58075000I249999J0D01*
G01*
G37*
G36*
G01*
X90549999Y-59900000D02*
X91450001Y-59900000D01*
G75*
G02*
X91700000Y-60149999I0J-249999D01*
G01*
X91700000Y-60675001D01*
G75*
G02*
X91450001Y-60925000I-249999J0D01*
G01*
X90549999Y-60925000D01*
G75*
G02*
X90300000Y-60675001I0J249999D01*
G01*
X90300000Y-60149999D01*
G75*
G02*
X90549999Y-59900000I249999J0D01*
G01*
G37*
%TD*%
M02*
