%TF.GenerationSoftware,KiCad,Pcbnew,(5.1.10)-1*%
%TF.CreationDate,2021-11-03T21:28:22+01:00*%
%TF.ProjectId,Amplificatore,416d706c-6966-4696-9361-746f72652e6b,rev?*%
%TF.SameCoordinates,Original*%
%TF.FileFunction,Soldermask,Bot*%
%TF.FilePolarity,Negative*%
%FSLAX46Y46*%
G04 Gerber Fmt 4.6, Leading zero omitted, Abs format (unit mm)*
G04 Created by KiCad (PCBNEW (5.1.10)-1) date 2021-11-03 21:28:22*
%MOMM*%
%LPD*%
G01*
G04 APERTURE LIST*
%ADD10C,1.000000*%
%ADD11C,1.500000*%
%ADD12R,0.700000X0.600000*%
%ADD13R,0.600000X0.700000*%
%ADD14C,2.400000*%
%ADD15C,3.600000*%
%ADD16C,5.600000*%
%ADD17R,1.350000X1.350000*%
%ADD18O,1.350000X1.350000*%
%ADD19C,2.000000*%
%ADD20C,1.600000*%
%ADD21R,2.300000X2.300000*%
%ADD22C,2.300000*%
%ADD23R,2.200000X2.200000*%
%ADD24O,2.200000X2.200000*%
%ADD25C,4.500000*%
%ADD26O,2.030000X3.050000*%
%ADD27C,1.400000*%
G04 APERTURE END LIST*
%TO.C,R39*%
G36*
G01*
X205440001Y-79430000D02*
X204539999Y-79430000D01*
G75*
G02*
X204290000Y-79180001I0J249999D01*
G01*
X204290000Y-78654999D01*
G75*
G02*
X204539999Y-78405000I249999J0D01*
G01*
X205440001Y-78405000D01*
G75*
G02*
X205690000Y-78654999I0J-249999D01*
G01*
X205690000Y-79180001D01*
G75*
G02*
X205440001Y-79430000I-249999J0D01*
G01*
G37*
G36*
G01*
X205440001Y-81255000D02*
X204539999Y-81255000D01*
G75*
G02*
X204290000Y-81005001I0J249999D01*
G01*
X204290000Y-80479999D01*
G75*
G02*
X204539999Y-80230000I249999J0D01*
G01*
X205440001Y-80230000D01*
G75*
G02*
X205690000Y-80479999I0J-249999D01*
G01*
X205690000Y-81005001D01*
G75*
G02*
X205440001Y-81255000I-249999J0D01*
G01*
G37*
%TD*%
D10*
%TO.C,J21*%
X158930000Y-51330000D03*
X158930000Y-39330000D03*
G36*
G01*
X155490000Y-49080000D02*
X154490000Y-49080000D01*
G75*
G02*
X154240000Y-48830000I0J250000D01*
G01*
X154240000Y-47830000D01*
G75*
G02*
X154490000Y-47580000I250000J0D01*
G01*
X155490000Y-47580000D01*
G75*
G02*
X155740000Y-47830000I0J-250000D01*
G01*
X155740000Y-48830000D01*
G75*
G02*
X155490000Y-49080000I-250000J0D01*
G01*
G37*
D11*
X154990000Y-45330000D03*
X154990000Y-42330000D03*
X157990000Y-48330000D03*
X157990000Y-45330000D03*
X157990000Y-42330000D03*
%TD*%
D10*
%TO.C,J20*%
X229490000Y-83390000D03*
X217490000Y-83390000D03*
G36*
G01*
X227240000Y-86830000D02*
X227240000Y-87830000D01*
G75*
G02*
X226990000Y-88080000I-250000J0D01*
G01*
X225990000Y-88080000D01*
G75*
G02*
X225740000Y-87830000I0J250000D01*
G01*
X225740000Y-86830000D01*
G75*
G02*
X225990000Y-86580000I250000J0D01*
G01*
X226990000Y-86580000D01*
G75*
G02*
X227240000Y-86830000I0J-250000D01*
G01*
G37*
D11*
X223490000Y-87330000D03*
X220490000Y-87330000D03*
X226490000Y-84330000D03*
X223490000Y-84330000D03*
X220490000Y-84330000D03*
%TD*%
D10*
%TO.C,J10*%
X68000000Y-41060000D03*
X56000000Y-41060000D03*
G36*
G01*
X65750000Y-44500000D02*
X65750000Y-45500000D01*
G75*
G02*
X65500000Y-45750000I-250000J0D01*
G01*
X64500000Y-45750000D01*
G75*
G02*
X64250000Y-45500000I0J250000D01*
G01*
X64250000Y-44500000D01*
G75*
G02*
X64500000Y-44250000I250000J0D01*
G01*
X65500000Y-44250000D01*
G75*
G02*
X65750000Y-44500000I0J-250000D01*
G01*
G37*
D11*
X62000000Y-45000000D03*
X59000000Y-45000000D03*
X65000000Y-42000000D03*
X62000000Y-42000000D03*
X59000000Y-42000000D03*
%TD*%
D12*
%TO.C,D10*%
X168990000Y-85030000D03*
X168990000Y-83630000D03*
%TD*%
D13*
%TO.C,D9*%
X97290000Y-45330000D03*
X98690000Y-45330000D03*
%TD*%
%TO.C,D8*%
X85290000Y-84330000D03*
X86690000Y-84330000D03*
%TD*%
%TO.C,C31*%
G36*
G01*
X210540000Y-86855000D02*
X210540000Y-87805000D01*
G75*
G02*
X210290000Y-88055000I-250000J0D01*
G01*
X209615000Y-88055000D01*
G75*
G02*
X209365000Y-87805000I0J250000D01*
G01*
X209365000Y-86855000D01*
G75*
G02*
X209615000Y-86605000I250000J0D01*
G01*
X210290000Y-86605000D01*
G75*
G02*
X210540000Y-86855000I0J-250000D01*
G01*
G37*
G36*
G01*
X212615000Y-86855000D02*
X212615000Y-87805000D01*
G75*
G02*
X212365000Y-88055000I-250000J0D01*
G01*
X211690000Y-88055000D01*
G75*
G02*
X211440000Y-87805000I0J250000D01*
G01*
X211440000Y-86855000D01*
G75*
G02*
X211690000Y-86605000I250000J0D01*
G01*
X212365000Y-86605000D01*
G75*
G02*
X212615000Y-86855000I0J-250000D01*
G01*
G37*
%TD*%
D14*
%TO.C,C30*%
X193490000Y-73830000D03*
X193490000Y-58830000D03*
%TD*%
%TO.C,C29*%
G36*
G01*
X206402000Y-73805000D02*
X206402000Y-72855000D01*
G75*
G02*
X206652000Y-72605000I250000J0D01*
G01*
X207327000Y-72605000D01*
G75*
G02*
X207577000Y-72855000I0J-250000D01*
G01*
X207577000Y-73805000D01*
G75*
G02*
X207327000Y-74055000I-250000J0D01*
G01*
X206652000Y-74055000D01*
G75*
G02*
X206402000Y-73805000I0J250000D01*
G01*
G37*
G36*
G01*
X204327000Y-73805000D02*
X204327000Y-72855000D01*
G75*
G02*
X204577000Y-72605000I250000J0D01*
G01*
X205252000Y-72605000D01*
G75*
G02*
X205502000Y-72855000I0J-250000D01*
G01*
X205502000Y-73805000D01*
G75*
G02*
X205252000Y-74055000I-250000J0D01*
G01*
X204577000Y-74055000D01*
G75*
G02*
X204327000Y-73805000I0J250000D01*
G01*
G37*
%TD*%
%TO.C,C28*%
X204490000Y-87830000D03*
X189490000Y-87830000D03*
%TD*%
%TO.C,C27*%
X178990000Y-51830000D03*
X193990000Y-51830000D03*
%TD*%
%TO.C,R35*%
G36*
G01*
X199890000Y-52280001D02*
X199890000Y-51379999D01*
G75*
G02*
X200139999Y-51130000I249999J0D01*
G01*
X200665001Y-51130000D01*
G75*
G02*
X200915000Y-51379999I0J-249999D01*
G01*
X200915000Y-52280001D01*
G75*
G02*
X200665001Y-52530000I-249999J0D01*
G01*
X200139999Y-52530000D01*
G75*
G02*
X199890000Y-52280001I0J249999D01*
G01*
G37*
G36*
G01*
X198065000Y-52280001D02*
X198065000Y-51379999D01*
G75*
G02*
X198314999Y-51130000I249999J0D01*
G01*
X198840001Y-51130000D01*
G75*
G02*
X199090000Y-51379999I0J-249999D01*
G01*
X199090000Y-52280001D01*
G75*
G02*
X198840001Y-52530000I-249999J0D01*
G01*
X198314999Y-52530000D01*
G75*
G02*
X198065000Y-52280001I0J249999D01*
G01*
G37*
%TD*%
%TO.C,C26*%
G36*
G01*
X193890000Y-47480001D02*
X193890000Y-46179999D01*
G75*
G02*
X194139999Y-45930000I249999J0D01*
G01*
X194965001Y-45930000D01*
G75*
G02*
X195215000Y-46179999I0J-249999D01*
G01*
X195215000Y-47480001D01*
G75*
G02*
X194965001Y-47730000I-249999J0D01*
G01*
X194139999Y-47730000D01*
G75*
G02*
X193890000Y-47480001I0J249999D01*
G01*
G37*
G36*
G01*
X190765000Y-47480001D02*
X190765000Y-46179999D01*
G75*
G02*
X191014999Y-45930000I249999J0D01*
G01*
X191840001Y-45930000D01*
G75*
G02*
X192090000Y-46179999I0J-249999D01*
G01*
X192090000Y-47480001D01*
G75*
G02*
X191840001Y-47730000I-249999J0D01*
G01*
X191014999Y-47730000D01*
G75*
G02*
X190765000Y-47480001I0J249999D01*
G01*
G37*
%TD*%
%TO.C,C25*%
G36*
G01*
X200339999Y-42230000D02*
X201640001Y-42230000D01*
G75*
G02*
X201890000Y-42479999I0J-249999D01*
G01*
X201890000Y-43305001D01*
G75*
G02*
X201640001Y-43555000I-249999J0D01*
G01*
X200339999Y-43555000D01*
G75*
G02*
X200090000Y-43305001I0J249999D01*
G01*
X200090000Y-42479999D01*
G75*
G02*
X200339999Y-42230000I249999J0D01*
G01*
G37*
G36*
G01*
X200339999Y-39105000D02*
X201640001Y-39105000D01*
G75*
G02*
X201890000Y-39354999I0J-249999D01*
G01*
X201890000Y-40180001D01*
G75*
G02*
X201640001Y-40430000I-249999J0D01*
G01*
X200339999Y-40430000D01*
G75*
G02*
X200090000Y-40180001I0J249999D01*
G01*
X200090000Y-39354999D01*
G75*
G02*
X200339999Y-39105000I249999J0D01*
G01*
G37*
%TD*%
D15*
%TO.C,J19*%
X235000000Y-35000000D03*
D16*
X235000000Y-35000000D03*
%TD*%
%TO.C,J18*%
X235000000Y-95000000D03*
D15*
X235000000Y-95000000D03*
%TD*%
%TO.C,J17*%
X45000000Y-95000000D03*
D16*
X45000000Y-95000000D03*
%TD*%
D15*
%TO.C,J16*%
X45000000Y-35000000D03*
D16*
X45000000Y-35000000D03*
%TD*%
%TO.C,R30*%
G36*
G01*
X189302000Y-52755000D02*
X189302000Y-49905000D01*
G75*
G02*
X189552000Y-49655000I250000J0D01*
G01*
X190277000Y-49655000D01*
G75*
G02*
X190527000Y-49905000I0J-250000D01*
G01*
X190527000Y-52755000D01*
G75*
G02*
X190277000Y-53005000I-250000J0D01*
G01*
X189552000Y-53005000D01*
G75*
G02*
X189302000Y-52755000I0J250000D01*
G01*
G37*
G36*
G01*
X183377000Y-52755000D02*
X183377000Y-49905000D01*
G75*
G02*
X183627000Y-49655000I250000J0D01*
G01*
X184352000Y-49655000D01*
G75*
G02*
X184602000Y-49905000I0J-250000D01*
G01*
X184602000Y-52755000D01*
G75*
G02*
X184352000Y-53005000I-250000J0D01*
G01*
X183627000Y-53005000D01*
G75*
G02*
X183377000Y-52755000I0J250000D01*
G01*
G37*
%TD*%
%TO.C,R29*%
G36*
G01*
X191640000Y-39405000D02*
X191640000Y-42255000D01*
G75*
G02*
X191390000Y-42505000I-250000J0D01*
G01*
X190665000Y-42505000D01*
G75*
G02*
X190415000Y-42255000I0J250000D01*
G01*
X190415000Y-39405000D01*
G75*
G02*
X190665000Y-39155000I250000J0D01*
G01*
X191390000Y-39155000D01*
G75*
G02*
X191640000Y-39405000I0J-250000D01*
G01*
G37*
G36*
G01*
X197565000Y-39405000D02*
X197565000Y-42255000D01*
G75*
G02*
X197315000Y-42505000I-250000J0D01*
G01*
X196590000Y-42505000D01*
G75*
G02*
X196340000Y-42255000I0J250000D01*
G01*
X196340000Y-39405000D01*
G75*
G02*
X196590000Y-39155000I250000J0D01*
G01*
X197315000Y-39155000D01*
G75*
G02*
X197565000Y-39405000I0J-250000D01*
G01*
G37*
%TD*%
D17*
%TO.C,J15*%
X211490000Y-44830000D03*
D18*
X211490000Y-42830000D03*
X211490000Y-40830000D03*
%TD*%
D17*
%TO.C,J14*%
X185990000Y-40330000D03*
D18*
X185990000Y-42330000D03*
X185990000Y-44330000D03*
%TD*%
D10*
%TO.C,J13*%
X229490000Y-66390000D03*
X217490000Y-66390000D03*
G36*
G01*
X227240000Y-69830000D02*
X227240000Y-70830000D01*
G75*
G02*
X226990000Y-71080000I-250000J0D01*
G01*
X225990000Y-71080000D01*
G75*
G02*
X225740000Y-70830000I0J250000D01*
G01*
X225740000Y-69830000D01*
G75*
G02*
X225990000Y-69580000I250000J0D01*
G01*
X226990000Y-69580000D01*
G75*
G02*
X227240000Y-69830000I0J-250000D01*
G01*
G37*
D11*
X223490000Y-70330000D03*
X220490000Y-70330000D03*
X226490000Y-67330000D03*
X223490000Y-67330000D03*
X220490000Y-67330000D03*
%TD*%
D10*
%TO.C,J12*%
X229490000Y-40390000D03*
X217490000Y-40390000D03*
G36*
G01*
X227240000Y-43830000D02*
X227240000Y-44830000D01*
G75*
G02*
X226990000Y-45080000I-250000J0D01*
G01*
X225990000Y-45080000D01*
G75*
G02*
X225740000Y-44830000I0J250000D01*
G01*
X225740000Y-43830000D01*
G75*
G02*
X225990000Y-43580000I250000J0D01*
G01*
X226990000Y-43580000D01*
G75*
G02*
X227240000Y-43830000I0J-250000D01*
G01*
G37*
D11*
X223490000Y-44330000D03*
X220490000Y-44330000D03*
X226490000Y-41330000D03*
X223490000Y-41330000D03*
X220490000Y-41330000D03*
%TD*%
D10*
%TO.C,J11*%
X229490000Y-53890000D03*
X217490000Y-53890000D03*
G36*
G01*
X227240000Y-57330000D02*
X227240000Y-58330000D01*
G75*
G02*
X226990000Y-58580000I-250000J0D01*
G01*
X225990000Y-58580000D01*
G75*
G02*
X225740000Y-58330000I0J250000D01*
G01*
X225740000Y-57330000D01*
G75*
G02*
X225990000Y-57080000I250000J0D01*
G01*
X226990000Y-57080000D01*
G75*
G02*
X227240000Y-57330000I0J-250000D01*
G01*
G37*
D11*
X223490000Y-57830000D03*
X220490000Y-57830000D03*
X226490000Y-54830000D03*
X223490000Y-54830000D03*
X220490000Y-54830000D03*
%TD*%
%TO.C,R28*%
G36*
G01*
X177915000Y-66480000D02*
X175065000Y-66480000D01*
G75*
G02*
X174815000Y-66230000I0J250000D01*
G01*
X174815000Y-65505000D01*
G75*
G02*
X175065000Y-65255000I250000J0D01*
G01*
X177915000Y-65255000D01*
G75*
G02*
X178165000Y-65505000I0J-250000D01*
G01*
X178165000Y-66230000D01*
G75*
G02*
X177915000Y-66480000I-250000J0D01*
G01*
G37*
G36*
G01*
X177915000Y-72405000D02*
X175065000Y-72405000D01*
G75*
G02*
X174815000Y-72155000I0J250000D01*
G01*
X174815000Y-71430000D01*
G75*
G02*
X175065000Y-71180000I250000J0D01*
G01*
X177915000Y-71180000D01*
G75*
G02*
X178165000Y-71430000I0J-250000D01*
G01*
X178165000Y-72155000D01*
G75*
G02*
X177915000Y-72405000I-250000J0D01*
G01*
G37*
%TD*%
%TO.C,R27*%
G36*
G01*
X181840000Y-76755000D02*
X181840000Y-73905000D01*
G75*
G02*
X182090000Y-73655000I250000J0D01*
G01*
X182815000Y-73655000D01*
G75*
G02*
X183065000Y-73905000I0J-250000D01*
G01*
X183065000Y-76755000D01*
G75*
G02*
X182815000Y-77005000I-250000J0D01*
G01*
X182090000Y-77005000D01*
G75*
G02*
X181840000Y-76755000I0J250000D01*
G01*
G37*
G36*
G01*
X175915000Y-76755000D02*
X175915000Y-73905000D01*
G75*
G02*
X176165000Y-73655000I250000J0D01*
G01*
X176890000Y-73655000D01*
G75*
G02*
X177140000Y-73905000I0J-250000D01*
G01*
X177140000Y-76755000D01*
G75*
G02*
X176890000Y-77005000I-250000J0D01*
G01*
X176165000Y-77005000D01*
G75*
G02*
X175915000Y-76755000I0J250000D01*
G01*
G37*
%TD*%
%TO.C,R26*%
G36*
G01*
X160340000Y-70255000D02*
X160340000Y-67405000D01*
G75*
G02*
X160590000Y-67155000I250000J0D01*
G01*
X161315000Y-67155000D01*
G75*
G02*
X161565000Y-67405000I0J-250000D01*
G01*
X161565000Y-70255000D01*
G75*
G02*
X161315000Y-70505000I-250000J0D01*
G01*
X160590000Y-70505000D01*
G75*
G02*
X160340000Y-70255000I0J250000D01*
G01*
G37*
G36*
G01*
X154415000Y-70255000D02*
X154415000Y-67405000D01*
G75*
G02*
X154665000Y-67155000I250000J0D01*
G01*
X155390000Y-67155000D01*
G75*
G02*
X155640000Y-67405000I0J-250000D01*
G01*
X155640000Y-70255000D01*
G75*
G02*
X155390000Y-70505000I-250000J0D01*
G01*
X154665000Y-70505000D01*
G75*
G02*
X154415000Y-70255000I0J250000D01*
G01*
G37*
%TD*%
%TO.C,R25*%
G36*
G01*
X171840000Y-54255000D02*
X171840000Y-51405000D01*
G75*
G02*
X172090000Y-51155000I250000J0D01*
G01*
X172815000Y-51155000D01*
G75*
G02*
X173065000Y-51405000I0J-250000D01*
G01*
X173065000Y-54255000D01*
G75*
G02*
X172815000Y-54505000I-250000J0D01*
G01*
X172090000Y-54505000D01*
G75*
G02*
X171840000Y-54255000I0J250000D01*
G01*
G37*
G36*
G01*
X165915000Y-54255000D02*
X165915000Y-51405000D01*
G75*
G02*
X166165000Y-51155000I250000J0D01*
G01*
X166890000Y-51155000D01*
G75*
G02*
X167140000Y-51405000I0J-250000D01*
G01*
X167140000Y-54255000D01*
G75*
G02*
X166890000Y-54505000I-250000J0D01*
G01*
X166165000Y-54505000D01*
G75*
G02*
X165915000Y-54255000I0J250000D01*
G01*
G37*
%TD*%
%TO.C,R22*%
G36*
G01*
X158802000Y-75280001D02*
X158802000Y-74379999D01*
G75*
G02*
X159051999Y-74130000I249999J0D01*
G01*
X159577001Y-74130000D01*
G75*
G02*
X159827000Y-74379999I0J-249999D01*
G01*
X159827000Y-75280001D01*
G75*
G02*
X159577001Y-75530000I-249999J0D01*
G01*
X159051999Y-75530000D01*
G75*
G02*
X158802000Y-75280001I0J249999D01*
G01*
G37*
G36*
G01*
X156977000Y-75280001D02*
X156977000Y-74379999D01*
G75*
G02*
X157226999Y-74130000I249999J0D01*
G01*
X157752001Y-74130000D01*
G75*
G02*
X158002000Y-74379999I0J-249999D01*
G01*
X158002000Y-75280001D01*
G75*
G02*
X157752001Y-75530000I-249999J0D01*
G01*
X157226999Y-75530000D01*
G75*
G02*
X156977000Y-75280001I0J249999D01*
G01*
G37*
%TD*%
D17*
%TO.C,J9*%
X179490000Y-40330000D03*
D18*
X179490000Y-42330000D03*
X179490000Y-44330000D03*
%TD*%
D17*
%TO.C,J8*%
X180000000Y-58000000D03*
D18*
X180000000Y-60000000D03*
X180000000Y-62000000D03*
%TD*%
D17*
%TO.C,J7*%
X173490000Y-40330000D03*
D18*
X173490000Y-42330000D03*
X173490000Y-44330000D03*
%TD*%
D17*
%TO.C,J6*%
X173000000Y-58000000D03*
D18*
X173000000Y-60000000D03*
X173000000Y-62000000D03*
%TD*%
D17*
%TO.C,J5*%
X166990000Y-62000000D03*
D18*
X166990000Y-60000000D03*
X166990000Y-58000000D03*
%TD*%
D19*
%TO.C,C22*%
X189490000Y-81330000D03*
X199490000Y-81330000D03*
%TD*%
D14*
%TO.C,C21*%
X171490000Y-75330000D03*
X186490000Y-75330000D03*
%TD*%
D19*
%TO.C,C20*%
X166990000Y-47830000D03*
X166990000Y-40330000D03*
%TD*%
D20*
%TO.C,C19*%
X155650000Y-56330000D03*
X160650000Y-56330000D03*
%TD*%
D19*
%TO.C,C18*%
X181490000Y-68330000D03*
X171490000Y-68330000D03*
%TD*%
%TO.C,C17*%
X160990000Y-62330000D03*
X150990000Y-62330000D03*
%TD*%
D14*
%TO.C,C16*%
X165990000Y-68830000D03*
X150990000Y-68830000D03*
%TD*%
D18*
%TO.C,J4*%
X49490000Y-56330000D03*
X49490000Y-58330000D03*
D17*
X49490000Y-60330000D03*
%TD*%
%TO.C,R21*%
G36*
G01*
X192140000Y-64905000D02*
X192140000Y-67755000D01*
G75*
G02*
X191890000Y-68005000I-250000J0D01*
G01*
X191165000Y-68005000D01*
G75*
G02*
X190915000Y-67755000I0J250000D01*
G01*
X190915000Y-64905000D01*
G75*
G02*
X191165000Y-64655000I250000J0D01*
G01*
X191890000Y-64655000D01*
G75*
G02*
X192140000Y-64905000I0J-250000D01*
G01*
G37*
G36*
G01*
X198065000Y-64905000D02*
X198065000Y-67755000D01*
G75*
G02*
X197815000Y-68005000I-250000J0D01*
G01*
X197090000Y-68005000D01*
G75*
G02*
X196840000Y-67755000I0J250000D01*
G01*
X196840000Y-64905000D01*
G75*
G02*
X197090000Y-64655000I250000J0D01*
G01*
X197815000Y-64655000D01*
G75*
G02*
X198065000Y-64905000I0J-250000D01*
G01*
G37*
%TD*%
D21*
%TO.C,K4*%
X164990000Y-88830000D03*
D22*
X175150000Y-88830000D03*
X182770000Y-88830000D03*
X180230000Y-81210000D03*
X164990000Y-81210000D03*
%TD*%
D21*
%TO.C,K3*%
X141990000Y-88830000D03*
D22*
X152150000Y-88830000D03*
X159770000Y-88830000D03*
X157230000Y-81210000D03*
X141990000Y-81210000D03*
%TD*%
D17*
%TO.C,J3*%
X185990000Y-62000000D03*
D18*
X185990000Y-60000000D03*
X185990000Y-58000000D03*
%TD*%
D14*
%TO.C,C15*%
X150990000Y-75330000D03*
X165990000Y-75330000D03*
%TD*%
D22*
%TO.C,K2*%
X85990000Y-81210000D03*
X101230000Y-81210000D03*
X103770000Y-88830000D03*
X96150000Y-88830000D03*
D21*
X85990000Y-88830000D03*
%TD*%
D23*
%TO.C,D7*%
X106990000Y-72330000D03*
D24*
X96830000Y-72330000D03*
%TD*%
D23*
%TO.C,D6*%
X111990000Y-73330000D03*
D24*
X122150000Y-73330000D03*
%TD*%
D14*
%TO.C,C14*%
X130000000Y-52000000D03*
X145000000Y-52000000D03*
%TD*%
D19*
%TO.C,C13*%
X111990000Y-66330000D03*
X121990000Y-66330000D03*
%TD*%
D25*
%TO.C,U2*%
X138240000Y-67880000D03*
G36*
G01*
X143511382Y-63410799D02*
X144110922Y-64235997D01*
G75*
G02*
X143886372Y-65653751I-821152J-596602D01*
G01*
X143886372Y-65653751D01*
G75*
G02*
X142468618Y-65429201I-596602J821152D01*
G01*
X141869078Y-64604003D01*
G75*
G02*
X142093628Y-63186249I821152J596602D01*
G01*
X142093628Y-63186249D01*
G75*
G02*
X143511382Y-63410799I596602J-821152D01*
G01*
G37*
G36*
G01*
X139848613Y-61147079D02*
X140818691Y-61462277D01*
G75*
G02*
X141470361Y-62741251I-313652J-965322D01*
G01*
X141470361Y-62741251D01*
G75*
G02*
X140191387Y-63392921I-965322J313652D01*
G01*
X139221309Y-63077723D01*
G75*
G02*
X138569639Y-61798749I313652J965322D01*
G01*
X138569639Y-61798749D01*
G75*
G02*
X139848613Y-61147079I965322J-313652D01*
G01*
G37*
G36*
G01*
X135611309Y-61462277D02*
X136581387Y-61147079D01*
G75*
G02*
X137860361Y-61798749I313652J-965322D01*
G01*
X137860361Y-61798749D01*
G75*
G02*
X137208691Y-63077723I-965322J-313652D01*
G01*
X136238613Y-63392921D01*
G75*
G02*
X134959639Y-62741251I-313652J965322D01*
G01*
X134959639Y-62741251D01*
G75*
G02*
X135611309Y-61462277I965322J313652D01*
G01*
G37*
G36*
G01*
X132359078Y-64235997D02*
X132958618Y-63410799D01*
G75*
G02*
X134376372Y-63186249I821152J-596602D01*
G01*
X134376372Y-63186249D01*
G75*
G02*
X134600922Y-64604003I-596602J-821152D01*
G01*
X134001382Y-65429201D01*
G75*
G02*
X132583628Y-65653751I-821152J596602D01*
G01*
X132583628Y-65653751D01*
G75*
G02*
X132359078Y-64235997I596602J821152D01*
G01*
G37*
D26*
X132340000Y-67880000D03*
G36*
G01*
X134001382Y-70320799D02*
X134600922Y-71145997D01*
G75*
G02*
X134376372Y-72563751I-821152J-596602D01*
G01*
X134376372Y-72563751D01*
G75*
G02*
X132958618Y-72339201I-596602J821152D01*
G01*
X132359078Y-71514003D01*
G75*
G02*
X132583628Y-70096249I821152J596602D01*
G01*
X132583628Y-70096249D01*
G75*
G02*
X134001382Y-70320799I596602J-821152D01*
G01*
G37*
G36*
G01*
X136238613Y-72357079D02*
X137208691Y-72672277D01*
G75*
G02*
X137860361Y-73951251I-313652J-965322D01*
G01*
X137860361Y-73951251D01*
G75*
G02*
X136581387Y-74602921I-965322J313652D01*
G01*
X135611309Y-74287723D01*
G75*
G02*
X134959639Y-73008749I313652J965322D01*
G01*
X134959639Y-73008749D01*
G75*
G02*
X136238613Y-72357079I965322J-313652D01*
G01*
G37*
G36*
G01*
X139261309Y-72672277D02*
X140231387Y-72357079D01*
G75*
G02*
X141510361Y-73008749I313652J-965322D01*
G01*
X141510361Y-73008749D01*
G75*
G02*
X140858691Y-74287723I-965322J-313652D01*
G01*
X139888613Y-74602921D01*
G75*
G02*
X138609639Y-73951251I-313652J965322D01*
G01*
X138609639Y-73951251D01*
G75*
G02*
X139261309Y-72672277I965322J313652D01*
G01*
G37*
G36*
G01*
X141869078Y-71145997D02*
X142468618Y-70320799D01*
G75*
G02*
X143886372Y-70096249I821152J-596602D01*
G01*
X143886372Y-70096249D01*
G75*
G02*
X144110922Y-71514003I-596602J-821152D01*
G01*
X143511382Y-72339201D01*
G75*
G02*
X142093628Y-72563751I-821152J596602D01*
G01*
X142093628Y-72563751D01*
G75*
G02*
X141869078Y-71145997I596602J821152D01*
G01*
G37*
%TD*%
%TO.C,R14*%
G36*
G01*
X118640000Y-77905000D02*
X118640000Y-80755000D01*
G75*
G02*
X118390000Y-81005000I-250000J0D01*
G01*
X117665000Y-81005000D01*
G75*
G02*
X117415000Y-80755000I0J250000D01*
G01*
X117415000Y-77905000D01*
G75*
G02*
X117665000Y-77655000I250000J0D01*
G01*
X118390000Y-77655000D01*
G75*
G02*
X118640000Y-77905000I0J-250000D01*
G01*
G37*
G36*
G01*
X124565000Y-77905000D02*
X124565000Y-80755000D01*
G75*
G02*
X124315000Y-81005000I-250000J0D01*
G01*
X123590000Y-81005000D01*
G75*
G02*
X123340000Y-80755000I0J250000D01*
G01*
X123340000Y-77905000D01*
G75*
G02*
X123590000Y-77655000I250000J0D01*
G01*
X124315000Y-77655000D01*
G75*
G02*
X124565000Y-77905000I0J-250000D01*
G01*
G37*
%TD*%
D17*
%TO.C,J2*%
X111990000Y-83330000D03*
D18*
X111990000Y-81330000D03*
X111990000Y-79330000D03*
%TD*%
D23*
%TO.C,D5*%
X121990000Y-40330000D03*
D24*
X111830000Y-40330000D03*
%TD*%
D23*
%TO.C,D4*%
X121990000Y-45330000D03*
D24*
X111830000Y-45330000D03*
%TD*%
D23*
%TO.C,D3*%
X121990000Y-60330000D03*
D24*
X111830000Y-60330000D03*
%TD*%
D23*
%TO.C,D2*%
X111990000Y-55330000D03*
D24*
X122150000Y-55330000D03*
%TD*%
D23*
%TO.C,D1*%
X111990000Y-50330000D03*
D24*
X122150000Y-50330000D03*
%TD*%
D19*
%TO.C,C12*%
X106990000Y-66330000D03*
X96990000Y-66330000D03*
%TD*%
D22*
%TO.C,K1*%
X104610000Y-40330000D03*
X104610000Y-55570000D03*
X96990000Y-58110000D03*
X96990000Y-50490000D03*
D21*
X96990000Y-40330000D03*
%TD*%
%TO.C,R9*%
G36*
G01*
X96527500Y-82165000D02*
X96527500Y-85015000D01*
G75*
G02*
X96277500Y-85265000I-250000J0D01*
G01*
X95552500Y-85265000D01*
G75*
G02*
X95302500Y-85015000I0J250000D01*
G01*
X95302500Y-82165000D01*
G75*
G02*
X95552500Y-81915000I250000J0D01*
G01*
X96277500Y-81915000D01*
G75*
G02*
X96527500Y-82165000I0J-250000D01*
G01*
G37*
G36*
G01*
X90602500Y-82165000D02*
X90602500Y-85015000D01*
G75*
G02*
X90352500Y-85265000I-250000J0D01*
G01*
X89627500Y-85265000D01*
G75*
G02*
X89377500Y-85015000I0J250000D01*
G01*
X89377500Y-82165000D01*
G75*
G02*
X89627500Y-81915000I250000J0D01*
G01*
X90352500Y-81915000D01*
G75*
G02*
X90602500Y-82165000I0J-250000D01*
G01*
G37*
%TD*%
%TO.C,R8*%
G36*
G01*
X85575000Y-45425000D02*
X88425000Y-45425000D01*
G75*
G02*
X88675000Y-45675000I0J-250000D01*
G01*
X88675000Y-46400000D01*
G75*
G02*
X88425000Y-46650000I-250000J0D01*
G01*
X85575000Y-46650000D01*
G75*
G02*
X85325000Y-46400000I0J250000D01*
G01*
X85325000Y-45675000D01*
G75*
G02*
X85575000Y-45425000I250000J0D01*
G01*
G37*
G36*
G01*
X85575000Y-51350000D02*
X88425000Y-51350000D01*
G75*
G02*
X88675000Y-51600000I0J-250000D01*
G01*
X88675000Y-52325000D01*
G75*
G02*
X88425000Y-52575000I-250000J0D01*
G01*
X85575000Y-52575000D01*
G75*
G02*
X85325000Y-52325000I0J250000D01*
G01*
X85325000Y-51600000D01*
G75*
G02*
X85575000Y-51350000I250000J0D01*
G01*
G37*
%TD*%
%TO.C,R7*%
G36*
G01*
X57590000Y-84879999D02*
X57590000Y-85780001D01*
G75*
G02*
X57340001Y-86030000I-249999J0D01*
G01*
X56814999Y-86030000D01*
G75*
G02*
X56565000Y-85780001I0J249999D01*
G01*
X56565000Y-84879999D01*
G75*
G02*
X56814999Y-84630000I249999J0D01*
G01*
X57340001Y-84630000D01*
G75*
G02*
X57590000Y-84879999I0J-249999D01*
G01*
G37*
G36*
G01*
X59415000Y-84879999D02*
X59415000Y-85780001D01*
G75*
G02*
X59165001Y-86030000I-249999J0D01*
G01*
X58639999Y-86030000D01*
G75*
G02*
X58390000Y-85780001I0J249999D01*
G01*
X58390000Y-84879999D01*
G75*
G02*
X58639999Y-84630000I249999J0D01*
G01*
X59165001Y-84630000D01*
G75*
G02*
X59415000Y-84879999I0J-249999D01*
G01*
G37*
%TD*%
%TO.C,R6*%
G36*
G01*
X62415000Y-69980000D02*
X59565000Y-69980000D01*
G75*
G02*
X59315000Y-69730000I0J250000D01*
G01*
X59315000Y-69005000D01*
G75*
G02*
X59565000Y-68755000I250000J0D01*
G01*
X62415000Y-68755000D01*
G75*
G02*
X62665000Y-69005000I0J-250000D01*
G01*
X62665000Y-69730000D01*
G75*
G02*
X62415000Y-69980000I-250000J0D01*
G01*
G37*
G36*
G01*
X62415000Y-75905000D02*
X59565000Y-75905000D01*
G75*
G02*
X59315000Y-75655000I0J250000D01*
G01*
X59315000Y-74930000D01*
G75*
G02*
X59565000Y-74680000I250000J0D01*
G01*
X62415000Y-74680000D01*
G75*
G02*
X62665000Y-74930000I0J-250000D01*
G01*
X62665000Y-75655000D01*
G75*
G02*
X62415000Y-75905000I-250000J0D01*
G01*
G37*
%TD*%
D17*
%TO.C,J1*%
X49490000Y-68330000D03*
D18*
X49490000Y-70330000D03*
X49490000Y-72330000D03*
%TD*%
D19*
%TO.C,C11*%
X70990000Y-87830000D03*
X80990000Y-87830000D03*
%TD*%
D14*
%TO.C,C10*%
X49990000Y-84830000D03*
X64990000Y-84830000D03*
%TD*%
D19*
%TO.C,C9*%
X90990000Y-53000000D03*
X90990000Y-45500000D03*
%TD*%
%TO.C,C8*%
G36*
G01*
X57340000Y-80904999D02*
X57340000Y-81755001D01*
G75*
G02*
X57090001Y-82005000I-249999J0D01*
G01*
X56189999Y-82005000D01*
G75*
G02*
X55940000Y-81755001I0J249999D01*
G01*
X55940000Y-80904999D01*
G75*
G02*
X56189999Y-80655000I249999J0D01*
G01*
X57090001Y-80655000D01*
G75*
G02*
X57340000Y-80904999I0J-249999D01*
G01*
G37*
G36*
G01*
X60040000Y-80904999D02*
X60040000Y-81755001D01*
G75*
G02*
X59790001Y-82005000I-249999J0D01*
G01*
X58889999Y-82005000D01*
G75*
G02*
X58640000Y-81755001I0J249999D01*
G01*
X58640000Y-80904999D01*
G75*
G02*
X58889999Y-80655000I249999J0D01*
G01*
X59790001Y-80655000D01*
G75*
G02*
X60040000Y-80904999I0J-249999D01*
G01*
G37*
%TD*%
%TO.C,C7*%
X65990000Y-70330000D03*
X55990000Y-70330000D03*
%TD*%
%TO.C,C5*%
X55990000Y-64330000D03*
X65990000Y-64330000D03*
%TD*%
D20*
%TO.C,C3*%
X66990000Y-58330000D03*
X61990000Y-58330000D03*
%TD*%
D27*
%TO.C,C1*%
X57990000Y-58330000D03*
X55490000Y-58330000D03*
%TD*%
D25*
%TO.C,U1*%
X79240000Y-67880000D03*
G36*
G01*
X84511382Y-63410799D02*
X85110922Y-64235997D01*
G75*
G02*
X84886372Y-65653751I-821152J-596602D01*
G01*
X84886372Y-65653751D01*
G75*
G02*
X83468618Y-65429201I-596602J821152D01*
G01*
X82869078Y-64604003D01*
G75*
G02*
X83093628Y-63186249I821152J596602D01*
G01*
X83093628Y-63186249D01*
G75*
G02*
X84511382Y-63410799I596602J-821152D01*
G01*
G37*
G36*
G01*
X80848613Y-61147079D02*
X81818691Y-61462277D01*
G75*
G02*
X82470361Y-62741251I-313652J-965322D01*
G01*
X82470361Y-62741251D01*
G75*
G02*
X81191387Y-63392921I-965322J313652D01*
G01*
X80221309Y-63077723D01*
G75*
G02*
X79569639Y-61798749I313652J965322D01*
G01*
X79569639Y-61798749D01*
G75*
G02*
X80848613Y-61147079I965322J-313652D01*
G01*
G37*
G36*
G01*
X76611309Y-61462277D02*
X77581387Y-61147079D01*
G75*
G02*
X78860361Y-61798749I313652J-965322D01*
G01*
X78860361Y-61798749D01*
G75*
G02*
X78208691Y-63077723I-965322J-313652D01*
G01*
X77238613Y-63392921D01*
G75*
G02*
X75959639Y-62741251I-313652J965322D01*
G01*
X75959639Y-62741251D01*
G75*
G02*
X76611309Y-61462277I965322J313652D01*
G01*
G37*
G36*
G01*
X73359078Y-64235997D02*
X73958618Y-63410799D01*
G75*
G02*
X75376372Y-63186249I821152J-596602D01*
G01*
X75376372Y-63186249D01*
G75*
G02*
X75600922Y-64604003I-596602J-821152D01*
G01*
X75001382Y-65429201D01*
G75*
G02*
X73583628Y-65653751I-821152J596602D01*
G01*
X73583628Y-65653751D01*
G75*
G02*
X73359078Y-64235997I596602J821152D01*
G01*
G37*
D26*
X73340000Y-67880000D03*
G36*
G01*
X75001382Y-70320799D02*
X75600922Y-71145997D01*
G75*
G02*
X75376372Y-72563751I-821152J-596602D01*
G01*
X75376372Y-72563751D01*
G75*
G02*
X73958618Y-72339201I-596602J821152D01*
G01*
X73359078Y-71514003D01*
G75*
G02*
X73583628Y-70096249I821152J596602D01*
G01*
X73583628Y-70096249D01*
G75*
G02*
X75001382Y-70320799I596602J-821152D01*
G01*
G37*
G36*
G01*
X77238613Y-72357079D02*
X78208691Y-72672277D01*
G75*
G02*
X78860361Y-73951251I-313652J-965322D01*
G01*
X78860361Y-73951251D01*
G75*
G02*
X77581387Y-74602921I-965322J313652D01*
G01*
X76611309Y-74287723D01*
G75*
G02*
X75959639Y-73008749I313652J965322D01*
G01*
X75959639Y-73008749D01*
G75*
G02*
X77238613Y-72357079I965322J-313652D01*
G01*
G37*
G36*
G01*
X80261309Y-72672277D02*
X81231387Y-72357079D01*
G75*
G02*
X82510361Y-73008749I313652J-965322D01*
G01*
X82510361Y-73008749D01*
G75*
G02*
X81858691Y-74287723I-965322J-313652D01*
G01*
X80888613Y-74602921D01*
G75*
G02*
X79609639Y-73951251I-313652J965322D01*
G01*
X79609639Y-73951251D01*
G75*
G02*
X80261309Y-72672277I965322J313652D01*
G01*
G37*
G36*
G01*
X82869078Y-71145997D02*
X83468618Y-70320799D01*
G75*
G02*
X84886372Y-70096249I821152J-596602D01*
G01*
X84886372Y-70096249D01*
G75*
G02*
X85110922Y-71514003I-596602J-821152D01*
G01*
X84511382Y-72339201D01*
G75*
G02*
X83093628Y-72563751I-821152J596602D01*
G01*
X83093628Y-72563751D01*
G75*
G02*
X82869078Y-71145997I596602J821152D01*
G01*
G37*
%TD*%
D14*
%TO.C,C4*%
X81990000Y-40330000D03*
X81990000Y-55330000D03*
%TD*%
M02*
